<?xml version="1.0" encoding="UTF-8" standalone="no"?>
<svg
   width="2.9654in"
   height="1.1799999in"
   viewBox="0 0 889.61998 353.99999"
   version="1.1"
   id="svg3"
   sodipodi:docname="english.svg"
   inkscape:version="1.1.2 (b8e25be833, 2022-02-05)"
   xmlns:inkscape="http://www.inkscape.org/namespaces/inkscape"
   xmlns:sodipodi="http://sodipodi.sourceforge.net/DTD/sodipodi-0.dtd"
   xmlns="http://www.w3.org/2000/svg"
   xmlns:svg="http://www.w3.org/2000/svg">
  <defs
     id="defs7" />
  <sodipodi:namedview
     id="namedview5"
     pagecolor="#ffffff"
     bordercolor="#666666"
     borderopacity="1.0"
     inkscape:pageshadow="2"
     inkscape:pageopacity="0.0"
     inkscape:pagecheckerboard="0"
     inkscape:document-units="in"
     showgrid="false"
     inkscape:zoom="2.0377604"
     inkscape:cx="158.26198"
     inkscape:cy="89.068372"
     inkscape:window-width="1920"
     inkscape:window-height="1001"
     inkscape:window-x="-9"
     inkscape:window-y="-9"
     inkscape:window-maximized="1"
     inkscape:current-layer="svg3" />
  <path
     id="Path"
     fill="none"
     stroke="#000000"
     stroke-width="1"
     d="m 33.72,49.5 c 0,0 -29.44,0 -29.44,0 0,0 0,-47 0,-47 0,0 6.19,0 6.19,0 0,0 0,42 0,42 0,0 23.25,0 23.25,0 0,0 0,5 0,5 z m 33.22,0 c 0,0 -5.85,0 -5.85,0 0,0 0,-3.69 0,-3.69 -0.52,0.36 -1.22,0.85 -2.11,1.49 -0.88,0.63 -1.74,1.14 -2.57,1.51 -0.99,0.48 -2.11,0.88 -3.38,1.21 -1.27,0.32 -2.76,0.48 -4.47,0.48 -3.15,0 -5.81,-1.04 -8,-3.11 -2.19,-2.08 -3.28,-4.74 -3.28,-7.97 0,-2.64 0.57,-4.78 1.7,-6.4 1.14,-1.64 2.76,-2.93 4.86,-3.86 2.13,-0.94 4.68,-1.57 7.66,-1.91 2.98,-0.33 6.17,-0.58 9.59,-0.75 0,0 0,-0.97 0,-0.97 0,-1.41 -0.23,-2.59 -0.7,-3.53 -0.47,-0.94 -1.14,-1.67 -2.02,-2.2 -0.83,-0.51 -1.83,-0.85 -3,-1.03 -1.16,-0.18 -2.38,-0.27 -3.65,-0.27 -1.55,0 -3.26,0.26 -5.16,0.78 -1.9,0.51 -3.85,1.25 -5.87,2.22 0,0 -0.32,0 -0.32,0 0,0 0,-6.31 0,-6.31 1.15,-0.33 2.8,-0.7 4.97,-1.1 2.17,-0.39 4.3,-0.59 6.41,-0.59 2.46,0 4.6,0.21 6.42,0.62 1.82,0.41 3.4,1.11 4.74,2.08 1.31,0.97 2.31,2.22 3,3.75 0.68,1.53 1.03,3.43 1.03,5.69 0,0 0,23.86 0,23.86 z m -5.85,-8.16 c 0,0 0,-9.84 0,-9.84 -1.79,0.11 -3.9,0.27 -6.33,0.48 -2.43,0.22 -4.35,0.52 -5.76,0.91 -1.69,0.49 -3.06,1.25 -4.09,2.27 -1.05,1.02 -1.57,2.43 -1.57,4.23 0,2.02 0.6,3.55 1.81,4.58 1.21,1.02 3.06,1.53 5.54,1.53 2.06,0 3.94,-0.41 5.65,-1.22 1.71,-0.81 3.29,-1.79 4.75,-2.94 z M 99.59,21.5 c 0,0 -0.31,0 -0.31,0 -0.87,-0.35 -1.73,-0.61 -2.55,-0.77 -0.82,-0.15 -1.79,-0.23 -2.92,-0.23 -1.81,0 -3.56,0.4 -5.25,1.2 -1.69,0.8 -3.31,1.83 -4.87,3.1 0,0 0,24.7 0,24.7 0,0 -5.88,0 -5.88,0 0,0 0,-35 0,-35 0,0 5.88,0 5.88,0 0,0 0,5.17 0,5.17 2.33,-1.88 4.39,-3.22 6.17,-4 1.78,-0.78 3.6,-1.17 5.45,-1.17 1.02,0 1.76,0.03 2.22,0.09 0.46,0.06 1.14,0.16 2.06,0.32 0,0 0,6.59 0,6.59 z m 31.35,28 c 0,0 -5.85,0 -5.85,0 0,0 0,-3.69 0,-3.69 -0.52,0.36 -1.22,0.85 -2.11,1.49 -0.88,0.63 -1.74,1.14 -2.57,1.51 -0.99,0.48 -2.11,0.88 -3.38,1.21 -1.27,0.32 -2.76,0.48 -4.47,0.48 -3.15,0 -5.81,-1.04 -8,-3.11 -2.19,-2.08 -3.28,-4.74 -3.28,-7.97 0,-2.64 0.57,-4.78 1.7,-6.4 1.14,-1.64 2.76,-2.93 4.86,-3.86 2.13,-0.94 4.68,-1.57 7.66,-1.91 2.98,-0.33 6.17,-0.58 9.59,-0.75 0,0 0,-0.97 0,-0.97 0,-1.41 -0.23,-2.59 -0.7,-3.53 -0.47,-0.94 -1.14,-1.67 -2.02,-2.2 -0.83,-0.51 -1.83,-0.85 -3,-1.03 -1.16,-0.18 -2.38,-0.27 -3.65,-0.27 -1.55,0 -3.26,0.26 -5.16,0.78 -1.9,0.51 -3.85,1.25 -5.87,2.22 0,0 -0.32,0 -0.32,0 0,0 0,-6.31 0,-6.31 1.15,-0.33 2.8,-0.7 4.97,-1.1 2.17,-0.39 4.3,-0.59 6.41,-0.59 2.46,0 4.6,0.21 6.42,0.62 1.82,0.41 3.4,1.11 4.74,2.08 1.31,0.97 2.31,2.22 3,3.75 0.68,1.53 1.03,3.43 1.03,5.69 0,0 0,23.86 0,23.86 z m -5.85,-8.16 c 0,0 0,-9.84 0,-9.84 -1.79,0.11 -3.9,0.27 -6.33,0.48 -2.43,0.22 -4.35,0.52 -5.76,0.91 -1.69,0.49 -3.06,1.25 -4.09,2.27 -1.05,1.02 -1.57,2.43 -1.57,4.23 0,2.02 0.6,3.55 1.81,4.58 1.21,1.02 3.06,1.53 5.54,1.53 2.06,0 3.94,-0.41 5.65,-1.22 1.71,-0.81 3.29,-1.79 4.75,-2.94 z M 148.12,8.5 c 0,0 -6.62,0 -6.62,0 0,0 0,-6 0,-6 0,0 6.62,0 6.62,0 0,0 0,6 0,6 z m -0.37,41 c 0,0 -5.88,0 -5.88,0 0,0 0,-35 0,-35 0,0 5.88,0 5.88,0 0,0 0,35 0,35 z m 42.78,-17.77 c 0,2.93 -0.41,5.57 -1.23,7.91 -0.83,2.34 -1.94,4.31 -3.33,5.91 -1.48,1.65 -3.11,2.88 -4.88,3.72 -1.77,0.82 -3.72,1.23 -5.84,1.23 -1.98,0 -3.71,-0.24 -5.19,-0.72 -1.48,-0.47 -2.94,-1.1 -4.37,-1.89 0,0 -0.38,1.61 -0.38,1.61 0,0 -5.5,0 -5.5,0 0,0 0,-49 0,-49 0,0 5.88,0 5.88,0 0,0 0,17.64 0,17.64 1.64,-1.35 3.39,-2.46 5.25,-3.33 1.85,-0.87 3.93,-1.31 6.25,-1.31 4.12,0 7.38,1.59 9.76,4.78 2.38,3.18 3.58,7.67 3.58,13.45 z m -6.06,-0.01 c 0,-4.33 -0.69,-7.62 -2.06,-9.86 -1.38,-2.24 -3.6,-3.36 -6.66,-3.36 -1.71,0 -3.44,0.39 -5.19,1.16 -1.75,0.77 -3.37,1.76 -4.87,2.96 0,0 0,20.8 0,20.8 1.66,0.78 3.09,1.33 4.29,1.63 1.2,0.3 2.56,0.45 4.08,0.45 3.25,0 5.8,-1.11 7.64,-3.33 1.85,-2.22 2.77,-5.7 2.77,-10.45 z m 73.75,14.73 c -1.15,0.48 -2.19,0.94 -3.11,1.36 -0.93,0.42 -2.14,0.86 -3.64,1.31 -1.28,0.38 -2.65,0.7 -4.14,0.97 -1.5,0.27 -3.14,0.41 -4.92,0.41 -3.38,0 -6.45,-0.48 -9.21,-1.44 -2.76,-0.97 -5.16,-2.47 -7.2,-4.53 -2,-2.01 -3.56,-4.57 -4.69,-7.67 -1.12,-3.1 -1.69,-6.71 -1.69,-10.81 0,-3.9 0.54,-7.38 1.63,-10.44 1.08,-3.07 2.64,-5.67 4.69,-7.8 1.97,-2.05 4.36,-3.61 7.17,-4.69 2.8,-1.08 5.91,-1.62 9.33,-1.62 2.5,0 4.99,0.29 7.48,0.88 2.49,0.58 5.25,1.6 8.3,3.06 0,0 0,7.06 0,7.06 0,0 -0.47,0 -0.47,0 -2.56,-2.09 -5.11,-3.61 -7.63,-4.56 -2.52,-0.96 -5.21,-1.44 -8.09,-1.44 -2.36,0 -4.48,0.4 -6.36,1.19 -1.89,0.78 -3.57,2.01 -5.05,3.67 -1.43,1.62 -2.55,3.68 -3.36,6.16 -0.8,2.46 -1.2,5.32 -1.2,8.56 0,3.4 0.44,6.32 1.33,8.76 0.88,2.44 2.02,4.43 3.42,5.96 1.46,1.6 3.16,2.79 5.11,3.56 1.95,0.76 4,1.14 6.17,1.14 2.98,0 5.77,-0.5 8.38,-1.5 2.6,-1 5.04,-2.5 7.31,-4.5 0,0 0.44,0 0.44,0 0,0 0,6.95 0,6.95 z m 14.53,3.05 c 0,0 -5.88,0 -5.88,0 0,0 0,-49 0,-49 0,0 5.88,0 5.88,0 0,0 0,49 0,49 z m 18.37,-41 c 0,0 -6.62,0 -6.62,0 0,0 0,-6 0,-6 0,0 6.62,0 6.62,0 0,0 0,6 0,6 z m -0.37,41 c 0,0 -5.88,0 -5.88,0 0,0 0,-35 0,-35 0,0 5.88,0 5.88,0 0,0 0,35 0,35 z m 41.25,0 c 0,0 -5.88,0 -5.88,0 0,0 0,-20.34 0,-20.34 0,-1.65 -0.09,-3.19 -0.28,-4.63 -0.19,-1.44 -0.53,-2.56 -1.03,-3.37 -0.52,-0.9 -1.27,-1.57 -2.25,-2 -0.98,-0.44 -2.25,-0.66 -3.81,-0.66 -1.61,0 -3.28,0.41 -5.03,1.22 -1.75,0.81 -3.43,1.84 -5.03,3.09 0,0 0,26.69 0,26.69 0,0 -5.88,0 -5.88,0 0,0 0,-35 0,-35 0,0 5.88,0 5.88,0 0,0 0,3.86 0,3.86 1.83,-1.52 3.72,-2.71 5.68,-3.56 1.96,-0.87 3.97,-1.3 6.04,-1.3 3.76,0 6.64,1.14 8.62,3.42 1.98,2.28 2.97,5.56 2.97,9.85 0,0 0,22.73 0,22.73 z m 17.12,-41 c 0,0 -6.62,0 -6.62,0 0,0 0,-6 0,-6 0,0 6.62,0 6.62,0 0,0 0,6 0,6 z m -0.37,41 c 0,0 -5.88,0 -5.88,0 0,0 0,-35 0,-35 0,0 5.88,0 5.88,0 0,0 0,35 0,35 z m 37.87,-1.83 c -1.96,0.9 -3.82,1.59 -5.57,2.08 -1.77,0.5 -3.64,0.75 -5.61,0.75 -2.53,0 -4.84,-0.38 -6.94,-1.12 -2.11,-0.76 -3.91,-1.89 -5.41,-3.41 -1.52,-1.52 -2.7,-3.44 -3.53,-5.77 -0.83,-2.32 -1.25,-5.03 -1.25,-8.14 0,-5.78 1.57,-10.31 4.7,-13.61 3.14,-3.3 7.28,-4.95 12.43,-4.95 2,0 3.96,0.27 5.89,0.81 1.92,0.53 3.69,1.19 5.29,1.96 0,0 0,6.23 0,6.23 0,0 -0.31,0 -0.31,0 -1.79,-1.28 -3.64,-2.27 -5.55,-2.95 -1.9,-0.7 -3.76,-1.05 -5.57,-1.05 -3.34,0 -5.97,1.15 -7.89,3.45 -1.93,2.3 -2.89,5.67 -2.89,10.11 0,4.33 0.94,7.65 2.82,9.97 1.89,2.31 4.54,3.47 7.96,3.47 1.18,0 2.39,-0.14 3.62,-0.42 1.23,-0.29 2.33,-0.67 3.31,-1.13 0.86,-0.4 1.66,-0.83 2.41,-1.28 0.75,-0.46 1.34,-0.85 1.78,-1.17 0,0 0.31,0 0.31,0 0,0 0,6.17 0,6.17 z m 34.32,1.83 c 0,0 -5.85,0 -5.85,0 0,0 0,-3.69 0,-3.69 -0.52,0.36 -1.22,0.85 -2.11,1.49 -0.88,0.63 -1.74,1.14 -2.57,1.51 -0.99,0.48 -2.11,0.88 -3.38,1.21 -1.27,0.32 -2.76,0.48 -4.47,0.48 -3.15,0 -5.81,-1.04 -8,-3.11 -2.19,-2.08 -3.28,-4.74 -3.28,-7.97 0,-2.64 0.57,-4.78 1.7,-6.4 1.14,-1.64 2.76,-2.93 4.86,-3.86 2.13,-0.94 4.68,-1.57 7.66,-1.91 2.98,-0.33 6.17,-0.58 9.59,-0.75 0,0 0,-0.97 0,-0.97 0,-1.41 -0.23,-2.59 -0.7,-3.53 -0.47,-0.94 -1.14,-1.67 -2.02,-2.2 -0.83,-0.51 -1.83,-0.85 -3,-1.03 -1.16,-0.18 -2.38,-0.27 -3.65,-0.27 -1.55,0 -3.26,0.26 -5.16,0.78 -1.9,0.51 -3.85,1.25 -5.87,2.22 0,0 -0.32,0 -0.32,0 0,0 0,-6.31 0,-6.31 1.15,-0.33 2.8,-0.7 4.97,-1.1 2.17,-0.39 4.3,-0.59 6.41,-0.59 2.46,0 4.6,0.21 6.42,0.62 1.82,0.41 3.4,1.11 4.74,2.08 1.31,0.97 2.31,2.22 3,3.75 0.68,1.53 1.03,3.43 1.03,5.69 0,0 0,23.86 0,23.86 z m -5.85,-8.16 c 0,0 0,-9.84 0,-9.84 -1.79,0.11 -3.9,0.27 -6.33,0.48 -2.43,0.22 -4.35,0.52 -5.76,0.91 -1.69,0.49 -3.06,1.25 -4.09,2.27 -1.05,1.02 -1.57,2.43 -1.57,4.23 0,2.02 0.6,3.55 1.81,4.58 1.21,1.02 3.06,1.53 5.54,1.53 2.06,0 3.94,-0.41 5.65,-1.22 1.71,-0.81 3.29,-1.79 4.75,-2.94 z m 22.66,8.16 c 0,0 -5.88,0 -5.88,0 0,0 0,-49 0,-49 0,0 5.88,0 5.88,0 0,0 0,49 0,49 z m 63.97,0 c 0,0 -29.44,0 -29.44,0 0,0 0,-47 0,-47 0,0 6.19,0 6.19,0 0,0 0,42 0,42 0,0 23.25,0 23.25,0 0,0 0,5 0,5 z m 33.22,0 c 0,0 -5.85,0 -5.85,0 0,0 0,-3.69 0,-3.69 -0.52,0.36 -1.22,0.85 -2.11,1.49 -0.88,0.63 -1.74,1.14 -2.57,1.51 -0.99,0.48 -2.11,0.88 -3.38,1.21 -1.27,0.32 -2.76,0.48 -4.47,0.48 -3.15,0 -5.81,-1.04 -8,-3.11 -2.19,-2.08 -3.28,-4.74 -3.28,-7.97 0,-2.64 0.57,-4.78 1.7,-6.4 1.14,-1.64 2.76,-2.93 4.86,-3.86 2.13,-0.94 4.68,-1.57 7.66,-1.91 2.98,-0.33 6.17,-0.58 9.59,-0.75 0,0 0,-0.97 0,-0.97 0,-1.41 -0.23,-2.59 -0.7,-3.53 -0.47,-0.94 -1.14,-1.67 -2.02,-2.2 -0.83,-0.51 -1.83,-0.85 -3,-1.03 -1.16,-0.18 -2.38,-0.27 -3.65,-0.27 -1.55,0 -3.26,0.26 -5.16,0.78 -1.9,0.51 -3.85,1.25 -5.87,2.22 0,0 -0.32,0 -0.32,0 0,0 0,-6.31 0,-6.31 1.15,-0.33 2.8,-0.7 4.97,-1.1 2.17,-0.39 4.3,-0.59 6.41,-0.59 2.46,0 4.6,0.21 6.42,0.62 1.82,0.41 3.4,1.11 4.74,2.08 1.31,0.97 2.31,2.22 3,3.75 0.68,1.53 1.03,3.43 1.03,5.69 0,0 0,23.86 0,23.86 z m -5.85,-8.16 c 0,0 0,-9.84 0,-9.84 -1.79,0.11 -3.9,0.27 -6.33,0.48 -2.43,0.22 -4.35,0.52 -5.76,0.91 -1.69,0.49 -3.06,1.25 -4.09,2.27 -1.05,1.02 -1.57,2.43 -1.57,4.23 0,2.02 0.6,3.55 1.81,4.58 1.21,1.02 3.06,1.53 5.54,1.53 2.06,0 3.94,-0.41 5.65,-1.22 1.71,-0.81 3.29,-1.79 4.75,-2.94 z m 47.44,-9.61 c 0,2.93 -0.41,5.57 -1.23,7.91 -0.83,2.34 -1.94,4.31 -3.33,5.91 -1.48,1.65 -3.11,2.88 -4.88,3.72 -1.77,0.82 -3.72,1.23 -5.84,1.23 -1.98,0 -3.71,-0.24 -5.19,-0.72 -1.48,-0.47 -2.94,-1.1 -4.37,-1.89 0,0 -0.38,1.61 -0.38,1.61 0,0 -5.5,0 -5.5,0 0,0 0,-49 0,-49 0,0 5.88,0 5.88,0 0,0 0,17.64 0,17.64 1.64,-1.35 3.39,-2.46 5.25,-3.33 1.85,-0.87 3.93,-1.31 6.25,-1.31 4.12,0 7.38,1.59 9.76,4.78 2.38,3.18 3.58,7.67 3.58,13.45 z m -6.06,-0.01 c 0,-4.33 -0.69,-7.62 -2.06,-9.86 -1.38,-2.24 -3.6,-3.36 -6.66,-3.36 -1.71,0 -3.44,0.39 -5.19,1.16 -1.75,0.77 -3.37,1.76 -4.87,2.96 0,0 0,20.8 0,20.8 1.66,0.78 3.09,1.33 4.29,1.63 1.2,0.3 2.56,0.45 4.08,0.45 3.25,0 5.8,-1.11 7.64,-3.33 1.85,-2.22 2.77,-5.7 2.77,-10.45 z m 45.09,0.3 c 0,5.71 -1.46,10.21 -4.37,13.53 -2.92,3.3 -6.83,4.95 -11.72,4.95 -4.94,0 -8.86,-1.65 -11.77,-4.95 -2.9,-3.32 -4.36,-7.82 -4.36,-13.53 0,-5.71 1.46,-10.22 4.36,-13.54 2.91,-3.32 6.83,-4.98 11.77,-4.98 4.89,0 8.8,1.66 11.72,4.98 2.91,3.32 4.37,7.83 4.37,13.54 z m -6.06,0 c 0,-4.57 -0.89,-7.97 -2.66,-10.19 -1.77,-2.22 -4.23,-3.33 -7.37,-3.33 -3.19,0 -5.67,1.11 -7.42,3.33 -1.77,2.22 -2.64,5.62 -2.64,10.19 0,4.41 0.88,7.77 2.65,10.06 1.77,2.28 4.24,3.42 7.41,3.42 3.12,0 5.58,-1.13 7.36,-3.39 1.78,-2.27 2.67,-5.63 2.67,-10.09 z M 646.59,21.5 c 0,0 -0.31,0 -0.31,0 -0.87,-0.35 -1.73,-0.61 -2.55,-0.77 -0.82,-0.15 -1.79,-0.23 -2.92,-0.23 -1.81,0 -3.56,0.4 -5.25,1.2 -1.69,0.8 -3.31,1.83 -4.87,3.1 0,0 0,24.7 0,24.7 0,0 -5.88,0 -5.88,0 0,0 0,-35 0,-35 0,0 5.88,0 5.88,0 0,0 0,5.17 0,5.17 2.33,-1.88 4.39,-3.22 6.17,-4 1.78,-0.78 3.6,-1.17 5.45,-1.17 1.02,0 1.76,0.03 2.22,0.09 0.46,0.06 1.14,0.16 2.06,0.32 0,0 0,6.59 0,6.59 z m 31.35,28 c 0,0 -5.85,0 -5.85,0 0,0 0,-3.69 0,-3.69 -0.52,0.36 -1.22,0.85 -2.11,1.49 -0.88,0.63 -1.74,1.14 -2.57,1.51 -0.99,0.48 -2.11,0.88 -3.38,1.21 -1.27,0.32 -2.76,0.48 -4.47,0.48 -3.15,0 -5.81,-1.04 -8,-3.11 -2.19,-2.08 -3.28,-4.74 -3.28,-7.97 0,-2.64 0.57,-4.78 1.7,-6.4 1.14,-1.64 2.76,-2.93 4.86,-3.86 2.13,-0.94 4.68,-1.57 7.66,-1.91 2.98,-0.33 6.17,-0.58 9.59,-0.75 0,0 0,-0.97 0,-0.97 0,-1.41 -0.23,-2.59 -0.7,-3.53 -0.47,-0.94 -1.14,-1.67 -2.02,-2.2 -0.83,-0.51 -1.83,-0.85 -3,-1.03 -1.16,-0.18 -2.38,-0.27 -3.65,-0.27 -1.55,0 -3.26,0.26 -5.16,0.78 -1.9,0.51 -3.85,1.25 -5.87,2.22 0,0 -0.32,0 -0.32,0 0,0 0,-6.31 0,-6.31 1.15,-0.33 2.8,-0.7 4.97,-1.1 2.17,-0.39 4.3,-0.59 6.41,-0.59 2.46,0 4.6,0.21 6.42,0.62 1.82,0.41 3.4,1.11 4.74,2.08 1.31,0.97 2.31,2.22 3,3.75 0.68,1.53 1.03,3.43 1.03,5.69 0,0 0,23.86 0,23.86 z m -5.85,-8.16 c 0,0 0,-9.84 0,-9.84 -1.79,0.11 -3.9,0.27 -6.33,0.48 -2.43,0.22 -4.35,0.52 -5.76,0.91 -1.69,0.49 -3.06,1.25 -4.09,2.27 -1.05,1.02 -1.57,2.43 -1.57,4.23 0,2.02 0.6,3.55 1.81,4.58 1.21,1.02 3.06,1.53 5.54,1.53 2.06,0 3.94,-0.41 5.65,-1.22 1.71,-0.81 3.29,-1.79 4.75,-2.94 z m 34.85,8.21 c -1.11,0.28 -2.31,0.5 -3.61,0.68 -1.31,0.18 -2.47,0.27 -3.49,0.27 -3.56,0 -6.27,-0.97 -8.12,-2.91 -1.86,-1.93 -2.78,-5.04 -2.78,-9.32 0,0 0,-18.77 0,-18.77 0,0 -3.97,0 -3.97,0 0,0 0,-5 0,-5 0,0 3.97,0 3.97,0 0,0 0,-10 0,-10 0,0 5.87,0 5.87,0 0,0 0,10 0,10 0,0 12.13,0 12.13,0 0,0 0,5 0,5 0,0 -12.13,0 -12.13,0 0,0 0,16.22 0,16.22 0,1.87 0.04,3.32 0.13,4.37 0.08,1.06 0.37,2.04 0.87,2.96 0.46,0.85 1.09,1.48 1.89,1.87 0.8,0.39 2.03,0.58 3.67,0.58 0.96,0 1.96,-0.12 3,-0.38 1.04,-0.24 1.79,-0.45 2.25,-0.62 0,0 0.32,0 0.32,0 0,0 0,5.05 0,5.05 z m 36.62,-17.53 c 0,5.71 -1.46,10.21 -4.37,13.53 -2.92,3.3 -6.83,4.95 -11.72,4.95 -4.94,0 -8.86,-1.65 -11.77,-4.95 -2.9,-3.32 -4.36,-7.82 -4.36,-13.53 0,-5.71 1.46,-10.22 4.36,-13.54 2.91,-3.32 6.83,-4.98 11.77,-4.98 4.89,0 8.8,1.66 11.72,4.98 2.91,3.32 4.37,7.83 4.37,13.54 z m -6.06,0 c 0,-4.57 -0.89,-7.97 -2.66,-10.19 -1.77,-2.22 -4.23,-3.33 -7.37,-3.33 -3.19,0 -5.67,1.11 -7.42,3.33 -1.77,2.22 -2.64,5.62 -2.64,10.19 0,4.41 0.88,7.77 2.65,10.06 1.77,2.28 4.24,3.42 7.41,3.42 3.12,0 5.58,-1.13 7.36,-3.39 1.78,-2.27 2.67,-5.63 2.67,-10.09 z M 774.59,21.5 c 0,0 -0.31,0 -0.31,0 -0.87,-0.35 -1.73,-0.61 -2.55,-0.77 -0.82,-0.15 -1.79,-0.23 -2.92,-0.23 -1.81,0 -3.56,0.4 -5.25,1.2 -1.69,0.8 -3.31,1.83 -4.87,3.1 0,0 0,24.7 0,24.7 0,0 -5.88,0 -5.88,0 0,0 0,-35 0,-35 0,0 5.88,0 5.88,0 0,0 0,5.17 0,5.17 2.33,-1.88 4.39,-3.22 6.17,-4 1.78,-0.78 3.6,-1.17 5.45,-1.17 1.02,0 1.76,0.03 2.22,0.09 0.46,0.06 1.14,0.16 2.06,0.32 0,0 0,6.59 0,6.59 z m 35.41,-7 c 0,0 -20.38,48 -20.38,48 0,0 -6.28,0 -6.28,0 0,0 6.5,-14.62 6.5,-14.62 0,0 -13.9,-33.38 -13.9,-33.38 0,0 6.37,0 6.37,0 0,0 10.72,25.88 10.72,25.88 0,0 10.81,-25.88 10.81,-25.88 0,0 6.16,0 6.16,0 z M 26.17,79.92 c 1.31,1.47 2.31,3.27 3,5.39 0.7,2.12 1.05,4.52 1.05,7.21 0,2.68 -0.36,5.09 -1.07,7.21 -0.71,2.13 -1.7,3.9 -2.98,5.32 -1.31,1.48 -2.87,2.59 -4.67,3.34 -1.79,0.74 -3.85,1.11 -6.16,1.11 -2.25,0 -4.29,-0.38 -6.14,-1.14 C 7.37,107.6 5.8,106.5 4.51,105.05 3.22,103.6 2.23,101.82 1.53,99.72 0.84,97.62 0.5,95.21 0.5,92.52 0.5,89.85 0.84,87.46 1.53,85.36 2.22,83.25 3.22,81.43 4.55,79.92 5.8,78.5 7.37,77.4 9.23,76.64 c 1.88,-0.76 3.91,-1.14 6.11,-1.14 2.29,0 4.35,0.39 6.17,1.16 1.84,0.76 3.39,1.85 4.66,3.26 z m -0.37,12.6 c 0,-4.16 -0.94,-7.37 -2.8,-9.63 -1.87,-2.26 -4.41,-3.39 -7.63,-3.39 -3.26,0 -5.82,1.13 -7.67,3.39 -1.85,2.26 -2.78,5.47 -2.78,9.63 0,4.19 0.94,7.41 2.83,9.64 1.89,2.23 4.44,3.34 7.62,3.34 3.18,0 5.71,-1.11 7.6,-3.34 1.88,-2.23 2.83,-5.45 2.83,-9.64 z m 32.32,3.78 c 0,2.02 -0.28,3.86 -0.84,5.53 -0.55,1.67 -1.34,3.08 -2.36,4.23 -0.95,1.1 -2.06,1.94 -3.34,2.53 -1.28,0.61 -2.64,0.91 -4.07,0.91 -1.25,0 -2.38,-0.14 -3.39,-0.42 -1.01,-0.28 -2.04,-0.72 -3.07,-1.31 0,0 0,9.73 0,9.73 0,0 -4.05,0 -4.05,0 0,0 0,-33 0,-33 0,0 4.05,0 4.05,0 0,0 0,2.28 0,2.28 1.07,-0.92 2.27,-1.7 3.6,-2.33 1.35,-0.63 2.78,-0.95 4.3,-0.95 2.9,0 5.15,1.13 6.75,3.39 1.62,2.26 2.42,5.4 2.42,9.41 z m -4.17,0 c 0,-2.95 -0.49,-5.15 -1.48,-6.61 -0.99,-1.46 -2.51,-2.19 -4.55,-2.19 -1.17,0 -2.34,0.26 -3.51,0.77 -1.17,0.51 -2.29,1.18 -3.36,2.01 0,0 0,13.86 0,13.86 1.14,0.53 2.12,0.89 2.95,1.08 0.82,0.19 1.75,0.28 2.8,0.28 2.25,0 4,-0.77 5.26,-2.31 1.26,-1.55 1.89,-3.85 1.89,-6.89 z m 31.17,0 c 0,2.02 -0.28,3.86 -0.84,5.53 -0.55,1.67 -1.34,3.08 -2.36,4.23 -0.95,1.1 -2.06,1.94 -3.34,2.53 -1.28,0.61 -2.64,0.91 -4.07,0.91 -1.25,0 -2.38,-0.14 -3.39,-0.42 -1.01,-0.28 -2.04,-0.72 -3.07,-1.31 0,0 0,9.73 0,9.73 0,0 -4.05,0 -4.05,0 0,0 0,-33 0,-33 0,0 4.05,0 4.05,0 0,0 0,2.28 0,2.28 1.07,-0.92 2.27,-1.7 3.6,-2.33 1.35,-0.63 2.78,-0.95 4.3,-0.95 2.9,0 5.15,1.13 6.75,3.39 1.62,2.26 2.42,5.4 2.42,9.41 z m -4.17,0 c 0,-2.95 -0.49,-5.15 -1.48,-6.61 -0.99,-1.46 -2.51,-2.19 -4.55,-2.19 -1.17,0 -2.34,0.26 -3.51,0.77 -1.17,0.51 -2.29,1.18 -3.36,2.01 0,0 0,13.86 0,13.86 1.14,0.53 2.12,0.89 2.95,1.08 0.82,0.19 1.75,0.28 2.8,0.28 2.25,0 4,-0.77 5.26,-2.31 1.26,-1.55 1.89,-3.85 1.89,-6.89 z m 30.5,0.22 c 0,4.01 -1.01,7.18 -3.01,9.5 -2,2.32 -4.69,3.48 -8.05,3.48 -3.4,0 -6.09,-1.16 -8.09,-3.48 -2,-2.32 -2.99,-5.49 -2.99,-9.5 0,-4.02 0.99,-7.2 2.99,-9.52 2,-2.33 4.69,-3.5 8.09,-3.5 3.36,0 6.05,1.17 8.05,3.5 2,2.32 3.01,5.5 3.01,9.52 z m -4.15,0 c 0,-3.06 -0.61,-5.32 -1.83,-6.8 -1.22,-1.48 -2.91,-2.22 -5.06,-2.22 -2.2,0 -3.91,0.74 -5.11,2.22 -1.22,1.48 -1.82,3.74 -1.82,6.8 0,2.94 0.61,5.18 1.83,6.7 1.22,1.52 2.92,2.28 5.1,2.28 2.14,0 3.82,-0.75 5.04,-2.27 1.23,-1.5 1.85,-3.75 1.85,-6.71 z m 27.85,5.23 c 0,2.26 -0.9,4.12 -2.71,5.58 -1.82,1.44 -4.29,2.17 -7.43,2.17 -1.78,0 -3.41,-0.23 -4.9,-0.69 -1.48,-0.44 -2.72,-0.93 -3.72,-1.47 0,0 0,-4.84 0,-4.84 0,0 0.22,0 0.22,0 1.27,1.22 2.69,2.2 4.25,2.92 1.56,0.72 3.06,1.08 4.5,1.08 1.77,0 3.15,-0.34 4.15,-1.02 1.01,-0.67 1.52,-1.74 1.52,-3.2 0,-0.98 -0.27,-1.72 -0.81,-2.22 -0.56,-0.5 -1.6,-0.92 -3.14,-1.28 -0.58,-0.13 -1.33,-0.29 -2.25,-0.47 -0.93,-0.17 -1.78,-0.36 -2.53,-0.58 -2.11,-0.57 -3.61,-1.41 -4.49,-2.53 -0.87,-1.12 -1.31,-2.5 -1.31,-4.12 0,-1.02 0.2,-1.99 0.61,-2.89 0.4,-0.91 1.02,-1.71 1.86,-2.42 0.8,-0.7 1.82,-1.25 3.06,-1.66 1.24,-0.41 2.62,-0.61 4.16,-0.61 1.43,0 2.89,0.17 4.36,0.52 1.46,0.34 2.68,0.76 3.65,1.25 0,0 0,4.23 0,4.23 0,0 -0.22,0 -0.22,0 -1.03,-0.84 -2.29,-1.55 -3.76,-2.12 -1.47,-0.59 -2.92,-0.88 -4.33,-0.88 -1.48,0 -2.73,0.34 -3.75,1.02 -1.01,0.66 -1.52,1.66 -1.52,3 0,1.02 0.31,1.79 0.93,2.31 0.6,0.52 1.57,0.94 2.92,1.26 0.75,0.18 1.58,0.36 2.5,0.53 0.92,0.18 1.69,0.34 2.31,0.49 1.88,0.45 3.33,1.21 4.34,2.28 1.02,1.11 1.53,2.56 1.53,4.36 z M 145.34,80.5 c 0,0 -4.54,0 -4.54,0 0,0 0,-4 0,-4 0,0 4.54,0 4.54,0 0,0 0,4 0,4 z m -0.25,28 c 0,0 -4.04,0 -4.04,0 0,0 0,-24 0,-24 0,0 4.04,0 4.04,0 0,0 0,24 0,24 z m 20.38,0.2 c -0.76,0.23 -1.59,0.42 -2.49,0.57 -0.9,0.15 -1.69,0.23 -2.39,0.23 -2.45,0 -4.31,-0.69 -5.59,-2.06 -1.27,-1.38 -1.91,-3.58 -1.91,-6.61 0,0 0,-13.33 0,-13.33 0,0 -2.73,0 -2.73,0 0,0 0,-3 0,-3 0,0 2.73,0 2.73,0 0,0 0,-7 0,-7 0,0 4.03,0 4.03,0 0,0 0,7 0,7 0,0 8.35,0 8.35,0 0,0 0,3 0,3 0,0 -8.35,0 -8.35,0 0,0 0,11.23 0,11.23 0,1.3 0.03,2.31 0.08,3.04 0.06,0.73 0.27,1.4 0.61,2.03 0.31,0.59 0.74,1.02 1.3,1.29 0.55,0.28 1.39,0.41 2.53,0.41 0.66,0 1.34,-0.12 2.06,-0.38 0.72,-0.24 1.24,-0.45 1.55,-0.62 0,0 0.22,0 0.22,0 0,0 0,4.2 0,4.2 z m 24.62,-11.2 c 0,0 -17.68,0 -17.68,0 0,1.38 0.21,2.57 0.65,3.59 0.45,1.02 1.06,1.84 1.85,2.49 0.73,0.65 1.61,1.13 2.64,1.45 1.03,0.31 2.16,0.47 3.39,0.47 1.63,0 3.28,-0.22 4.93,-0.67 1.66,-0.45 2.84,-0.89 3.54,-1.33 0,0 0.21,0 0.21,0 0,0 0,4.11 0,4.11 -1.36,0.54 -2.75,0.99 -4.17,1.34 -1.42,0.37 -2.9,0.55 -4.47,0.55 -3.98,0 -7.09,-1.11 -9.33,-3.33 -2.23,-2.22 -3.34,-5.38 -3.34,-9.47 0,-4.05 1.07,-7.26 3.2,-9.64 2.15,-2.37 4.97,-3.56 8.46,-3.56 3.24,0 5.73,1.01 7.48,3.03 1.76,2.02 2.64,4.9 2.64,8.63 0,0 0,2.34 0,2.34 z m -3.94,-4 c -0.01,-1.91 -0.54,-3.38 -1.59,-4.42 -1.05,-1.05 -2.65,-1.58 -4.81,-1.58 -2.16,0 -3.88,0.57 -5.16,1.72 -1.28,1.15 -2.01,2.57 -2.18,4.28 0,0 13.74,0 13.74,0 z m 52.21,-0.97 c 0,2.91 -0.64,5.54 -1.91,7.91 -1.26,2.36 -2.95,4.2 -5.06,5.5 -1.46,0.9 -3.09,1.56 -4.89,1.97 -1.79,0.39 -4.16,0.59 -7.09,0.59 0,0 -8.08,0 -8.08,0 0,0 0,-32 0,-32 0,0 8,0 8,0 3.11,0 5.59,0.23 7.43,0.69 1.85,0.45 3.4,1.06 4.68,1.84 2.17,1.37 3.87,3.18 5.09,5.45 1.22,2.27 1.83,4.95 1.83,8.05 z m -4.45,-0.06 c 0,-2.44 -0.44,-4.49 -1.32,-6.16 -0.87,-1.67 -2.18,-2.99 -3.9,-3.95 -1.27,-0.7 -2.61,-1.18 -4.02,-1.45 -1.42,-0.27 -3.12,-0.41 -5.09,-0.41 0,0 -4,0 -4,0 0,0 0,24 0,24 0,0 4,0 4,0 2.04,0 3.82,-0.14 5.34,-0.44 1.53,-0.29 2.94,-0.83 4.22,-1.62 1.58,-0.99 2.77,-2.29 3.56,-3.91 0.8,-1.61 1.21,-3.63 1.21,-6.06 z m 16.7,16.03 c 0,0 -5.14,0 -5.14,0 0,0 0,-6 0,-6 0,0 5.14,0 5.14,0 0,0 0,6 0,6 z m 34.19,0 c 0,0 -4.25,0 -4.25,0 0,0 0,-15 0,-15 0,0 -15.97,0 -15.97,0 0,0 0,15 0,15 0,0 -4.25,0 -4.25,0 0,0 0,-32 0,-32 0,0 4.25,0 4.25,0 0,0 0,13 0,13 0,0 15.97,0 15.97,0 0,0 0,-13 0,-13 0,0 4.25,0 4.25,0 0,0 0,32 0,32 z m 14.81,0 c 0,0 -5.14,0 -5.14,0 0,0 0,-6 0,-6 0,0 5.14,0 5.14,0 0,0 0,6 0,6 z m 38.25,7.33 c -0.86,0.24 -1.71,0.41 -2.55,0.51 -0.83,0.11 -1.69,0.16 -2.56,0.16 -2.49,0 -4.5,-0.62 -6.02,-1.86 -1.51,-1.23 -2.32,-3 -2.45,-5.3 -0.34,0.07 -0.68,0.11 -1,0.13 -0.32,0.02 -0.64,0.03 -0.94,0.03 -2.25,0 -4.29,-0.38 -6.14,-1.14 -1.83,-0.76 -3.4,-1.86 -4.69,-3.31 -1.29,-1.45 -2.28,-3.23 -2.98,-5.33 -0.69,-2.1 -1.03,-4.51 -1.03,-7.2 0,-2.67 0.34,-5.06 1.03,-7.16 0.69,-2.11 1.69,-3.93 3.02,-5.44 1.25,-1.42 2.82,-2.52 4.68,-3.28 1.88,-0.76 3.91,-1.14 6.11,-1.14 2.29,0 4.35,0.39 6.17,1.16 1.84,0.76 3.39,1.85 4.66,3.26 1.31,1.47 2.31,3.27 3,5.39 0.7,2.12 1.05,4.52 1.05,7.21 0,3.99 -0.81,7.35 -2.41,10.09 -1.59,2.73 -3.73,4.64 -6.42,5.73 0.05,1.32 0.44,2.34 1.16,3.07 0.71,0.72 2.02,1.09 3.9,1.09 0.6,0 1.29,-0.12 2.1,-0.36 0.81,-0.24 1.39,-0.45 1.73,-0.64 0,0 0.58,0 0.58,0 0,0 0,4.33 0,4.33 z M 332.8,92.52 c 0,-4.16 -0.94,-7.37 -2.8,-9.63 -1.87,-2.26 -4.41,-3.39 -7.63,-3.39 -3.26,0 -5.82,1.13 -7.67,3.39 -1.85,2.26 -2.78,5.47 -2.78,9.63 0,4.19 0.94,7.41 2.83,9.64 1.89,2.23 4.44,3.34 7.62,3.34 3.18,0 5.71,-1.11 7.6,-3.34 1.88,-2.23 2.83,-5.45 2.83,-9.64 z m 16.81,15.98 c 0,0 -5.14,0 -5.14,0 0,0 0,-6 0,-6 0,0 5.14,0 5.14,0 0,0 0,6 0,6 z m 49.19,0 c 0,0 -4.25,0 -4.25,0 0,0 0,-15 0,-15 0,0 -15.97,0 -15.97,0 0,0 0,15 0,15 0,0 -4.25,0 -4.25,0 0,0 0,-32 0,-32 0,0 4.25,0 4.25,0 0,0 0,13 0,13 0,0 15.97,0 15.97,0 0,0 0,-13 0,-13 0,0 4.25,0 4.25,0 0,0 0,32 0,32 z m 28.65,-11.98 c 0,4.01 -1.01,7.18 -3.01,9.5 -2,2.32 -4.69,3.48 -8.05,3.48 -3.4,0 -6.09,-1.16 -8.09,-3.48 -2,-2.32 -2.99,-5.49 -2.99,-9.5 0,-4.02 0.99,-7.2 2.99,-9.52 2,-2.33 4.69,-3.5 8.09,-3.5 3.36,0 6.05,1.17 8.05,3.5 2,2.32 3.01,5.5 3.01,9.52 z m -4.15,0 c 0,-3.06 -0.61,-5.32 -1.83,-6.8 -1.22,-1.48 -2.91,-2.22 -5.06,-2.22 -2.2,0 -3.91,0.74 -5.11,2.22 -1.22,1.48 -1.82,3.74 -1.82,6.8 0,2.94 0.61,5.18 1.83,6.7 1.22,1.52 2.92,2.28 5.1,2.28 2.14,0 3.82,-0.75 5.04,-2.27 1.23,-1.5 1.85,-3.75 1.85,-6.71 z m 27.85,5.23 c 0,2.26 -0.9,4.12 -2.71,5.58 -1.82,1.44 -4.29,2.17 -7.43,2.17 -1.78,0 -3.41,-0.23 -4.9,-0.69 -1.48,-0.44 -2.72,-0.93 -3.72,-1.47 0,0 0,-4.84 0,-4.84 0,0 0.22,0 0.22,0 1.27,1.22 2.69,2.2 4.25,2.92 1.56,0.72 3.06,1.08 4.5,1.08 1.77,0 3.15,-0.34 4.15,-1.02 1.01,-0.67 1.52,-1.74 1.52,-3.2 0,-0.98 -0.27,-1.72 -0.81,-2.22 -0.56,-0.5 -1.6,-0.92 -3.14,-1.28 -0.58,-0.13 -1.33,-0.29 -2.25,-0.47 -0.93,-0.17 -1.78,-0.36 -2.53,-0.58 -2.11,-0.57 -3.61,-1.41 -4.49,-2.53 -0.87,-1.12 -1.31,-2.5 -1.31,-4.12 0,-1.02 0.2,-1.99 0.61,-2.89 0.4,-0.91 1.02,-1.71 1.86,-2.42 0.8,-0.7 1.82,-1.25 3.06,-1.66 1.24,-0.41 2.62,-0.61 4.16,-0.61 1.43,0 2.89,0.17 4.36,0.52 1.46,0.34 2.68,0.76 3.65,1.25 0,0 0,4.23 0,4.23 0,0 -0.22,0 -0.22,0 -1.03,-0.84 -2.29,-1.55 -3.76,-2.12 -1.47,-0.59 -2.92,-0.88 -4.33,-0.88 -1.48,0 -2.73,0.34 -3.75,1.02 -1.01,0.66 -1.52,1.66 -1.52,3 0,1.02 0.31,1.79 0.93,2.31 0.6,0.52 1.57,0.94 2.92,1.26 0.75,0.18 1.58,0.36 2.5,0.53 0.92,0.18 1.69,0.34 2.31,0.49 1.88,0.45 3.33,1.21 4.34,2.28 1.02,1.11 1.53,2.56 1.53,4.36 z m 26.97,-5.45 c 0,2.02 -0.28,3.86 -0.84,5.53 -0.55,1.67 -1.34,3.08 -2.36,4.23 -0.95,1.1 -2.06,1.94 -3.34,2.53 -1.28,0.61 -2.64,0.91 -4.07,0.91 -1.25,0 -2.38,-0.14 -3.39,-0.42 -1.01,-0.28 -2.04,-0.72 -3.07,-1.31 0,0 0,9.73 0,9.73 0,0 -4.05,0 -4.05,0 0,0 0,-33 0,-33 0,0 4.05,0 4.05,0 0,0 0,2.28 0,2.28 1.07,-0.92 2.27,-1.7 3.6,-2.33 1.35,-0.63 2.78,-0.95 4.3,-0.95 2.9,0 5.15,1.13 6.75,3.39 1.62,2.26 2.42,5.4 2.42,9.41 z m -4.17,0 c 0,-2.95 -0.49,-5.15 -1.48,-6.61 -0.99,-1.46 -2.51,-2.19 -4.55,-2.19 -1.17,0 -2.34,0.26 -3.51,0.77 -1.17,0.51 -2.29,1.18 -3.36,2.01 0,0 0,13.86 0,13.86 1.14,0.53 2.12,0.89 2.95,1.08 0.82,0.19 1.75,0.28 2.8,0.28 2.25,0 4,-0.77 5.26,-2.31 1.26,-1.55 1.89,-3.85 1.89,-6.89 z m 14.39,-15.8 c 0,0 -4.54,0 -4.54,0 0,0 0,-4 0,-4 0,0 4.54,0 4.54,0 0,0 0,4 0,4 z m -0.25,28 c 0,0 -4.04,0 -4.04,0 0,0 0,-24 0,-24 0,0 4.04,0 4.04,0 0,0 0,24 0,24 z m 20.38,0.2 c -0.76,0.23 -1.59,0.42 -2.49,0.57 -0.9,0.15 -1.69,0.23 -2.39,0.23 -2.45,0 -4.31,-0.69 -5.59,-2.06 -1.27,-1.38 -1.91,-3.58 -1.91,-6.61 0,0 0,-13.33 0,-13.33 0,0 -2.73,0 -2.73,0 0,0 0,-3 0,-3 0,0 2.73,0 2.73,0 0,0 0,-7 0,-7 0,0 4.03,0 4.03,0 0,0 0,7 0,7 0,0 8.35,0 8.35,0 0,0 0,3 0,3 0,0 -8.35,0 -8.35,0 0,0 0,11.23 0,11.23 0,1.3 0.03,2.31 0.08,3.04 0.06,0.73 0.27,1.4 0.61,2.03 0.31,0.59 0.74,1.02 1.3,1.29 0.55,0.28 1.39,0.41 2.53,0.41 0.66,0 1.34,-0.12 2.06,-0.38 0.72,-0.24 1.24,-0.45 1.55,-0.62 0,0 0.22,0 0.22,0 0,0 0,4.2 0,4.2 z m 23.18,-0.2 c 0,0 -4.01,0 -4.01,0 0,0 0,-2.31 0,-2.31 -0.36,0.25 -0.84,0.6 -1.45,1.04 -0.61,0.45 -1.2,0.81 -1.77,1.08 -0.68,0.33 -1.45,0.62 -2.33,0.85 -0.87,0.22 -1.9,0.34 -3.08,0.34 -2.15,0 -3.99,-0.73 -5.5,-2.2 -1.5,-1.48 -2.25,-3.36 -2.25,-5.64 0,-1.88 0.39,-3.39 1.18,-4.55 0.78,-1.16 1.89,-2.07 3.34,-2.73 1.46,-0.66 3.21,-1.11 5.25,-1.35 2.05,-0.24 4.25,-0.41 6.61,-0.53 0,0 0,-0.61 0,-0.61 0,-0.88 -0.16,-1.62 -0.49,-2.2 -0.32,-0.58 -0.78,-1.04 -1.39,-1.38 -0.57,-0.32 -1.26,-0.53 -2.06,-0.64 -0.8,-0.11 -1.64,-0.17 -2.51,-0.17 -1.06,0 -2.24,0.09 -3.55,0.27 -1.31,0.16 -2.65,0.41 -4.03,0.73 0,0 -0.22,0 -0.22,0 0,0 0,-3.95 0,-3.95 0.79,-0.2 1.93,-0.43 3.42,-0.67 1.49,-0.26 2.96,-0.38 4.41,-0.38 1.69,0 3.15,0.15 4.4,0.44 1.26,0.28 2.35,0.76 3.27,1.44 0.89,0.67 1.58,1.54 2.05,2.6 0.47,1.07 0.71,2.39 0.71,3.96 0,0 0,16.56 0,16.56 z m -4.01,-5.67 c 0,0 0,-6.33 0,-6.33 -1.23,0.07 -2.68,0.18 -4.36,0.31 -1.67,0.14 -2.98,0.33 -3.95,0.58 -1.16,0.31 -2.1,0.81 -2.82,1.47 -0.71,0.66 -1.07,1.56 -1.07,2.7 0,1.32 0.41,2.3 1.25,2.96 0.83,0.65 2.09,0.98 3.79,0.98 1.42,0 2.71,-0.26 3.89,-0.78 1.18,-0.52 2.27,-1.15 3.27,-1.89 z m 15.45,5.67 c 0,0 -4.04,0 -4.04,0 0,0 0,-34 0,-34 0,0 4.04,0 4.04,0 0,0 0,34 0,34 z m 16.3,-6 c 0,0 -6.06,14 -6.06,14 0,0 -3.14,0 -3.14,0 0,0 3.73,-14 3.73,-14 0,0 5.47,0 5.47,0 z m 51.42,6 c 0,0 -4.25,0 -4.25,0 0,0 0,-27.61 0,-27.61 0,0 -8.89,18.61 -8.89,18.61 0,0 -2.55,0 -2.55,0 0,0 -8.82,-18.61 -8.82,-18.61 0,0 0,27.61 0,27.61 0,0 -3.97,0 -3.97,0 0,0 0,-32 0,-32 0,0 5.79,0 5.79,0 0,0 8.53,17.67 8.53,17.67 0,0 8.26,-17.67 8.26,-17.67 0,0 5.9,0 5.9,0 0,0 0,32 0,32 z m 28.1,0 c 0,0 -4.05,0 -4.05,0 0,0 0,-2.38 0,-2.38 -1.37,1.1 -2.67,1.93 -3.92,2.5 -1.25,0.59 -2.61,0.88 -4.11,0.88 -2.53,0 -4.49,-0.78 -5.89,-2.34 -1.41,-1.57 -2.11,-3.86 -2.11,-6.88 0,0 0,-15.78 0,-15.78 0,0 4.04,0 4.04,0 0,0 0,13.78 0,13.78 0,1.23 0.06,2.28 0.18,3.16 0.11,0.87 0.36,1.62 0.73,2.23 0.38,0.65 0.88,1.12 1.5,1.41 0.61,0.28 1.51,0.42 2.69,0.42 1.04,0 2.18,-0.27 3.42,-0.81 1.24,-0.55 2.39,-1.26 3.47,-2.11 0,0 0,-18.08 0,-18.08 0,0 4.05,0 4.05,0 0,0 0,24 0,24 z m 25.5,0 c 0,0 -19.38,0 -19.38,0 0,0 0,-3 0,-3 0,0 13.98,-18 13.98,-18 0,0 -13.68,0 -13.68,0 0,0 0,-3 0,-3 0,0 18.72,0 18.72,0 0,0 0,2 0,2 0,0 -14.05,19 -14.05,19 0,0 14.41,0 14.41,0 0,0 0,3 0,3 z m 24.24,0 c 0,0 -4.01,0 -4.01,0 0,0 0,-2.31 0,-2.31 -0.36,0.25 -0.84,0.6 -1.45,1.04 -0.61,0.45 -1.2,0.81 -1.77,1.08 -0.68,0.33 -1.45,0.62 -2.33,0.85 -0.87,0.22 -1.9,0.34 -3.08,0.34 -2.15,0 -3.99,-0.73 -5.5,-2.2 -1.5,-1.48 -2.25,-3.36 -2.25,-5.64 0,-1.88 0.39,-3.39 1.18,-4.55 0.78,-1.16 1.89,-2.07 3.34,-2.73 1.46,-0.66 3.21,-1.11 5.25,-1.35 2.05,-0.24 4.25,-0.41 6.61,-0.53 0,0 0,-0.61 0,-0.61 0,-0.88 -0.16,-1.62 -0.49,-2.2 -0.32,-0.58 -0.78,-1.04 -1.39,-1.38 -0.57,-0.32 -1.26,-0.53 -2.06,-0.64 -0.8,-0.11 -1.64,-0.17 -2.51,-0.17 -1.06,0 -2.24,0.09 -3.55,0.27 -1.31,0.16 -2.65,0.41 -4.03,0.73 0,0 -0.22,0 -0.22,0 0,0 0,-3.95 0,-3.95 0.79,-0.2 1.93,-0.43 3.42,-0.67 1.49,-0.26 2.96,-0.38 4.41,-0.38 1.69,0 3.15,0.15 4.4,0.44 1.26,0.28 2.35,0.76 3.27,1.44 0.89,0.67 1.58,1.54 2.05,2.6 0.47,1.07 0.71,2.39 0.71,3.96 0,0 0,16.56 0,16.56 z m -4.01,-5.67 c 0,0 0,-6.33 0,-6.33 -1.23,0.07 -2.68,0.18 -4.36,0.31 -1.67,0.14 -2.98,0.33 -3.95,0.58 -1.16,0.31 -2.1,0.81 -2.82,1.47 -0.71,0.66 -1.07,1.56 -1.07,2.7 0,1.32 0.41,2.3 1.25,2.96 0.83,0.65 2.09,0.98 3.79,0.98 1.42,0 2.71,-0.26 3.89,-0.78 1.18,-0.52 2.27,-1.15 3.27,-1.89 z M 708.92,79.5 c 0,0 -0.22,0 -0.22,0 -0.44,-0.22 -1.01,-0.44 -1.73,-0.66 -0.72,-0.22 -1.35,-0.34 -1.89,-0.34 -1.75,0 -3,0.38 -3.78,1.12 -0.79,0.76 -1.18,2.11 -1.18,4.08 0,0 0,0.8 0,0.8 0,0 7.3,0 7.3,0 0,0 0,3 0,3 0,0 -7.16,0 -7.16,0 0,0 0,21 0,21 0,0 -4.04,0 -4.04,0 0,0 0,-21 0,-21 0,0 -2.72,0 -2.72,0 0,0 0,-3 0,-3 0,0 2.72,0 2.72,0 0,0 0,-0.83 0,-0.83 0,-2.94 0.7,-5.21 2.12,-6.79 1.42,-1.59 3.47,-2.38 6.16,-2.38 0.89,0 1.7,0.05 2.42,0.16 0.73,0.1 1.4,0.22 2,0.36 0,0 0,4.48 0,4.48 z m 15,0 c 0,0 -0.22,0 -0.22,0 -0.44,-0.22 -1.01,-0.44 -1.73,-0.66 -0.72,-0.22 -1.35,-0.34 -1.89,-0.34 -1.75,0 -3,0.38 -3.78,1.12 -0.79,0.76 -1.18,2.11 -1.18,4.08 0,0 0,0.8 0,0.8 0,0 7.3,0 7.3,0 0,0 0,3 0,3 0,0 -7.16,0 -7.16,0 0,0 0,21 0,21 0,0 -4.04,0 -4.04,0 0,0 0,-21 0,-21 0,0 -2.72,0 -2.72,0 0,0 0,-3 0,-3 0,0 2.72,0 2.72,0 0,0 0,-0.83 0,-0.83 0,-2.94 0.7,-5.21 2.12,-6.79 1.42,-1.59 3.47,-2.38 6.16,-2.38 0.89,0 1.7,0.05 2.42,0.16 0.73,0.1 1.4,0.22 2,0.36 0,0 0,4.48 0,4.48 z m 20.73,29 c 0,0 -4.01,0 -4.01,0 0,0 0,-2.31 0,-2.31 -0.36,0.25 -0.84,0.6 -1.45,1.04 -0.61,0.45 -1.2,0.81 -1.77,1.08 -0.68,0.33 -1.45,0.62 -2.33,0.85 -0.87,0.22 -1.9,0.34 -3.08,0.34 -2.15,0 -3.99,-0.73 -5.5,-2.2 -1.5,-1.48 -2.25,-3.36 -2.25,-5.64 0,-1.88 0.39,-3.39 1.18,-4.55 0.78,-1.16 1.89,-2.07 3.34,-2.73 1.46,-0.66 3.21,-1.11 5.25,-1.35 2.05,-0.24 4.25,-0.41 6.61,-0.53 0,0 0,-0.61 0,-0.61 0,-0.88 -0.16,-1.62 -0.49,-2.2 -0.32,-0.58 -0.78,-1.04 -1.39,-1.38 -0.57,-0.32 -1.26,-0.53 -2.06,-0.64 -0.8,-0.11 -1.64,-0.17 -2.51,-0.17 -1.06,0 -2.24,0.09 -3.55,0.27 -1.31,0.16 -2.65,0.41 -4.03,0.73 0,0 -0.22,0 -0.22,0 0,0 0,-3.95 0,-3.95 0.79,-0.2 1.93,-0.43 3.42,-0.67 1.49,-0.26 2.96,-0.38 4.41,-0.38 1.69,0 3.15,0.15 4.4,0.44 1.26,0.28 2.35,0.76 3.27,1.44 0.89,0.67 1.58,1.54 2.05,2.6 0.47,1.07 0.71,2.39 0.71,3.96 0,0 0,16.56 0,16.56 z m -4.01,-5.67 c 0,0 0,-6.33 0,-6.33 -1.23,0.07 -2.68,0.18 -4.36,0.31 -1.67,0.14 -2.98,0.33 -3.95,0.58 -1.16,0.31 -2.1,0.81 -2.82,1.47 -0.71,0.66 -1.07,1.56 -1.07,2.7 0,1.32 0.41,2.3 1.25,2.96 0.83,0.65 2.09,0.98 3.79,0.98 1.42,0 2.71,-0.26 3.89,-0.78 1.18,-0.52 2.27,-1.15 3.27,-1.89 z M 766.98,88.5 c 0,0 -0.22,0 -0.22,0 -0.6,0 -1.18,0 -1.75,0 -0.56,0 -1.23,0 -2,0 -1.25,0 -2.46,0.28 -3.62,0.83 -1.16,0.55 -2.27,1.26 -3.34,2.14 0,0 0,17.03 0,17.03 0,0 -4.05,0 -4.05,0 0,0 0,-24 0,-24 0,0 4.05,0 4.05,0 0,0 0,3.55 0,3.55 1.6,-1.29 3.01,-2.21 4.23,-2.74 1.23,-0.54 2.48,-0.81 3.77,-0.81 0.69,0 1.2,0.02 1.51,0.05 0.31,0.03 0.79,0.09 1.42,0.18 0,0 0,3.77 0,3.77 z m 23.49,17.22 c 0,4.05 -0.93,7.02 -2.78,8.92 -1.85,1.91 -4.69,2.86 -8.52,2.86 -1.28,0 -2.53,-0.09 -3.73,-0.27 -1.21,-0.16 -2.41,-0.41 -3.58,-0.73 0,0 0,-4 0,-4 0,0 0.22,0 0.22,0 0.65,0.16 1.69,0.38 3.12,0.62 1.44,0.26 2.88,0.38 4.31,0.38 1.38,0 2.51,-0.15 3.41,-0.45 0.91,-0.31 1.61,-0.73 2.13,-1.27 0.5,-0.51 0.85,-1.12 1.06,-1.84 0.22,-0.72 0.33,-1.53 0.33,-2.42 0,0 0,-2 0,-2 -1.22,1 -2.39,1.75 -3.5,2.25 -1.11,0.49 -2.52,0.73 -4.24,0.73 -2.87,0 -5.14,-1.06 -6.83,-3.19 -1.68,-2.13 -2.51,-5.14 -2.51,-9.01 0,-2.13 0.28,-3.96 0.86,-5.49 0.58,-1.54 1.38,-2.87 2.39,-4 0.92,-1.04 2.05,-1.85 3.39,-2.43 1.33,-0.59 2.65,-0.88 3.97,-0.88 1.39,0 2.56,0.15 3.5,0.44 0.94,0.28 1.92,0.72 2.97,1.31 0,0 0.25,-0.75 0.25,-0.75 0,0 3.78,0 3.78,0 0,0 0,21.22 0,21.22 z M 786.44,102 c 0,0 0,-13.14 0,-13.14 -1.08,-0.49 -2.08,-0.84 -3,-1.05 -0.93,-0.2 -1.86,-0.31 -2.77,-0.31 -2.22,0 -3.97,0.75 -5.25,2.25 -1.27,1.49 -1.91,3.66 -1.91,6.52 0,2.69 0.48,4.74 1.43,6.14 0.94,1.39 2.51,2.09 4.7,2.09 1.18,0 2.35,-0.22 3.53,-0.67 1.19,-0.46 2.27,-1.07 3.27,-1.83 z m 30.21,6.5 c 0,0 -4.01,0 -4.01,0 0,0 0,-2.31 0,-2.31 -0.36,0.25 -0.84,0.6 -1.45,1.04 -0.61,0.45 -1.2,0.81 -1.77,1.08 -0.68,0.33 -1.45,0.62 -2.33,0.85 -0.87,0.22 -1.9,0.34 -3.08,0.34 -2.15,0 -3.99,-0.73 -5.5,-2.2 -1.5,-1.48 -2.25,-3.36 -2.25,-5.64 0,-1.88 0.39,-3.39 1.18,-4.55 0.78,-1.16 1.89,-2.07 3.34,-2.73 1.46,-0.66 3.21,-1.11 5.25,-1.35 2.05,-0.24 4.25,-0.41 6.61,-0.53 0,0 0,-0.61 0,-0.61 0,-0.88 -0.16,-1.62 -0.49,-2.2 -0.32,-0.58 -0.78,-1.04 -1.39,-1.38 -0.57,-0.32 -1.26,-0.53 -2.06,-0.64 -0.8,-0.11 -1.64,-0.17 -2.51,-0.17 -1.06,0 -2.24,0.09 -3.55,0.27 -1.31,0.16 -2.65,0.41 -4.03,0.73 0,0 -0.22,0 -0.22,0 0,0 0,-3.95 0,-3.95 0.79,-0.2 1.93,-0.43 3.42,-0.67 1.49,-0.26 2.96,-0.38 4.41,-0.38 1.69,0 3.15,0.15 4.4,0.44 1.26,0.28 2.35,0.76 3.27,1.44 0.89,0.67 1.58,1.54 2.05,2.6 0.47,1.07 0.71,2.39 0.71,3.96 0,0 0,16.56 0,16.56 z m -4.01,-5.67 c 0,0 0,-6.33 0,-6.33 -1.23,0.07 -2.68,0.18 -4.36,0.31 -1.67,0.14 -2.98,0.33 -3.95,0.58 -1.16,0.31 -2.1,0.81 -2.82,1.47 -0.71,0.66 -1.07,1.56 -1.07,2.7 0,1.32 0.41,2.3 1.25,2.96 0.83,0.65 2.09,0.98 3.79,0.98 1.42,0 2.71,-0.26 3.89,-0.78 1.18,-0.52 2.27,-1.15 3.27,-1.89 z M 838.98,88.5 c 0,0 -0.22,0 -0.22,0 -0.6,0 -1.18,0 -1.75,0 -0.56,0 -1.23,0 -2,0 -1.25,0 -2.46,0.28 -3.62,0.83 -1.16,0.55 -2.27,1.26 -3.34,2.14 0,0 0,17.03 0,17.03 0,0 -4.05,0 -4.05,0 0,0 0,-24 0,-24 0,0 4.05,0 4.05,0 0,0 0,3.55 0,3.55 1.6,-1.29 3.01,-2.21 4.23,-2.74 1.23,-0.54 2.48,-0.81 3.77,-0.81 0.69,0 1.2,0.02 1.51,0.05 0.31,0.03 0.79,0.09 1.42,0.18 0,0 0,3.77 0,3.77 z m 24.1,20 c 0,0 -4.05,0 -4.05,0 0,0 0,-13.78 0,-13.78 0,-1.11 -0.07,-2.16 -0.2,-3.13 -0.13,-0.97 -0.36,-1.74 -0.71,-2.29 -0.35,-0.6 -0.87,-1.05 -1.54,-1.35 -0.67,-0.3 -1.54,-0.45 -2.61,-0.45 -1.11,0 -2.26,0.28 -3.47,0.83 -1.2,0.54 -2.35,1.24 -3.45,2.09 0,0 0,18.08 0,18.08 0,0 -4.05,0 -4.05,0 0,0 0,-34 0,-34 0,0 4.05,0 4.05,0 0,0 0,12.38 0,12.38 1.25,-1.07 2.56,-1.9 3.9,-2.49 1.35,-0.59 2.74,-0.89 4.16,-0.89 2.59,0 4.56,0.79 5.92,2.38 1.36,1.58 2.05,3.86 2.05,6.84 0,0 0,15.78 0,15.78 z M 23.25,141.14 c 0,1.41 -0.25,2.72 -0.75,3.92 -0.49,1.21 -1.18,2.26 -2.06,3.14 -1.11,1.1 -2.42,1.92 -3.93,2.47 -1.5,0.56 -3.39,0.83 -5.68,0.83 0,0 -4.25,0 -4.25,0 0,0 0,12 0,12 0,0 -4.25,0 -4.25,0 0,0 0,-32 0,-32 0,0 8.67,0 8.67,0 1.92,0 3.55,0.16 4.87,0.48 1.34,0.33 2.52,0.83 3.55,1.5 1.22,0.83 2.16,1.85 2.83,3.07 0.66,1.21 1,2.74 1,4.59 z m -4.42,0.11 c 0,-1.04 -0.2,-1.94 -0.58,-2.7 -0.39,-0.77 -0.98,-1.4 -1.77,-1.88 -0.68,-0.41 -1.47,-0.71 -2.36,-0.89 -0.87,-0.19 -1.98,-0.28 -3.32,-0.28 0,0 -4.22,0 -4.22,0 0,0 0,12 0,12 0,0 3.59,0 3.59,0 1.72,0 3.11,-0.14 4.19,-0.44 1.07,-0.29 1.94,-0.75 2.62,-1.37 0.67,-0.65 1.14,-1.32 1.43,-2.03 0.28,-0.72 0.42,-1.52 0.42,-2.41 z m 30.25,22.25 c 0,0 -4.05,0 -4.05,0 0,0 0,-13.78 0,-13.78 0,-1.11 -0.07,-2.16 -0.2,-3.13 -0.13,-0.97 -0.36,-1.74 -0.71,-2.29 -0.35,-0.6 -0.87,-1.05 -1.54,-1.35 -0.67,-0.3 -1.54,-0.45 -2.61,-0.45 -1.11,0 -2.26,0.28 -3.47,0.83 -1.2,0.54 -2.35,1.24 -3.45,2.09 0,0 0,18.08 0,18.08 0,0 -4.05,0 -4.05,0 0,0 0,-34 0,-34 0,0 4.05,0 4.05,0 0,0 0,12.38 0,12.38 1.25,-1.07 2.56,-1.9 3.9,-2.49 1.35,-0.59 2.74,-0.89 4.16,-0.89 2.59,0 4.56,0.79 5.92,2.38 1.36,1.58 2.05,3.86 2.05,6.84 0,0 0,15.78 0,15.78 z m 28.37,-11.98 c 0,4.01 -1.01,7.18 -3.01,9.5 -2,2.32 -4.69,3.48 -8.05,3.48 -3.4,0 -6.09,-1.16 -8.09,-3.48 -2,-2.32 -2.99,-5.49 -2.99,-9.5 0,-4.02 0.99,-7.2 2.99,-9.52 2,-2.33 4.69,-3.5 8.09,-3.5 3.36,0 6.05,1.17 8.05,3.5 2,2.32 3.01,5.5 3.01,9.52 z m -4.15,0 c 0,-3.06 -0.61,-5.32 -1.83,-6.8 -1.22,-1.48 -2.91,-2.22 -5.06,-2.22 -2.2,0 -3.91,0.74 -5.11,2.22 -1.22,1.48 -1.82,3.74 -1.82,6.8 0,2.94 0.61,5.18 1.83,6.7 1.22,1.52 2.92,2.28 5.1,2.28 2.14,0 3.82,-0.75 5.04,-2.27 1.23,-1.5 1.85,-3.75 1.85,-6.71 z m 30.78,11.98 c 0,0 -4.05,0 -4.05,0 0,0 0,-13.78 0,-13.78 0,-1.11 -0.07,-2.16 -0.2,-3.13 -0.13,-0.97 -0.36,-1.74 -0.71,-2.29 -0.35,-0.6 -0.87,-1.05 -1.54,-1.35 -0.67,-0.3 -1.54,-0.45 -2.61,-0.45 -1.11,0 -2.26,0.28 -3.47,0.83 -1.2,0.54 -2.35,1.24 -3.45,2.09 0,0 0,18.08 0,18.08 0,0 -4.05,0 -4.05,0 0,0 0,-24 0,-24 0,0 4.05,0 4.05,0 0,0 0,2.38 0,2.38 1.25,-1.07 2.56,-1.9 3.9,-2.49 1.35,-0.59 2.74,-0.89 4.16,-0.89 2.59,0 4.56,0.79 5.92,2.38 1.36,1.58 2.05,3.86 2.05,6.84 0,0 0,15.78 0,15.78 z m 28.01,-11 c 0,0 -17.68,0 -17.68,0 0,1.38 0.21,2.57 0.65,3.59 0.45,1.02 1.06,1.84 1.85,2.49 0.73,0.65 1.61,1.13 2.64,1.45 1.03,0.31 2.16,0.47 3.39,0.47 1.63,0 3.28,-0.22 4.93,-0.67 1.66,-0.45 2.84,-0.89 3.54,-1.33 0,0 0.21,0 0.21,0 0,0 0,4.11 0,4.11 -1.36,0.54 -2.75,0.99 -4.17,1.34 -1.42,0.37 -2.9,0.55 -4.47,0.55 -3.98,0 -7.09,-1.11 -9.33,-3.33 -2.23,-2.22 -3.34,-5.38 -3.34,-9.47 0,-4.05 1.07,-7.26 3.2,-9.64 2.15,-2.37 4.97,-3.56 8.46,-3.56 3.24,0 5.73,1.01 7.48,3.03 1.76,2.02 2.64,4.9 2.64,8.63 0,0 0,2.34 0,2.34 z m -3.94,-4 c -0.01,-1.91 -0.54,-3.38 -1.59,-4.42 -1.05,-1.05 -2.65,-1.58 -4.81,-1.58 -2.16,0 -3.88,0.57 -5.16,1.72 -1.28,1.15 -2.01,2.57 -2.18,4.28 0,0 13.74,0 13.74,0 z m 49.58,15 c 0,0 -5.26,0 -5.26,0 0,0 -15.17,-28.62 -15.17,-28.62 0,0 0,28.62 0,28.62 0,0 -3.97,0 -3.97,0 0,0 0,-32 0,-32 0,0 6.59,0 6.59,0 0,0 13.84,26.14 13.84,26.14 0,0 0,-26.14 0,-26.14 0,0 3.97,0 3.97,0 0,0 0,32 0,32 z m 28.18,0 c 0,0 -4.05,0 -4.05,0 0,0 0,-2.38 0,-2.38 -1.37,1.1 -2.67,1.93 -3.92,2.5 -1.25,0.59 -2.61,0.88 -4.11,0.88 -2.53,0 -4.49,-0.78 -5.89,-2.34 -1.41,-1.57 -2.11,-3.86 -2.11,-6.88 0,0 0,-15.78 0,-15.78 0,0 4.04,0 4.04,0 0,0 0,13.78 0,13.78 0,1.23 0.06,2.28 0.18,3.16 0.11,0.87 0.36,1.62 0.73,2.23 0.38,0.65 0.88,1.12 1.5,1.41 0.61,0.28 1.51,0.42 2.69,0.42 1.04,0 2.18,-0.27 3.42,-0.81 1.24,-0.55 2.39,-1.26 3.47,-2.11 0,0 0,-18.08 0,-18.08 0,0 4.05,0 4.05,0 0,0 0,24 0,24 z m 43.12,0 c 0,0 -4.05,0 -4.05,0 0,0 0,-13.78 0,-13.78 0,-1.04 -0.04,-2.05 -0.14,-3.02 -0.09,-0.97 -0.29,-1.74 -0.59,-2.31 -0.33,-0.62 -0.79,-1.09 -1.41,-1.41 -0.61,-0.32 -1.51,-0.48 -2.67,-0.48 -1.12,0 -2.26,0.29 -3.39,0.86 -1.13,0.57 -2.26,1.3 -3.39,2.17 0.04,0.34 0.07,0.73 0.09,1.17 0.03,0.44 0.05,0.87 0.05,1.3 0,0 0,15.5 0,15.5 0,0 -4.03,0 -4.03,0 0,0 0,-13.78 0,-13.78 0,-1.07 -0.05,-2.09 -0.14,-3.05 -0.1,-0.96 -0.29,-1.72 -0.6,-2.31 -0.32,-0.61 -0.79,-1.08 -1.42,-1.39 -0.61,-0.31 -1.5,-0.47 -2.65,-0.47 -1.11,0 -2.22,0.28 -3.33,0.83 -1.11,0.54 -2.21,1.24 -3.31,2.09 0,0 0,18.08 0,18.08 0,0 -4.05,0 -4.05,0 0,0 0,-24 0,-24 0,0 4.05,0 4.05,0 0,0 0,2.67 0,2.67 1.25,-1.15 2.51,-2.05 3.76,-2.7 1.26,-0.65 2.6,-0.97 4.02,-0.97 1.63,0 3.02,0.38 4.15,1.12 1.14,0.75 1.99,1.78 2.55,3.1 1.63,-1.49 3.12,-2.56 4.47,-3.22 1.34,-0.66 2.78,-1 4.31,-1 2.63,0 4.58,0.81 5.83,2.44 1.26,1.61 1.89,3.87 1.89,6.78 0,0 0,15.78 0,15.78 z m 29.09,-12.19 c 0,2.07 -0.29,3.92 -0.86,5.57 -0.56,1.64 -1.32,3.02 -2.28,4.14 -1.01,1.16 -2.12,2.03 -3.34,2.6 -1.22,0.59 -2.56,0.88 -4.02,0.88 -1.36,0 -2.55,-0.17 -3.57,-0.5 -1.02,-0.32 -2.02,-0.77 -3,-1.33 0,0 -0.27,0.83 -0.27,0.83 0,0 -3.78,0 -3.78,0 0,0 0,-34 0,-34 0,0 4.05,0 4.05,0 0,0 0,12.27 0,12.27 1.13,-0.96 2.33,-1.74 3.6,-2.35 1.27,-0.61 2.71,-0.92 4.3,-0.92 2.83,0 5.07,1.12 6.7,3.36 1.65,2.23 2.47,5.38 2.47,9.45 z m -4.17,0 c 0,-2.88 -0.47,-5.07 -1.42,-6.56 -0.94,-1.5 -2.46,-2.25 -4.56,-2.25 -1.18,0 -2.37,0.26 -3.58,0.77 -1.2,0.51 -2.31,1.17 -3.34,1.98 0,0 0,13.86 0,13.86 1.14,0.52 2.12,0.89 2.95,1.09 0.82,0.2 1.75,0.3 2.8,0.3 2.23,0 3.98,-0.74 5.25,-2.22 1.27,-1.48 1.9,-3.8 1.9,-6.97 z m 30.14,1.19 c 0,0 -17.68,0 -17.68,0 0,1.38 0.21,2.57 0.65,3.59 0.45,1.02 1.06,1.84 1.85,2.49 0.73,0.65 1.61,1.13 2.64,1.45 1.03,0.31 2.16,0.47 3.39,0.47 1.63,0 3.28,-0.22 4.93,-0.67 1.66,-0.45 2.84,-0.89 3.54,-1.33 0,0 0.21,0 0.21,0 0,0 0,4.11 0,4.11 -1.36,0.54 -2.75,0.99 -4.17,1.34 -1.42,0.37 -2.9,0.55 -4.47,0.55 -3.98,0 -7.09,-1.11 -9.33,-3.33 -2.23,-2.22 -3.34,-5.38 -3.34,-9.47 0,-4.05 1.07,-7.26 3.2,-9.64 2.15,-2.37 4.97,-3.56 8.46,-3.56 3.24,0 5.73,1.01 7.48,3.03 1.76,2.02 2.64,4.9 2.64,8.63 0,0 0,2.34 0,2.34 z m -3.94,-4 c -0.01,-1.91 -0.54,-3.38 -1.59,-4.42 -1.05,-1.05 -2.65,-1.58 -4.81,-1.58 -2.16,0 -3.88,0.57 -5.16,1.72 -1.28,1.15 -2.01,2.57 -2.18,4.28 0,0 13.74,0 13.74,0 z m 24.83,-5 c 0,0 -0.22,0 -0.22,0 -0.6,0 -1.18,0 -1.75,0 -0.56,0 -1.23,0 -2,0 -1.25,0 -2.46,0.28 -3.62,0.83 -1.16,0.55 -2.27,1.26 -3.34,2.14 0,0 0,17.03 0,17.03 0,0 -4.05,0 -4.05,0 0,0 0,-24 0,-24 0,0 4.05,0 4.05,0 0,0 0,3.55 0,3.55 1.6,-1.29 3.01,-2.21 4.23,-2.74 1.23,-0.54 2.48,-0.81 3.77,-0.81 0.69,0 1.2,0.02 1.51,0.05 0.31,0.03 0.79,0.09 1.42,0.18 0,0 0,3.77 0,3.77 z m 12.61,2 c 0,0 -5.12,0 -5.12,0 0,0 0,-6 0,-6 0,0 5.12,0 5.12,0 0,0 0,6 0,6 z m 0,18 c 0,0 -5.12,0 -5.12,0 0,0 0,-6 0,-6 0,0 5.12,0 5.12,0 0,0 0,6 0,6 z m 47.52,-16.02 c 0,5.87 -0.9,10.17 -2.7,12.91 -1.8,2.74 -4.58,4.11 -8.36,4.11 -3.85,0 -6.66,-1.38 -8.43,-4.16 -1.77,-2.78 -2.65,-7.05 -2.65,-12.82 0,-5.81 0.89,-10.09 2.68,-12.86 1.79,-2.77 4.59,-4.16 8.4,-4.16 3.83,0 6.63,1.41 8.4,4.22 1.77,2.81 2.66,7.07 2.66,12.76 z m -5.64,9.68 c 0.5,-1.16 0.83,-2.51 1.01,-4.07 0.18,-1.55 0.27,-3.42 0.27,-5.61 0,-2.16 -0.09,-4.03 -0.27,-5.62 -0.18,-1.59 -0.52,-2.95 -1.04,-4.06 -0.5,-1.1 -1.19,-1.92 -2.05,-2.47 -0.87,-0.55 -1.98,-0.83 -3.34,-0.83 -1.35,0 -2.47,0.28 -3.35,0.83 -0.87,0.55 -1.57,1.39 -2.09,2.51 -0.49,1.06 -0.83,2.43 -1,4.13 -0.18,1.69 -0.27,3.54 -0.27,5.55 0,2.21 0.08,4.07 0.24,5.57 0.15,1.5 0.49,2.83 1.01,4 0.47,1.11 1.14,1.95 2,2.53 0.88,0.59 2.03,0.88 3.46,0.88 1.34,0 2.45,-0.27 3.34,-0.83 0.89,-0.55 1.59,-1.39 2.08,-2.51 z m 34.15,-4.18 c 0,3.39 -1.07,6.16 -3.21,8.3 -2.14,2.15 -4.77,3.22 -7.88,3.22 -1.57,0 -3.01,-0.25 -4.3,-0.75 -1.29,-0.5 -2.43,-1.24 -3.42,-2.22 -1.23,-1.21 -2.18,-2.82 -2.84,-4.83 -0.67,-2 -1,-4.42 -1,-7.25 0,-2.89 0.3,-5.46 0.9,-7.7 0.62,-2.24 1.59,-4.23 2.93,-5.98 1.25,-1.65 2.88,-2.93 4.87,-3.86 1.99,-0.94 4.31,-1.41 6.95,-1.41 0.86,0 1.57,0.04 2.14,0.12 0.57,0.08 1.15,0.22 1.74,0.41 0,0 0,4.47 0,4.47 0,0 -0.22,0 -0.22,0 -0.4,-0.24 -1,-0.46 -1.81,-0.67 -0.82,-0.22 -1.64,-0.33 -2.49,-0.33 -3.07,0 -5.52,0.93 -7.36,2.8 -1.83,1.85 -2.9,4.36 -3.2,7.53 1.21,-0.76 2.4,-1.34 3.56,-1.74 1.17,-0.39 2.52,-0.59 4.05,-0.59 1.36,0 2.56,0.13 3.59,0.39 1.04,0.26 2.11,0.79 3.21,1.58 1.25,0.92 2.2,2.07 2.84,3.45 0.63,1.39 0.95,3.08 0.95,5.06 z m -4.36,0.19 c 0,-1.32 -0.19,-2.41 -0.59,-3.28 -0.4,-0.87 -1.04,-1.63 -1.94,-2.28 -0.66,-0.46 -1.4,-0.75 -2.2,-0.89 -0.8,-0.15 -1.64,-0.22 -2.5,-0.22 -1.22,0 -2.36,0.15 -3.41,0.44 -1.04,0.28 -2.11,0.72 -3.21,1.31 -0.04,0.31 -0.06,0.62 -0.08,0.91 -0.01,0.29 -0.02,0.66 -0.02,1.11 0,2.25 0.23,4.02 0.69,5.32 0.47,1.31 1.11,2.34 1.94,3.1 0.65,0.62 1.36,1.08 2.12,1.37 0.77,0.3 1.61,0.44 2.52,0.44 2.08,0 3.72,-0.63 4.9,-1.89 1.19,-1.26 1.78,-3.07 1.78,-5.44 z m 32.36,-0.19 c 0,3.39 -1.07,6.16 -3.21,8.3 -2.14,2.15 -4.77,3.22 -7.88,3.22 -1.57,0 -3.01,-0.25 -4.3,-0.75 -1.29,-0.5 -2.43,-1.24 -3.42,-2.22 -1.23,-1.21 -2.18,-2.82 -2.84,-4.83 -0.67,-2 -1,-4.42 -1,-7.25 0,-2.89 0.3,-5.46 0.9,-7.7 0.62,-2.24 1.59,-4.23 2.93,-5.98 1.25,-1.65 2.88,-2.93 4.87,-3.86 1.99,-0.94 4.31,-1.41 6.95,-1.41 0.86,0 1.57,0.04 2.14,0.12 0.57,0.08 1.15,0.22 1.74,0.41 0,0 0,4.47 0,4.47 0,0 -0.22,0 -0.22,0 -0.4,-0.24 -1,-0.46 -1.81,-0.67 -0.82,-0.22 -1.64,-0.33 -2.49,-0.33 -3.07,0 -5.52,0.93 -7.36,2.8 -1.83,1.85 -2.9,4.36 -3.2,7.53 1.21,-0.76 2.4,-1.34 3.56,-1.74 1.17,-0.39 2.52,-0.59 4.05,-0.59 1.36,0 2.56,0.13 3.59,0.39 1.04,0.26 2.11,0.79 3.21,1.58 1.25,0.92 2.2,2.07 2.84,3.45 0.63,1.39 0.95,3.08 0.95,5.06 z m -4.36,0.19 c 0,-1.32 -0.19,-2.41 -0.59,-3.28 -0.4,-0.87 -1.04,-1.63 -1.94,-2.28 -0.66,-0.46 -1.4,-0.75 -2.2,-0.89 -0.8,-0.15 -1.64,-0.22 -2.5,-0.22 -1.22,0 -2.36,0.15 -3.41,0.44 -1.04,0.28 -2.11,0.72 -3.21,1.31 -0.04,0.31 -0.06,0.62 -0.08,0.91 -0.01,0.29 -0.02,0.66 -0.02,1.11 0,2.25 0.23,4.02 0.69,5.32 0.47,1.31 1.11,2.34 1.94,3.1 0.65,0.62 1.36,1.08 2.12,1.37 0.77,0.3 1.61,0.44 2.52,0.44 2.08,0 3.72,-0.63 4.9,-1.89 1.19,-1.26 1.78,-3.07 1.78,-5.44 z m 23.46,-1.67 c 0,0 -13.41,0 -13.41,0 0,0 0,-4 0,-4 0,0 13.41,0 13.41,0 0,0 0,4 0,4 z m 28.42,12 c 0,0 -21.66,0 -21.66,0 0,0 0,-4.81 0,-4.81 1.5,-1.27 3.01,-2.54 4.52,-3.81 1.52,-1.29 2.93,-2.56 4.23,-3.82 2.75,-2.63 4.63,-4.72 5.64,-6.28 1.02,-1.55 1.54,-3.23 1.54,-5.03 0,-1.64 -0.55,-2.93 -1.65,-3.86 -1.09,-0.93 -2.62,-1.39 -4.59,-1.39 -1.3,0 -2.71,0.25 -4.23,0.75 -1.52,0.49 -3,1.24 -4.44,2.25 0,0 -0.22,0 -0.22,0 0,0 0,-4.84 0,-4.84 1.02,-0.54 2.38,-1.04 4.08,-1.49 1.69,-0.44 3.33,-0.67 4.92,-0.67 3.28,0 5.85,0.79 7.72,2.38 1.86,1.58 2.8,3.73 2.8,6.43 0,1.22 -0.16,2.36 -0.47,3.41 -0.31,1.05 -0.76,2.05 -1.36,3 -0.56,0.89 -1.22,1.76 -1.97,2.62 -0.75,0.86 -1.67,1.81 -2.74,2.86 -1.53,1.5 -3.11,2.96 -4.75,4.38 -1.63,1.4 -3.16,2.71 -4.57,3.92 0,0 17.2,0 17.2,0 0,0 0,4 0,4 z m 27.75,-10.06 c 0,1.52 -0.28,2.98 -0.83,4.37 -0.54,1.39 -1.28,2.56 -2.22,3.5 -1.03,1.03 -2.26,1.82 -3.69,2.36 -1.42,0.55 -3.07,0.83 -4.95,0.83 -1.75,0 -3.44,-0.17 -5.06,-0.52 -1.62,-0.34 -2.98,-0.75 -4.09,-1.23 0,0 0,-4.25 0,-4.25 0,0 0.29,0 0.29,0 1.18,0.55 2.55,1.03 4.13,1.42 1.58,0.39 3.13,0.58 4.64,0.58 1.02,0 2,-0.14 2.95,-0.42 0.96,-0.28 1.81,-0.78 2.56,-1.49 0.63,-0.6 1.1,-1.32 1.43,-2.17 0.32,-0.84 0.48,-1.81 0.48,-2.92 0,-1.08 -0.2,-2 -0.58,-2.75 -0.37,-0.75 -0.9,-1.35 -1.58,-1.8 -0.74,-0.53 -1.64,-0.9 -2.72,-1.12 -1.06,-0.22 -2.25,-0.33 -3.57,-0.33 -1.26,0 -2.48,0.12 -3.64,0.34 -1.17,0.22 -2.18,0.44 -3.02,0.66 0,0 0,-18 0,-18 0,0 19.25,0 19.25,0 0,0 0,4 0,4 0,0 -15.09,0 -15.09,0 0,0 0,9.17 0,9.17 0.61,-0.06 1.24,-0.1 1.89,-0.12 0.64,-0.03 1.2,-0.05 1.67,-0.05 1.73,0 3.24,0.15 4.55,0.45 1.31,0.31 2.5,0.84 3.59,1.6 1.14,0.8 2.03,1.84 2.66,3.11 0.63,1.27 0.95,2.86 0.95,4.78 z m 28,0 c 0,1.52 -0.28,2.98 -0.83,4.37 -0.54,1.39 -1.28,2.56 -2.22,3.5 -1.03,1.03 -2.26,1.82 -3.69,2.36 -1.42,0.55 -3.07,0.83 -4.95,0.83 -1.75,0 -3.44,-0.17 -5.06,-0.52 -1.62,-0.34 -2.98,-0.75 -4.09,-1.23 0,0 0,-4.25 0,-4.25 0,0 0.29,0 0.29,0 1.18,0.55 2.55,1.03 4.13,1.42 1.58,0.39 3.13,0.58 4.64,0.58 1.02,0 2,-0.14 2.95,-0.42 0.96,-0.28 1.81,-0.78 2.56,-1.49 0.63,-0.6 1.1,-1.32 1.43,-2.17 0.32,-0.84 0.48,-1.81 0.48,-2.92 0,-1.08 -0.2,-2 -0.58,-2.75 -0.37,-0.75 -0.9,-1.35 -1.58,-1.8 -0.74,-0.53 -1.64,-0.9 -2.72,-1.12 -1.06,-0.22 -2.25,-0.33 -3.57,-0.33 -1.26,0 -2.48,0.12 -3.64,0.34 -1.17,0.22 -2.18,0.44 -3.02,0.66 0,0 0,-18 0,-18 0,0 19.25,0 19.25,0 0,0 0,4 0,4 0,0 -15.09,0 -15.09,0 0,0 0,9.17 0,9.17 0.61,-0.06 1.24,-0.1 1.89,-0.12 0.64,-0.03 1.2,-0.05 1.67,-0.05 1.73,0 3.24,0.15 4.55,0.45 1.31,0.31 2.5,0.84 3.59,1.6 1.14,0.8 2.03,1.84 2.66,3.11 0.63,1.27 0.95,2.86 0.95,4.78 z m 26.44,10.06 c 0,0 -17.33,0 -17.33,0 0,0 0,-4 0,-4 0,0 6.67,0 6.67,0 0,0 0,-20 0,-20 0,0 -6.67,0 -6.67,0 0,0 0,-4 0,-4 0.91,0 1.87,-0.07 2.91,-0.2 1.03,-0.14 1.8,-0.33 2.32,-0.58 0.67,-0.32 1.19,-0.73 1.57,-1.22 0.37,-0.5 0.59,-1.16 0.65,-2 0,0 3.35,0 3.35,0 0,0 0,28 0,28 0,0 6.53,0 6.53,0 0,0 0,4 0,4 z m 29.78,-16.02 c 0,5.87 -0.9,10.17 -2.7,12.91 -1.8,2.74 -4.58,4.11 -8.36,4.11 -3.85,0 -6.66,-1.38 -8.43,-4.16 -1.77,-2.78 -2.65,-7.05 -2.65,-12.82 0,-5.81 0.89,-10.09 2.68,-12.86 1.79,-2.77 4.59,-4.16 8.4,-4.16 3.83,0 6.63,1.41 8.4,4.22 1.77,2.81 2.66,7.07 2.66,12.76 z m -5.64,9.68 c 0.5,-1.16 0.83,-2.51 1.01,-4.07 0.18,-1.55 0.27,-3.42 0.27,-5.61 0,-2.16 -0.09,-4.03 -0.27,-5.62 -0.18,-1.59 -0.52,-2.95 -1.04,-4.06 -0.5,-1.1 -1.19,-1.92 -2.05,-2.47 -0.87,-0.55 -1.98,-0.83 -3.34,-0.83 -1.35,0 -2.47,0.28 -3.35,0.83 -0.87,0.55 -1.57,1.39 -2.09,2.51 -0.49,1.06 -0.83,2.43 -1,4.13 -0.18,1.69 -0.27,3.54 -0.27,5.55 0,2.21 0.08,4.07 0.24,5.57 0.15,1.5 0.49,2.83 1.01,4 0.47,1.11 1.14,1.95 2,2.53 0.88,0.59 2.03,0.88 3.46,0.88 1.34,0 2.45,-0.27 3.34,-0.83 0.89,-0.55 1.59,-1.39 2.08,-2.51 z m 33.92,-2.47 c 0,2.81 -1.08,5.15 -3.24,7.01 -2.15,1.87 -4.87,2.8 -8.14,2.8 -3.46,0 -6.21,-0.91 -8.28,-2.72 -2.05,-1.82 -3.08,-4.16 -3.08,-7 0,-1.8 0.52,-3.43 1.55,-4.89 1.03,-1.47 2.49,-2.63 4.36,-3.5 0,0 0,-0.12 0,-0.12 -1.72,-0.93 -2.99,-1.95 -3.81,-3.05 -0.83,-1.11 -1.24,-2.5 -1.24,-4.16 0,-2.44 0.99,-4.48 2.97,-6.11 1.98,-1.63 4.5,-2.45 7.55,-2.45 3.19,0 5.73,0.78 7.64,2.34 1.91,1.56 2.86,3.54 2.86,5.94 0,1.47 -0.45,2.92 -1.36,4.33 -0.9,1.42 -2.22,2.53 -3.97,3.33 0,0 0,0.12 0,0.12 2.01,0.88 3.54,1.96 4.6,3.24 1.06,1.28 1.59,2.91 1.59,4.89 z m -5.09,-15.42 c 0,-1.46 -0.6,-2.62 -1.79,-3.47 -1.18,-0.87 -2.68,-1.3 -4.51,-1.3 -1.81,0 -3.28,0.41 -4.44,1.22 -1.15,0.81 -1.73,1.91 -1.73,3.3 0,0.98 0.28,1.82 0.86,2.54 0.58,0.71 1.46,1.34 2.64,1.89 0.53,0.25 1.29,0.58 2.28,0.97 1,0.39 1.97,0.71 2.92,0.97 1.41,-0.89 2.39,-1.82 2.94,-2.78 0.55,-0.97 0.83,-2.08 0.83,-3.34 z m 0.65,15.43 c 0,-1.27 -0.29,-2.28 -0.87,-3.04 -0.58,-0.77 -1.71,-1.54 -3.41,-2.32 -0.67,-0.3 -1.4,-0.58 -2.2,-0.84 -0.81,-0.26 -1.87,-0.62 -3.21,-1.09 -1.28,0.68 -2.31,1.59 -3.09,2.75 -0.78,1.15 -1.17,2.46 -1.17,3.92 0,1.85 0.66,3.39 2,4.61 1.33,1.21 3.02,1.81 5.06,1.81 2.09,0 3.77,-0.52 5.02,-1.55 1.25,-1.03 1.87,-2.44 1.87,-4.25 z m 32.16,-7.22 c 0,5.87 -0.9,10.17 -2.7,12.91 -1.8,2.74 -4.58,4.11 -8.36,4.11 -3.85,0 -6.66,-1.38 -8.43,-4.16 -1.77,-2.78 -2.65,-7.05 -2.65,-12.82 0,-5.81 0.89,-10.09 2.68,-12.86 1.79,-2.77 4.59,-4.16 8.4,-4.16 3.83,0 6.63,1.41 8.4,4.22 1.77,2.81 2.66,7.07 2.66,12.76 z m -5.64,9.68 c 0.5,-1.16 0.83,-2.51 1.01,-4.07 0.18,-1.55 0.27,-3.42 0.27,-5.61 0,-2.16 -0.09,-4.03 -0.27,-5.62 -0.18,-1.59 -0.52,-2.95 -1.04,-4.06 -0.5,-1.1 -1.19,-1.92 -2.05,-2.47 -0.87,-0.55 -1.98,-0.83 -3.34,-0.83 -1.35,0 -2.47,0.28 -3.35,0.83 -0.87,0.55 -1.57,1.39 -2.09,2.51 -0.49,1.06 -0.83,2.43 -1,4.13 -0.18,1.69 -0.27,3.54 -0.27,5.55 0,2.21 0.08,4.07 0.24,5.57 0.15,1.5 0.49,2.83 1.01,4 0.47,1.11 1.14,1.95 2,2.53 0.88,0.59 2.03,0.88 3.46,0.88 1.34,0 2.45,-0.27 3.34,-0.83 0.89,-0.55 1.59,-1.39 2.08,-2.51 z M 43.59,215.05 c 0,4.27 -0.92,8.15 -2.76,11.62 -1.85,3.47 -4.3,6.17 -7.36,8.08 -2.13,1.32 -4.5,2.28 -7.11,2.87 -2.62,0.59 -6.06,0.88 -10.33,0.88 0,0 -11.75,0 -11.75,0 0,0 0,-47 0,-47 0,0 11.63,0 11.63,0 4.53,0 8.14,0.34 10.82,1 2.68,0.66 4.94,1.56 6.8,2.72 3.16,2 5.63,4.67 7.41,8 1.77,3.32 2.65,7.26 2.65,11.83 z m -6.47,-0.1 c 0,-3.75 -0.63,-6.92 -1.9,-9.5 -1.28,-2.57 -3.17,-4.6 -5.69,-6.09 -1.84,-1.07 -3.78,-1.82 -5.84,-2.24 -2.07,-0.41 -4.54,-0.62 -7.41,-0.62 0,0 -5.81,0 -5.81,0 0,0 0,37 0,37 0,0 5.81,0 5.81,0 2.98,0 5.58,-0.22 7.8,-0.67 2.22,-0.46 4.25,-1.3 6.11,-2.52 2.31,-1.52 4.04,-3.52 5.2,-6.01 1.16,-2.49 1.73,-5.6 1.73,-9.35 z m 37.47,-4.45 c 0,0 -0.31,0 -0.31,0 -0.87,-0.35 -1.73,-0.61 -2.55,-0.77 -0.82,-0.15 -1.79,-0.23 -2.92,-0.23 -1.81,0 -3.56,0.4 -5.25,1.2 -1.69,0.8 -3.31,1.83 -4.87,3.1 0,0 0,24.7 0,24.7 0,0 -5.88,0 -5.88,0 0,0 0,-35 0,-35 0,0 5.88,0 5.88,0 0,0 0,5.17 0,5.17 2.33,-1.88 4.39,-3.22 6.17,-4 1.78,-0.78 3.6,-1.17 5.45,-1.17 1.02,0 1.76,0.03 2.22,0.09 0.46,0.06 1.14,0.16 2.06,0.32 0,0 0,6.59 0,6.59 z m 5.82,28 c 0,0 -7.47,0 -7.47,0 0,0 0,-9 0,-9 0,0 7.47,0 7.47,0 0,0 0,9 0,9 z m 68.81,-47 c 0,0 -16.38,26.39 -16.38,26.39 0,0 0,20.61 0,20.61 0,0 -6.19,0 -6.19,0 0,0 0,-19.95 0,-19.95 0,0 -16.43,-27.05 -16.43,-27.05 0,0 6.84,0 6.84,0 0,0 12.72,21.02 12.72,21.02 0,0 12.84,-21.02 12.84,-21.02 0,0 6.6,0 6.6,0 z m 31.34,29.52 c 0,5.71 -1.46,10.21 -4.37,13.53 -2.92,3.3 -6.83,4.95 -11.72,4.95 -4.94,0 -8.86,-1.65 -11.77,-4.95 -2.9,-3.32 -4.36,-7.82 -4.36,-13.53 0,-5.71 1.46,-10.22 4.36,-13.54 2.91,-3.32 6.83,-4.98 11.77,-4.98 4.89,0 8.8,1.66 11.72,4.98 2.91,3.32 4.37,7.83 4.37,13.54 z m -6.06,0 c 0,-4.57 -0.89,-7.97 -2.66,-10.19 -1.77,-2.22 -4.23,-3.33 -7.37,-3.33 -3.19,0 -5.67,1.11 -7.42,3.33 -1.77,2.22 -2.64,5.62 -2.64,10.19 0,4.41 0.88,7.77 2.65,10.06 1.77,2.28 4.24,3.42 7.41,3.42 3.12,0 5.58,-1.13 7.36,-3.39 1.78,-2.27 2.67,-5.63 2.67,-10.09 z m 44.25,17.48 c 0,0 -5.88,0 -5.88,0 0,0 0,-3.86 0,-3.86 -1.98,1.56 -3.87,2.77 -5.68,3.61 -1.82,0.83 -3.82,1.25 -6,1.25 -3.67,0 -6.53,-1.12 -8.57,-3.36 -2.04,-2.25 -3.06,-5.55 -3.06,-9.91 0,0 0,-22.73 0,-22.73 0,0 5.88,0 5.88,0 0,0 0,20.34 0,20.34 0,1.82 0.08,3.37 0.25,4.66 0.16,1.29 0.52,2.4 1.06,3.31 0.56,0.94 1.29,1.62 2.19,2.05 0.89,0.43 2.19,0.64 3.9,0.64 1.52,0 3.18,-0.41 4.99,-1.22 1.8,-0.81 3.48,-1.84 5.04,-3.09 0,0 0,-26.69 0,-26.69 0,0 5.88,0 5.88,0 0,0 0,35 0,35 z m 36,-10.03 c 0,3.23 -1.32,5.87 -3.95,7.94 -2.64,2.06 -6.24,3.09 -10.8,3.09 -2.59,0 -4.95,-0.32 -7.11,-0.97 -2.16,-0.64 -3.97,-1.35 -5.42,-2.11 0,0 0,-6.92 0,-6.92 0,0 0.31,0 0.31,0 1.85,1.53 3.91,2.75 6.19,3.66 2.27,0.89 4.44,1.34 6.53,1.34 2.58,0 4.6,-0.42 6.06,-1.27 1.46,-0.84 2.19,-2.17 2.19,-4 0,-1.38 -0.4,-2.43 -1.19,-3.15 -0.79,-0.72 -2.31,-1.33 -4.56,-1.83 -0.84,-0.2 -1.92,-0.42 -3.27,-0.67 -1.34,-0.25 -2.57,-0.52 -3.67,-0.81 -3.06,-0.82 -5.23,-2.04 -6.51,-3.63 -1.29,-1.59 -1.93,-3.55 -1.93,-5.86 0,-1.46 0.3,-2.83 0.89,-4.11 0.6,-1.28 1.5,-2.43 2.71,-3.45 1.16,-0.99 2.65,-1.77 4.45,-2.34 1.8,-0.59 3.82,-0.88 6.05,-0.88 2.08,0 4.19,0.26 6.33,0.78 2.13,0.51 3.91,1.14 5.32,1.88 0,0 0,6.34 0,6.34 0,0 -0.31,0 -0.31,0 -1.5,-1.12 -3.32,-2.07 -5.47,-2.84 -2.15,-0.77 -4.25,-1.16 -6.31,-1.16 -2.15,0 -3.96,0.42 -5.44,1.27 -1.48,0.83 -2.22,2.07 -2.22,3.71 0,1.45 0.45,2.55 1.35,3.29 0.87,0.74 2.29,1.34 4.25,1.79 1.08,0.26 2.29,0.52 3.64,0.77 1.34,0.25 2.46,0.48 3.36,0.69 2.72,0.63 4.83,1.72 6.31,3.26 1.48,1.56 2.22,3.62 2.22,6.19 z m 35.19,10.03 c 0,0 -5.85,0 -5.85,0 0,0 0,-3.69 0,-3.69 -0.52,0.36 -1.22,0.85 -2.11,1.49 -0.88,0.63 -1.74,1.14 -2.57,1.51 -0.99,0.48 -2.11,0.88 -3.38,1.21 -1.27,0.32 -2.76,0.48 -4.47,0.48 -3.15,0 -5.81,-1.04 -8,-3.11 -2.19,-2.08 -3.28,-4.74 -3.28,-7.97 0,-2.64 0.57,-4.78 1.7,-6.4 1.14,-1.64 2.76,-2.93 4.86,-3.86 2.13,-0.94 4.68,-1.57 7.66,-1.91 2.98,-0.33 6.17,-0.58 9.59,-0.75 0,0 0,-0.97 0,-0.97 0,-1.41 -0.23,-2.59 -0.7,-3.53 -0.47,-0.94 -1.14,-1.67 -2.02,-2.2 -0.83,-0.51 -1.83,-0.85 -3,-1.03 -1.16,-0.18 -2.38,-0.27 -3.65,-0.27 -1.55,0 -3.26,0.26 -5.16,0.78 -1.9,0.51 -3.85,1.25 -5.87,2.22 0,0 -0.32,0 -0.32,0 0,0 0,-6.31 0,-6.31 1.15,-0.33 2.8,-0.7 4.97,-1.1 2.17,-0.39 4.3,-0.59 6.41,-0.59 2.46,0 4.6,0.21 6.42,0.62 1.82,0.41 3.4,1.11 4.74,2.08 1.31,0.97 2.31,2.22 3,3.75 0.68,1.53 1.03,3.43 1.03,5.69 0,0 0,23.86 0,23.86 z m -5.85,-8.16 c 0,0 0,-9.84 0,-9.84 -1.79,0.11 -3.9,0.27 -6.33,0.48 -2.43,0.22 -4.35,0.52 -5.76,0.91 -1.69,0.49 -3.06,1.25 -4.09,2.27 -1.05,1.02 -1.57,2.43 -1.57,4.23 0,2.02 0.6,3.55 1.81,4.58 1.21,1.02 3.06,1.53 5.54,1.53 2.06,0 3.94,-0.41 5.65,-1.22 1.71,-0.81 3.29,-1.79 4.75,-2.94 z m 35.5,-34.84 c 0,0 -0.31,0 -0.31,0 -0.65,-0.22 -1.49,-0.44 -2.53,-0.66 -1.04,-0.22 -1.96,-0.34 -2.75,-0.34 -2.52,0 -4.35,0.56 -5.49,1.69 -1.13,1.12 -1.7,3.16 -1.7,6.11 0,0 0,1.2 0,1.2 0,0 10.6,0 10.6,0 0,0 0,5 0,5 0,0 -10.41,0 -10.41,0 0,0 0,30 0,30 0,0 -5.88,0 -5.88,0 0,0 0,-30 0,-30 0,0 -3.97,0 -3.97,0 0,0 0,-5 0,-5 0,0 3.97,0 3.97,0 0,0 0,-1.16 0,-1.16 0,-4.13 1.03,-7.3 3.1,-9.51 2.06,-2.22 5.04,-3.33 8.93,-3.33 1.32,0 2.5,0.06 3.55,0.19 1.05,0.12 2.02,0.27 2.89,0.43 0,0 0,5.38 0,5.38 z m 67.13,43 c 0,0 -6.19,0 -6.19,0 0,0 0,-40.52 0,-40.52 0,0 -12.94,27.52 -12.94,27.52 0,0 -3.68,0 -3.68,0 0,0 -12.85,-27.52 -12.85,-27.52 0,0 0,40.52 0,40.52 0,0 -5.78,0 -5.78,0 0,0 0,-47 0,-47 0,0 8.44,0 8.44,0 0,0 12.4,26.12 12.4,26.12 0,0 12,-26.12 12,-26.12 0,0 8.6,0 8.6,0 0,0 0,47 0,47 z m 41.03,0 c 0,0 -5.88,0 -5.88,0 0,0 0,-3.86 0,-3.86 -1.98,1.56 -3.87,2.77 -5.68,3.61 -1.82,0.83 -3.82,1.25 -6,1.25 -3.67,0 -6.53,-1.12 -8.57,-3.36 -2.04,-2.25 -3.06,-5.55 -3.06,-9.91 0,0 0,-22.73 0,-22.73 0,0 5.88,0 5.88,0 0,0 0,20.34 0,20.34 0,1.82 0.08,3.37 0.25,4.66 0.16,1.29 0.52,2.4 1.06,3.31 0.56,0.94 1.29,1.62 2.19,2.05 0.89,0.43 2.19,0.64 3.9,0.64 1.52,0 3.18,-0.41 4.99,-1.22 1.8,-0.81 3.48,-1.84 5.04,-3.09 0,0 0,-26.69 0,-26.69 0,0 5.88,0 5.88,0 0,0 0,35 0,35 z m 36,-10.03 c 0,3.23 -1.32,5.87 -3.95,7.94 -2.64,2.06 -6.24,3.09 -10.8,3.09 -2.59,0 -4.95,-0.32 -7.11,-0.97 -2.16,-0.64 -3.97,-1.35 -5.42,-2.11 0,0 0,-6.92 0,-6.92 0,0 0.31,0 0.31,0 1.85,1.53 3.91,2.75 6.19,3.66 2.27,0.89 4.44,1.34 6.53,1.34 2.58,0 4.6,-0.42 6.06,-1.27 1.46,-0.84 2.19,-2.17 2.19,-4 0,-1.38 -0.4,-2.43 -1.19,-3.15 -0.79,-0.72 -2.31,-1.33 -4.56,-1.83 -0.84,-0.2 -1.92,-0.42 -3.27,-0.67 -1.34,-0.25 -2.57,-0.52 -3.67,-0.81 -3.06,-0.82 -5.23,-2.04 -6.51,-3.63 -1.29,-1.59 -1.93,-3.55 -1.93,-5.86 0,-1.46 0.3,-2.83 0.89,-4.11 0.6,-1.28 1.5,-2.43 2.71,-3.45 1.16,-0.99 2.65,-1.77 4.45,-2.34 1.8,-0.59 3.82,-0.88 6.05,-0.88 2.08,0 4.19,0.26 6.33,0.78 2.13,0.51 3.91,1.14 5.32,1.88 0,0 0,6.34 0,6.34 0,0 -0.31,0 -0.31,0 -1.5,-1.12 -3.32,-2.07 -5.47,-2.84 -2.15,-0.77 -4.25,-1.16 -6.31,-1.16 -2.15,0 -3.96,0.42 -5.44,1.27 -1.48,0.83 -2.22,2.07 -2.22,3.71 0,1.45 0.45,2.55 1.35,3.29 0.87,0.74 2.29,1.34 4.25,1.79 1.08,0.26 2.29,0.52 3.64,0.77 1.34,0.25 2.46,0.48 3.36,0.69 2.72,0.63 4.83,1.72 6.31,3.26 1.48,1.56 2.22,3.62 2.22,6.19 z M 501,238.5 c 0,0 -5.88,0 -5.88,0 0,0 0,-20.34 0,-20.34 0,-1.65 -0.09,-3.19 -0.28,-4.63 -0.19,-1.44 -0.53,-2.56 -1.03,-3.37 -0.52,-0.9 -1.27,-1.57 -2.25,-2 -0.98,-0.44 -2.25,-0.66 -3.81,-0.66 -1.61,0 -3.28,0.41 -5.03,1.22 -1.75,0.81 -3.43,1.84 -5.03,3.09 0,0 0,26.69 0,26.69 0,0 -5.88,0 -5.88,0 0,0 0,-49 0,-49 0,0 5.88,0 5.88,0 0,0 0,17.86 0,17.86 1.83,-1.52 3.72,-2.71 5.68,-3.56 1.96,-0.87 3.97,-1.3 6.04,-1.3 3.76,0 6.64,1.14 8.62,3.42 1.98,2.28 2.97,5.56 2.97,9.85 0,0 0,22.73 0,22.73 z m 28.94,0.05 c -1.11,0.28 -2.31,0.5 -3.61,0.68 -1.31,0.18 -2.47,0.27 -3.49,0.27 -3.56,0 -6.27,-0.97 -8.12,-2.91 -1.86,-1.93 -2.78,-5.04 -2.78,-9.32 0,0 0,-18.77 0,-18.77 0,0 -3.97,0 -3.97,0 0,0 0,-5 0,-5 0,0 3.97,0 3.97,0 0,0 0,-10 0,-10 0,0 5.87,0 5.87,0 0,0 0,10 0,10 0,0 12.13,0 12.13,0 0,0 0,5 0,5 0,0 -12.13,0 -12.13,0 0,0 0,16.22 0,16.22 0,1.87 0.04,3.32 0.13,4.37 0.08,1.06 0.37,2.04 0.87,2.96 0.46,0.85 1.09,1.48 1.89,1.87 0.8,0.39 2.03,0.58 3.67,0.58 0.96,0 1.96,-0.12 3,-0.38 1.04,-0.24 1.79,-0.45 2.25,-0.62 0,0 0.32,0 0.32,0 0,0 0,5.05 0,5.05 z m 34,-0.05 c 0,0 -5.85,0 -5.85,0 0,0 0,-3.69 0,-3.69 -0.52,0.36 -1.22,0.85 -2.11,1.49 -0.88,0.63 -1.74,1.14 -2.57,1.51 -0.99,0.48 -2.11,0.88 -3.38,1.21 -1.27,0.32 -2.76,0.48 -4.47,0.48 -3.15,0 -5.81,-1.04 -8,-3.11 -2.19,-2.08 -3.28,-4.74 -3.28,-7.97 0,-2.64 0.57,-4.78 1.7,-6.4 1.14,-1.64 2.76,-2.93 4.86,-3.86 2.13,-0.94 4.68,-1.57 7.66,-1.91 2.98,-0.33 6.17,-0.58 9.59,-0.75 0,0 0,-0.97 0,-0.97 0,-1.41 -0.23,-2.59 -0.7,-3.53 -0.47,-0.94 -1.14,-1.67 -2.02,-2.2 -0.83,-0.51 -1.83,-0.85 -3,-1.03 -1.16,-0.18 -2.38,-0.27 -3.65,-0.27 -1.55,0 -3.26,0.26 -5.16,0.78 -1.9,0.51 -3.85,1.25 -5.87,2.22 0,0 -0.32,0 -0.32,0 0,0 0,-6.31 0,-6.31 1.15,-0.33 2.8,-0.7 4.97,-1.1 2.17,-0.39 4.3,-0.59 6.41,-0.59 2.46,0 4.6,0.21 6.42,0.62 1.82,0.41 3.4,1.11 4.74,2.08 1.31,0.97 2.31,2.22 3,3.75 0.68,1.53 1.03,3.43 1.03,5.69 0,0 0,23.86 0,23.86 z m -5.85,-8.16 c 0,0 0,-9.84 0,-9.84 -1.79,0.11 -3.9,0.27 -6.33,0.48 -2.43,0.22 -4.35,0.52 -5.76,0.91 -1.69,0.49 -3.06,1.25 -4.09,2.27 -1.05,1.02 -1.57,2.43 -1.57,4.23 0,2.02 0.6,3.55 1.81,4.58 1.21,1.02 3.06,1.53 5.54,1.53 2.06,0 3.94,-0.41 5.65,-1.22 1.71,-0.81 3.29,-1.79 4.75,-2.94 z m 45.03,21.16 c 0,0 -5.87,0 -5.87,0 0,0 0,-16.95 0,-16.95 -1.81,1.68 -3.62,2.92 -5.41,3.73 -1.79,0.81 -3.73,1.22 -5.81,1.22 -4.15,0 -7.45,-1.61 -9.92,-4.84 -2.47,-3.24 -3.7,-7.71 -3.7,-13.41 0,-3.03 0.42,-5.71 1.29,-8.05 0.87,-2.33 2.01,-4.28 3.42,-5.86 1.38,-1.54 2.99,-2.73 4.85,-3.57 1.85,-0.85 3.81,-1.27 5.87,-1.27 1.88,0 3.54,0.21 4.99,0.64 1.44,0.42 2.92,1.03 4.42,1.84 0,0 0.37,-1.48 0.37,-1.48 0,0 5.5,0 5.5,0 0,0 0,48 0,48 z m -5.87,-21.17 c 0,0 0,-20.77 0,-20.77 -1.63,-0.76 -3.06,-1.29 -4.31,-1.59 -1.25,-0.31 -2.61,-0.47 -4.07,-0.47 -3.39,0 -5.98,1.21 -7.75,3.64 -1.77,2.42 -2.65,5.75 -2.65,9.98 0,4.3 0.71,7.6 2.14,9.91 1.42,2.31 3.67,3.47 6.73,3.47 1.71,0 3.42,-0.38 5.13,-1.16 1.7,-0.78 3.3,-1.78 4.78,-3.01 z M 30.81,297.5 c 0,0 -4.25,0 -4.25,0 0,0 0,-27.61 0,-27.61 0,0 -8.89,18.61 -8.89,18.61 0,0 -2.55,0 -2.55,0 0,0 -8.82,-18.61 -8.82,-18.61 0,0 0,27.61 0,27.61 0,0 -3.97,0 -3.97,0 0,0 0,-32 0,-32 0,0 5.79,0 5.79,0 0,0 8.53,17.67 8.53,17.67 0,0 8.26,-17.67 8.26,-17.67 0,0 5.9,0 5.9,0 0,0 0,32 0,32 z m 14.8,0 c 0,0 -5.14,0 -5.14,0 0,0 0,-6 0,-6 0,0 5.14,0 5.14,0 0,0 0,6 0,6 z m 33.84,-9.72 c 0,1.56 -0.3,2.95 -0.9,4.16 -0.6,1.2 -1.41,2.18 -2.43,2.97 -1.21,0.93 -2.53,1.6 -3.97,2 -1.43,0.39 -3.26,0.59 -5.48,0.59 0,0 -11.34,0 -11.34,0 0,0 0,-32 0,-32 0,0 9.48,0 9.48,0 2.33,0 4.08,0.09 5.24,0.27 1.16,0.16 2.27,0.52 3.32,1.07 1.18,0.63 2.04,1.43 2.57,2.41 0.53,0.97 0.79,2.13 0.79,3.48 0,1.54 -0.39,2.84 -1.17,3.93 -0.77,1.07 -1.8,1.96 -3.09,2.68 0,0 0,0.18 0,0.18 2.16,0.43 3.86,1.37 5.11,2.81 1.25,1.44 1.87,3.26 1.87,5.45 z M 72.3,273.5 c 0,-0.75 -0.14,-1.38 -0.39,-1.91 -0.26,-0.52 -0.67,-0.93 -1.24,-1.25 -0.68,-0.38 -1.5,-0.61 -2.45,-0.7 -0.96,-0.09 -2.15,-0.14 -3.57,-0.14 0,0 -5.07,0 -5.07,0 0,0 0,9 0,9 0,0 5.5,0 5.5,0 1.33,0 2.39,-0.06 3.17,-0.19 0.79,-0.13 1.52,-0.41 2.2,-0.84 0.67,-0.42 1.14,-0.95 1.42,-1.61 0.28,-0.66 0.43,-1.45 0.43,-2.36 z m 2.73,14.42 c 0,-1.19 -0.2,-2.13 -0.58,-2.83 -0.38,-0.7 -1.09,-1.3 -2.11,-1.79 -0.69,-0.34 -1.52,-0.55 -2.5,-0.64 -0.98,-0.11 -2.17,-0.16 -3.58,-0.16 0,0 -6.68,0 -6.68,0 0,0 0,11 0,11 0,0 5.62,0 5.62,0 1.87,0 3.39,-0.09 4.58,-0.27 1.2,-0.17 2.17,-0.5 2.92,-0.98 0.8,-0.52 1.39,-1.11 1.77,-1.77 0.37,-0.66 0.56,-1.52 0.56,-2.56 z m 16.58,9.58 c 0,0 -5.14,0 -5.14,0 0,0 0,-6 0,-6 0,0 5.14,0 5.14,0 0,0 0,6 0,6 z m 33.84,-9.72 c 0,1.56 -0.3,2.95 -0.9,4.16 -0.6,1.2 -1.41,2.18 -2.43,2.97 -1.21,0.93 -2.53,1.6 -3.97,2 -1.43,0.39 -3.26,0.59 -5.48,0.59 0,0 -11.34,0 -11.34,0 0,0 0,-32 0,-32 0,0 9.48,0 9.48,0 2.33,0 4.08,0.09 5.24,0.27 1.16,0.16 2.27,0.52 3.32,1.07 1.18,0.63 2.04,1.43 2.57,2.41 0.53,0.97 0.79,2.13 0.79,3.48 0,1.54 -0.39,2.84 -1.17,3.93 -0.77,1.07 -1.8,1.96 -3.09,2.68 0,0 0,0.18 0,0.18 2.16,0.43 3.86,1.37 5.11,2.81 1.25,1.44 1.87,3.26 1.87,5.45 z M 118.3,273.5 c 0,-0.75 -0.14,-1.38 -0.39,-1.91 -0.26,-0.52 -0.67,-0.93 -1.24,-1.25 -0.68,-0.38 -1.5,-0.61 -2.45,-0.7 -0.96,-0.09 -2.15,-0.14 -3.57,-0.14 0,0 -5.07,0 -5.07,0 0,0 0,9 0,9 0,0 5.5,0 5.5,0 1.33,0 2.39,-0.06 3.17,-0.19 0.79,-0.13 1.52,-0.41 2.2,-0.84 0.67,-0.42 1.14,-0.95 1.42,-1.61 0.28,-0.66 0.43,-1.45 0.43,-2.36 z m 2.73,14.42 c 0,-1.19 -0.2,-2.13 -0.58,-2.83 -0.38,-0.7 -1.09,-1.3 -2.11,-1.79 -0.69,-0.34 -1.52,-0.55 -2.5,-0.64 -0.98,-0.11 -2.17,-0.16 -3.58,-0.16 0,0 -6.68,0 -6.68,0 0,0 0,11 0,11 0,0 5.62,0 5.62,0 1.87,0 3.39,-0.09 4.58,-0.27 1.2,-0.17 2.17,-0.5 2.92,-0.98 0.8,-0.52 1.39,-1.11 1.77,-1.77 0.37,-0.66 0.56,-1.52 0.56,-2.56 z m 16.58,9.58 c 0,0 -5.14,0 -5.14,0 0,0 0,-6 0,-6 0,0 5.14,0 5.14,0 0,0 0,6 0,6 z m 32.97,-8.95 c 0,1.28 -0.3,2.54 -0.88,3.79 -0.57,1.25 -1.38,2.3 -2.44,3.16 -1.14,0.95 -2.48,1.68 -4.01,2.2 -1.52,0.53 -3.36,0.8 -5.5,0.8 -2.31,0 -4.39,-0.22 -6.24,-0.66 -1.83,-0.43 -3.7,-1.08 -5.6,-1.93 0,0 0,-5.41 0,-5.41 0,0 0.29,0 0.29,0 1.63,1.28 3.49,2.27 5.61,2.97 2.13,0.69 4.12,1.03 5.99,1.03 2.63,0 4.68,-0.48 6.15,-1.45 1.47,-0.98 2.2,-2.28 2.2,-3.89 0,-1.46 -0.35,-2.54 -1.04,-3.22 -0.69,-0.69 -1.75,-1.23 -3.17,-1.61 -1.08,-0.29 -2.24,-0.53 -3.49,-0.72 -1.25,-0.2 -2.58,-0.44 -3.98,-0.73 -2.84,-0.62 -4.94,-1.67 -6.32,-3.16 -1.36,-1.49 -2.04,-3.43 -2.04,-5.83 0,-2.75 1.13,-5 3.39,-6.75 2.26,-1.76 5.13,-2.64 8.61,-2.64 2.25,0 4.31,0.21 6.19,0.62 1.87,0.42 3.53,0.93 4.98,1.54 0,0 0,4.84 0,4.84 0,0 -0.3,0 -0.3,0 -1.22,-0.86 -2.82,-1.58 -4.81,-2.14 -1.98,-0.57 -4.01,-0.86 -6.08,-0.86 -2.28,0 -4.11,0.46 -5.5,1.39 -1.37,0.93 -2.06,2.12 -2.06,3.58 0,1.37 0.34,2.44 1.03,3.22 0.69,0.78 1.9,1.37 3.63,1.78 0.91,0.21 2.22,0.46 3.9,0.75 1.7,0.29 3.14,0.59 4.32,0.9 2.37,0.65 4.16,1.63 5.35,2.94 1.21,1.31 1.82,3.14 1.82,5.49 z m 13.03,8.95 c 0,0 -5.14,0 -5.14,0 0,0 0,-6 0,-6 0,0 5.14,0 5.14,0 0,0 0,6 0,6 z m 14.78,-6 c 0,0 -6.06,14 -6.06,14 0,0 -3.14,0 -3.14,0 0,0 3.73,-14 3.73,-14 0,0 5.47,0 5.47,0 z m 49.97,-9.97 c 0,2.91 -0.64,5.54 -1.91,7.91 -1.26,2.36 -2.95,4.2 -5.06,5.5 -1.46,0.9 -3.09,1.56 -4.89,1.97 -1.79,0.39 -4.16,0.59 -7.09,0.59 0,0 -8.08,0 -8.08,0 0,0 0,-32 0,-32 0,0 8,0 8,0 3.11,0 5.59,0.23 7.43,0.69 1.85,0.45 3.4,1.06 4.68,1.84 2.17,1.37 3.87,3.18 5.09,5.45 1.22,2.27 1.83,4.95 1.83,8.05 z m -4.45,-0.06 c 0,-2.44 -0.44,-4.49 -1.32,-6.16 -0.87,-1.67 -2.18,-2.99 -3.9,-3.95 -1.27,-0.7 -2.61,-1.18 -4.02,-1.45 -1.42,-0.27 -3.12,-0.41 -5.09,-0.41 0,0 -4,0 -4,0 0,0 0,24 0,24 0,0 4,0 4,0 2.04,0 3.82,-0.14 5.34,-0.44 1.53,-0.29 2.94,-0.83 4.22,-1.62 1.58,-0.99 2.77,-2.29 3.56,-3.91 0.8,-1.61 1.21,-3.63 1.21,-6.06 z m 16.7,16.03 c 0,0 -5.14,0 -5.14,0 0,0 0,-6 0,-6 0,0 5.14,0 5.14,0 0,0 0,6 0,6 z m 34.42,-1.94 c -0.79,0.35 -1.51,0.67 -2.14,0.99 -0.64,0.3 -1.47,0.62 -2.5,0.95 -0.88,0.27 -1.82,0.5 -2.84,0.7 -1.03,0.2 -2.16,0.3 -3.4,0.3 -2.31,0 -4.42,-0.34 -6.32,-1 -1.9,-0.66 -3.55,-1.71 -4.96,-3.14 -1.37,-1.4 -2.45,-3.16 -3.22,-5.31 -0.77,-2.16 -1.15,-4.66 -1.15,-7.52 0,-2.69 0.37,-5.11 1.11,-7.23 0.75,-2.14 1.83,-3.94 3.23,-5.41 1.35,-1.43 2.99,-2.51 4.92,-3.27 1.93,-0.74 4.07,-1.12 6.43,-1.12 1.72,0 3.43,0.21 5.14,0.64 1.7,0.42 3.61,1.16 5.7,2.22 0,0 0,5.14 0,5.14 0,0 -0.33,0 -0.33,0 -1.76,-1.39 -3.51,-2.41 -5.25,-3.05 -1.73,-0.63 -3.58,-0.95 -5.54,-0.95 -1.63,0 -3.09,0.27 -4.4,0.8 -1.29,0.52 -2.44,1.33 -3.45,2.43 -0.99,1.09 -1.76,2.46 -2.31,4.11 -0.56,1.65 -0.83,3.55 -0.83,5.71 0,2.27 0.3,4.22 0.91,5.84 0.61,1.63 1.4,2.95 2.36,3.97 1,1.07 2.16,1.87 3.5,2.37 1.34,0.52 2.75,0.77 4.25,0.77 2.05,0 3.97,-0.33 5.76,-1 1.79,-0.66 3.47,-1.66 5.03,-3 0,0 0.3,0 0.3,0 0,0 0,5.06 0,5.06 z m 12.58,1.94 c 0,0 -5.14,0 -5.14,0 0,0 0,-6 0,-6 0,0 5.14,0 5.14,0 0,0 0,6 0,6 z m 30.64,-22.36 c 0,1.41 -0.25,2.72 -0.75,3.92 -0.49,1.21 -1.18,2.26 -2.06,3.14 -1.11,1.1 -2.42,1.92 -3.93,2.47 -1.5,0.56 -3.39,0.83 -5.68,0.83 0,0 -4.25,0 -4.25,0 0,0 0,12 0,12 0,0 -4.25,0 -4.25,0 0,0 0,-32 0,-32 0,0 8.67,0 8.67,0 1.92,0 3.55,0.16 4.87,0.48 1.34,0.33 2.52,0.83 3.55,1.5 1.22,0.83 2.16,1.85 2.83,3.07 0.66,1.21 1,2.74 1,4.59 z m -4.42,0.11 c 0,-1.04 -0.2,-1.94 -0.58,-2.7 -0.39,-0.77 -0.98,-1.4 -1.77,-1.88 -0.68,-0.41 -1.47,-0.71 -2.36,-0.89 -0.87,-0.19 -1.98,-0.28 -3.32,-0.28 0,0 -4.22,0 -4.22,0 0,0 0,12 0,12 0,0 3.59,0 3.59,0 1.72,0 3.11,-0.14 4.19,-0.44 1.07,-0.29 1.94,-0.75 2.62,-1.37 0.67,-0.65 1.14,-1.32 1.43,-2.03 0.28,-0.72 0.42,-1.52 0.42,-2.41 z m 9.78,22.25 c 0,0 -5.14,0 -5.14,0 0,0 0,-6 0,-6 0,0 5.14,0 5.14,0 0,0 0,6 0,6 z m 14.78,-6 c 0,0 -6.06,14 -6.06,14 0,0 -3.14,0 -3.14,0 0,0 3.73,-14 3.73,-14 0,0 5.47,0 5.47,0 z m 51.42,6 c 0,0 -4.25,0 -4.25,0 0,0 0,-27.61 0,-27.61 0,0 -8.89,18.61 -8.89,18.61 0,0 -2.55,0 -2.55,0 0,0 -8.82,-18.61 -8.82,-18.61 0,0 0,27.61 0,27.61 0,0 -3.97,0 -3.97,0 0,0 0,-32 0,-32 0,0 5.79,0 5.79,0 0,0 8.53,17.67 8.53,17.67 0,0 8.26,-17.67 8.26,-17.67 0,0 5.9,0 5.9,0 0,0 0,32 0,32 z m 14.8,0 c 0,0 -5.14,0 -5.14,0 0,0 0,-6 0,-6 0,0 5.14,0 5.14,0 0,0 0,6 0,6 z m 30.64,-22.36 c 0,1.41 -0.25,2.72 -0.75,3.92 -0.49,1.21 -1.18,2.26 -2.06,3.14 -1.11,1.1 -2.42,1.92 -3.93,2.47 -1.5,0.56 -3.39,0.83 -5.68,0.83 0,0 -4.25,0 -4.25,0 0,0 0,12 0,12 0,0 -4.25,0 -4.25,0 0,0 0,-32 0,-32 0,0 8.67,0 8.67,0 1.92,0 3.55,0.16 4.87,0.48 1.34,0.33 2.52,0.83 3.55,1.5 1.22,0.83 2.16,1.85 2.83,3.07 0.66,1.21 1,2.74 1,4.59 z m -4.42,0.11 c 0,-1.04 -0.2,-1.94 -0.58,-2.7 -0.39,-0.77 -0.98,-1.4 -1.77,-1.88 -0.68,-0.41 -1.47,-0.71 -2.36,-0.89 -0.87,-0.19 -1.98,-0.28 -3.32,-0.28 0,0 -4.22,0 -4.22,0 0,0 0,12 0,12 0,0 3.59,0 3.59,0 1.72,0 3.11,-0.14 4.19,-0.44 1.07,-0.29 1.94,-0.75 2.62,-1.37 0.67,-0.65 1.14,-1.32 1.43,-2.03 0.28,-0.72 0.42,-1.52 0.42,-2.41 z m 30.25,22.25 c 0,0 -4.05,0 -4.05,0 0,0 0,-13.78 0,-13.78 0,-1.11 -0.07,-2.16 -0.2,-3.13 -0.13,-0.97 -0.36,-1.74 -0.71,-2.29 -0.35,-0.6 -0.87,-1.05 -1.54,-1.35 -0.67,-0.3 -1.54,-0.45 -2.61,-0.45 -1.11,0 -2.26,0.28 -3.47,0.83 -1.2,0.54 -2.35,1.24 -3.45,2.09 0,0 0,18.08 0,18.08 0,0 -4.05,0 -4.05,0 0,0 0,-34 0,-34 0,0 4.05,0 4.05,0 0,0 0,12.38 0,12.38 1.25,-1.07 2.56,-1.9 3.9,-2.49 1.35,-0.59 2.74,-0.89 4.16,-0.89 2.59,0 4.56,0.79 5.92,2.38 1.36,1.58 2.05,3.86 2.05,6.84 0,0 0,15.78 0,15.78 z m 12.26,-28 c 0,0 -4.54,0 -4.54,0 0,0 0,-4 0,-4 0,0 4.54,0 4.54,0 0,0 0,4 0,4 z m -0.25,28 c 0,0 -4.04,0 -4.04,0 0,0 0,-24 0,-24 0,0 4.04,0 4.04,0 0,0 0,24 0,24 z m 12,0 c 0,0 -4.04,0 -4.04,0 0,0 0,-34 0,-34 0,0 4.04,0 4.04,0 0,0 0,34 0,34 z m 35.77,9 c 0,0 -4.92,0 -4.92,0 -2.53,-2.96 -4.5,-6.18 -5.91,-9.67 -1.41,-3.5 -2.11,-7.44 -2.11,-11.83 0,-4.38 0.7,-8.32 2.11,-11.81 1.41,-3.5 3.38,-6.73 5.91,-9.69 0,0 4.92,0 4.92,0 0,0 0,0.22 0,0.22 -1.16,1.06 -2.27,2.29 -3.33,3.69 -1.05,1.38 -2.03,3 -2.92,4.86 -0.87,1.79 -1.57,3.76 -2.11,5.92 -0.53,2.15 -0.8,4.43 -0.8,6.81 0,2.49 0.26,4.77 0.78,6.84 0.52,2.07 1.23,4.03 2.13,5.89 0.85,1.79 1.83,3.41 2.94,4.86 1.1,1.46 2.2,2.69 3.31,3.69 0,0 0,0.22 0,0.22 z m 31.94,-9 c 0,0 -4.25,0 -4.25,0 0,0 0,-15 0,-15 0,0 -15.97,0 -15.97,0 0,0 0,15 0,15 0,0 -4.25,0 -4.25,0 0,0 0,-32 0,-32 0,0 4.25,0 4.25,0 0,0 0,13 0,13 0,0 15.97,0 15.97,0 0,0 0,-13 0,-13 0,0 4.25,0 4.25,0 0,0 0,32 0,32 z m 12.54,-28 c 0,0 -4.54,0 -4.54,0 0,0 0,-4 0,-4 0,0 4.54,0 4.54,0 0,0 0,4 0,4 z m -0.25,28 c 0,0 -4.04,0 -4.04,0 0,0 0,-24 0,-24 0,0 4.04,0 4.04,0 0,0 0,24 0,24 z m 25.06,-6.75 c 0,2.26 -0.9,4.12 -2.71,5.58 -1.82,1.44 -4.29,2.17 -7.43,2.17 -1.78,0 -3.41,-0.23 -4.9,-0.69 -1.48,-0.44 -2.72,-0.93 -3.72,-1.47 0,0 0,-4.84 0,-4.84 0,0 0.22,0 0.22,0 1.27,1.22 2.69,2.2 4.25,2.92 1.56,0.72 3.06,1.08 4.5,1.08 1.77,0 3.15,-0.34 4.15,-1.02 1.01,-0.67 1.52,-1.74 1.52,-3.2 0,-0.98 -0.27,-1.72 -0.81,-2.22 -0.56,-0.5 -1.6,-0.92 -3.14,-1.28 -0.58,-0.13 -1.33,-0.29 -2.25,-0.47 -0.93,-0.17 -1.78,-0.36 -2.53,-0.58 -2.11,-0.57 -3.61,-1.41 -4.49,-2.53 -0.87,-1.12 -1.31,-2.5 -1.31,-4.12 0,-1.02 0.2,-1.99 0.61,-2.89 0.4,-0.91 1.02,-1.71 1.86,-2.42 0.8,-0.7 1.82,-1.25 3.06,-1.66 1.24,-0.41 2.62,-0.61 4.16,-0.61 1.43,0 2.89,0.17 4.36,0.52 1.46,0.34 2.68,0.76 3.65,1.25 0,0 0,4.23 0,4.23 0,0 -0.22,0 -0.22,0 -1.03,-0.84 -2.29,-1.55 -3.76,-2.12 -1.47,-0.59 -2.92,-0.88 -4.33,-0.88 -1.48,0 -2.73,0.34 -3.75,1.02 -1.01,0.66 -1.52,1.66 -1.52,3 0,1.02 0.31,1.79 0.93,2.31 0.6,0.52 1.57,0.94 2.92,1.26 0.75,0.18 1.58,0.36 2.5,0.53 0.92,0.18 1.69,0.34 2.31,0.49 1.88,0.45 3.33,1.21 4.34,2.28 1.02,1.11 1.53,2.56 1.53,4.36 z m 18.32,6.95 c -0.76,0.23 -1.59,0.42 -2.49,0.57 -0.9,0.15 -1.69,0.23 -2.39,0.23 -2.45,0 -4.31,-0.69 -5.59,-2.06 -1.27,-1.38 -1.91,-3.58 -1.91,-6.61 0,0 0,-13.33 0,-13.33 0,0 -2.73,0 -2.73,0 0,0 0,-3 0,-3 0,0 2.73,0 2.73,0 0,0 0,-7 0,-7 0,0 4.03,0 4.03,0 0,0 0,7 0,7 0,0 8.35,0 8.35,0 0,0 0,3 0,3 0,0 -8.35,0 -8.35,0 0,0 0,11.23 0,11.23 0,1.3 0.03,2.31 0.08,3.04 0.06,0.73 0.27,1.4 0.61,2.03 0.31,0.59 0.74,1.02 1.3,1.29 0.55,0.28 1.39,0.41 2.53,0.41 0.66,0 1.34,-0.12 2.06,-0.38 0.72,-0.24 1.24,-0.45 1.55,-0.62 0,0 0.22,0 0.22,0 0,0 0,4.2 0,4.2 z m 24.98,-12.18 c 0,4.01 -1.01,7.18 -3.01,9.5 -2,2.32 -4.69,3.48 -8.05,3.48 -3.4,0 -6.09,-1.16 -8.09,-3.48 -2,-2.32 -2.99,-5.49 -2.99,-9.5 0,-4.02 0.99,-7.2 2.99,-9.52 2,-2.33 4.69,-3.5 8.09,-3.5 3.36,0 6.05,1.17 8.05,3.5 2,2.32 3.01,5.5 3.01,9.52 z m -4.15,0 c 0,-3.06 -0.61,-5.32 -1.83,-6.8 -1.22,-1.48 -2.91,-2.22 -5.06,-2.22 -2.2,0 -3.91,0.74 -5.11,2.22 -1.22,1.48 -1.82,3.74 -1.82,6.8 0,2.94 0.61,5.18 1.83,6.7 1.22,1.52 2.92,2.28 5.1,2.28 2.14,0 3.82,-0.75 5.04,-2.27 1.23,-1.5 1.85,-3.75 1.85,-6.71 z m 31.82,-0.22 c 0,2.02 -0.28,3.86 -0.84,5.53 -0.55,1.67 -1.34,3.08 -2.36,4.23 -0.95,1.1 -2.06,1.94 -3.34,2.53 -1.28,0.61 -2.64,0.91 -4.07,0.91 -1.25,0 -2.38,-0.14 -3.39,-0.42 -1.01,-0.28 -2.04,-0.72 -3.07,-1.31 0,0 0,9.73 0,9.73 0,0 -4.05,0 -4.05,0 0,0 0,-33 0,-33 0,0 4.05,0 4.05,0 0,0 0,2.28 0,2.28 1.07,-0.92 2.27,-1.7 3.6,-2.33 1.35,-0.63 2.78,-0.95 4.3,-0.95 2.9,0 5.15,1.13 6.75,3.39 1.62,2.26 2.42,5.4 2.42,9.41 z m -4.17,0 c 0,-2.95 -0.49,-5.15 -1.48,-6.61 -0.99,-1.46 -2.51,-2.19 -4.55,-2.19 -1.17,0 -2.34,0.26 -3.51,0.77 -1.17,0.51 -2.29,1.18 -3.36,2.01 0,0 0,13.86 0,13.86 1.14,0.53 2.12,0.89 2.95,1.08 0.82,0.19 1.75,0.28 2.8,0.28 2.25,0 4,-0.77 5.26,-2.31 1.26,-1.55 1.89,-3.85 1.89,-6.89 z m 28.7,12.2 c 0,0 -4.01,0 -4.01,0 0,0 0,-2.31 0,-2.31 -0.36,0.25 -0.84,0.6 -1.45,1.04 -0.61,0.45 -1.2,0.81 -1.77,1.08 -0.68,0.33 -1.45,0.62 -2.33,0.85 -0.87,0.22 -1.9,0.34 -3.08,0.34 -2.15,0 -3.99,-0.73 -5.5,-2.2 -1.5,-1.48 -2.25,-3.36 -2.25,-5.64 0,-1.88 0.39,-3.39 1.18,-4.55 0.78,-1.16 1.89,-2.07 3.34,-2.73 1.46,-0.66 3.21,-1.11 5.25,-1.35 2.05,-0.24 4.25,-0.41 6.61,-0.53 0,0 0,-0.61 0,-0.61 0,-0.88 -0.16,-1.62 -0.49,-2.2 -0.32,-0.58 -0.78,-1.04 -1.39,-1.38 -0.57,-0.32 -1.26,-0.53 -2.06,-0.64 -0.8,-0.11 -1.64,-0.17 -2.51,-0.17 -1.06,0 -2.24,0.09 -3.55,0.27 -1.31,0.16 -2.65,0.41 -4.03,0.73 0,0 -0.22,0 -0.22,0 0,0 0,-3.95 0,-3.95 0.79,-0.2 1.93,-0.43 3.42,-0.67 1.49,-0.26 2.96,-0.38 4.41,-0.38 1.69,0 3.15,0.15 4.4,0.44 1.26,0.28 2.35,0.76 3.27,1.44 0.89,0.67 1.58,1.54 2.05,2.6 0.47,1.07 0.71,2.39 0.71,3.96 0,0 0,16.56 0,16.56 z m -4.01,-5.67 c 0,0 0,-6.33 0,-6.33 -1.23,0.07 -2.68,0.18 -4.36,0.31 -1.67,0.14 -2.98,0.33 -3.95,0.58 -1.16,0.31 -2.1,0.81 -2.82,1.47 -0.71,0.66 -1.07,1.56 -1.07,2.7 0,1.32 0.41,2.3 1.25,2.96 0.83,0.65 2.09,0.98 3.79,0.98 1.42,0 2.71,-0.26 3.89,-0.78 1.18,-0.52 2.27,-1.15 3.27,-1.89 z m 23.83,5.87 c -0.76,0.23 -1.59,0.42 -2.49,0.57 -0.9,0.15 -1.69,0.23 -2.39,0.23 -2.45,0 -4.31,-0.69 -5.59,-2.06 -1.27,-1.38 -1.91,-3.58 -1.91,-6.61 0,0 0,-13.33 0,-13.33 0,0 -2.73,0 -2.73,0 0,0 0,-3 0,-3 0,0 2.73,0 2.73,0 0,0 0,-7 0,-7 0,0 4.03,0 4.03,0 0,0 0,7 0,7 0,0 8.35,0 8.35,0 0,0 0,3 0,3 0,0 -8.35,0 -8.35,0 0,0 0,11.23 0,11.23 0,1.3 0.03,2.31 0.08,3.04 0.06,0.73 0.27,1.4 0.61,2.03 0.31,0.59 0.74,1.02 1.3,1.29 0.55,0.28 1.39,0.41 2.53,0.41 0.66,0 1.34,-0.12 2.06,-0.38 0.72,-0.24 1.24,-0.45 1.55,-0.62 0,0 0.22,0 0.22,0 0,0 0,4.2 0,4.2 z m 24.61,-0.2 c 0,0 -4.05,0 -4.05,0 0,0 0,-13.78 0,-13.78 0,-1.11 -0.07,-2.16 -0.2,-3.13 -0.13,-0.97 -0.36,-1.74 -0.71,-2.29 -0.35,-0.6 -0.87,-1.05 -1.54,-1.35 -0.67,-0.3 -1.54,-0.45 -2.61,-0.45 -1.11,0 -2.26,0.28 -3.47,0.83 -1.2,0.54 -2.35,1.24 -3.45,2.09 0,0 0,18.08 0,18.08 0,0 -4.05,0 -4.05,0 0,0 0,-34 0,-34 0,0 4.05,0 4.05,0 0,0 0,12.38 0,12.38 1.25,-1.07 2.56,-1.9 3.9,-2.49 1.35,-0.59 2.74,-0.89 4.16,-0.89 2.59,0 4.56,0.79 5.92,2.38 1.36,1.58 2.05,3.86 2.05,6.84 0,0 0,15.78 0,15.78 z m 28.37,-11.98 c 0,4.01 -1.01,7.18 -3.01,9.5 -2,2.32 -4.69,3.48 -8.05,3.48 -3.4,0 -6.09,-1.16 -8.09,-3.48 -2,-2.32 -2.99,-5.49 -2.99,-9.5 0,-4.02 0.99,-7.2 2.99,-9.52 2,-2.33 4.69,-3.5 8.09,-3.5 3.36,0 6.05,1.17 8.05,3.5 2,2.32 3.01,5.5 3.01,9.52 z m -4.15,0 c 0,-3.06 -0.61,-5.32 -1.83,-6.8 -1.22,-1.48 -2.91,-2.22 -5.06,-2.22 -2.2,0 -3.91,0.74 -5.11,2.22 -1.22,1.48 -1.82,3.74 -1.82,6.8 0,2.94 0.61,5.18 1.83,6.7 1.22,1.52 2.92,2.28 5.1,2.28 2.14,0 3.82,-0.75 5.04,-2.27 1.23,-1.5 1.85,-3.75 1.85,-6.71 z m 14.79,11.98 c 0,0 -4.04,0 -4.04,0 0,0 0,-34 0,-34 0,0 4.04,0 4.04,0 0,0 0,34 0,34 z m 28.36,-11.98 c 0,4.01 -1.01,7.18 -3.01,9.5 -2,2.32 -4.69,3.48 -8.05,3.48 -3.4,0 -6.09,-1.16 -8.09,-3.48 -2,-2.32 -2.99,-5.49 -2.99,-9.5 0,-4.02 0.99,-7.2 2.99,-9.52 2,-2.33 4.69,-3.5 8.09,-3.5 3.36,0 6.05,1.17 8.05,3.5 2,2.32 3.01,5.5 3.01,9.52 z m -4.15,0 c 0,-3.06 -0.61,-5.32 -1.83,-6.8 -1.22,-1.48 -2.91,-2.22 -5.06,-2.22 -2.2,0 -3.91,0.74 -5.11,2.22 -1.22,1.48 -1.82,3.74 -1.82,6.8 0,2.94 0.61,5.18 1.83,6.7 1.22,1.52 2.92,2.28 5.1,2.28 2.14,0 3.82,-0.75 5.04,-2.27 1.23,-1.5 1.85,-3.75 1.85,-6.71 z m 30.17,9.2 c 0,4.05 -0.93,7.02 -2.78,8.92 -1.85,1.91 -4.69,2.86 -8.52,2.86 -1.28,0 -2.53,-0.09 -3.73,-0.27 -1.21,-0.16 -2.41,-0.41 -3.58,-0.73 0,0 0,-4 0,-4 0,0 0.22,0 0.22,0 0.65,0.16 1.69,0.38 3.12,0.62 1.44,0.26 2.88,0.38 4.31,0.38 1.38,0 2.51,-0.15 3.41,-0.45 0.91,-0.31 1.61,-0.73 2.13,-1.27 0.5,-0.51 0.85,-1.12 1.06,-1.84 0.22,-0.72 0.33,-1.53 0.33,-2.42 0,0 0,-2 0,-2 -1.22,1 -2.39,1.75 -3.5,2.25 -1.11,0.49 -2.52,0.73 -4.24,0.73 -2.87,0 -5.14,-1.06 -6.83,-3.19 -1.68,-2.13 -2.51,-5.14 -2.51,-9.01 0,-2.13 0.28,-3.96 0.86,-5.49 0.58,-1.54 1.38,-2.87 2.39,-4 0.92,-1.04 2.05,-1.85 3.39,-2.43 1.33,-0.59 2.65,-0.88 3.97,-0.88 1.39,0 2.56,0.15 3.5,0.44 0.94,0.28 1.92,0.72 2.97,1.31 0,0 0.25,-0.75 0.25,-0.75 0,0 3.78,0 3.78,0 0,0 0,21.22 0,21.22 z M 839.44,291 c 0,0 0,-13.14 0,-13.14 -1.08,-0.49 -2.08,-0.84 -3,-1.05 -0.93,-0.2 -1.86,-0.31 -2.77,-0.31 -2.22,0 -3.97,0.75 -5.25,2.25 -1.27,1.49 -1.91,3.66 -1.91,6.52 0,2.69 0.48,4.74 1.43,6.14 0.94,1.39 2.51,2.09 4.7,2.09 1.18,0 2.35,-0.22 3.53,-0.67 1.19,-0.46 2.27,-1.07 3.27,-1.83 z m 32.32,-17.5 c 0,0 -14.01,33 -14.01,33 0,0 -4.31,0 -4.31,0 0,0 4.47,-10.06 4.47,-10.06 0,0 -9.57,-22.94 -9.57,-22.94 0,0 4.39,0 4.39,0 0,0 7.36,17.8 7.36,17.8 0,0 7.44,-17.8 7.44,-17.8 0,0 4.23,0 4.23,0 z m 17.36,11.5 c 0,4.39 -0.7,8.33 -2.11,11.83 -1.4,3.49 -3.37,6.71 -5.9,9.67 0,0 -4.92,0 -4.92,0 0,0 0,-0.22 0,-0.22 1.1,-1 2.2,-2.23 3.31,-3.69 1.11,-1.45 2.09,-3.07 2.94,-4.86 0.89,-1.86 1.6,-3.82 2.12,-5.89 0.52,-2.07 0.78,-4.35 0.78,-6.84 0,-2.38 -0.26,-4.66 -0.79,-6.81 -0.54,-2.16 -1.24,-4.13 -2.11,-5.92 -0.9,-1.86 -1.88,-3.48 -2.94,-4.86 -1.06,-1.4 -2.16,-2.63 -3.31,-3.69 0,0 0,-0.22 0,-0.22 0,0 4.92,0 4.92,0 2.53,2.96 4.5,6.19 5.9,9.69 1.41,3.49 2.11,7.43 2.11,11.81 z M 30.81,352.5 c 0,0 -4.25,0 -4.25,0 0,0 0,-27.61 0,-27.61 0,0 -8.89,18.61 -8.89,18.61 0,0 -2.55,0 -2.55,0 0,0 -8.82,-18.61 -8.82,-18.61 0,0 0,27.61 0,27.61 0,0 -3.97,0 -3.97,0 0,0 0,-32 0,-32 0,0 5.79,0 5.79,0 0,0 8.53,17.67 8.53,17.67 0,0 8.26,-17.67 8.26,-17.67 0,0 5.9,0 5.9,0 0,0 0,32 0,32 z m 28.64,-11.98 c 0,4.01 -1.01,7.18 -3.01,9.5 -2,2.32 -4.69,3.48 -8.05,3.48 -3.4,0 -6.09,-1.16 -8.09,-3.48 -2,-2.32 -2.99,-5.49 -2.99,-9.5 0,-4.02 0.99,-7.2 2.99,-9.52 2,-2.33 4.69,-3.5 8.09,-3.5 3.36,0 6.05,1.17 8.05,3.5 2,2.32 3.01,5.5 3.01,9.52 z m -4.15,0 c 0,-3.06 -0.61,-5.32 -1.83,-6.8 -1.22,-1.48 -2.91,-2.22 -5.06,-2.22 -2.2,0 -3.91,0.74 -5.11,2.22 -1.22,1.48 -1.82,3.74 -1.82,6.8 0,2.94 0.61,5.18 1.83,6.7 1.22,1.52 2.92,2.28 5.1,2.28 2.14,0 3.82,-0.75 5.04,-2.27 1.23,-1.5 1.85,-3.75 1.85,-6.71 z m 31.82,-0.21 c 0,2.07 -0.29,3.92 -0.86,5.57 -0.56,1.64 -1.32,3.02 -2.28,4.14 -1.01,1.16 -2.12,2.03 -3.34,2.6 -1.22,0.59 -2.56,0.88 -4.02,0.88 -1.36,0 -2.55,-0.17 -3.57,-0.5 -1.02,-0.32 -2.02,-0.77 -3,-1.33 0,0 -0.27,0.83 -0.27,0.83 0,0 -3.78,0 -3.78,0 0,0 0,-34 0,-34 0,0 4.05,0 4.05,0 0,0 0,12.27 0,12.27 1.13,-0.96 2.33,-1.74 3.6,-2.35 1.27,-0.61 2.71,-0.92 4.3,-0.92 2.83,0 5.07,1.12 6.7,3.36 1.65,2.23 2.47,5.38 2.47,9.45 z m -4.17,0 c 0,-2.88 -0.47,-5.07 -1.42,-6.56 -0.94,-1.5 -2.46,-2.25 -4.56,-2.25 -1.18,0 -2.37,0.26 -3.58,0.77 -1.2,0.51 -2.31,1.17 -3.34,1.98 0,0 0,13.86 0,13.86 1.14,0.52 2.12,0.89 2.95,1.09 0.82,0.2 1.75,0.3 2.8,0.3 2.23,0 3.98,-0.74 5.25,-2.22 1.27,-1.48 1.9,-3.8 1.9,-6.97 z M 97.34,324.5 c 0,0 -4.54,0 -4.54,0 0,0 0,-4 0,-4 0,0 4.54,0 4.54,0 0,0 0,4 0,4 z m -0.25,28 c 0,0 -4.04,0 -4.04,0 0,0 0,-24 0,-24 0,0 4.04,0 4.04,0 0,0 0,24 0,24 z m 12,0 c 0,0 -4.04,0 -4.04,0 0,0 0,-34 0,-34 0,0 4.04,0 4.04,0 0,0 0,34 0,34 z m 28,-11 c 0,0 -17.68,0 -17.68,0 0,1.38 0.21,2.57 0.65,3.59 0.45,1.02 1.06,1.84 1.85,2.49 0.73,0.65 1.61,1.13 2.64,1.45 1.03,0.31 2.16,0.47 3.39,0.47 1.63,0 3.28,-0.22 4.93,-0.67 1.66,-0.45 2.84,-0.89 3.54,-1.33 0,0 0.21,0 0.21,0 0,0 0,4.11 0,4.11 -1.36,0.54 -2.75,0.99 -4.17,1.34 -1.42,0.37 -2.9,0.55 -4.47,0.55 -3.98,0 -7.09,-1.11 -9.33,-3.33 -2.23,-2.22 -3.34,-5.38 -3.34,-9.47 0,-4.05 1.07,-7.26 3.2,-9.64 2.15,-2.37 4.97,-3.56 8.46,-3.56 3.24,0 5.73,1.01 7.48,3.03 1.76,2.02 2.64,4.9 2.64,8.63 0,0 0,2.34 0,2.34 z m -3.94,-4 c -0.01,-1.91 -0.54,-3.38 -1.59,-4.42 -1.05,-1.05 -2.65,-1.58 -4.81,-1.58 -2.16,0 -3.88,0.57 -5.16,1.72 -1.28,1.15 -2.01,2.57 -2.18,4.28 0,0 13.74,0 13.74,0 z m 49.58,15 c 0,0 -5.26,0 -5.26,0 0,0 -15.17,-28.62 -15.17,-28.62 0,0 0,28.62 0,28.62 0,0 -3.97,0 -3.97,0 0,0 0,-32 0,-32 0,0 6.59,0 6.59,0 0,0 13.84,26.14 13.84,26.14 0,0 0,-26.14 0,-26.14 0,0 3.97,0 3.97,0 0,0 0,32 0,32 z m 28.18,0 c 0,0 -4.05,0 -4.05,0 0,0 0,-2.38 0,-2.38 -1.37,1.1 -2.67,1.93 -3.92,2.5 -1.25,0.59 -2.61,0.88 -4.11,0.88 -2.53,0 -4.49,-0.78 -5.89,-2.34 -1.41,-1.57 -2.11,-3.86 -2.11,-6.88 0,0 0,-15.78 0,-15.78 0,0 4.04,0 4.04,0 0,0 0,13.78 0,13.78 0,1.23 0.06,2.28 0.18,3.16 0.11,0.87 0.36,1.62 0.73,2.23 0.38,0.65 0.88,1.12 1.5,1.41 0.61,0.28 1.51,0.42 2.69,0.42 1.04,0 2.18,-0.27 3.42,-0.81 1.24,-0.55 2.39,-1.26 3.47,-2.11 0,0 0,-18.08 0,-18.08 0,0 4.05,0 4.05,0 0,0 0,24 0,24 z m 43.12,0 c 0,0 -4.05,0 -4.05,0 0,0 0,-13.78 0,-13.78 0,-1.04 -0.04,-2.05 -0.14,-3.02 -0.09,-0.97 -0.29,-1.74 -0.59,-2.31 -0.33,-0.62 -0.79,-1.09 -1.41,-1.41 -0.61,-0.32 -1.51,-0.48 -2.67,-0.48 -1.12,0 -2.26,0.29 -3.39,0.86 -1.13,0.57 -2.26,1.3 -3.39,2.17 0.04,0.34 0.07,0.73 0.09,1.17 0.03,0.44 0.05,0.87 0.05,1.3 0,0 0,15.5 0,15.5 0,0 -4.03,0 -4.03,0 0,0 0,-13.78 0,-13.78 0,-1.07 -0.05,-2.09 -0.14,-3.05 -0.1,-0.96 -0.29,-1.72 -0.6,-2.31 -0.32,-0.61 -0.79,-1.08 -1.42,-1.39 -0.61,-0.31 -1.5,-0.47 -2.65,-0.47 -1.11,0 -2.22,0.28 -3.33,0.83 -1.11,0.54 -2.21,1.24 -3.31,2.09 0,0 0,18.08 0,18.08 0,0 -4.05,0 -4.05,0 0,0 0,-24 0,-24 0,0 4.05,0 4.05,0 0,0 0,2.67 0,2.67 1.25,-1.15 2.51,-2.05 3.76,-2.7 1.26,-0.65 2.6,-0.97 4.02,-0.97 1.63,0 3.02,0.38 4.15,1.12 1.14,0.75 1.99,1.78 2.55,3.1 1.63,-1.49 3.12,-2.56 4.47,-3.22 1.34,-0.66 2.78,-1 4.31,-1 2.63,0 4.58,0.81 5.83,2.44 1.26,1.61 1.89,3.87 1.89,6.78 0,0 0,15.78 0,15.78 z m 29.09,-12.19 c 0,2.07 -0.29,3.92 -0.86,5.57 -0.56,1.64 -1.32,3.02 -2.28,4.14 -1.01,1.16 -2.12,2.03 -3.34,2.6 -1.22,0.59 -2.56,0.88 -4.02,0.88 -1.36,0 -2.55,-0.17 -3.57,-0.5 -1.02,-0.32 -2.02,-0.77 -3,-1.33 0,0 -0.27,0.83 -0.27,0.83 0,0 -3.78,0 -3.78,0 0,0 0,-34 0,-34 0,0 4.05,0 4.05,0 0,0 0,12.27 0,12.27 1.13,-0.96 2.33,-1.74 3.6,-2.35 1.27,-0.61 2.71,-0.92 4.3,-0.92 2.83,0 5.07,1.12 6.7,3.36 1.65,2.23 2.47,5.38 2.47,9.45 z m -4.17,0 c 0,-2.88 -0.47,-5.07 -1.42,-6.56 -0.94,-1.5 -2.46,-2.25 -4.56,-2.25 -1.18,0 -2.37,0.26 -3.58,0.77 -1.2,0.51 -2.31,1.17 -3.34,1.98 0,0 0,13.86 0,13.86 1.14,0.52 2.12,0.89 2.95,1.09 0.82,0.2 1.75,0.3 2.8,0.3 2.23,0 3.98,-0.74 5.25,-2.22 1.27,-1.48 1.9,-3.8 1.9,-6.97 z m 30.14,1.19 c 0,0 -17.68,0 -17.68,0 0,1.38 0.21,2.57 0.65,3.59 0.45,1.02 1.06,1.84 1.85,2.49 0.73,0.65 1.61,1.13 2.64,1.45 1.03,0.31 2.16,0.47 3.39,0.47 1.63,0 3.28,-0.22 4.93,-0.67 1.66,-0.45 2.84,-0.89 3.54,-1.33 0,0 0.21,0 0.21,0 0,0 0,4.11 0,4.11 -1.36,0.54 -2.75,0.99 -4.17,1.34 -1.42,0.37 -2.9,0.55 -4.47,0.55 -3.98,0 -7.09,-1.11 -9.33,-3.33 -2.23,-2.22 -3.34,-5.38 -3.34,-9.47 0,-4.05 1.07,-7.26 3.2,-9.64 2.15,-2.37 4.97,-3.56 8.46,-3.56 3.24,0 5.73,1.01 7.48,3.03 1.76,2.02 2.64,4.9 2.64,8.63 0,0 0,2.34 0,2.34 z m -3.94,-4 c -0.01,-1.91 -0.54,-3.38 -1.59,-4.42 -1.05,-1.05 -2.65,-1.58 -4.81,-1.58 -2.16,0 -3.88,0.57 -5.16,1.72 -1.28,1.15 -2.01,2.57 -2.18,4.28 0,0 13.74,0 13.74,0 z m 24.83,-5 c 0,0 -0.22,0 -0.22,0 -0.6,0 -1.18,0 -1.75,0 -0.56,0 -1.23,0 -2,0 -1.25,0 -2.46,0.28 -3.62,0.83 -1.16,0.55 -2.27,1.26 -3.34,2.14 0,0 0,17.03 0,17.03 0,0 -4.05,0 -4.05,0 0,0 0,-24 0,-24 0,0 4.05,0 4.05,0 0,0 0,3.55 0,3.55 1.6,-1.29 3.01,-2.21 4.23,-2.74 1.23,-0.54 2.48,-0.81 3.77,-0.81 0.69,0 1.2,0.02 1.51,0.05 0.31,0.03 0.79,0.09 1.42,0.18 0,0 0,3.77 0,3.77 z m 12.61,2 c 0,0 -5.12,0 -5.12,0 0,0 0,-6 0,-6 0,0 5.12,0 5.12,0 0,0 0,6 0,6 z m 0,18 c 0,0 -5.12,0 -5.12,0 0,0 0,-6 0,-6 0,0 5.12,0 5.12,0 0,0 0,6 0,6 z m 47.52,-16.02 c 0,5.87 -0.9,10.17 -2.7,12.91 -1.8,2.74 -4.58,4.11 -8.36,4.11 -3.85,0 -6.66,-1.38 -8.43,-4.16 -1.77,-2.78 -2.65,-7.05 -2.65,-12.82 0,-5.81 0.89,-10.09 2.68,-12.86 1.79,-2.77 4.59,-4.16 8.4,-4.16 3.83,0 6.63,1.41 8.4,4.22 1.77,2.81 2.66,7.07 2.66,12.76 z m -5.64,9.68 c 0.5,-1.16 0.83,-2.51 1.01,-4.07 0.18,-1.55 0.27,-3.42 0.27,-5.61 0,-2.16 -0.09,-4.03 -0.27,-5.62 -0.18,-1.59 -0.52,-2.95 -1.04,-4.06 -0.5,-1.1 -1.19,-1.92 -2.05,-2.47 -0.87,-0.55 -1.98,-0.83 -3.34,-0.83 -1.35,0 -2.47,0.28 -3.35,0.83 -0.87,0.55 -1.57,1.39 -2.09,2.51 -0.49,1.06 -0.83,2.43 -1,4.13 -0.18,1.69 -0.27,3.54 -0.27,5.55 0,2.21 0.08,4.07 0.24,5.57 0.15,1.5 0.49,2.83 1.01,4 0.47,1.11 1.14,1.95 2,2.53 0.88,0.59 2.03,0.88 3.46,0.88 1.34,0 2.45,-0.27 3.34,-0.83 0.89,-0.55 1.59,-1.39 2.08,-2.51 z m 30.87,-8.72 c 0.69,0.61 1.25,1.39 1.69,2.33 0.45,0.93 0.67,2.12 0.67,3.59 0,1.47 -0.26,2.81 -0.79,4.03 -0.54,1.21 -1.28,2.27 -2.24,3.17 -1.07,1 -2.34,1.74 -3.8,2.22 -1.45,0.48 -3.04,0.72 -4.78,0.72 -1.77,0 -3.51,-0.23 -5.23,-0.69 -1.72,-0.44 -3.13,-0.94 -4.24,-1.48 0,0 0,-4.83 0,-4.83 0,0 0.33,0 0.33,0 1.21,0.87 2.63,1.59 4.28,2.16 1.66,0.56 3.25,0.84 4.78,0.84 0.9,0 1.85,-0.14 2.86,-0.42 1.02,-0.29 1.85,-0.72 2.49,-1.28 0.65,-0.6 1.14,-1.27 1.47,-2 0.32,-0.73 0.48,-1.65 0.48,-2.77 0,-1.09 -0.18,-2 -0.55,-2.72 -0.36,-0.72 -0.87,-1.28 -1.51,-1.7 -0.65,-0.43 -1.43,-0.72 -2.34,-0.88 -0.92,-0.15 -1.91,-0.23 -2.96,-0.23 0,0 -1.94,0 -1.94,0 0,0 0,-4 0,-4 0,0 1.5,0 1.5,0 2.18,0 3.91,-0.46 5.21,-1.39 1.3,-0.93 1.95,-2.28 1.95,-4.06 0,-0.79 -0.17,-1.49 -0.5,-2.08 -0.32,-0.59 -0.78,-1.08 -1.37,-1.45 -0.62,-0.39 -1.28,-0.65 -1.97,-0.8 -0.7,-0.15 -1.5,-0.22 -2.39,-0.22 -1.36,0 -2.81,0.26 -4.35,0.78 -1.53,0.52 -2.97,1.26 -4.33,2.22 0,0 -0.21,0 -0.21,0 0,0 0,-4.83 0,-4.83 1.02,-0.54 2.37,-1.03 4.06,-1.48 1.69,-0.46 3.34,-0.69 4.94,-0.69 1.56,0 2.93,0.15 4.12,0.45 1.19,0.3 2.26,0.78 3.22,1.44 1.03,0.71 1.81,1.57 2.34,2.59 0.53,1.03 0.8,2.22 0.8,3.57 0,1.85 -0.62,3.47 -1.88,4.86 -1.24,1.38 -2.73,2.25 -4.43,2.61 0,0 0,0.34 0,0.34 0.69,0.12 1.47,0.35 2.36,0.72 0.89,0.37 1.65,0.82 2.26,1.36 z m 30.77,-0.96 c 0,5.87 -0.9,10.17 -2.7,12.91 -1.8,2.74 -4.58,4.11 -8.36,4.11 -3.85,0 -6.66,-1.38 -8.43,-4.16 -1.77,-2.78 -2.65,-7.05 -2.65,-12.82 0,-5.81 0.89,-10.09 2.68,-12.86 1.79,-2.77 4.59,-4.16 8.4,-4.16 3.83,0 6.63,1.41 8.4,4.22 1.77,2.81 2.66,7.07 2.66,12.76 z m -5.64,9.68 c 0.5,-1.16 0.83,-2.51 1.01,-4.07 0.18,-1.55 0.27,-3.42 0.27,-5.61 0,-2.16 -0.09,-4.03 -0.27,-5.62 -0.18,-1.59 -0.52,-2.95 -1.04,-4.06 -0.5,-1.1 -1.19,-1.92 -2.05,-2.47 -0.87,-0.55 -1.98,-0.83 -3.34,-0.83 -1.35,0 -2.47,0.28 -3.35,0.83 -0.87,0.55 -1.57,1.39 -2.09,2.51 -0.49,1.06 -0.83,2.43 -1,4.13 -0.18,1.69 -0.27,3.54 -0.27,5.55 0,2.21 0.08,4.07 0.24,5.57 0.15,1.5 0.49,2.83 1.01,4 0.47,1.11 1.14,1.95 2,2.53 0.88,0.59 2.03,0.88 3.46,0.88 1.34,0 2.45,-0.27 3.34,-0.83 0.89,-0.55 1.59,-1.39 2.08,-2.51 z m 33.64,-9.68 c 0,5.87 -0.9,10.17 -2.7,12.91 -1.8,2.74 -4.58,4.11 -8.36,4.11 -3.85,0 -6.66,-1.38 -8.43,-4.16 -1.77,-2.78 -2.65,-7.05 -2.65,-12.82 0,-5.81 0.89,-10.09 2.68,-12.86 1.79,-2.77 4.59,-4.16 8.4,-4.16 3.83,0 6.63,1.41 8.4,4.22 1.77,2.81 2.66,7.07 2.66,12.76 z m -5.64,9.68 c 0.5,-1.16 0.83,-2.51 1.01,-4.07 0.18,-1.55 0.27,-3.42 0.27,-5.61 0,-2.16 -0.09,-4.03 -0.27,-5.62 -0.18,-1.59 -0.52,-2.95 -1.04,-4.06 -0.5,-1.1 -1.19,-1.92 -2.05,-2.47 -0.87,-0.55 -1.98,-0.83 -3.34,-0.83 -1.35,0 -2.47,0.28 -3.35,0.83 -0.87,0.55 -1.57,1.39 -2.09,2.51 -0.49,1.06 -0.83,2.43 -1,4.13 -0.18,1.69 -0.27,3.54 -0.27,5.55 0,2.21 0.08,4.07 0.24,5.57 0.15,1.5 0.49,2.83 1.01,4 0.47,1.11 1.14,1.95 2,2.53 0.88,0.59 2.03,0.88 3.46,0.88 1.34,0 2.45,-0.27 3.34,-0.83 0.89,-0.55 1.59,-1.39 2.08,-2.51 z m 25.25,-5.66 c 0,0 -13.41,0 -13.41,0 0,0 0,-4 0,-4 0,0 13.41,0 13.41,0 0,0 0,4 0,4 z m 28.51,-15 c 0,0 -14.48,27 -14.48,27 0,0 -4.6,0 -4.6,0 0,0 15.41,-28 15.41,-28 0,0 -18.22,0 -18.22,0 0,0 0,-4 0,-4 0,0 21.89,0 21.89,0 0,0 0,5 0,5 z m 28.64,18 c 0,0 -4.75,0 -4.75,0 0,0 0,9 0,9 0,0 -4.12,0 -4.12,0 0,0 0,-9 0,-9 0,0 -15.31,0 -15.31,0 0,0 0,-4.94 0,-4.94 0,0 15.48,-18.06 15.48,-18.06 0,0 3.95,0 3.95,0 0,0 0,19 0,19 0,0 4.75,0 4.75,0 0,0 0,4 0,4 z m -8.87,-4 c 0,0 0,-13.89 0,-13.89 0,0 -12.39,13.89 -12.39,13.89 0,0 12.39,0 12.39,0 z m 36.39,4.19 c 0,2.81 -1.08,5.15 -3.24,7.01 -2.15,1.87 -4.87,2.8 -8.14,2.8 -3.46,0 -6.21,-0.91 -8.28,-2.72 -2.05,-1.82 -3.08,-4.16 -3.08,-7 0,-1.8 0.52,-3.43 1.55,-4.89 1.03,-1.47 2.49,-2.63 4.36,-3.5 0,0 0,-0.12 0,-0.12 -1.72,-0.93 -2.99,-1.95 -3.81,-3.05 -0.83,-1.11 -1.24,-2.5 -1.24,-4.16 0,-2.44 0.99,-4.48 2.97,-6.11 1.98,-1.63 4.5,-2.45 7.55,-2.45 3.19,0 5.73,0.78 7.64,2.34 1.91,1.56 2.86,3.54 2.86,5.94 0,1.47 -0.45,2.92 -1.36,4.33 -0.9,1.42 -2.22,2.53 -3.97,3.33 0,0 0,0.12 0,0.12 2.01,0.88 3.54,1.96 4.6,3.24 1.06,1.28 1.59,2.91 1.59,4.89 z m -5.09,-15.42 c 0,-1.46 -0.6,-2.62 -1.79,-3.47 -1.18,-0.87 -2.68,-1.3 -4.51,-1.3 -1.81,0 -3.28,0.41 -4.44,1.22 -1.15,0.81 -1.73,1.91 -1.73,3.3 0,0.98 0.28,1.82 0.86,2.54 0.58,0.71 1.46,1.34 2.64,1.89 0.53,0.25 1.29,0.58 2.28,0.97 1,0.39 1.97,0.71 2.92,0.97 1.41,-0.89 2.39,-1.82 2.94,-2.78 0.55,-0.97 0.83,-2.08 0.83,-3.34 z m 0.65,15.43 c 0,-1.27 -0.29,-2.28 -0.87,-3.04 -0.58,-0.77 -1.71,-1.54 -3.41,-2.32 -0.67,-0.3 -1.4,-0.58 -2.2,-0.84 -0.81,-0.26 -1.87,-0.62 -3.21,-1.09 -1.28,0.68 -2.31,1.59 -3.09,2.75 -0.78,1.15 -1.17,2.46 -1.17,3.92 0,1.85 0.66,3.39 2,4.61 1.33,1.21 3.02,1.81 5.06,1.81 2.09,0 3.77,-0.52 5.02,-1.55 1.25,-1.03 1.87,-2.44 1.87,-4.25 z m 32.67,-1.72 c 0,3.39 -1.07,6.16 -3.21,8.3 -2.14,2.15 -4.77,3.22 -7.88,3.22 -1.57,0 -3.01,-0.25 -4.3,-0.75 -1.29,-0.5 -2.43,-1.24 -3.42,-2.22 -1.23,-1.21 -2.18,-2.82 -2.84,-4.83 -0.67,-2 -1,-4.42 -1,-7.25 0,-2.89 0.3,-5.46 0.9,-7.7 0.62,-2.24 1.59,-4.23 2.93,-5.98 1.25,-1.65 2.88,-2.93 4.87,-3.86 1.99,-0.94 4.31,-1.41 6.95,-1.41 0.86,0 1.57,0.04 2.14,0.12 0.57,0.08 1.15,0.22 1.74,0.41 0,0 0,4.47 0,4.47 0,0 -0.22,0 -0.22,0 -0.4,-0.24 -1,-0.46 -1.81,-0.67 -0.82,-0.22 -1.64,-0.33 -2.49,-0.33 -3.07,0 -5.52,0.93 -7.36,2.8 -1.83,1.85 -2.9,4.36 -3.2,7.53 1.21,-0.76 2.4,-1.34 3.56,-1.74 1.17,-0.39 2.52,-0.59 4.05,-0.59 1.36,0 2.56,0.13 3.59,0.39 1.04,0.26 2.11,0.79 3.21,1.58 1.25,0.92 2.2,2.07 2.84,3.45 0.63,1.39 0.95,3.08 0.95,5.06 z m -4.36,0.19 c 0,-1.32 -0.19,-2.41 -0.59,-3.28 -0.4,-0.87 -1.04,-1.63 -1.94,-2.28 -0.66,-0.46 -1.4,-0.75 -2.2,-0.89 -0.8,-0.15 -1.64,-0.22 -2.5,-0.22 -1.22,0 -2.36,0.15 -3.41,0.44 -1.04,0.28 -2.11,0.72 -3.21,1.31 -0.04,0.31 -0.06,0.62 -0.08,0.91 -0.01,0.29 -0.02,0.66 -0.02,1.11 0,2.25 0.23,4.02 0.69,5.32 0.47,1.31 1.11,2.34 1.94,3.1 0.65,0.62 1.36,1.08 2.12,1.37 0.77,0.3 1.61,0.44 2.52,0.44 2.08,0 3.72,-0.63 4.9,-1.89 1.19,-1.26 1.78,-3.07 1.78,-5.44 z m 31.97,-16.67 c 0,0 -14.48,27 -14.48,27 0,0 -4.6,0 -4.6,0 0,0 15.41,-28 15.41,-28 0,0 -18.22,0 -18.22,0 0,0 0,-4 0,-4 0,0 21.89,0 21.89,0 0,0 0,5 0,5 z m 28.64,18 c 0,0 -4.75,0 -4.75,0 0,0 0,9 0,9 0,0 -4.12,0 -4.12,0 0,0 0,-9 0,-9 0,0 -15.31,0 -15.31,0 0,0 0,-4.94 0,-4.94 0,0 15.48,-18.06 15.48,-18.06 0,0 3.95,0 3.95,0 0,0 0,19 0,19 0,0 4.75,0 4.75,0 0,0 0,4 0,4 z m -8.87,-4 c 0,0 0,-13.89 0,-13.89 0,0 -12.39,13.89 -12.39,13.89 0,0 12.39,0 12.39,0 z m 36.87,4 c 0,0 -4.75,0 -4.75,0 0,0 0,9 0,9 0,0 -4.12,0 -4.12,0 0,0 0,-9 0,-9 0,0 -15.31,0 -15.31,0 0,0 0,-4.94 0,-4.94 0,0 15.48,-18.06 15.48,-18.06 0,0 3.95,0 3.95,0 0,0 0,19 0,19 0,0 4.75,0 4.75,0 0,0 0,4 0,4 z m -8.87,-4 c 0,0 0,-13.89 0,-13.89 0,0 -12.39,13.89 -12.39,13.89 0,0 12.39,0 12.39,0 z"
     style="fill:#000000" />
</svg>
