<?xml version="1.0" encoding="UTF-8" standalone="no"?>
<svg
   width="1.8637077in"
   height="1.4422575in"
   viewBox="0 0 559.11229 432.67727"
   version="1.1"
   id="svg3"
   sodipodi:docname="urdu.svg"
   inkscape:version="1.1.2 (b8e25be833, 2022-02-05)"
   xmlns:inkscape="http://www.inkscape.org/namespaces/inkscape"
   xmlns:sodipodi="http://sodipodi.sourceforge.net/DTD/sodipodi-0.dtd"
   xmlns="http://www.w3.org/2000/svg"
   xmlns:svg="http://www.w3.org/2000/svg">
  <defs
     id="defs7" />
  <sodipodi:namedview
     id="namedview5"
     pagecolor="#ffffff"
     bordercolor="#666666"
     borderopacity="1.0"
     inkscape:pageshadow="2"
     inkscape:pageopacity="0.0"
     inkscape:pagecheckerboard="0"
     inkscape:document-units="in"
     showgrid="false"
     inkscape:zoom="2.0377604"
     inkscape:cx="123.41981"
     inkscape:cy="88.086902"
     inkscape:window-width="1920"
     inkscape:window-height="1001"
     inkscape:window-x="-9"
     inkscape:window-y="-9"
     inkscape:window-maximized="1"
     inkscape:current-layer="svg3" />
  <path
     id="Path"
     fill="none"
     stroke="#000000"
     stroke-width="1"
     d="m 150.94,27.642734 c 0,0 0.25,0.53 0.25,0.53 -0.4,1.44 -1.04,3.59 -1.94,6.44 -0.17,0.31 -0.46,0.49 -0.87,0.53 -0.69,0.04 -1.08,0.09 -1.16,0.12 -3.88,1.97 -6.31,4.78 -7.31,8.44 -0.3,1.03 -0.01,1.9 0.84,2.63 0.33,0.21 1.29,0.55 2.88,1.03 1.2,0.33 2.04,0.9 2.5,1.72 0.6,1.06 0.9,2.45 0.9,4.15 0,0.57 -0.04,1.3 -0.12,2.19 -0.09,1.11 -0.13,1.81 -0.13,2.13 -0.73,4.04 -2.07,7.68 -4.03,10.93 -2.23,3.67 -5.01,6.4 -8.34,8.19 -1.48,0.77 -3.14,1.16 -4.97,1.16 -2.19,0 -3.98,-0.56 -5.38,-1.66 -3.21,-2.56 -4.83,-6.71 -4.87,-12.44 -0.04,-4.64 1.32,-11.32 4.09,-20.03 0.38,-0.12 0.56,-0.18 0.56,-0.18 0.23,0.16 0.35,0.63 0.35,1.4 -1.5,6.06 -2.25,10.42 -2.25,13.06 0,5.5 1.34,9.11 4.03,10.82 1.31,0.85 2.8,1.28 4.47,1.28 2.87,0 5.94,-1.18 9.22,-3.53 3.08,-2.82 4.79,-5.59 5.12,-8.32 0.17,-1.31 -0.15,-2.2 -0.97,-2.68 -1.1,-0.29 -2.21,-0.62 -3.31,-0.97 -1.25,-0.46 -2.06,-1.2 -2.44,-2.22 -0.37,-1.02 -0.56,-2.16 -0.56,-3.41 0,-1.19 0.23,-2.76 0.69,-4.72 1.71,-7.18 5.02,-12.52 9.94,-16 1.18,-0.56 1.86,-0.84 2.03,-0.84 0.25,0 0.51,0.09 0.78,0.25 z m 23.53,-0.25 c 0,0 1.47,-2.5 1.47,-2.5 0.31,0 0.47,0.13 0.47,0.37 -0.13,0.78 -0.19,2.28 -0.19,4.5 0,1.92 -0.18,3.41 -0.53,4.47 0,0 0.25,0 0.25,0 1.37,-1.35 2.67,-1.92 3.9,-1.71 0.69,0.21 1.16,0.61 1.41,1.21 0.1,0.3 0.16,0.57 0.16,0.82 0,0.81 -0.37,1.68 -1.1,2.62 -0.64,0.77 -1.29,1.54 -1.93,2.31 -0.78,0.53 -1.84,0.87 -3.19,1.04 -2,0.21 -3.14,0.35 -3.41,0.43 -0.85,0.21 -1.45,0.28 -1.78,0.19 -0.04,-0.21 -0.04,-0.39 0,-0.56 0.52,-0.56 0.99,-0.91 1.41,-1.03 1.79,-2.25 2.69,-3.94 2.69,-5.07 0.16,-0.72 0.2,-1.91 0.12,-3.56 -0.09,-1.54 0,-2.72 0.25,-3.53 z m 4.37,8 c 0,0 -0.4,-0.19 -0.4,-0.19 -1.02,-0.16 -1.96,0.24 -2.81,1.22 -0.17,0.17 -0.81,1.06 -1.91,2.69 0.94,-0.27 1.89,-0.53 2.88,-0.78 1.01,-0.42 1.76,-1.03 2.24,-1.85 0.29,-0.43 0.29,-0.8 0,-1.09 z m 1.13,9.22 c -0.37,3.02 -1.44,5.65 -3.19,7.87 -0.46,0.59 -1.31,1.09 -2.54,1.52 -1.25,0.43 -2.11,0.9 -2.58,1.42 -1.15,1.19 -2.21,2.86 -3.19,5 -0.81,1.75 -1.63,3.5 -2.44,5.25 -0.29,0.5 -0.63,1.02 -1.01,1.55 -0.39,0.53 -0.82,0.91 -1.3,1.14 -3.67,0.62 -7.01,1.14 -10.03,1.53 -0.17,-0.04 -0.41,-0.16 -0.72,-0.37 0.04,-0.4 0.27,-0.71 0.67,-0.94 0.41,-0.23 0.79,-0.46 1.14,-0.69 2.08,-1.14 4.17,-2.27 6.25,-3.37 2.4,-1.46 4.25,-3.07 5.57,-4.82 0.39,-0.45 1.46,-2.55 3.21,-6.28 1.19,-2.54 2.72,-4.22 4.6,-5.03 2.39,-0.64 3.72,-1.93 3.97,-3.84 0.12,-0.21 0.36,-0.45 0.72,-0.72 0.28,-0.08 0.58,0.18 0.87,0.78 z m 8.03,24.37 c -0.77,0.17 -2.03,0.41 -3.78,0.72 -0.38,0 -0.61,-0.13 -0.69,-0.4 -0.04,-0.38 0.25,-0.73 0.88,-1.07 1.62,-1.04 3.25,-2.07 4.87,-3.09 1.92,-1.23 3.47,-2.38 4.66,-3.44 1.25,-1.41 2.42,-3.49 3.53,-6.22 0.81,-2.31 1.63,-4.61 2.44,-6.9 0.12,-0.35 0.4,-0.53 0.84,-0.53 0.38,0 0.56,0.18 0.56,0.53 0.09,0.81 -0.26,2.67 -1.03,5.56 -1.31,5.04 -2.88,9.12 -4.72,12.22 -0.68,1.15 -1.82,1.85 -3.4,2.12 -1.4,0.17 -2.78,0.34 -4.16,0.5 z m 84.72,6.78 c -1.54,-0.73 -3.27,-1.94 -5.19,-3.65 0,0 -3.22,3.72 -3.22,3.72 -2.64,-0.63 -4.52,-2.01 -5.62,-4.16 2.6,-3.14 4.03,-4.85 4.28,-5.12 1.5,1.29 3.19,2.57 5.06,3.84 0,0 3.85,-4.03 3.85,-4.03 2.47,2.04 4.33,3.51 5.56,4.4 -2.17,2.27 -3.74,3.94 -4.72,5 z m -38.03,8.47 c -2.65,-0.64 -4.5,-2.02 -5.56,-4.12 2.6,-3.06 4.05,-4.7 4.34,-4.91 1.71,1.48 3.54,2.89 5.5,4.22 0,0 -4.28,4.81 -4.28,4.81 z m 52.09,-55.81 c 0,0.98 0.02,2.28 0.06,3.91 0,1.96 0,3.26 0,3.9 0,5.55 -0.53,10.25 -1.59,14.13 -1.67,6.15 -4.46,9.22 -8.37,9.22 -2.19,0 -3.62,-1.26 -4.28,-3.78 -1.55,3.12 -3.07,4.68 -4.57,4.68 -1.1,0 -2.43,-0.6 -3.97,-1.81 -6.56,4.31 -14.11,7.5 -22.65,9.56 -4.73,1.19 -10.11,1.79 -16.13,1.79 -3.96,0 -7.56,-0.51 -10.81,-1.54 -3.79,-1.16 -6.18,-3.6 -7.16,-7.31 -0.43,-1.66 -0.65,-5.25 -0.65,-10.75 0,-1.31 0,-3.33 0,-6.06 0.04,-2.69 0.06,-4.72 0.06,-6.1 0,-0.03 0.04,-0.18 0.12,-0.43 0,0 0.19,-0.53 0.19,-0.53 0.27,-0.98 0.55,-1.96 0.85,-2.94 0.43,-1.35 0.88,-2.21 1.34,-2.56 0,0 0.91,0.4 0.91,0.4 -0.53,12.59 -0.81,19.26 -0.85,20.03 0,1.4 0.08,2.48 0.25,3.25 0.44,1.92 1.41,3.33 2.91,4.22 2.29,1.46 5.98,2.4 11.06,2.82 2.44,0.23 6.34,0.34 11.72,0.34 1.91,0 3.77,-0.16 5.56,-0.47 5.67,-1.02 9.76,-1.87 12.28,-2.56 4.52,-1.23 8.35,-2.85 11.47,-4.85 1.71,0.86 3.2,1.28 4.47,1.28 1.63,0 2.82,-2.11 3.6,-6.34 0.16,-0.98 0.45,-2.36 0.87,-4.16 0.39,-1.16 0.84,-1.74 1.34,-1.74 0,0 0.04,0.02 0.13,0.06 0,0 0.16,0 0.16,0 0.03,0.31 0.1,0.72 0.18,1.22 -0.23,0.77 -0.34,1.52 -0.34,2.25 0,1.37 0.42,2.49 1.28,3.34 0.85,0.86 1.97,1.28 3.34,1.28 2.86,0 4.28,-2.54 4.28,-7.62 0,-1.63 -0.06,-4.19 -0.18,-7.69 -0.17,-3.38 -0.25,-5.96 -0.25,-7.75 0.04,-0.81 0.1,-1.47 0.19,-1.97 0.12,-0.73 0.55,-1.97 1.28,-3.72 0.85,-1.96 1.46,-2.94 1.84,-2.94 0.16,0 0.41,0.11 0.72,0.32 -0.4,2.08 -0.62,4.62 -0.66,7.62 z m 39.47,-11.53 c 0.13,-0.39 0.43,-0.55 0.91,-0.47 0.06,0.54 0.03,1.23 -0.1,2.06 -0.56,6.3 -0.77,13.33 -0.62,21.1 0.02,2.31 0.08,3.59 0.19,3.84 0.31,0.84 0.86,1.47 1.65,1.91 0.19,0.08 0.65,0.48 1.38,1.19 0,0 1.06,1.06 1.06,1.06 0,0 0,3.34 0,3.34 0,0 -2.19,2.19 -2.19,2.19 0,0 -1.12,-0.38 -1.12,-0.38 0,0 -0.69,-0.87 -0.69,-0.87 -0.4,-0.48 -0.62,-0.72 -0.69,-0.72 -0.06,0 -0.11,0.2 -0.15,0.59 -0.21,2.23 -1.15,5.36 -2.82,9.38 -1.5,3.81 -3.38,7.05 -5.65,9.72 -3.38,4.04 -7.03,6.39 -10.97,7.06 -1.27,0.16 -2.61,0.16 -4,0 -2.73,-0.52 -4.81,-2.01 -6.25,-4.47 -1.71,-2.81 -2.34,-6.55 -1.88,-11.22 0.36,-2.83 1.19,-6.29 2.5,-10.37 0.5,-1.58 0.91,-2.6 1.22,-3.03 0.17,-0.23 0.31,-0.35 0.44,-0.35 0.33,0 0.5,0.12 0.5,0.35 0,0.25 -0.32,1.73 -0.97,4.43 -0.71,2.86 -1.08,5.14 -1.12,6.85 -0.19,6.15 2.46,9.48 7.96,10 1.09,0.12 2.24,0.09 3.47,-0.1 2.61,-0.39 5.01,-1.41 7.22,-3.06 4.07,-3.04 6.62,-7.34 7.66,-12.9 0.5,-3.26 0.63,-7.08 0.41,-11.47 -0.38,-7.57 -0.41,-13.82 -0.1,-18.79 0.02,-0.53 0.13,-1.05 0.31,-1.53 0.82,-2.18 1.63,-3.97 2.44,-5.34 z M 347.6,9.5527338 c 0.31,-0.61 0.65,-0.75 1.03,-0.44 0.02,0.06 0.03,0.12 0.03,0.15 0,0.63 -0.47,1.8900002 -1.41,3.7900002 -0.71,1.39 -1.31,2.37 -1.81,2.93 -1.42,1.57 -3.18,3.25 -5.28,5.07 0,0 -4.72,3.87 -4.72,3.87 -4.4,3.54 -6.82,5.61 -7.28,6.19 -0.54,0.71 -0.79,1.09 -0.75,1.15 1.52,-0.16 3.06,-0.16 4.62,0 2.13,0.38 3.6,1.28 4.44,2.69 0.44,0.65 0.68,1.58 0.72,2.78 0.08,0.17 0.1,0.28 0.06,0.32 -0.08,0.04 -0.12,0.2 -0.12,0.47 -0.15,2.5 -0.83,5.21 -2.03,8.12 -0.69,1.92 -1.04,2.91 -1.04,2.97 0,0.15 0.34,0.14 1,-0.03 2.57,-0.79 4.75,-1.8 6.57,-3.03 0.02,0 0.19,0.21 0.53,0.62 0,0 0.47,0.59 0.47,0.59 0,0 0,1.29 0,1.29 0,0 -0.63,0.59 -0.63,0.59 -2,1.71 -4.82,2.7 -8.47,2.97 -1.83,0.17 -3.22,0.32 -4.15,0.47 0,0 -0.69,0.09 -0.69,0.09 -2.71,-2 -4.24,-5.36 -4.59,-10.09 -0.15,-1.27 -0.18,-2.28 -0.1,-3.03 0.04,-0.42 0.2,-1.63 0.47,-3.63 0,0 0.63,-4.28 0.63,-4.28 0,0 0.37,-0.69 0.37,-0.69 0.71,-1.16 1.67,-2.41 2.87,-3.75 2.57,-2.64 5.52,-5.42 8.88,-8.34 0,0 1.59,-1.34 1.59,-1.34 3.77,-2.96 6.7,-5.79 8.79,-8.4700002 z M 331.28,39.172734 c -1.68,-0.6 -3.28,-0.41 -4.78,0.56 -1.1,0.65 -1.44,1.67 -1.03,3.07 0.42,1.06 1.2,1.87 2.34,2.43 0,0 1.53,-0.03 1.53,-0.03 1.46,0.06 2.51,-0.11 3.16,-0.53 1.08,-0.77 1.68,-1.58 1.78,-2.44 0.04,-0.22 -0.02,-0.5 -0.18,-0.84 -0.5,-1 -1.44,-1.74 -2.82,-2.22 z m 3.63,21.16 c 0.43,-0.53 0.72,-0.78 0.84,-0.78 0.13,0 0.43,0.21 0.91,0.65 1.64,1.63 3.08,2.77 4.31,3.44 0.08,0 0.34,-0.25 0.78,-0.75 1.69,-1.94 2.65,-2.95 2.88,-3.03 0.08,0 0.32,0.17 0.71,0.53 1.44,1.29 2.83,2.41 4.16,3.34 0.06,0.04 0.08,0.17 0.06,0.38 -0.04,0.23 -0.4,0.76 -1.09,1.59 0,0 -0.44,0.5 -0.44,0.5 -1.4,1.69 -2.19,2.6 -2.37,2.72 -0.11,0.06 -0.28,0.1 -0.53,0.1 -0.65,0 -1.62,-0.58 -2.91,-1.72 -0.92,-0.84 -1.51,-1.46 -1.78,-1.88 -0.13,-0.23 -0.24,-0.35 -0.34,-0.37 -0.09,0 -0.64,0.59 -1.66,1.78 -1.02,1.16 -1.59,1.78 -1.69,1.84 -0.37,0.08 -0.85,-0.03 -1.44,-0.34 -0.98,-0.55 -1.93,-1.3 -2.84,-2.25 -0.73,-0.78 -1.09,-1.25 -1.09,-1.44 0,-0.12 1.18,-1.56 3.53,-4.31 z m 20.84,-15.16 c 0,0 0,1.25 0,1.25 0,0 -1.12,1.1 -1.12,1.1 0,0 -0.63,0.15 -0.63,0.15 -1.54,0.4 -3.12,0.27 -4.75,-0.37 -0.29,-0.11 -0.49,-0.16 -0.59,-0.16 -0.09,0 -0.71,0.36 -1.88,1.06 -1.77,1.06 -3.07,1.67 -3.9,1.82 0,0 -1.28,0.09 -1.28,0.09 0,0 0,-1.72 0,-1.72 0,0 0.03,-1.72 0.03,-1.72 1.29,-0.06 2.41,-0.31 3.37,-0.75 0.25,-0.12 1.11,-0.79 2.6,-2 0.74,-0.58 1.39,-0.91 1.93,-1 0.42,-0.04 1.18,0.12 2.28,0.47 1.32,0.46 2.15,0.69 2.5,0.69 0.17,0 0.45,0.18 0.85,0.53 0,0 0.59,0.56 0.59,0.56 z m 4.56,-28.37 c 0.44,-0.59 0.97,-0.59 1.6,0 0.89,0.75 1.91,1.55 3.06,2.4 0.44,0.33 0.66,0.56 0.66,0.69 0,0.16 -0.61,0.89 -1.82,2.19 0,0 -2,2.09 -2,2.09 -0.71,0.04 -1.28,-0.08 -1.71,-0.37 -0.5,-0.34 -1.27,-1.03 -2.29,-2.07 -0.6,-0.6 -0.9,-0.96 -0.9,-1.06 0,-0.12 0.57,-0.79 1.72,-2 1.12,-1.21 1.68,-1.83 1.68,-1.87 z m 4.32,15.53 c 0.25,-0.1 0.43,-0.1 0.56,0.03 0.1,0.12 0.11,0.49 0.03,1.09 -0.21,1.75 0.11,3.09 0.97,4 0.37,0.42 0.92,0.81 1.65,1.16 0.57,0.31 1.13,0.77 1.69,1.37 0,0 1.07,1.07 1.07,1.07 0,0 0,3.25 0,3.25 0,0 -2.22,2.25 -2.22,2.25 0,0 -0.88,-0.07 -0.88,-0.07 -1.08,-0.04 -1.89,-0.19 -2.4,-0.46 -1.15,-0.71 -2.11,-1.69 -2.88,-2.94 -1.34,1.54 -3.09,2.76 -5.28,3.65 -0.84,0.3 -1.56,0.43 -2.16,0.41 0,0 0,-1.69 0,-1.69 0,-1.12 0.02,-1.69 0.06,-1.69 3.13,-0.2 5.4,-1.31 6.82,-3.31 0,0 0.4,-0.62 0.4,-0.62 0,0 0.16,-0.97 0.16,-0.97 0.38,-2 0.84,-3.66 1.41,-4.97 0.39,-0.96 0.72,-1.48 1,-1.56 z m 7.28,25 c 0.43,-0.53 0.72,-0.78 0.84,-0.78 0.13,0 0.43,0.21 0.91,0.65 1.64,1.63 3.08,2.77 4.31,3.44 0.08,0 0.34,-0.25 0.78,-0.75 1.69,-1.94 2.65,-2.95 2.88,-3.03 0.08,0 0.32,0.17 0.71,0.53 1.44,1.29 2.83,2.41 4.16,3.34 0.06,0.04 0.08,0.17 0.06,0.38 -0.04,0.23 -0.4,0.76 -1.09,1.59 0,0 -0.44,0.5 -0.44,0.5 -1.4,1.69 -2.19,2.6 -2.37,2.72 -0.11,0.06 -0.28,0.1 -0.53,0.1 -0.65,0 -1.62,-0.58 -2.91,-1.72 -0.92,-0.84 -1.51,-1.46 -1.78,-1.88 -0.13,-0.23 -0.24,-0.35 -0.34,-0.37 -0.09,0 -0.64,0.59 -1.66,1.78 -1.02,1.16 -1.59,1.78 -1.69,1.84 -0.37,0.08 -0.85,-0.03 -1.44,-0.34 -0.98,-0.55 -1.93,-1.3 -2.84,-2.25 -0.73,-0.78 -1.09,-1.25 -1.09,-1.44 0,-0.12 1.18,-1.56 3.53,-4.31 z m 7.9,-22.5 c 1,-0.81 2.05,-0.89 3.16,-0.22 0.73,0.23 1.34,0.56 1.84,1 0,0 0.53,0.56 0.53,0.56 0,0 0,1.28 0,1.28 0,0 -0.53,0.53 -0.53,0.53 -0.35,0.38 -0.52,0.59 -0.5,0.63 0.07,0.15 -0.18,0.26 -0.75,0.34 -0.64,-0.02 -1.41,-0.22 -2.31,-0.59 -0.77,-0.29 -1.25,-0.44 -1.44,-0.44 -0.71,0.11 -1.33,0.59 -1.87,1.44 0,0 -0.91,1.37 -0.91,1.37 -1.92,2.9 -3.84,4.84 -5.78,5.82 -0.77,0.39 -1.55,0.62 -2.34,0.68 0,0 0,-7.68 0,-7.68 0.35,0.08 0.86,0.14 1.53,0.18 2.75,0.21 4.96,-0.55 6.62,-2.28 1.42,-1.5 2.34,-2.37 2.75,-2.62 z m 8.03,-26.5700002 c 0.52,-1.6 1.07,-3.03 1.63,-4.28 0.21,-0.02 0.36,0.07 0.47,0.25 -0.67,7.4800002 -0.73,15.0000002 -0.19,22.5300002 0.19,3.05 1.33,4.97 3.44,5.76 0.54,0.24 1.06,0.65 1.56,1.21 0,0 1.03,1.07 1.03,1.07 0,0 0,3.31 0,3.31 0,0 -2.18,2.22 -2.18,2.22 -3.13,-0.53 -5.03,-2.49 -5.69,-5.91 0,0 -0.28,-0.97 -0.28,-0.97 -0.03,-0.06 -0.06,-0.09 -0.1,-0.09 0,0 -2.5,4.56 -2.5,4.56 0,0 -0.25,0.25 -0.25,0.25 0,0 0.03,-1.75 0.03,-1.75 0,0 0,-1.75 0,-1.75 0,0 1.91,-4.12 1.91,-4.12 0,0 0.44,-2.29 0.44,-2.29 0,0 0.06,-6.18 0.06,-6.18 0.06,-6.85 0.12,-10.75 0.19,-11.69 0,0 0.06,-1.1300002 0.06,-1.1300002 0,0 0.37,-1 0.37,-1 z m 21.69,-7.09 c 0.29,-0.69000004 0.67,-0.85000004 1.13,-0.50000004 0.1,0.13 0.12,0.35000004 0.06,0.66000004 -0.34,1.58 -1.11,3.19 -2.31,4.81 -0.65,0.86 -1.69,1.94 -3.13,3.25 0,0 -1.5,1.4100002 -1.5,1.4100002 -2.65,2.46 -4.9,4.43 -6.75,5.9 -2.96,2.48 -4.54,4.01 -4.75,4.6 -0.08,0.27 -0.09,0.4 -0.03,0.4 0.84,-0.14 1.75,-0.22 2.75,-0.25 3.35,0 5.32,1.43 5.91,4.28 0.2,1.63 0.05,3.34 -0.47,5.13 -0.48,2.08 -1.16,4.12 -2.03,6.09 -0.75,1.63 -2.09,2.64 -4,3.03 -1.07,0.23 -1.98,0.15 -2.75,-0.25 -1.13,-0.5 -1.95,-1.15 -2.47,-1.97 -0.29,-0.51 -0.66,-1.86 -1.09,-4.03 0,0 -0.19,-0.93 -0.19,-0.93 0,0 0,-7.07 0,-7.07 0,0 0.43,-0.75 0.43,-0.75 0.32,-0.52 0.69,-1.19 1.13,-2.03 0,0 0.94,-1.69 0.94,-1.69 0,0 0.72,-1.09 0.72,-1.09 0.56,-0.89 1.28,-1.86 2.15,-2.91 1.82,-2.01 4.15,-4.33 7,-6.93 2.63,-2.1300002 5.13,-4.4700002 7.5,-7.0300002 0.92,-1 1.5,-1.71 1.75,-2.13 z M 397.91,28.862734 c -0.98,-1.08 -2.44,-1.5 -4.38,-1.25 -1.16,0.23 -2.13,0.74 -2.9,1.53 -0.02,1.21 0.43,2.09 1.34,2.66 0.81,0.56 1.89,0.79 3.25,0.68 1.1,-0.08 2.03,-0.37 2.78,-0.87 0.48,-0.21 0.71,-0.54 0.69,-1 0.04,-0.65 -0.22,-1.23 -0.78,-1.75 z m 114.43,49.09 c -1.52,-0.73 -3.24,-1.95 -5.15,-3.65 0,0 -3.22,3.72 -3.22,3.72 -2.65,-0.65 -4.52,-2.04 -5.63,-4.16 2.61,-3.17 4.04,-4.88 4.29,-5.13 1.5,1.28 3.18,2.55 5.06,3.85 0,0 3.84,-4.03 3.84,-4.03 2.48,2.04 4.33,3.5 5.57,4.4 -2.17,2.27 -3.76,3.94 -4.76,5 z m -54.5,5.31 c -2.64,-0.64 -4.51,-2.01 -5.59,-4.09 2.6,-3.08 4.06,-4.73 4.38,-4.94 1.7,1.5 3.54,2.91 5.5,4.22 0,0 -4.29,4.81 -4.29,4.81 z m 56.57,-27.9 c -1.46,1.35 -2.6,1.89 -3.41,1.59 -0.08,0 -0.62,-0.22 -1.59,-0.69 -0.73,-0.35 -1.37,-0.33 -1.91,0.07 -0.77,1.23 -1.95,3.06 -3.53,5.5 -1.75,2.42 -4.16,4.1 -7.22,5.06 -6.83,2.13 -16.76,3.13 -29.78,3 -5.5,-0.04 -11.06,0 -16.69,0.13 -6.31,0.12 -10.43,0.18 -12.34,0.18 -2.96,0 -6.1,-0.04 -9.41,-0.12 -5.04,-0.21 -9.29,-0.43 -12.75,-0.66 -2.52,-0.37 -4.03,-1.6 -4.53,-3.69 -0.23,-0.93 -0.34,-1.79 -0.34,-2.56 -0.05,-0.6 0.03,-1.13 0.22,-1.59 0,0 0.06,-0.16 0.06,-0.16 0.08,-0.16 0.25,-0.27 0.5,-0.31 0.52,-0.13 1.58,-0.08 3.2,0.14 1.62,0.22 6.99,0.62 16.11,1.2 2.65,0.21 7.28,0.35 13.91,0.41 8.79,0.04 13.29,0.08 13.5,0.12 8.19,0.17 15.72,0.06 22.59,-0.34 2.73,-0.08 5.5,-0.18 8.31,-0.28 2.82,-0.1 5.4,-0.34 7.75,-0.72 3.92,-0.64 7.05,-3.16 9.41,-7.56 0.69,-1.23 1.5,-1.8 2.44,-1.72 0.45,0 1.12,0.16 2,0.47 0.87,0.31 1.55,0.47 2.03,0.47 0.81,0 1.44,-0.39 1.89,-1.18 0.44,-0.78 0.84,-1.17 1.17,-1.17 0.17,0 0.32,0.09 0.47,0.25 -0.15,0.98 -0.84,2.37 -2.06,4.16 z m 9.59,13.62 c -0.77,0.17 -2.03,0.41 -3.78,0.72 -0.38,0 -0.61,-0.13 -0.69,-0.4 -0.04,-0.38 0.25,-0.73 0.88,-1.07 1.62,-1.04 3.25,-2.07 4.87,-3.09 1.92,-1.23 3.47,-2.38 4.66,-3.44 1.25,-1.41 2.42,-3.49 3.53,-6.22 0.81,-2.31 1.63,-4.61 2.44,-6.9 0.12,-0.35 0.4,-0.53 0.84,-0.53 0.38,0 0.56,0.18 0.56,0.53 0.09,0.81 -0.26,2.67 -1.03,5.56 -1.31,5.04 -2.88,9.12 -4.72,12.22 -0.68,1.15 -1.82,1.85 -3.4,2.12 -1.4,0.17 -2.78,0.34 -4.16,0.5 z m 22.16,-34.46 c 0.29,-0.21 0.55,-0.14 0.78,0.21 0,0 -0.13,1.19 -0.13,1.19 -0.35,3.56 -0.55,7.89 -0.59,12.97 -0.04,4.19 0.06,7.02 0.31,8.5 0,0 0.13,0.66 0.13,0.66 0.31,1.48 0.78,2.63 1.4,3.47 0.67,0.89 1.5,1.26 2.5,1.09 0,0 0.1,-0.16 0.1,-0.16 0,0 2.18,2.16 2.18,2.16 0,0 0,3.34 0,3.34 0,0 -1.09,1.1 -1.09,1.1 -0.67,0.66 -1.09,1.03 -1.28,1.09 -1.81,-0.04 -3.29,-0.64 -4.44,-1.81 -1.33,-1.54 -2.11,-4.24 -2.34,-8.1 -0.17,-7.56 -0.04,-14.32 0.37,-20.28 0.44,-1.87 1.14,-3.69 2.1,-5.43 z m 8.28,22.57 c 0,0 -0.06,-8.14 -0.06,-8.14 0,-1.3 0.04,-2.11 0.12,-2.45 0.8,-2.24 1.7,-4.36 2.69,-6.38 0.15,-0.09 0.3,-0.02 0.44,0.21 -0.18,2.9 -0.33,6.6 -0.44,11.12 -0.09,5.73 -0.27,9.34 -0.56,10.81 -0.71,3.57 -2.5,6.13 -5.38,7.68 -0.31,0.15 -0.48,0.22 -0.5,0.2 0,-0.02 -0.02,-1.41 -0.06,-4.16 0,0 -0.03,-4.11 -0.03,-4.11 1.59,0.07 2.74,-0.54 3.45,-1.82 0.22,-0.38 0.33,-1.36 0.33,-2.96 z m -403.7,73.779996 c 0.5,0.59 0.66,1.39 0.5,2.41 1.37,-1.23 2.61,-1.84 3.73,-1.84 0.5,0 0.98,0.12 1.45,0.36 0.73,0.49 1.11,1.1 1.14,1.84 0.07,1.44 -0.8,3.26 -2.59,5.45 -0.76,0.68 -1.35,1.17 -1.77,1.46 -0.69,0.52 -1.35,0.89 -1.96,1.12 -2.53,0.98 -5.06,1.47 -7.61,1.47 -1.75,0 -3.33,-0.23 -4.77,-0.7 -0.18,-0.1 -0.38,-0.26 -0.61,-0.49 0,-0.2 0.15,-0.35 0.45,-0.43 0.32,-0.1 0.49,-0.16 0.52,-0.19 0.96,-1.05 1.95,-2.68 2.98,-4.88 1.15,-2.4 2.09,-4.08 2.82,-5.01 0.91,-1.18 2.03,-1.77 3.36,-1.77 1.07,0 1.86,0.4 2.36,1.2 z m -1.9,2.36 c -0.08,-0.05 -0.23,-0.14 -0.43,-0.29 -0.21,-0.15 -0.36,-0.24 -0.44,-0.27 -0.74,-0.07 -1.3,0.08 -1.69,0.44 -0.9,0.78 -1.76,2.03 -2.58,3.73 -1,2 -1.75,3.31 -2.25,3.96 1.12,-0.26 2.03,-0.59 2.74,-0.97 2.63,-1.46 4.32,-3.14 5.06,-5.05 0,-0.68 -0.14,-1.19 -0.41,-1.55 z m 6.13,1.89 c -0.12,-0.34 -0.38,-0.6 -0.8,-0.79 -0.23,-0.05 -0.46,-0.08 -0.7,-0.08 -0.79,0 -1.47,0.29 -2.03,0.87 -0.12,0.12 -0.91,1.09 -2.38,2.91 -0.93,1.2 -1.82,2.05 -2.67,2.55 3.02,-0.23 5.16,-0.82 6.42,-1.75 1.49,-1.13 2.24,-2.15 2.24,-3.08 0,-0.2 -0.03,-0.41 -0.08,-0.63 z m 14,-14.82 c 0,0 0.22,0 0.22,0 0.94,-0.78 1.76,-1.12 2.47,-1 0.44,0.16 0.8,0.47 1.09,0.92 0.05,0.17 0.08,0.34 0.08,0.53 0,0.62 -0.28,1.25 -0.83,1.89 -0.52,0.52 -1.03,1.03 -1.53,1.53 -0.47,0.31 -1.1,0.48 -1.89,0.53 -0.67,0.06 -1.34,0.11 -2.02,0.13 -0.15,0 -0.39,0.04 -0.72,0.11 -0.32,0.07 -0.54,0.11 -0.65,0.11 -0.2,0 -0.38,-0.07 -0.53,-0.22 0.09,-0.41 0.46,-0.71 1.11,-0.92 1.29,-1.35 1.95,-2.55 1.98,-3.61 0.13,-0.35 0.2,-0.78 0.2,-1.32 0,-0.17 -0.01,-0.46 -0.04,-0.87 -0.03,-0.42 -0.03,-0.72 -0.03,-0.92 0,-1 0.25,-1.75 0.75,-2.25 0.08,-0.1 0.22,-0.28 0.42,-0.57 0.11,-0.25 0.28,-0.35 0.5,-0.32 0,0 0.09,0.04 0.09,0.04 -0.06,0.39 -0.12,1.42 -0.17,3.1 -0.06,1.2 -0.23,2.16 -0.5,2.9 0,0 0,0.21 0,0.21 z m 0.8,0.89 c -0.76,0.41 -1.5,1.24 -2.19,2.47 0.63,-0.19 1.3,-0.38 1.98,-0.58 0.69,-0.21 1.18,-0.59 1.47,-1.14 0.13,-0.2 0.1,-0.4 -0.08,-0.61 -0.18,-0.21 -0.57,-0.26 -1.18,-0.14 z m 20.28,-19.66 c 0,0 1.14,-0.62 1.14,-0.62 0.12,0 0.24,0.05 0.36,0.17 -0.06,0.2 -0.23,0.46 -0.53,0.79 -0.3,0.33 -0.48,0.56 -0.57,0.71 -0.24,0.43 -0.61,0.77 -1.11,1.04 -0.49,0.27 -0.97,0.52 -1.45,0.75 -1.56,0.75 -3.13,1.48 -4.7,2.21 -1.76,0.88 -3.27,1.78 -4.53,2.68 0.03,-0.03 -0.06,-0.08 -0.28,-0.17 0.1,-0.41 0.69,-1.24 1.76,-2.48 0.88,-0.75 2.2,-1.52 3.94,-2.31 0,0 5.97,-2.77 5.97,-2.77 z m 1.55,3.45 c 0,0 1.34,-0.73 1.34,-0.73 0.13,0 0.2,0.13 0.2,0.39 -0.8,1.29 -1.45,2.2 -1.95,2.73 0,0 -0.35,0.3 -0.35,0.3 -2.24,1 -5.57,2.56 -10,4.66 -0.76,0.38 -1.27,0.94 -1.54,1.67 -0.17,1.18 -0.28,3.23 -0.35,6.17 -0.05,2.67 -0.22,4.73 -0.51,6.17 -0.42,2.05 -1.17,3.81 -2.25,5.3 -0.42,0.45 -1.13,0.82 -2.13,1.11 -0.99,0.29 -1.68,0.66 -2.06,1.11 -0.76,0.84 -1.6,2.16 -2.53,3.95 -1.01,1.91 -1.81,3.25 -2.39,4.02 -0.31,0.26 -1.24,0.46 -2.77,0.61 -1.06,0.11 -2.68,0.29 -4.84,0.53 -0.21,-0.03 -0.36,-0.12 -0.45,-0.27 0.03,-0.32 0.21,-0.57 0.54,-0.75 0.35,-0.19 0.68,-0.35 1,-0.48 1.41,-0.71 2.84,-1.41 4.28,-2.11 1.64,-0.92 2.92,-1.91 3.83,-2.99 0.5,-0.59 1.07,-1.53 1.69,-2.82 0.63,-1.29 1.18,-2.21 1.64,-2.77 0.35,-0.61 0.95,-1.11 1.8,-1.5 0.75,-0.33 1.47,-0.66 2.17,-0.97 0.76,-0.44 1.2,-1.17 1.31,-2.2 0,-0.88 0.02,-1.77 0.05,-2.69 -0.03,-1.55 0.01,-3.94 0.12,-7.16 0.57,-1.67 1,-2.78 1.3,-3.31 0.58,-1.19 1.35,-2.11 2.31,-2.76 1.42,-0.91 2.91,-1.73 4.49,-2.47 0,0 6.05,-2.74 6.05,-2.74 z m 75.1,5.16 c -1.73,-0.47 -3.03,-1.44 -3.9,-2.91 1.72,-2.02 2.76,-3.13 3.11,-3.34 1.12,0.97 2.4,1.93 3.84,2.89 0,0 -3.05,3.36 -3.05,3.36 z m -42.36,13.98 c -1.43,-0.53 -2.77,-1.53 -4,-3.03 1.73,-1.99 2.77,-3.09 3.11,-3.31 1.13,0.98 2.4,1.95 3.83,2.92 0,0 -2.94,3.42 -2.94,3.42 z m 56.9,-8.75 c -0.15,0.27 -0.34,0.68 -0.58,1.24 -0.35,0.44 -0.69,0.87 -1.02,1.31 -0.43,0.5 -0.88,0.78 -1.36,0.83 -0.61,-0.2 -1.48,-0.41 -2.59,-0.64 -0.85,-0.05 -1.77,0.52 -2.77,1.72 -0.56,0.81 -1.51,1.96 -2.86,3.45 -1.01,0.65 -2.38,0.97 -4.11,0.97 -0.73,0 -1.66,-0.06 -2.81,-0.17 0,0 -3.11,1.01 -3.11,1.01 -2.29,0.78 -4.64,1.16 -7.04,1.16 -1.27,0 -2.53,-0.1 -3.79,-0.31 -0.68,0.43 -1.64,1.09 -2.9,1.97 -1.06,0.71 -1.98,1.26 -2.74,1.64 -2.2,1.03 -3.82,1.75 -4.87,2.15 -1.65,0.63 -4.13,1.4 -7.44,2.33 -4.25,1.18 -9.24,1.72 -14.97,1.63 -6.15,-0.12 -11.95,-1.04 -17.37,-2.77 -0.53,0.96 -1.24,2.53 -2.11,4.7 -0.76,1.86 -1.38,3.16 -1.85,3.91 -0.26,0.3 -1.14,0.66 -2.64,1.06 -1.12,0.16 -2.81,0.38 -5.06,0.67 -0.12,0 -0.3,-0.09 -0.53,-0.26 -0.11,-0.22 -0.04,-0.47 0.22,-0.75 1.61,-0.88 3.96,-2.27 7.05,-4.19 1.78,-1.24 3.53,-4.41 5.23,-9.5 0.14,-0.47 0.32,-0.68 0.52,-0.62 0.89,0.24 2.4,0.65 4.53,1.25 2.29,0.55 4.3,0.91 6.04,1.09 5.1,0.53 9.49,0.71 13.19,0.53 1.76,-0.12 4.17,-0.41 7.22,-0.87 1.59,-0.24 3.98,-0.79 7.17,-1.65 2.2,-0.55 5.35,-1.79 9.45,-3.73 -0.87,-1 -1.31,-2.22 -1.31,-3.66 0,-0.93 0.21,-1.89 0.64,-2.89 0.43,-1 0.99,-1.76 1.69,-2.29 0.61,-0.76 1.4,-1.14 2.34,-1.14 0.35,0 0.7,0.05 1.05,0.17 0.82,0.38 1.38,1.01 1.67,1.89 0.07,0.32 0.1,0.65 0.1,0.97 0,1.43 -0.8,3.37 -2.39,5.84 1.2,-0.06 2.11,-0.15 2.73,-0.26 1.15,-0.23 1.94,-0.62 2.39,-1.18 0.5,-0.7 0.86,-1.33 1.09,-1.89 0.54,-1.77 0.74,-4.29 0.63,-7.56 -0.17,-4.68 -0.25,-7.1 -0.25,-7.27 0.19,-0.74 0.5,-1.68 0.94,-2.81 0.52,-1.26 0.86,-2.17 1.03,-2.729996 0.02,-0.16 0.16,-0.37 0.42,-0.63 0.26,-0.03 0.49,0.17 0.67,0.58 -0.38,3.459996 -0.52,7.559996 -0.4,12.309996 0.02,0.95 -0.16,2.5 -0.52,4.63 2.34,-1.88 4.27,-2.74 5.8,-2.61 1.06,0.22 1.75,0.75 2.06,1.59 0.19,0.42 0.28,0.82 0.28,1.19 0,0.84 -0.51,1.91 -1.55,3.22 -0.23,0.31 -0.9,1.25 -2.03,2.81 3.43,-0.69 5.87,-2.08 7.32,-4.14 0.34,-0.53 0.88,-1.33 1.62,-2.41 0.63,-0.88 1.36,-1.64 2.2,-2.26 0.35,-1.57 0.86,-2.73 1.55,-3.47 0.23,-0.11 0.44,-0.03 0.64,0.23 0.05,0.12 0.17,0.26 0.36,0.43 0.32,0.53 1.35,1.63 3.08,3.31 0.11,0.29 0.13,0.59 0.05,0.87 z m -17.57,1.69 c -1.73,0.28 -3.47,1.64 -5.23,4.08 0,0 -1.44,2.02 -1.44,2.02 0,0 3.41,-0.88 3.41,-0.88 2.65,-0.76 4.19,-1.94 4.62,-3.56 0.1,-1.08 -0.35,-1.63 -1.36,-1.66 z m -13.54,0.52 c -0.94,-0.15 -1.77,0.32 -2.47,1.4 -0.1,0.3 -0.14,0.61 -0.14,0.94 0,1.26 0.54,2.18 1.64,2.77 0.91,-0.7 1.61,-1.45 2.11,-2.25 0.09,-0.32 0.14,-0.65 0.14,-0.97 0,-1.15 -0.43,-1.78 -1.28,-1.89 z m 41.17,12.06 c 0,0 0,0.48 0,0.48 0,0 -0.74,0.36 -0.74,0.36 -0.65,0.35 -1.35,0.85 -2.07,1.5 -0.83,0.75 -1.36,1.46 -1.6,2.13 -0.15,0.41 -0.08,0.67 0.19,0.8 1.07,-0.04 1.8,0.3 2.17,1.03 0.38,0.75 0.32,1.49 -0.15,2.22 -0.56,0.85 -1.41,1.13 -2.55,0.84 -1.26,-0.33 -1.89,-1.38 -1.89,-3.14 0,-1.51 0.63,-2.95 1.9,-4.33 0.95,-0.98 2.13,-1.71 3.55,-2.19 0.22,-0.07 0.43,-0.09 0.63,-0.08 0.33,0.03 0.52,0.15 0.56,0.38 z m 24.54,-21.92 c -0.31,1.95 -0.37,5.87 -0.17,11.78 0.09,2.29 0.13,4.04 0.13,5.25 0,4.2 -0.41,7.73 -1.22,10.61 -1.03,3.67 -2.7,6.76 -4.98,9.28 -2.44,2.7 -5.06,4.05 -7.86,4.05 -0.95,0 -1.88,-0.19 -2.79,-0.55 -3.16,-1.19 -4.68,-4.16 -4.53,-8.91 0.12,-3.43 0.92,-6.96 2.42,-10.57 0.21,-0.32 0.42,-0.4 0.61,-0.25 0.06,0.11 0.06,0.42 0,0.92 -0.84,2.78 -1.26,5.1 -1.26,6.95 0,1.14 0.14,2.2 0.42,3.2 0.56,1.88 1.77,3.04 3.61,3.49 0.68,0.15 1.36,0.22 2.06,0.22 2.13,0 4.32,-0.68 6.58,-2.03 3.13,-2.57 4.79,-5.26 4.97,-8.05 0.05,-1 0.08,-2.07 0.08,-3.2 0,-1.6 -0.08,-3.79 -0.22,-6.58 -0.17,-3.02 -0.27,-5.18 -0.3,-6.47 -0.03,-2.43 -0.05,-3.63 -0.05,-3.61 0.07,-1.4 0.39,-2.53 0.97,-3.41 0.41,-1.2 0.83,-2.08 1.27,-2.61 0.11,0 0.2,0.17 0.26,0.49 z m 72.19,21.78 c -1.38,1.7 -2.15,2.65 -2.29,2.86 -0.82,1.17 -1.27,2.28 -1.35,3.34 0.02,0.15 0.05,0.31 0.1,0.47 0.05,0.17 0.16,0.26 0.32,0.28 0.37,0.03 0.73,-0.22 1.1,-0.75 0.3,-0.47 0.6,-0.61 0.89,-0.45 0.19,0.34 0.28,0.69 0.28,1.08 0,0.76 -0.3,1.5 -0.89,2.22 -0.59,0.71 -1.24,1.06 -1.97,1.06 -0.22,0 -0.41,-0.02 -0.58,-0.08 -0.79,-0.38 -1.19,-1.14 -1.19,-2.28 0,-1.38 0.59,-2.94 1.77,-4.67 1.19,-1.73 2.31,-2.99 3.38,-3.8 0.13,-0.08 0.33,0.03 0.6,0.33 0,0 -0.17,0.39 -0.17,0.39 z m 3.53,-4.08 c -0.88,1.01 -1.59,1.48 -2.12,1.39 -0.43,0 -0.92,-0.39 -1.49,-1.19 -0.18,-0.22 -0.38,-0.43 -0.57,-0.62 -0.73,0.09 -1.59,0.76 -2.57,1.98 -0.47,0.59 -0.91,0.96 -1.34,1.11 -0.42,0.3 -0.89,0.44 -1.42,0.44 -0.56,0 -1.1,-0.13 -1.6,-0.39 -0.99,1.49 -2.01,2.16 -3.07,2.02 -0.35,-0.06 -0.67,-0.15 -0.96,-0.3 -0.98,0.87 -1.58,1.37 -1.81,1.48 -0.73,0.47 -1.48,0.56 -2.23,0.27 -1.62,2.37 -3.19,3.62 -4.72,3.75 -1.03,0.06 -1.78,-0.49 -2.28,-1.67 -0.95,1.82 -2,2.73 -3.13,2.73 -1.08,0 -2.1,-0.39 -3.05,-1.17 -2.8,1.85 -5.74,3.34 -8.82,4.45 -1.2,0.45 -3.45,1.16 -6.75,2.13 -2.22,0.54 -5.27,0.92 -9.14,1.14 -3.47,0.19 -6.59,-0.13 -9.38,-0.97 -1.06,-0.3 -2.09,-0.86 -3.08,-1.67 -1.26,-1 -1.97,-2.68 -2.12,-5.03 -0.17,-2.8 -0.23,-4.71 -0.17,-5.72 0.03,-0.58 0.04,-3.37 0.04,-8.36 0.35,-0.9 0.82,-2.26 1.38,-4.08 0.08,-0.12 0.21,-0.24 0.39,-0.36 0.08,0 0.27,0.09 0.58,0.28 -0.12,2.16 -0.24,4.33 -0.36,6.5 -0.15,2.62 -0.2,4.72 -0.14,6.3 -0.03,0.71 0,1.78 0.09,3.2 0.41,1.38 1.08,2.35 2,2.91 2.16,1.34 5.74,2.04 10.77,2.09 1.19,0.06 2.76,0.09 4.7,0.11 1.08,0.03 2.42,-0.08 4.01,-0.36 2.87,-0.47 4.38,-0.72 4.54,-0.75 1.37,-0.26 2.92,-0.67 4.65,-1.23 3.02,-0.97 5.4,-2.01 7.14,-3.11 1.18,0.58 2.2,0.87 3.07,0.87 0.44,0 0.78,-0.1 1.01,-0.31 0.81,-0.73 1.25,-1.66 1.33,-2.81 0.61,-2.44 1.3,-4.23 2.06,-5.38 0,0 0.14,-0.12 0.14,-0.12 0.12,-0.1 0.23,-0.13 0.35,-0.1 0,0 0.07,0.18 0.07,0.18 0.04,0.08 0.02,0.32 -0.04,0.71 -0.03,0.36 0,0.65 0.09,0.88 -0.15,1.52 0.34,2.61 1.45,3.27 0.73,0.31 1.21,0.46 1.43,0.46 0.17,0 0.33,-0.02 0.46,-0.07 0.71,-0.21 1.57,-0.96 2.57,-2.24 0.16,-0.04 0.32,0.04 0.47,0.25 0,0.35 -0.06,0.65 -0.18,0.92 0.5,0.21 0.88,0.23 1.14,0.05 0.75,-0.44 1.49,-1.24 2.22,-2.39 0.14,-0.2 0.31,-0.25 0.52,-0.17 0.24,0.3 0.22,0.62 -0.05,0.94 0.47,0.27 0.94,0.28 1.42,0.03 0.76,-0.65 1.26,-1.36 1.5,-2.14 0.2,-0.25 0.41,-0.31 0.64,-0.18 0,0 0.05,0.18 0.05,0.18 0.13,0.37 0.29,0.57 0.49,0.61 0.2,0.03 0.41,0.04 0.62,0.04 0.82,0 1.66,-0.47 2.5,-1.4 0.38,-0.48 0.79,-0.96 1.2,-1.44 0.43,-0.48 0.85,-0.82 1.27,-1.03 0.61,-0.32 1.19,-0.32 1.72,0 0.03,0.02 0.11,0.26 0.25,0.72 0.14,0.46 0.44,0.6 0.89,0.43 0.08,-0.1 0.36,-0.44 0.84,-1.03 0.2,-0.29 0.46,-0.38 0.78,-0.26 0.23,0.3 0.35,0.68 0.35,1.14 0,0.61 -0.2,1.31 -0.6,2.09 z m -24.42,21.33 c -1.06,-0.5 -2.26,-1.34 -3.58,-2.52 0,0 -2.18,2.57 -2.18,2.57 -1.83,-0.45 -3.12,-1.41 -3.89,-2.86 1.78,-2.18 2.78,-3.35 2.96,-3.53 1.02,0.87 2.18,1.75 3.46,2.64 0,0 2.64,-2.77 2.64,-2.77 1.71,1.41 2.98,2.42 3.83,3.03 -1.5,1.56 -2.57,2.71 -3.24,3.44 z m -2.51,6.37 c -1.83,-0.43 -3.11,-1.37 -3.83,-2.81 1.79,-2.12 2.78,-3.24 2.98,-3.39 1.18,1.03 2.44,2 3.78,2.91 0,0 -2.93,3.29 -2.93,3.29 z m -23.07,-24.42 c -1.05,-0.5 -2.24,-1.33 -3.56,-2.5 0,0 -2.19,2.55 -2.19,2.55 -1.82,-0.44 -3.11,-1.39 -3.87,-2.86 1.78,-2.16 2.76,-3.34 2.95,-3.53 1.01,0.9 2.17,1.78 3.47,2.64 0,0 2.63,-2.77 2.63,-2.77 1.7,1.42 2.98,2.44 3.84,3.05 -1.5,1.56 -2.59,2.7 -3.27,3.42 z m 55.8,13.64 c -0.53,0.12 -1.4,0.28 -2.61,0.5 -0.25,0 -0.41,-0.09 -0.47,-0.28 -0.03,-0.26 0.17,-0.5 0.61,-0.73 1.12,-0.72 2.23,-1.43 3.35,-2.13 1.32,-0.84 2.39,-1.63 3.2,-2.36 0.86,-0.97 1.67,-2.4 2.42,-4.28 0.56,-1.59 1.13,-3.17 1.69,-4.75 0.08,-0.24 0.27,-0.36 0.58,-0.36 0.25,0 0.39,0.12 0.39,0.36 0.05,0.56 -0.19,1.84 -0.72,3.83 -0.9,3.47 -1.98,6.27 -3.24,8.41 -0.48,0.78 -1.26,1.26 -2.34,1.45 -0.96,0.12 -1.91,0.23 -2.86,0.34 z m 83.08,-16.45 c -0.98,1.79 -2.33,3.27 -4.03,4.44 -1.88,1.26 -3.77,1.85 -5.67,1.76 -1.65,-0.05 -3.14,-0.43 -4.46,-1.14 -1.58,1.41 -2.76,2.38 -3.51,2.91 -0.94,0.68 -2.29,1.46 -4.05,2.36 -3.94,2.09 -8.22,3.71 -12.84,4.86 -4.85,1.2 -9.61,1.79 -14.27,1.79 -1.52,0 -2.88,-0.08 -4.08,-0.26 -3.11,-0.41 -5.45,-1.24 -7,-2.5 -1.09,-0.92 -1.77,-2.44 -2.03,-4.58 -0.27,0.79 -0.67,1.88 -1.2,3.25 -0.43,1 -0.98,1.62 -1.66,1.84 -1.58,0.45 -3.93,1.18 -7.04,2.18 -0.26,0 -0.45,-0.08 -0.58,-0.24 -0.09,-0.34 0.04,-0.64 0.37,-0.89 1.01,-0.66 2.03,-1.32 3.06,-1.97 1.24,-0.81 2.21,-1.58 2.91,-2.33 2.06,-1.75 3.47,-4.16 4.24,-7.21 0.34,-1.47 0.74,-2.82 1.21,-4.05 0.25,-0.26 0.5,-0.35 0.75,-0.27 0.34,0.28 0.45,0.54 0.35,0.8 -0.2,1.06 -0.4,2.1 -0.6,3.11 -0.25,1.45 -0.26,2.48 -0.04,3.09 0.4,1.38 1.05,2.35 1.93,2.91 2.16,1.34 5.75,2.03 10.79,2.06 4.73,0.06 8.86,-0.21 12.39,-0.79 2.93,-0.46 5.32,-0.99 7.17,-1.58 1.85,-0.6 4.32,-1.57 7.4,-2.91 1.06,-0.55 2.11,-1.1 3.16,-1.66 1.26,-0.67 2.2,-1.35 2.83,-2.04 0.46,-0.65 1.26,-1.66 2.4,-3.03 0.76,0.56 1.47,0.86 2.11,0.89 0.54,-0.32 1.83,-1.56 3.89,-3.71 1.52,-1.61 3.01,-2.49 4.46,-2.64 1.09,0.12 1.88,0.48 2.36,1.1 0.22,0.38 0.34,0.82 0.34,1.32 0,0.83 -0.35,1.87 -1.06,3.13 z m -2.53,-2.98 c -0.59,0 -1.26,0.23 -2.03,0.7 -0.15,0.12 -1.04,0.96 -2.66,2.53 -0.28,0.27 -0.65,0.58 -1.09,0.92 0.44,0.06 0.88,0.08 1.29,0.08 2.16,0 3.92,-0.55 5.3,-1.64 0.62,-0.53 0.88,-1.12 0.77,-1.77 -0.23,-0.55 -0.76,-0.82 -1.58,-0.82 z m 33.58,16.18 c -1.82,-0.43 -3.09,-1.37 -3.83,-2.81 1.79,-2.11 2.79,-3.24 3,-3.39 1.16,1.02 2.43,1.99 3.79,2.91 0,0 -2.96,3.29 -2.96,3.29 z m -0.77,-14.73 c -0.5,0.46 -1.23,0.62 -2.17,0.47 -0.18,-0.02 -0.35,-0.07 -0.52,-0.14 -0.15,-0.07 -0.43,-0.22 -0.84,-0.44 0,0.69 -0.02,1.71 -0.05,3.06 -0.44,6.36 -2.54,11.94 -6.33,16.75 -2.55,3.2 -5.59,4.8 -9.11,4.8 -0.41,0 -0.83,-0.03 -1.25,-0.1 -1.31,-0.13 -2.48,-0.77 -3.5,-1.92 -1,-1.06 -1.65,-2.28 -1.95,-3.65 -0.23,-1.07 -0.34,-2.17 -0.34,-3.32 0,-2.81 0.88,-6.49 2.64,-11.04 0,0 0.08,-0.17 0.08,-0.17 0.14,-0.23 0.29,-0.37 0.45,-0.43 0.32,-0.11 0.48,-0.01 0.48,0.3 -0.03,0.17 -0.29,1.27 -0.79,3.31 -0.57,2.25 -0.85,4 -0.85,5.22 0,1.81 0.49,3.29 1.47,4.44 1.05,1.24 2.63,1.86 4.74,1.86 1.46,0 2.89,-0.3 4.28,-0.89 2.05,-0.88 3.81,-2.28 5.28,-4.21 1.47,-1.93 2.33,-4 2.58,-6.21 0.22,-1.62 0.31,-3.53 0.28,-5.75 0,0 -0.08,-9.21 -0.08,-9.21 -0.04,-2.03 -0.04,-3.14 0,-3.34 0.02,-1.29 0.16,-2.36 0.42,-3.22 0.38,-0.94 1.06,-2.25 2.02,-3.95 0.3,-0.06 0.47,0.02 0.5,0.25 -0.53,3.08 -0.8,6.16 -0.8,9.23 0.08,0.81 0.41,1.53 1,2.17 0.59,0.65 1.27,1.05 2.03,1.19 0.92,0.15 1.74,-0.4 2.47,-1.64 0.15,-0.31 0.29,-0.63 0.44,-0.97 0.15,-0.33 0.37,-0.55 0.65,-0.64 0.21,0.33 0.3,0.7 0.27,1.14 -0.06,0.38 -0.12,0.76 -0.17,1.14 -0.65,1.85 -1.04,2.94 -1.19,3.27 -0.53,1.1 -1.25,1.98 -2.14,2.64 z m 22.3,0.92 c -1.07,-0.5 -2.25,-1.34 -3.57,-2.52 0,0 -2.2,2.57 -2.2,2.57 -1.81,-0.45 -3.1,-1.41 -3.87,-2.88 1.78,-2.16 2.76,-3.33 2.95,-3.5 1.02,0.88 2.18,1.75 3.47,2.61 0,0 2.64,-2.76 2.64,-2.76 1.69,1.41 2.97,2.43 3.83,3.04 -1.5,1.56 -2.58,2.7 -3.25,3.44 z m 11.7,-10.03 c -0.02,2.34 -0.05,4.69 -0.08,7.08 -0.1,2.76 -0.49,5.06 -1.15,6.9 -0.52,0.68 -1.25,1.71 -2.21,3.08 -0.05,0.22 -0.05,0.43 0,0.63 0.15,0.15 0.77,0.68 1.86,1.62 0.13,0.29 0.13,0.59 0,0.89 -0.76,1.55 -1.59,2.7 -2.48,3.46 -0.28,0.15 -0.62,0.11 -1,-0.13 -0.6,-0.41 -1.53,-0.93 -2.78,-1.58 -0.23,-0.06 -0.43,-0.02 -0.6,0.11 -0.15,0.14 -0.31,0.28 -0.45,0.41 -1.68,1.97 -3.5,2.95 -5.45,2.95 -0.57,0 -1.12,-0.08 -1.68,-0.26 0,0 -0.56,-0.25 -0.56,-0.25 -1.92,1.69 -3.94,2.73 -6.08,3.1 -1.51,0 -2.59,-0.67 -3.23,-2.01 -0.78,-1.56 -1.17,-3.95 -1.17,-7.17 0,0 0,-7.61 0,-7.61 0,-0.18 -0.02,-0.85 -0.05,-2.02 -0.03,-0.86 -0.03,-1.56 0,-2.09 0.06,-0.73 0.21,-1.38 0.45,-1.97 0.26,-0.71 0.63,-1.77 1.1,-3.2 0.03,-0.03 0.06,-0.07 0.09,-0.13 0,0 0.08,-0.11 0.08,-0.11 0.18,0 0.38,0.08 0.62,0.24 -0.58,4.59 -0.71,9.54 -0.4,14.83 0.03,0.66 0.15,1.66 0.36,2.98 0.29,1.18 0.86,2.03 1.7,2.55 0.61,0.26 1.35,0.39 2.2,0.39 0.74,0 1.46,-0.1 2.16,-0.3 0,0 -0.22,-0.8 -0.22,-0.8 -0.03,-0.14 -0.07,-0.28 -0.12,-0.42 -0.12,-1.44 0.11,-2.83 0.7,-4.17 0.59,-1.33 1.47,-2.36 2.62,-3.09 0.34,-0.19 0.72,-0.29 1.16,-0.29 0.61,0 1.18,0.16 1.69,0.46 0.75,0.65 1.12,1.54 1.12,2.69 0,1.49 -0.79,3.38 -2.37,5.67 0.3,0.08 0.56,0.12 0.79,0.12 1.7,-0.08 3.27,-0.8 4.71,-2.15 0.35,-0.36 1.51,-1.72 3.48,-4.1 0,0 1.46,-1.19 1.46,-1.19 0.9,-1.19 1.35,-2.61 1.35,-4.26 0,0 0,-7.31 0,-7.31 0,-0.91 0.24,-1.96 0.71,-3.16 0.44,-1 0.87,-2.01 1.26,-3.03 0.03,-0.19 0.14,-0.28 0.33,-0.28 0.2,0 0.33,0.09 0.39,0.28 -0.09,0.56 -0.2,1.44 -0.31,2.64 z m -14.73,16.55 c -0.19,-0.04 -0.37,-0.05 -0.54,-0.05 -0.73,0 -1.47,0.44 -2.23,1.31 -0.16,0.34 -0.23,0.69 -0.23,1.05 0,0.92 0.41,1.87 1.23,2.86 0.88,-0.17 1.66,-0.74 2.38,-1.72 0.38,-0.46 0.57,-1.01 0.57,-1.66 0,-0.35 -0.1,-0.7 -0.31,-1.04 -0.21,-0.36 -0.5,-0.61 -0.87,-0.75 z m 23.06,20.32 c -1.76,-0.41 -3.01,-1.34 -3.75,-2.78 1.74,-2.03 2.71,-3.15 2.9,-3.34 1.18,1.03 2.43,1.98 3.74,2.86 0,0 -2.89,3.26 -2.89,3.26 z m -3.88,-22.57 c 0,0 0.22,-7.71 0.22,-7.71 0.03,-0.66 0.24,-1.49 0.63,-2.47 0.55,-1.4 0.86,-2.19 0.92,-2.37 0.05,-0.06 0.12,-0.08 0.22,-0.05 0.11,0.03 0.24,0.1 0.37,0.19 -0.58,4.49 -0.76,9.36 -0.51,14.61 0.14,3.48 1.05,5.4 2.73,5.77 0.18,0.05 0.35,0.07 0.52,0.07 0.64,0 1.33,-0.5 2.07,-1.5 0.12,-0.29 0.28,-0.74 0.49,-1.36 0,0 0.12,-0.13 0.37,-0.4 0.17,0.03 0.29,0.24 0.38,0.62 0.05,1.23 -0.39,2.95 -1.33,5.16 -0.79,1.37 -1.67,2.29 -2.62,2.73 -0.28,0.09 -0.56,0.13 -0.85,0.13 -0.67,0 -1.26,-0.19 -1.78,-0.56 -0.51,-0.39 -0.98,-1.2 -1.39,-2.43 -0.23,-0.75 -0.37,-2.83 -0.44,-6.25 -0.03,-0.72 -0.03,-2.12 0,-4.18 z m -310.57,64 c 0,0 0,-0.3 0,-0.3 1,-1.41 2.45,-3.33 4.35,-5.77 0,0 0.21,0 0.21,0 1.54,1.64 3.47,3.12 5.78,4.44 0.06,0.04 0.09,0.14 0.09,0.28 0,0 -4.23,5.67 -4.23,5.67 -0.09,0.09 -0.37,0.06 -0.85,-0.09 -1.43,-0.68 -3.21,-2.09 -5.35,-4.23 z m 26.89,7.79 c 0,0 0.21,1.49 0.21,1.49 0,0 -0.11,0.12 -0.34,0.37 -0.3,0 -0.62,-0.29 -0.94,-0.89 -1.47,-3.49 -2.11,-7.15 -1.92,-11 -0.75,0.12 -1.34,0.12 -1.76,0 -1.77,-0.5 -3.46,-2.49 -5.08,-5.98 -0.53,-1.13 -0.74,-2.13 -0.66,-3 0.07,-0.31 0.25,-0.37 0.53,-0.17 0.33,0.62 0.91,1.52 1.72,2.68 0.71,1.15 1.9,1.72 3.56,1.72 1.36,-0.21 2.62,-1.44 3.79,-3.69 0.03,-0.25 0.17,-0.54 0.43,-0.89 0.19,0.04 0.34,0.14 0.46,0.33 0.11,0.19 0.2,0.39 0.28,0.6 0.07,0.21 0.3,0.66 0.68,1.35 0.29,0.6 0.43,1.09 0.43,1.47 0,0.29 -0.08,0.56 -0.22,0.83 -0.85,3.51 -1.27,7.33 -1.27,11.44 0,1.12 0.03,2.23 0.1,3.34 z m 17,0 c 0,0 0.21,1.49 0.21,1.49 0,0 -0.11,0.12 -0.34,0.37 -0.3,0 -0.62,-0.29 -0.94,-0.89 -1.47,-3.49 -2.11,-7.15 -1.92,-11 -0.75,0.12 -1.34,0.12 -1.76,0 -1.77,-0.5 -3.46,-2.49 -5.08,-5.98 -0.53,-1.13 -0.74,-2.13 -0.66,-3 0.07,-0.31 0.25,-0.37 0.53,-0.17 0.33,0.62 0.91,1.52 1.72,2.68 0.71,1.15 1.9,1.72 3.56,1.72 1.36,-0.21 2.62,-1.44 3.79,-3.69 0.03,-0.25 0.17,-0.54 0.43,-0.89 0.19,0.04 0.34,0.14 0.46,0.33 0.11,0.19 0.2,0.39 0.28,0.6 0.07,0.21 0.3,0.66 0.68,1.35 0.29,0.6 0.43,1.09 0.43,1.47 0,0.29 -0.08,0.56 -0.22,0.83 -0.85,3.51 -1.27,7.33 -1.27,11.44 0,1.12 0.03,2.23 0.1,3.34 z m 6.46,-9.11 c 0,0 14.32,0 14.32,0 0,0 -1.19,2.74 -1.19,2.74 0,0 -14.44,0 -14.44,0 0,0 1.31,-2.74 1.31,-2.74 z m 21.97,-9.11 c 1.13,1.68 2.52,2.54 4.18,2.57 1.09,0 2.37,-0.97 3.84,-2.91 0,-0.19 0.17,-0.39 0.51,-0.62 0.21,-0.06 0.38,-0.02 0.5,0.09 -0.33,1.84 -1.18,3.73 -2.56,5.67 -1.28,1.79 -2.6,2.69 -3.95,2.69 -0.19,0 -0.38,-0.01 -0.56,-0.02 -0.18,-0.02 -0.38,-0.07 -0.6,-0.15 -0.28,-0.12 -0.48,-0.19 -0.59,-0.22 -0.08,1.49 -0.14,2.98 -0.2,4.48 -0.06,1.7 -0.2,3.14 -0.43,4.3 -0.41,0.87 -1.04,2.14 -1.89,3.83 -0.18,0.19 -0.31,0.26 -0.4,0.23 -0.1,-0.24 -0.11,-0.56 -0.05,-0.97 0.05,-0.63 0.08,-1 0.08,-1.11 0,-0.45 -0.03,-1.27 -0.08,-2.45 -0.06,-1.06 -0.08,-1.9 -0.05,-2.51 -0.15,-2.26 -0.48,-5.33 -1.01,-9.19 0.22,-0.5 0.51,-1.21 0.89,-2.11 0.3,-0.58 0.76,-1.45 1.37,-2.6 0.12,-0.06 0.21,-0.09 0.3,-0.09 0.14,0 0.27,0.15 0.39,0.44 0.16,0.38 0.26,0.6 0.31,0.65 z m 16.11,6.43 c 0,0 5.1,-7.83 5.1,-7.83 0,0 0.12,-0.05 0.37,-0.14 0.11,0.15 1.38,1.76 3.81,4.84 1.52,1.95 2.59,3.65 3.21,5.11 0.27,0.65 0.4,1.32 0.4,2.02 0,0.98 -0.27,2.14 -0.82,3.48 -0.49,1.09 -0.96,2.19 -1.43,3.31 -0.49,1.5 -1.72,2.35 -3.68,2.58 -1.3,0.19 -2.24,-0.38 -2.83,-1.7 0,-0.05 -0.03,-0.12 -0.06,-0.2 -0.05,-0.09 -0.08,-0.14 -0.11,-0.16 -1.32,1.53 -2.66,2.19 -4.04,1.97 -1.06,-0.4 -1.74,-1.42 -2.04,-3.07 -0.03,-0.44 -0.03,-0.89 -0.03,-1.35 0,-2.29 0.38,-4.62 1.15,-6.97 0,0 1,-1.89 1,-1.89 z m 4,-3.3 c -0.84,1.28 -1.96,3.04 -3.34,5.28 -0.88,1.43 -1.31,2.77 -1.31,4.03 0,1.15 0.34,1.87 1.04,2.17 0.39,0.18 0.99,0.23 1.82,0.14 1.03,-0.11 1.83,-0.98 2.42,-2.61 0.06,-0.11 0.12,-0.22 0.18,-0.34 0.08,-0.11 0.17,-0.16 0.29,-0.12 0.21,0.16 0.35,0.45 0.4,0.84 0.03,0.48 0.09,0.8 0.17,0.95 0.57,1 1.74,1.49 3.54,1.49 0.53,-0.25 0.83,-0.41 0.92,-0.47 0.31,-0.22 0.52,-0.45 0.64,-0.7 -0.25,-1.94 -1.06,-3.76 -2.44,-5.47 0,0 -4.33,-5.19 -4.33,-5.19 z m 15,3.3 c 0,0 5.1,-7.83 5.1,-7.83 0,0 0.12,-0.05 0.37,-0.14 0.11,0.15 1.38,1.76 3.81,4.84 1.52,1.95 2.59,3.65 3.21,5.11 0.27,0.65 0.4,1.32 0.4,2.02 0,0.98 -0.27,2.14 -0.82,3.48 -0.49,1.09 -0.96,2.19 -1.43,3.31 -0.49,1.5 -1.72,2.35 -3.68,2.58 -1.3,0.19 -2.24,-0.38 -2.83,-1.7 0,-0.05 -0.03,-0.12 -0.06,-0.2 -0.05,-0.09 -0.08,-0.14 -0.11,-0.16 -1.32,1.53 -2.66,2.19 -4.04,1.97 -1.06,-0.4 -1.74,-1.42 -2.04,-3.07 -0.03,-0.44 -0.03,-0.89 -0.03,-1.35 0,-2.29 0.38,-4.62 1.15,-6.97 0,0 1,-1.89 1,-1.89 z m 4,-3.3 c -0.84,1.28 -1.96,3.04 -3.34,5.28 -0.88,1.43 -1.31,2.77 -1.31,4.03 0,1.15 0.34,1.87 1.04,2.17 0.39,0.18 0.99,0.23 1.82,0.14 1.03,-0.11 1.83,-0.98 2.42,-2.61 0.06,-0.11 0.12,-0.22 0.18,-0.34 0.08,-0.11 0.17,-0.16 0.29,-0.12 0.21,0.16 0.35,0.45 0.4,0.84 0.03,0.48 0.09,0.8 0.17,0.95 0.57,1 1.74,1.49 3.54,1.49 0.53,-0.25 0.83,-0.41 0.92,-0.47 0.31,-0.22 0.52,-0.45 0.64,-0.7 -0.25,-1.94 -1.06,-3.76 -2.44,-5.47 0,0 -4.33,-5.19 -4.33,-5.19 z m 15.22,16.53 c 0,0 -0.39,-9.87 -0.39,-9.87 -0.09,-1.1 -0.17,-2.17 -0.23,-3.22 -0.09,-1.26 -0.09,-2.35 0,-3.27 0.83,-1.85 1.54,-3.36 2.12,-4.51 0.26,-0.16 0.46,-0.21 0.61,-0.16 0.08,0.1 0.13,0.32 0.14,0.64 0.02,0.32 0.05,0.53 0.08,0.61 0.07,1.94 0.07,3.59 0,4.97 -0.03,0.53 -0.05,1.12 -0.05,1.75 0.03,2.05 -0.06,5.15 -0.26,9.28 -0.35,1.18 -0.81,2.45 -1.39,3.83 -0.16,0.38 -0.34,0.43 -0.54,0.15 0,0 -0.09,-0.2 -0.09,-0.2 z m 10.35,-9.23 c 0,0 0,-0.3 0,-0.3 1,-1.41 2.45,-3.33 4.35,-5.77 0,0 0.21,0 0.21,0 1.54,1.64 3.47,3.12 5.78,4.44 0.06,0.04 0.09,0.14 0.09,0.28 0,0 -4.23,5.67 -4.23,5.67 -0.09,0.09 -0.37,0.06 -0.85,-0.09 -1.43,-0.68 -3.21,-2.09 -5.35,-4.23 z m 22.87,-5.46 c 0,0 -3.77,8.94 -3.77,8.94 -0.63,1.53 -1.49,3.47 -2.57,5.8 -0.16,0.1 -0.3,0.03 -0.41,-0.22 0,-0.13 -0.04,-0.51 -0.12,-1.13 -0.06,-0.47 -0.08,-0.87 -0.08,-1.18 0,-0.8 0.19,-1.43 0.58,-1.89 1.12,-2.26 2.35,-5.07 3.68,-8.43 1.14,-2.81 2.26,-5.64 3.38,-8.48 0.06,-0.23 0.18,-0.34 0.36,-0.34 0.34,0 0.59,0.18 0.76,0.56 1.57,3.52 4.14,8.72 7.69,15.61 -0.09,0.69 -0.64,2.39 -1.67,5.11 -0.18,0.26 -0.35,0.31 -0.52,0.14 -0.42,-0.71 -1.04,-1.71 -1.86,-2.99 0,0 -4.36,-9.15 -4.36,-9.15 -0.21,-0.53 -0.54,-1.32 -1,-2.35 0,0 -0.09,0 -0.09,0 z m 15.13,5.46 c 0,0 0,-0.3 0,-0.3 1,-1.41 2.45,-3.33 4.35,-5.77 0,0 0.21,0 0.21,0 1.54,1.64 3.47,3.12 5.78,4.44 0.06,0.04 0.09,0.14 0.09,0.28 0,0 -4.23,5.67 -4.23,5.67 -0.09,0.09 -0.37,0.06 -0.85,-0.09 -1.43,-0.68 -3.21,-2.09 -5.35,-4.23 z m 19,-2.82 c -0.74,0 -1.36,-0.25 -1.9,-0.76 -0.53,-0.51 -0.79,-1.13 -0.79,-1.88 0,-0.72 0.26,-1.36 0.79,-1.89 0.54,-0.53 1.16,-0.79 1.9,-0.79 0.74,0 1.37,0.26 1.87,0.79 0.51,0.53 0.77,1.17 0.77,1.89 0,0.75 -0.26,1.37 -0.77,1.88 -0.5,0.51 -1.13,0.76 -1.87,0.76 z m 0,12.5 c -0.77,0 -1.41,-0.25 -1.93,-0.76 -0.51,-0.52 -0.76,-1.16 -0.76,-1.92 0,-0.73 0.26,-1.35 0.79,-1.86 0.54,-0.52 1.16,-0.78 1.9,-0.78 0.74,0 1.37,0.26 1.87,0.78 0.51,0.51 0.77,1.13 0.77,1.86 0,0.74 -0.26,1.37 -0.77,1.9 -0.5,0.53 -1.13,0.78 -1.87,0.78 z m 79.5,-31.9 c -1.8,-0.41 -3.08,-1.35 -3.83,-2.81 1.81,-2.08 2.8,-3.19 2.98,-3.35 1.18,1.03 2.44,1.99 3.78,2.86 0,0 -2.93,3.3 -2.93,3.3 z m -38.15,35.69 c -1.82,-0.41 -3.1,-1.35 -3.84,-2.82 1.81,-2.09 2.81,-3.2 3,-3.34 1.18,1.03 2.44,1.99 3.78,2.89 0,0 -2.94,3.27 -2.94,3.27 z m 40.07,-31.32 c -0.14,0.2 -0.41,0.42 -0.8,0.67 -0.4,0.25 -0.67,0.47 -0.81,0.63 -2.03,1.82 -3.28,3.48 -3.75,4.95 0.29,0.4 0.76,0.65 1.4,0.77 0,0 0.55,0.11 0.55,0.11 0.05,0.03 0.16,0.08 0.31,0.14 0.16,0.05 0.33,0.26 0.52,0.64 0,0 0.14,0.36 0.14,0.36 -0.17,1.34 -0.68,2.65 -1.55,3.9 -0.18,0.31 -0.5,0.41 -0.97,0.3 -0.38,-0.13 -0.99,-0.33 -1.81,-0.59 -0.92,-0.27 -1.71,-0.26 -2.37,0.04 -0.35,0.37 -0.94,0.94 -1.77,1.72 -0.62,0.53 -1.57,1.23 -2.86,2.1 -0.91,0.51 -1.86,0.61 -2.86,0.31 -0.31,-0.15 -0.68,-0.49 -1.09,-1.02 -0.79,0.42 -1.98,1 -3.56,1.72 -3.35,1.62 -6.84,2.97 -10.47,4.05 -5.03,1.5 -10.38,2.28 -16.03,2.33 -5.3,0.03 -11.07,-0.95 -17.33,-2.94 -0.53,0.96 -1.24,2.53 -2.11,4.7 -0.76,1.86 -1.38,3.16 -1.85,3.91 -0.26,0.3 -1.14,0.66 -2.64,1.06 -1.12,0.16 -2.81,0.38 -5.06,0.67 -0.12,0 -0.3,-0.09 -0.53,-0.26 -0.11,-0.22 -0.04,-0.47 0.22,-0.75 1.61,-0.88 3.96,-2.27 7.05,-4.19 1.78,-1.24 3.53,-4.41 5.23,-9.5 0.14,-0.47 0.32,-0.68 0.52,-0.62 1.73,0.44 3.48,0.9 5.25,1.37 1.98,0.47 3.76,0.79 5.32,0.97 3.34,0.42 6.22,0.62 8.66,0.62 1.53,0 3.42,-0.07 5.67,-0.23 3.24,-0.21 8.01,-1.12 14.31,-2.73 1.15,-0.29 2.48,-0.72 3.99,-1.32 1.88,-0.72 3.14,-1.38 3.78,-1.97 0.33,-0.09 0.6,0.01 0.8,0.3 0.06,0.17 0.27,0.48 0.62,0.92 0.26,0.28 0.63,0.41 1.1,0.41 1.12,0 2.27,-0.69 3.43,-2.08 0.32,-0.41 0.74,-0.9 1.24,-1.48 0.24,-0.27 0.58,-0.65 1.04,-1.13 0.39,-0.36 0.85,-0.68 1.38,-0.95 0.68,-2.17 1.8,-4.4 3.36,-6.69 1.72,-2.49 3.42,-4.17 5.12,-5.05 0.07,-0.03 0.17,-0.01 0.32,0.05 0.15,0.06 0.24,0.2 0.26,0.42 -0.08,0.2 -0.54,1.32 -1.37,3.36 z m 7.12,14.44 c 0,0 0.13,0.12 0.13,0.12 -0.37,1.32 -0.84,3.33 -1.41,6.02 -0.18,1 -0.26,1.94 -0.26,2.81 0,3.03 0.99,5.08 2.98,6.17 1.24,0.67 2.6,1 4.09,1 2.29,0 4.51,-0.68 6.64,-2.06 2.26,-1.42 3.73,-3.2 4.41,-5.33 0.11,-0.75 0.17,-1.65 0.17,-2.68 0,-0.35 -0.04,-1.59 -0.12,-3.74 -0.07,-1.52 -0.05,-2.75 0.04,-3.69 0.41,-1.59 0.96,-3.2 1.68,-4.84 0.19,-0.21 0.39,-0.22 0.57,-0.05 0.05,0.54 0.02,1.96 -0.11,4.27 -0.03,1.73 -0.05,3.46 -0.07,5.19 -0.1,2.05 -0.33,3.71 -0.69,4.97 -1.06,3.38 -2.67,6.32 -4.81,8.81 -1.78,1.67 -3.71,2.88 -5.82,3.61 -1.2,0.41 -2.43,0.62 -3.68,0.62 -1.41,0 -2.63,-0.26 -3.66,-0.79 -2.29,-1.5 -3.44,-4.23 -3.44,-8.19 0,-2.24 0.37,-4.72 1.1,-7.44 0,-0.21 0.06,-0.47 0.2,-0.8 0.13,-0.32 0.2,-0.55 0.2,-0.7 0.23,-0.73 0.67,-1.78 1.32,-3.16 0.21,-0.3 0.39,-0.34 0.54,-0.12 z m 4.31,4.7 c 0,0 3.11,-3.48 3.11,-3.48 0,0 0.22,0.12 0.22,0.12 0.89,1.04 1.96,2.05 3.22,3.04 -0.65,0.74 -1.68,1.81 -3.09,3.18 -0.51,-0.09 -1.05,-0.38 -1.6,-0.86 -0.54,-0.49 -1.04,-0.97 -1.51,-1.45 0,0 -0.35,-0.55 -0.35,-0.55 z m 28.49,-18.93 c -1.81,-0.42 -3.14,-1.32 -3.99,-2.72 1.79,-2.09 2.79,-3.21 2.99,-3.36 1.17,1.03 2.44,2.01 3.78,2.92 0,0 -2.78,3.16 -2.78,3.16 z m 2.66,14.43 c -1.5,3.17 -3.13,5.51 -4.9,7.03 -0.13,0.59 -0.39,1.47 -0.78,2.65 -0.56,1.44 -1.18,2.77 -1.86,3.96 -0.41,0.41 -1.05,0.69 -1.92,0.85 -1.26,0.23 -1.96,0.37 -2.11,0.43 -0.65,0.2 -1.65,0.45 -3.01,0.76 -0.06,-0.07 -0.16,-0.15 -0.3,-0.27 0,0 -0.02,-0.02 -0.05,-0.05 -0.03,-0.2 0.03,-0.38 0.19,-0.53 0.16,-0.14 0.34,-0.3 0.53,-0.45 1.31,-0.76 3.3,-1.94 5.97,-3.55 0.33,-0.3 0.65,-0.6 0.95,-0.91 0.32,-0.31 0.44,-0.68 0.38,-1.12 -0.03,-0.26 -0.21,-0.64 -0.53,-1.14 -1.38,0.15 -2.4,-0.13 -3.08,-0.84 -0.53,-0.54 -0.65,-1.25 -0.36,-2.14 0.24,-0.57 0.56,-1.36 0.97,-2.4 0.3,-0.95 0.48,-1.47 0.53,-1.56 0.23,-0.56 0.61,-0.95 1.14,-1.17 0.35,-0.13 0.77,-0.14 1.25,-0.03 1.23,0.7 1.91,1.89 2.06,3.56 0,0 0.17,-0.17 0.17,-0.17 0,0 -0.09,0 -0.09,0 0,0 0.13,0.3 0.13,0.3 2.43,-1.99 3.68,-3.87 3.75,-5.63 -0.03,-0.06 -0.05,-0.14 -0.05,-0.23 0,-0.1 -0.07,-0.21 -0.22,-0.33 -0.5,0.08 -0.96,0.12 -1.37,0.12 -0.97,0 -1.68,-0.27 -2.15,-0.82 -0.26,-0.37 -0.39,-0.79 -0.39,-1.25 0,-0.4 0.1,-0.91 0.3,-1.54 0.26,-0.72 0.41,-1.22 0.44,-1.5 0.27,-1.75 0.84,-2.79 1.72,-3.11 0.58,-0.13 1.22,0.07 1.92,0.6 0.72,0.8 1.18,1.56 1.37,2.26 0.32,1.02 0.49,2.11 0.49,3.29 0,1.82 -0.37,3.46 -1.09,4.93 z m -407.76,52.99 c 0,0 0.26,0 0.26,0 0.72,-0.9 1.78,-2.17 3.18,-3.81 0,0 0.25,0 0.25,0 1.83,1.48 3.46,2.66 4.88,3.56 0.2,0.08 0.25,0.4 0.12,0.97 0,0 -3.37,4.28 -3.37,4.28 -0.23,0.43 -0.66,0.56 -1.28,0.37 -1.84,-0.79 -3.42,-2 -4.75,-3.62 -0.65,0.81 -1.67,2.02 -3.07,3.62 -0.27,0.19 -0.55,0.28 -0.84,0.28 -0.38,0 -0.8,-0.14 -1.27,-0.45 -0.46,-0.3 -0.91,-0.61 -1.34,-0.94 -0.43,-0.32 -0.89,-0.67 -1.37,-1.06 -0.5,-0.38 -0.86,-0.8 -1.08,-1.27 0,0 0.12,-0.37 0.12,-0.37 0,0 3.85,-5.19 3.85,-5.19 0,0 0.28,0.06 0.84,0.19 1.06,0.86 2.69,2 4.87,3.44 z m 9.47,21.53 c 0,3.87 -0.89,8.4 -2.68,13.56 -1.84,5.29 -4.38,9.39 -7.63,12.28 -4.02,3.58 -7.9,5.38 -11.66,5.38 -1.1,0 -2.21,-0.15 -3.31,-0.44 -1.87,-0.52 -3.48,-1.68 -4.81,-3.47 -1.23,-1.67 -2.02,-3.48 -2.38,-5.44 -0.24,-1.37 -0.37,-2.82 -0.37,-4.34 0,-3.71 0.89,-8.49 2.69,-14.34 0.12,-0.44 0.49,-0.95 1.09,-1.53 0.17,0 0.33,0.12 0.5,0.37 -0.37,1.87 -0.76,3.75 -1.15,5.63 -0.47,2.18 -0.69,4.11 -0.69,5.78 0,3.83 1.17,6.6 3.53,8.31 1.48,1.1 3.33,1.65 5.56,1.65 2.77,0 5.48,-0.74 8.13,-2.24 4.52,-2.54 7.8,-6.68 9.84,-12.41 0.73,-2 1.09,-3.75 1.09,-5.25 0,-0.5 -0.04,-0.99 -0.12,-1.47 -0.13,-0.77 -0.45,-1.24 -0.97,-1.41 -0.81,0.3 -1.61,0.44 -2.37,0.44 -0.9,0 -1.64,-0.21 -2.22,-0.62 -0.78,-0.69 -1.16,-1.52 -1.16,-2.5 0,-0.57 0.17,-1.44 0.52,-2.63 0.34,-1.19 0.49,-2.08 0.45,-2.69 0.33,-2.47 1.25,-3.72 2.75,-3.72 0.85,0 1.75,0.54 2.69,1.6 1.79,2.06 2.68,5.23 2.68,9.5 z m 46.16,-9.1 c -2.15,-0.68 -4.05,-2.09 -5.72,-4.21 2.6,-3.04 4.06,-4.67 4.38,-4.88 1.68,1.5 3.52,2.91 5.5,4.22 0,0 -4.16,4.87 -4.16,4.87 z m 4.72,9.85 c -1.54,-0.73 -3.27,-1.95 -5.19,-3.66 0,0 -3.19,3.72 -3.19,3.72 -2.64,-0.64 -4.52,-2.03 -5.62,-4.15 2.6,-3.17 4.03,-4.88 4.28,-5.13 0.77,0.73 1.58,1.46 2.44,2.19 0.85,0.73 1.72,1.28 2.62,1.65 0,0 3.81,-3.97 3.81,-3.97 2.48,2 4.35,3.45 5.6,4.35 -2.19,2.31 -3.77,3.98 -4.75,5 z m 45.12,-1.53 c -0.48,0.52 -0.93,1.01 -1.34,1.47 -0.61,0.56 -1.18,0.9 -1.72,1.03 -0.44,-0.04 -1.23,-0.32 -2.37,-0.85 -0.98,-0.37 -1.8,-0.56 -2.44,-0.56 -0.56,0 -1.08,0.11 -1.53,0.31 -0.86,0.61 -3.1,2.23 -6.72,4.88 -5.46,4.08 -11.56,7.3 -18.31,9.66 -7.09,2.48 -15.54,3.8 -25.35,3.96 -7.12,0.13 -12.86,-0.68 -17.22,-2.43 -2.21,4.43 -4.71,6.65 -7.53,6.65 -0.4,0 -0.8,-0.04 -1.22,-0.12 -1.83,0 -3.37,-0.92 -4.62,-2.75 -0.81,-1.58 -1.28,-3.68 -1.41,-6.28 0,-1.54 0,-3.85 0,-6.91 0.08,-2.98 0.17,-7.56 0.25,-13.75 0.48,-1.46 1.17,-3.57 2.06,-6.34 0.09,-0.21 0.27,-0.32 0.57,-0.32 0.31,0 0.51,0.11 0.59,0.32 -0.04,1.18 -0.22,3.83 -0.53,7.93 -0.25,3.19 -0.36,5.8 -0.31,7.82 0.08,2.98 0.12,4.71 0.12,5.18 0.17,1.96 0.53,3.62 1.1,4.97 0.52,1.21 1.39,1.94 2.62,2.19 0.56,0.09 1.1,0.12 1.6,0.12 1.7,0 3.35,-0.59 4.93,-1.78 0.29,-0.2 0.68,-0.55 1.16,-1.03 0.12,-0.16 0.29,-0.47 0.5,-0.9 0.39,-0.67 0.65,-1.12 0.78,-1.35 0.37,-0.58 0.71,-0.91 1,-1 1.25,0.42 3.45,0.99 6.59,1.72 3,0.46 6.76,0.76 11.28,0.91 4.09,0.08 7.29,-0.01 9.6,-0.28 6.66,-0.67 13.13,-2.03 19.4,-4.1 4.57,-1.47 8.89,-3.59 12.97,-6.34 0.4,-0.25 1.12,-0.67 2.16,-1.27 1.04,-0.59 1.78,-1.08 2.22,-1.48 1.83,-2 3.41,-3.32 4.72,-3.97 0.72,-2 1.62,-3.53 2.69,-4.59 0.28,0 0.43,0 0.43,0 0.15,0 0.26,0.02 0.35,0.06 0.29,0.6 0.75,1.48 1.4,2.62 0.58,0.82 1.54,1.97 2.88,3.47 0.2,0.71 -0.24,1.75 -1.35,3.13 z m -72.06,-3.66 c -1.54,-0.73 -3.27,-1.94 -5.19,-3.66 0,0 -3.18,3.72 -3.18,3.72 -2.65,-0.62 -4.54,-2 -5.66,-4.15 2.6,-3.15 4.04,-4.85 4.31,-5.13 0.75,0.73 1.55,1.46 2.41,2.19 0.85,0.73 1.73,1.28 2.62,1.66 0,0 3.85,-4.03 3.85,-4.03 2.47,2.04 4.33,3.51 5.56,4.4 -2.17,2.27 -3.74,3.94 -4.72,5 z m 165.09,4.69 c -2.62,-0.65 -4.48,-2.01 -5.56,-4.09 2.6,-3.09 4.06,-4.73 4.38,-4.94 1.68,1.5 3.52,2.9 5.5,4.22 0,0 -4.32,4.81 -4.32,4.81 z m 37.41,4.53 c -1.12,2.4 -2.6,3.74 -4.44,4.03 -1.23,0.09 -2.25,-0.1 -3.06,-0.56 -1.83,2.37 -3.46,3.48 -4.87,3.31 -0.34,-0.04 -0.84,-0.19 -1.5,-0.47 -0.67,-0.27 -1.19,-0.4 -1.57,-0.4 -0.25,0 -0.49,0.02 -0.71,0.06 -3.88,4.08 -7.35,6.12 -10.41,6.12 -1.04,0 -2.12,-0.2 -3.22,-0.62 -1.27,1.02 -3.06,2 -5.37,2.94 -2.99,1.27 -7.87,2.27 -14.66,3 -5.75,0.6 -11.38,0.88 -16.89,0.84 -5.51,-0.04 -11.08,0 -16.71,0.13 -6.31,0.12 -10.42,0.18 -12.34,0.18 -2.96,0 -6.09,-0.04 -9.4,-0.12 -5.05,-0.21 -9.3,-0.43 -12.76,-0.66 -2.52,-0.37 -4.03,-1.6 -4.53,-3.69 -0.23,-0.97 -0.34,-1.85 -0.34,-2.62 -0.04,-0.6 0.03,-1.11 0.22,-1.53 0,0 0.06,-0.16 0.06,-0.16 0.08,-0.16 0.25,-0.27 0.5,-0.31 0.52,-0.13 1.59,-0.08 3.2,0.14 1.62,0.22 7,0.62 16.15,1.2 2.58,0.21 7.2,0.31 13.87,0.31 8.27,0 12.77,0.04 13.5,0.1 12.16,0.25 22.71,-0.03 31.63,-0.84 2.89,-0.26 5.36,-0.62 7.4,-1.1 0.94,-0.21 1.83,-0.51 2.69,-0.9 -0.25,-0.94 -0.38,-1.9 -0.38,-2.88 0,-2.81 0.96,-5.3 2.88,-7.47 1.37,-1.25 2.72,-1.87 4.03,-1.87 1.75,0 2.93,0.68 3.53,2.06 0.29,0.65 0.44,1.32 0.44,2.03 0,2.11 -1.28,4.87 -3.85,8.28 0.52,0.09 0.95,0.11 1.29,0.06 3.66,-0.43 7,-2.47 10,-6.09 0.77,-0.64 1.48,-0.88 2.15,-0.72 0.44,0.23 1.08,0.56 1.94,0.97 0.94,0.4 1.69,0.25 2.25,-0.44 0.71,-0.69 1.81,-2.05 3.31,-4.09 0.21,-0.27 0.49,-0.29 0.85,-0.06 0.16,0.16 0.22,0.39 0.18,0.68 -0.04,0.23 -0.1,0.62 -0.18,1.16 0.81,0.44 1.64,0.34 2.5,-0.31 0.62,-0.48 1.19,-1.17 1.71,-2.07 0.42,-0.76 0.85,-1.53 1.29,-2.28 0.08,-0.22 0.25,-0.34 0.5,-0.34 0.31,0 0.55,0.16 0.71,0.47 -0.35,1.52 -0.88,3.03 -1.59,4.53 z m -28.44,0.25 c -1.23,0.19 -2.18,0.79 -2.87,1.81 -0.13,0.5 -0.19,1.03 -0.19,1.6 0,1.35 0.51,2.57 1.53,3.65 0.65,-0.27 1.52,-0.85 2.63,-1.75 0.97,-0.77 1.47,-1.72 1.47,-2.87 0,-0.42 -0.07,-0.82 -0.19,-1.22 -0.25,-0.81 -1.04,-1.22 -2.38,-1.22 z m 55.1,-8.25 c -0.28,3.94 -1.75,7.62 -4.44,11.06 -1.15,1.46 -2.19,2.45 -3.13,2.97 -0.46,3.19 -1.54,6.31 -3.24,9.35 -0.86,1.06 -2.25,1.74 -4.16,2.03 -1.59,0.21 -3.17,0.45 -4.75,0.71 -2.13,0.26 -3.15,0.38 -3.06,0.38 -0.28,-0.21 -0.39,-0.49 -0.35,-0.84 0.6,-0.38 1.48,-0.95 2.63,-1.72 0.81,-0.46 2.41,-1.23 4.81,-2.32 2,-0.93 3.53,-1.83 4.59,-2.68 0.69,-0.9 0.95,-1.6 0.79,-2.1 -0.09,-0.68 -0.37,-1.22 -0.85,-1.59 -1.87,0.21 -3.28,-0.16 -4.22,-1.09 -0.69,-0.82 -0.85,-1.91 -0.5,-3.28 0.29,-0.82 0.7,-1.98 1.22,-3.5 0.33,-0.9 0.68,-1.82 1.03,-2.76 0.54,-1 1.32,-1.5 2.35,-1.5 0.97,0 1.85,0.59 2.62,1.76 0.4,0.58 0.7,1.28 0.91,2.09 0.12,0.35 0.31,1.25 0.56,2.69 1.33,-0.94 2.23,-1.68 2.69,-2.22 0.72,-0.85 1.15,-1.91 1.28,-3.16 0,-0.16 0,-1.78 0,-4.84 0,-1.98 0.26,-3.54 0.78,-4.69 0.46,-1.02 1.37,-2.41 2.75,-4.16 0.04,0 0.06,0 0.06,0 0.17,0 0.33,-0.04 0.5,-0.12 -0.33,2.56 -0.62,5.74 -0.87,9.53 z m -3.66,37.97 c -1.54,-0.73 -3.27,-1.95 -5.19,-3.66 0,0 -3.18,3.72 -3.18,3.72 -2.65,-0.65 -4.53,-2.03 -5.63,-4.15 2.58,-3.17 4.01,-4.88 4.28,-5.13 1.48,1.27 3.17,2.55 5.07,3.84 0,0 3.81,-4.03 3.81,-4.03 2.47,2.04 4.34,3.51 5.59,4.41 -2.19,2.25 -3.77,3.91 -4.75,5 z m 136.41,-79.31 c -1.59,2.27 -3.81,4.18 -6.66,5.75 -0.15,0.1 -2.83,1.34 -8.06,3.71 -1.54,0.65 -3.11,1.32 -4.69,2 -1.79,0.82 -3.26,1.65 -4.41,2.5 -0.93,0.63 -1.44,1.43 -1.53,2.41 -0.18,1.5 -0.32,4.35 -0.4,8.53 -0.05,3.67 -0.23,6.48 -0.57,8.44 -0.24,1.71 -0.78,3.62 -1.59,5.75 -0.9,1.46 -1.44,2.27 -1.62,2.44 -0.67,0.9 -1.41,1.5 -2.22,1.81 -0.65,0.09 -1.67,-0.02 -3.05,-0.3 -1.39,-0.28 -2.51,-0.63 -3.36,-1.04 -3.98,2.85 -7.44,4.91 -10.37,6.18 -2.57,1.13 -5.11,2.21 -7.64,3.25 -2.54,1.05 -5.88,2.14 -10.02,3.29 -3.13,0.89 -6.2,1.48 -9.22,1.76 -3.02,0.28 -6.05,0.45 -9.09,0.48 -8.06,0.09 -16.47,-1.25 -25.22,-4.03 -0.77,1.4 -1.79,3.68 -3.06,6.85 -1.11,2.68 -2,4.58 -2.69,5.68 -0.38,0.44 -1.66,0.95 -3.85,1.54 -1.62,0.23 -4.07,0.55 -7.34,0.96 -0.19,0 -0.45,-0.12 -0.78,-0.37 -0.16,-0.31 -0.06,-0.68 0.31,-1.09 2.35,-1.27 5.77,-3.3 10.25,-6.1 2.6,-1.79 5.15,-6.39 7.63,-13.81 0.2,-0.69 0.45,-0.99 0.75,-0.91 1.29,0.36 3.49,0.96 6.59,1.82 2.65,0.62 5.57,1.15 8.78,1.59 3.5,0.52 6.38,0.78 8.63,0.78 7.52,0.04 13.5,-0.26 17.94,-0.91 2.41,-0.39 5.86,-1.24 10.34,-2.56 4.35,-1.29 8.16,-2.61 11.4,-3.97 2.57,-1.06 4.83,-2.23 6.79,-3.53 0.56,-0.33 1.31,-0.5 2.25,-0.5 0.41,-0.04 0.9,-0.02 1.46,0.06 0.94,0.17 1.45,0.28 1.54,0.32 1.54,0.12 2.75,-0.65 3.65,-2.32 0.33,-1.35 0.52,-2.86 0.57,-4.53 0,-0.97 0,-2.4 0,-4.28 0.03,-5.93 0.5,-10.01 1.4,-12.22 1.29,-3.16 4.16,-5.83 8.6,-8 3.58,-1.54 8.87,-4.02 15.87,-7.43 0.5,-0.38 1.34,-0.93 2.53,-1.66 0.44,0 0.68,0.15 0.72,0.44 -0.09,0.4 -0.27,0.8 -0.56,1.22 z m -70.1,40.31 c -0.89,0.56 -2.2,0.93 -3.9,1.09 -2.13,0.25 -3.47,0.47 -4.03,0.66 -0.17,0.04 -0.32,0 -0.44,-0.13 0.04,-0.77 0.53,-1.31 1.47,-1.62 0.85,-1.1 1.4,-1.85 1.65,-2.22 0.57,-0.89 0.87,-1.75 0.91,-2.56 0.21,-0.69 0.29,-1.6 0.25,-2.75 -0.09,-1.46 -0.11,-2.4 -0.06,-2.82 0.37,-0.76 1.05,-1.86 2.03,-3.28 0.19,0.05 0.28,0.11 0.28,0.19 -0.09,0.69 -0.12,1.97 -0.12,3.85 -0.07,1.54 -0.27,3.04 -0.6,4.5 1.54,-1.38 2.84,-2 3.91,-1.88 0.69,0.21 1.19,0.59 1.53,1.16 0.39,1.06 0.21,2.12 -0.56,3.18 -0.78,0.9 -1.55,1.78 -2.32,2.63 z m 0.32,-4.03 c 0,0 -0.13,-0.19 -0.13,-0.19 -1.31,-0.16 -2.64,0.67 -3.97,2.5 0,0 -0.81,1.22 -0.81,1.22 2.69,-0.52 4.38,-1.33 5.09,-2.44 0.09,-0.29 0.13,-0.48 0.13,-0.56 0,-0.17 -0.11,-0.35 -0.31,-0.53 z m 65.68,-2.63 c -0.14,0.78 -0.3,1.91 -0.46,3.41 -0.17,1.92 -0.28,4.56 -0.32,7.94 0,3.87 -0.04,6.58 -0.12,8.12 -0.17,3.29 -1.06,6.73 -2.69,10.31 -0.31,0.67 -0.59,1 -0.84,1 -0.13,0 -0.25,-0.04 -0.38,-0.12 -0.29,-0.17 -0.4,-0.55 -0.31,-1.16 0.33,-1.14 0.6,-4.02 0.81,-8.62 -0.29,-3.71 -0.4,-7.87 -0.31,-12.47 0.69,-2.31 1.88,-5.18 3.59,-8.6 0.42,-0.24 0.76,-0.18 1.03,0.19 z m 12.25,-6.43 c 0,0 1.16,-1.63 1.16,-1.63 0,0 0.44,0 0.44,0 -0.05,-0.13 -0.13,0.32 -0.25,1.34 0,1.34 -0.03,2.66 -0.06,3.97 -0.05,1.63 -0.27,2.91 -0.66,3.85 0.39,-0.29 1.02,-0.7 1.87,-1.22 1.07,-0.54 2.04,-0.52 2.94,0.06 0.77,0.52 1.03,1.34 0.78,2.44 -0.93,2.4 -2.42,3.98 -4.43,4.75 -0.94,0.08 -3.12,0.37 -6.54,0.87 -0.25,0.09 -0.48,-0.04 -0.68,-0.37 0.08,-0.46 0.46,-0.83 1.15,-1.11 0.69,-0.28 1.12,-0.64 1.28,-1.08 0.82,-1.23 1.24,-1.88 1.29,-1.97 0.41,-0.81 0.64,-1.56 0.68,-2.25 0.13,-0.54 0.19,-1.19 0.19,-1.97 0,-0.31 0,-0.74 0,-1.28 -0.04,-0.56 -0.06,-0.97 -0.06,-1.22 0,-1.33 0.3,-2.39 0.9,-3.18 z m 3.66,9.06 c 0,0 -0.41,-0.38 -0.41,-0.38 -0.98,-0.2 -1.91,0.16 -2.81,1.1 -0.33,0.33 -0.99,1.21 -1.97,2.62 0.9,-0.21 1.82,-0.45 2.78,-0.73 0.96,-0.28 1.68,-0.73 2.16,-1.33 0.33,-0.58 0.41,-1.01 0.25,-1.28 z m -3.72,8.9 c 0,0 0,-0.18 0,-0.18 0.29,0 0.66,0.16 1.11,0.48 0.45,0.32 0.79,0.51 1.02,0.55 2.29,1.56 3.43,3.84 3.43,6.84 0,1.75 -0.53,3.71 -1.59,5.88 -0.9,1.83 -1.81,3.66 -2.75,5.5 -0.86,1.25 -2.36,2.06 -4.5,2.43 -3.4,0.57 -5.17,0.87 -5.31,0.91 -0.75,0 -1.13,0 -1.13,0 -0.08,-0.13 -0.12,-0.23 -0.12,-0.31 0,-0.1 0.04,-0.22 0.12,-0.35 2.21,-1.18 5.51,-2.95 9.91,-5.31 1.19,-0.62 1.83,-1.42 1.94,-2.4 0.12,-1.26 -0.18,-2.44 -0.91,-3.57 -0.73,-1.12 -1.69,-1.97 -2.87,-2.53 0,0 -0.91,-0.97 -0.91,-0.97 0.64,-2.25 1.5,-4.57 2.56,-6.97 z m -540,64.18 c -5.43,3.41 -8.14,8.8 -8.14,16.17 0,2.79 0.59,5.48 1.77,8.06 1.37,3.11 3.39,5.5 6.04,7.17 0.37,0.23 0.55,0.44 0.55,0.63 0,0.4 -0.37,0.46 -1.09,0.17 -3.17,-1.23 -5.78,-3.36 -7.82,-6.39 -2.04,-3.04 -3.06,-6.28 -3.06,-9.72 0,-3.76 1.09,-7.24 3.27,-10.45 2.18,-3.21 4.92,-5.37 8.2,-6.49 0.45,-0.14 0.67,-0.05 0.67,0.27 0,0.2 -0.13,0.39 -0.39,0.58 z m 27.38,28.25 c -1.82,-0.42 -3.14,-1.33 -3.99,-2.74 1.78,-2.08 2.78,-3.19 2.99,-3.34 1.16,1.03 2.42,1.99 3.78,2.89 0,0 -2.78,3.19 -2.78,3.19 z m -4.25,-20.35 c -0.92,0.67 -1.82,1.35 -2.69,2.03 -1,0.83 -1.7,1.67 -2.08,2.55 -0.29,0.71 -0.34,1.31 -0.12,1.8 0.35,0.36 0.92,0.65 1.7,0.87 0.79,0.22 1.33,0.45 1.64,0.67 0.73,0.85 1.09,2.05 1.09,3.61 0,0.37 -0.08,1.44 -0.25,3.21 -0.59,2.9 -1.67,5.5 -3.23,7.79 -1.76,2.62 -3.92,4.39 -6.45,5.33 -0.75,0.26 -1.52,0.39 -2.33,0.39 -1.68,0 -3.02,-0.48 -4.02,-1.44 -1.99,-1.91 -2.98,-4.67 -2.98,-8.28 0,-1.69 0.22,-3.66 0.65,-5.9 0.51,-2.46 1.29,-5.1 2.33,-7.91 0.1,-0.16 0.28,-0.23 0.53,-0.23 0.15,0.21 0.21,0.47 0.17,0.75 -1.19,4.58 -1.79,7.81 -1.79,9.68 0,1.8 0.3,3.43 0.92,4.89 0.79,1.35 1.73,2.22 2.81,2.6 0.68,0.22 1.4,0.34 2.17,0.34 1.75,0 3.7,-0.66 5.85,-1.98 1.84,-1.49 3.17,-3.25 4,-5.28 0.02,-0.17 0.08,-0.45 0.19,-0.83 0.06,-0.38 0,-0.71 -0.16,-1.02 -0.34,-0.42 -0.91,-0.72 -1.69,-0.87 -0.92,-0.21 -1.52,-0.4 -1.81,-0.57 -1.03,-0.7 -1.52,-2.17 -1.45,-4.4 0.35,-2.63 1.13,-4.62 2.34,-5.95 0.7,-0.79 1.84,-1.79 3.44,-3 1.6,-1.22 2.72,-2.17 3.37,-2.85 0.12,-0.11 0.2,-0.29 0.25,-0.53 -0.79,-0.26 -1.68,-0.39 -2.68,-0.39 -0.93,0 -2.06,0.13 -3.38,0.39 -1.2,0.09 -2.18,0.86 -2.95,2.3 -0.03,0.15 -0.2,0.17 -0.49,0.08 -0.17,-0.23 -0.18,-0.56 -0.03,-0.97 0.11,-0.23 0.27,-0.6 0.47,-1.13 0.66,-1.42 1.81,-2.39 3.44,-2.9 1,-0.31 2.52,-0.48 4.58,-0.54 1.05,-0.03 1.94,0.04 2.68,0.21 0,0 0.25,0.22 0.25,0.22 0.13,0.15 0.14,0.46 0.05,0.92 -0.03,0.15 -0.05,0.28 -0.05,0.37 -0.9,2.78 -2.34,4.76 -4.29,5.97 z m 25.51,-6.06 c 0,0 -0.14,8.58 -0.14,8.58 -0.06,4.55 -1.39,7.99 -3.97,10.33 -0.65,0.58 -1.33,0.96 -2.06,1.15 -0.62,1.94 -0.96,3.04 -1.05,3.3 -0.48,1.26 -1.02,2.3 -1.64,3.12 -0.7,0.46 -1.69,0.8 -2.98,1.02 -1.99,0.29 -3.05,0.45 -3.17,0.47 -0.23,0.06 -0.61,0.14 -1.11,0.23 -0.35,0.03 -0.61,-0.05 -0.78,-0.26 0.02,-0.23 0.18,-0.47 0.48,-0.72 0.26,-0.15 0.51,-0.3 0.75,-0.47 1.32,-0.65 3.29,-1.63 5.89,-2.94 0.53,-0.39 0.87,-0.65 1.02,-0.76 0.35,-0.32 0.57,-0.68 0.65,-1.05 0.15,-0.7 -0.04,-1.23 -0.58,-1.59 -1.43,0.11 -2.39,-0.14 -2.89,-0.75 -0.32,-0.38 -0.48,-0.82 -0.48,-1.35 0,-0.33 0.2,-1.19 0.61,-2.56 0.27,-0.7 0.55,-1.44 0.86,-2.22 0.31,-0.78 0.81,-1.27 1.51,-1.48 0.86,-0.09 1.6,0.4 2.24,1.45 0.36,0.62 0.67,1.67 0.94,3.17 -0.04,0.12 -0.05,0.38 -0.05,0.8 0.97,0 1.69,-0.25 2.17,-0.75 0.9,-1.21 1.38,-2.87 1.44,-4.97 0,-1.76 0,-3.52 0,-5.28 0,-0.22 -0.03,-1.1 -0.1,-2.64 -0.05,-0.98 0.07,-1.79 0.35,-2.44 0,0 1.72,-4.13 1.72,-4.13 0.03,-0.13 0.12,-0.22 0.28,-0.26 0.17,0 0.26,0.1 0.26,0.31 0.02,0.35 0.01,0.8 -0.04,1.36 -0.09,0.67 -0.13,1.11 -0.13,1.33 z m 49.78,6.3 c -1.04,-0.5 -2.23,-1.34 -3.56,-2.52 0,0 -2.19,2.56 -2.19,2.56 -1.82,-0.44 -3.11,-1.4 -3.87,-2.86 1.79,-2.17 2.77,-3.35 2.94,-3.53 1.03,0.88 2.19,1.76 3.48,2.64 0,0 2.64,-2.76 2.64,-2.76 1.7,1.4 2.97,2.42 3.83,3.03 -1.5,1.54 -2.59,2.69 -3.27,3.44 z m 10.96,19.48 c -1.05,-0.5 -2.25,-1.34 -3.61,-2.52 0,0 -2.19,2.52 -2.19,2.52 -1.79,-0.41 -3.08,-1.37 -3.86,-2.86 1.81,-2.17 2.79,-3.33 2.94,-3.48 1.03,0.87 2.19,1.76 3.48,2.65 0,0 2.69,-2.78 2.69,-2.78 1.69,1.38 2.96,2.37 3.81,2.99 -1.5,1.59 -2.59,2.75 -3.26,3.48 z m -2.55,6.34 c -1.78,-0.41 -3.06,-1.35 -3.83,-2.81 1.82,-2.09 2.82,-3.21 3,-3.36 1.21,1.03 2.49,1.99 3.83,2.86 0,0 -3,3.31 -3,3.31 z m 2.52,-25.6 c -0.04,0.16 -0.11,0.43 -0.22,0.79 -0.54,1.08 -0.93,1.83 -1.19,2.27 -0.53,0.83 -1.11,1.49 -1.72,1.98 -0.5,0.39 -1.09,0.49 -1.77,0.31 -0.08,-0.02 -0.49,-0.22 -1.21,-0.61 -0.47,-0.25 -0.95,-0.31 -1.43,-0.17 -1.58,0.53 -2.84,1.17 -3.78,1.93 0.18,0.03 0.35,0.07 0.52,0.14 1.03,0.23 1.63,0.4 1.81,0.53 0.47,0.31 0.7,0.91 0.7,1.79 0,1.44 -0.76,2.94 -2.28,4.5 -1.43,1.43 -2.92,2.29 -4.43,2.58 -0.77,-0.03 -1.91,0.06 -3.44,0.28 -0.8,0.37 -2,0.89 -3.61,1.57 -2.2,0.86 -4.62,1.59 -7.27,2.17 -5.99,1.34 -11.01,2.01 -15.08,2.01 -2.52,0 -4.91,-0.34 -7.17,-1.04 -2.61,-0.79 -4.26,-2.47 -4.92,-5.03 -0.3,-1.15 -0.45,-3.61 -0.45,-7.4 0,-0.78 0,-2.07 0,-3.86 0.03,-1.78 0.04,-3.09 0.04,-3.92 0,-0.02 0.03,-0.11 0.08,-0.28 0,0 0.13,-0.37 0.13,-0.37 0.19,-0.68 0.38,-1.35 0.58,-2.03 0.3,-0.94 0.61,-1.52 0.93,-1.75 0,0 0.61,0.25 0.61,0.25 -0.02,0.53 -0.12,2.32 -0.31,5.37 -0.15,2.23 -0.22,4.03 -0.22,5.41 0,0.21 0,0.58 0,1.11 -0.03,0.52 -0.05,0.93 -0.05,1.23 0,0.99 0.06,1.77 0.18,2.33 0.3,1.29 0.96,2.26 1.98,2.89 2.29,1.48 7.34,2.22 15.14,2.22 2.1,0 4.64,-0.25 7.61,-0.75 2.97,-0.5 5.52,-1.09 7.67,-1.77 0.38,-0.64 0.8,-1.6 1.27,-2.86 0.58,-1.5 0.97,-2.46 1.19,-2.89 1.16,-2.4 2.48,-3.61 3.96,-3.61 0.51,0 1.02,0.2 1.54,0.58 0.52,0.38 0.75,0.86 0.7,1.44 2.02,-2.67 4.35,-4.46 7,-5.38 0.34,-0.22 0.74,-0.17 1.19,0.18 0,0 0.29,0.21 0.29,0.21 0.39,0.34 0.76,0.49 1.13,0.46 0.81,-0.08 1.54,-0.49 2.19,-1.24 0.46,-0.7 0.95,-1.41 1.45,-2.12 0.06,-0.08 0.15,-0.13 0.26,-0.13 0.06,0 0.13,0.02 0.22,0.05 0,0 0.13,0.05 0.13,0.05 0.08,0.13 0.1,0.32 0.05,0.58 z m -11.72,9.14 c -0.55,0 -1.01,0.16 -1.39,0.48 -0.45,0.42 -1.04,1.15 -1.77,2.2 -0.36,0.57 -0.97,1.46 -1.84,2.69 3.72,-0.58 5.81,-2 6.29,-4.27 -0.11,-0.73 -0.54,-1.1 -1.29,-1.1 z m -5,-1.13 c -0.88,0 -1.75,0.84 -2.61,2.53 -0.37,0.74 -0.89,2.04 -1.55,3.89 0.95,-0.13 2.1,-0.79 3.45,-1.97 1.37,-1.18 2.05,-2.18 2.05,-2.98 0,-0.36 -0.13,-0.7 -0.39,-1 -0.25,-0.31 -0.57,-0.47 -0.95,-0.47 z m 26.51,13.53 c -1.73,0.03 -3.29,0.08 -4.7,0.14 -0.42,0.03 -0.65,-0.01 -0.69,-0.09 -0.07,-0.29 0.02,-0.5 0.28,-0.63 0.43,-0.29 1.57,-0.75 3.44,-1.37 1.8,-0.61 3.02,-1.05 3.67,-1.31 0.81,-0.32 1.33,-0.6 1.56,-0.85 0.6,-0.89 0.6,-1.73 0,-2.51 0,0 -0.46,0 -0.46,0 -1.07,0 -1.83,-0.33 -2.29,-0.99 -0.32,-0.49 -0.38,-1.1 -0.17,-1.83 0,0 1.31,-2.93 1.31,-2.93 0.35,-1.18 0.96,-1.94 1.83,-2.3 0.35,-0.09 0.71,-0.07 1.08,0.08 0.57,0.22 1.02,0.83 1.35,1.83 0.17,0.46 0.31,1.08 0.42,1.84 0.02,0.11 0.05,0.16 0.09,0.16 0.41,-0.11 0.79,-0.32 1.13,-0.63 0,0 0.84,0.61 0.84,0.61 0,0 0,0.88 0,0.88 0,0 -1.98,1.9 -1.98,1.9 0,0 -0.41,0.38 -0.41,0.38 0,0 -0.16,0.54 -0.16,0.54 -0.61,2.16 -1.57,4.08 -2.87,5.77 -0.59,0.89 -1.67,1.32 -3.27,1.31 z m 7.05,-31.89 c -0.01,1.96 -0.15,3.31 -0.41,4.05 0.5,-0.36 1.02,-0.65 1.55,-0.89 0.96,-0.33 1.66,-0.13 2.11,0.59 0.08,0.16 0.12,0.38 0.12,0.69 0,0 0,0.47 0,0.47 0,0 -0.29,0.59 -0.29,0.59 -0.57,1.16 -1.35,1.99 -2.36,2.49 -0.22,0.11 -0.52,0.18 -0.89,0.21 -1.4,0.2 -2.78,0.38 -4.16,0.54 -0.26,-0.1 -0.33,-0.25 -0.2,-0.46 0.1,-0.17 0.36,-0.36 0.79,-0.58 0.48,-0.23 0.86,-0.63 1.13,-1.21 0.81,-0.98 1.16,-2.46 1.06,-4.43 0,-1.28 0.08,-2.11 0.25,-2.48 0.1,-0.25 0.32,-0.62 0.69,-1.11 0.29,-0.41 0.49,-0.62 0.61,-0.62 0.09,0 0.13,0.03 0.11,0.1 -0.08,0.34 -0.11,1.02 -0.11,2.05 z m 1.53,5.85 c 0.14,-0.37 0.09,-0.69 -0.17,-0.97 -0.84,-0.12 -1.52,0.17 -2.05,0.87 -0.48,0.6 -0.87,1.14 -1.17,1.61 0,0 1.91,-0.47 1.91,-0.47 0.75,-0.23 1.25,-0.58 1.48,-1.04 z m 6.56,6.43 c 0.17,-0.07 0.3,-0.06 0.39,0.03 0.07,0.09 0.08,0.34 0.02,0.75 -0.15,1.2 0.08,2.12 0.67,2.75 0.25,0.28 0.63,0.55 1.14,0.8 0.38,0.21 0.77,0.52 1.16,0.94 0,0 0.73,0.73 0.73,0.73 0,0 0,2.24 0,2.24 0,0 -1.53,1.54 -1.53,1.54 0,0 -0.61,-0.04 -0.61,-0.04 -0.74,-0.03 -1.29,-0.14 -1.64,-0.33 -0.79,-0.48 -1.45,-1.15 -1.98,-2.02 -0.92,1.07 -2.13,1.91 -3.63,2.52 -0.57,0.2 -1.07,0.29 -1.48,0.28 0,0 0,-1.16 0,-1.16 0,-0.78 0.01,-1.17 0.04,-1.17 2.15,-0.13 3.71,-0.89 4.68,-2.26 0,0 0.28,-0.44 0.28,-0.44 0,0 0.11,-0.66 0.11,-0.66 0.25,-1.37 0.58,-2.51 0.96,-3.42 0.27,-0.66 0.5,-1.01 0.69,-1.08 z m 16.89,1.83 c 0,0 0,0.81 0,0.81 0,0 -0.42,0.41 -0.42,0.41 -0.75,0.75 -1.7,1.01 -2.84,0.78 0,0 -0.39,0.39 -0.39,0.39 -0.88,0.94 -1.95,1.31 -3.21,1.09 -0.5,0.55 -1.11,0.93 -1.84,1.16 -0.68,0.11 -1.34,0.11 -1.98,0.02 -0.13,-0.09 -0.23,-0.06 -0.3,0.08 -0.03,0.04 -0.09,0.13 -0.16,0.26 -0.71,1.78 -1.84,2.95 -3.39,3.52 0,0 0,-5.27 0,-5.27 0.96,0.04 1.8,-0.21 2.52,-0.75 0.47,-0.33 0.97,-0.82 1.5,-1.45 0.1,-0.12 0.2,-0.16 0.29,-0.14 0.22,0.07 0.33,0.27 0.33,0.59 0,0.26 0.06,0.41 0.17,0.45 1.42,0.16 2.41,-0.2 2.99,-1.09 0.41,-0.64 0.83,-1.12 1.26,-1.42 0.16,0 0.2,0.17 0.11,0.51 -0.11,0.28 -0.18,0.5 -0.22,0.69 0.08,0.21 0.37,0.22 0.9,0.03 0.08,-0.03 0.17,-0.06 0.28,-0.11 0.65,-0.33 1.29,-1.08 1.9,-2.26 0.18,-0.35 0.29,-0.54 0.33,-0.58 0.13,-0.09 0.26,-0.08 0.41,0.05 -0.08,0.47 -0.17,0.95 -0.28,1.43 0.38,0.05 0.78,0 1.2,-0.12 0.03,0 0.17,0.16 0.42,0.47 0,0 0.42,0.45 0.42,0.45 z m 0.94,4.03 c 0,0 0.5,-0.55 0.5,-0.55 0.21,0.02 0.38,0.06 0.53,0.1 0.08,0.05 0.12,0.22 0.11,0.51 0,0 -2.05,3.38 -2.05,3.38 -0.43,0.89 -0.65,1.87 -0.68,2.94 0.15,0.25 0.32,0.4 0.5,0.42 0.18,-0.14 0.36,-0.34 0.53,-0.59 0.31,-0.43 0.57,-0.66 0.78,-0.68 0.32,-0.01 0.56,0.1 0.72,0.35 0.25,0.5 0.25,1.15 0,1.95 -0.31,0.88 -0.87,1.56 -1.67,2.06 -1.75,0.37 -2.69,-0.35 -2.82,-2.15 -0.04,-0.86 0.13,-1.8 0.5,-2.83 0.65,-1.78 1.66,-3.41 3.05,-4.91 z m 7.22,-9.39 c 0.46,0.09 0.66,0.49 0.61,1.2 -0.13,1.54 -0.64,2.56 -1.55,3.07 -0.81,0.52 -1.54,0.4 -2.19,-0.35 0,0 -0.29,-0.39 -0.29,-0.39 -0.24,-0.32 -0.42,-0.54 -0.53,-0.65 -0.11,-0.12 -0.22,-0.17 -0.33,-0.16 -0.54,0.11 -1.2,0.57 -1.96,1.41 0,0 -0.45,0.53 -0.45,0.53 -0.69,1.04 -1.43,1.71 -2.22,2.01 -0.03,0 -0.04,-0.38 -0.04,-1.15 0,0 0,-1.19 0,-1.19 0.28,0.14 0.66,-0.02 1.14,-0.49 0.22,-0.17 0.61,-0.57 1.14,-1.18 1.1,-1.25 1.99,-2.05 2.67,-2.41 0.93,-0.44 1.57,-0.27 1.94,0.52 0.35,0.72 0.74,0.74 1.17,0.06 0.27,-0.49 0.48,-0.76 0.64,-0.81 0.06,-0.01 0.14,-0.02 0.25,-0.02 z m 2.64,-6.76 c -0.27,-0.16 -0.41,-0.35 -0.41,-0.58 0,-0.32 0.23,-0.41 0.68,-0.27 3.28,1.12 6,3.28 8.18,6.49 2.19,3.21 3.28,6.69 3.28,10.45 0,3.44 -1.01,6.68 -3.03,9.72 -2.02,3.03 -4.62,5.16 -7.81,6.39 -0.75,0.29 -1.12,0.23 -1.12,-0.17 0,-0.19 0.18,-0.4 0.54,-0.63 2.66,-1.67 4.68,-4.06 6.08,-7.17 1.16,-2.6 1.75,-5.29 1.75,-8.06 0,-7.42 -2.71,-12.81 -8.14,-16.17 z m 69.78,-0.75 c -1.8,-0.45 -3.08,-1.39 -3.83,-2.82 1.79,-2.12 2.8,-3.25 3.02,-3.4 1.16,1.03 2.42,2 3.78,2.9 0,0 -2.97,3.32 -2.97,3.32 z m 7.27,11.2 c -5.19,3.05 -10.44,5.14 -15.75,6.26 -2.75,0.59 -4.75,0.94 -5.99,1.05 -0.02,0 -1.94,0.1 -5.76,0.3 -3.46,0.22 -6.59,-0.1 -9.38,-0.97 -1.43,-0.4 -2.62,-1.35 -3.56,-2.86 -0.18,3.5 -0.92,6.95 -2.23,10.36 -1.22,3.17 -2.83,5.8 -4.85,7.91 -2.5,2.55 -5.21,3.82 -8.14,3.82 -2.31,0 -4.1,-0.95 -5.36,-2.86 -1.06,-1.65 -1.59,-3.73 -1.59,-6.25 0,-1.87 0.29,-3.94 0.87,-6.21 0.6,-2.27 1.2,-3.94 1.81,-5 0.14,-0.23 0.33,-0.27 0.58,-0.13 0.15,0.09 0.21,0.28 0.18,0.58 0,0.03 -0.02,0.12 -0.05,0.26 -0.95,2.93 -1.42,5.35 -1.42,7.25 0,1.02 0.11,1.97 0.32,2.86 0.46,1.91 1.57,3.1 3.33,3.57 0.87,0.2 1.73,0.31 2.6,0.31 2.93,0 5.48,-1.05 7.65,-3.16 3.18,-3.14 4.65,-7.13 4.41,-11.97 -0.12,-2.7 -0.23,-6.17 -0.34,-10.4 -0.09,-3.98 -0.13,-6.1 -0.13,-6.38 0.23,-1.2 0.91,-2.89 2.06,-5.04 0.02,-0.12 0.14,-0.18 0.35,-0.18 0.2,0 0.34,0.06 0.4,0.18 -0.5,3.1 -0.63,7.59 -0.4,13.46 0.32,2.44 1.62,4.04 3.9,4.8 2.29,0.75 5.29,1.14 8.99,1.17 7.74,0.07 13.89,-0.62 18.45,-2.06 2.75,-0.88 4.47,-1.44 5.17,-1.67 1.94,-0.68 3.6,-1.4 4.97,-2.16 1.38,-0.77 1.98,-1.59 1.78,-2.47 -0.13,-0.5 -0.46,-0.66 -0.98,-0.48 -0.56,0.16 -0.88,0.22 -0.97,0.19 -1.02,-0.13 -1.71,-0.54 -2.06,-1.25 -0.27,-0.7 -0.18,-1.64 0.25,-2.82 0.56,-1.52 0.86,-2.45 0.89,-2.81 0.17,-0.34 0.31,-0.58 0.4,-0.7 0.17,-0.26 0.38,-0.43 0.63,-0.52 0.54,-0.36 1.18,-0.3 1.92,0.17 0.91,0.74 1.48,1.79 1.72,3.16 0.14,0.74 0.22,1.98 0.22,3.72 -0.34,2.92 -1.97,5.24 -4.89,6.97 z m 27.73,-5.36 c -0.82,0.44 -2.03,1.15 -3.61,2.12 -1.07,0.77 -2.06,1.72 -2.95,2.86 0.27,0.17 0.68,0.42 1.23,0.75 1.45,0.82 2.16,1.7 2.13,2.66 -0.03,1.03 -1,2.29 -2.91,3.77 -0.53,0.28 -1.31,0.51 -2.34,0.68 -1.2,0.22 -1.99,0.39 -2.38,0.5 -1.4,0.35 -2.71,1.03 -3.92,2.05 -1.2,1.01 -2.03,2.19 -2.5,3.53 -0.32,1.73 -0.45,4.55 -0.39,8.45 0.05,3.52 0.07,6.47 0.05,8.85 0,1.06 -0.26,2.45 -0.77,4.17 0,0.09 -0.06,0.19 -0.17,0.28 0,0 -0.03,0.03 -0.03,0.03 -0.18,0.03 -0.36,-0.02 -0.55,-0.17 -0.02,-1.09 -0.01,-2.75 0.05,-4.98 0,0 -0.34,-8.14 -0.34,-8.14 -0.06,-1.02 -0.08,-1.92 -0.08,-2.72 0,-5.49 1.34,-9.55 4.03,-12.19 1.29,-1.29 2.95,-2.49 4.98,-3.61 0.91,-1.56 1.83,-3.11 2.77,-4.66 1.12,-1.85 2.24,-3.29 3.34,-4.32 1.32,-1.23 2.79,-2.18 4.39,-2.86 0.48,-0.2 0.91,-0.26 1.3,-0.18 0,0 0.17,0.22 0.17,0.22 -0.35,0.65 -0.85,1.62 -1.5,2.91 z m -2.81,25.17 c -1.06,-0.5 -2.26,-1.33 -3.58,-2.51 0,0 -2.19,2.56 -2.19,2.56 -1.82,-0.45 -3.11,-1.4 -3.86,-2.86 1.78,-2.18 2.76,-3.35 2.94,-3.52 1.03,0.87 2.19,1.75 3.49,2.64 0,0 2.64,-2.78 2.64,-2.78 1.68,1.41 2.96,2.42 3.82,3.03 -1.51,1.57 -2.6,2.71 -3.26,3.44 z m 11.59,-23.28 c -0.1,0.53 -0.21,1.31 -0.33,2.34 -0.11,1.32 -0.18,3.14 -0.21,5.46 0,2.66 -0.03,4.52 -0.08,5.58 -0.12,2.27 -0.74,4.63 -1.86,7.09 -0.21,0.46 -0.4,0.69 -0.58,0.69 -0.09,0 -0.17,-0.03 -0.25,-0.08 -0.2,-0.12 -0.27,-0.38 -0.22,-0.8 0.23,-0.79 0.42,-2.77 0.56,-5.94 -0.2,-2.55 -0.27,-5.4 -0.21,-8.56 0.46,-1.59 1.28,-3.57 2.46,-5.92 0.29,-0.16 0.54,-0.12 0.72,0.14 z m 11.52,10 c 0,0 0,0.48 0,0.48 0,0 -0.74,0.36 -0.74,0.36 -0.65,0.35 -1.35,0.85 -2.07,1.5 -0.83,0.75 -1.36,1.46 -1.6,2.13 -0.15,0.41 -0.08,0.67 0.19,0.8 1.07,-0.04 1.8,0.3 2.17,1.03 0.38,0.75 0.32,1.49 -0.15,2.22 -0.56,0.85 -1.41,1.13 -2.55,0.84 -1.26,-0.33 -1.89,-1.38 -1.89,-3.14 0,-1.51 0.63,-2.95 1.9,-4.33 0.95,-0.98 2.13,-1.71 3.55,-2.19 0.22,-0.07 0.43,-0.09 0.63,-0.08 0.33,0.03 0.52,0.15 0.56,0.38 z m 11.8,18.95 c -0.56,0.15 -1.11,0.22 -1.66,0.22 -2.31,0 -4.04,-0.95 -5.19,-2.86 -1.09,-1.81 -1.64,-4.02 -1.64,-6.64 0,-2.32 0.47,-5.08 1.42,-8.26 0.73,-2.52 1.4,-4.52 2.02,-6 0.26,-0.2 0.46,-0.21 0.61,-0.05 0.04,0.06 0.06,0.29 0.06,0.67 -1.4,4.85 -2.09,8.2 -2.09,10.08 0,2.05 0.44,3.83 1.34,5.33 1.07,1.52 2.59,2.28 4.56,2.28 1.82,0 3.61,-0.56 5.36,-1.69 1.76,-1.12 3.1,-2.52 4.02,-4.2 0.44,-0.83 0.67,-1.52 0.67,-2.06 0,-0.42 -0.11,-0.79 -0.33,-1.13 -0.29,-0.23 -1.07,-0.53 -2.33,-0.92 -0.97,-0.31 -1.6,-0.79 -1.89,-1.44 -0.29,-0.64 -0.43,-1.41 -0.43,-2.3 0,-1.08 0.21,-2.36 0.65,-3.86 0.31,-0.93 0.63,-1.87 0.97,-2.82 0.38,-1.15 0.58,-2.13 0.58,-2.94 0,-0.85 -0.18,-1.63 -0.53,-2.34 -0.3,-0.54 -0.93,-1.35 -1.89,-2.46 -0.04,-0.29 0.05,-0.67 0.25,-1.15 0.15,-0.38 0.32,-0.74 0.5,-1.1 0.22,-0.56 0.61,-1.41 1.14,-2.56 0.35,0.22 0.7,0.56 1.04,1.02 1.26,1.73 1.89,3.57 1.89,5.54 0,0.78 -0.1,1.54 -0.29,2.3 -0.15,0.93 -0.47,2.01 -0.97,3.25 -0.45,1.05 -0.89,2.11 -1.33,3.17 -0.31,0.65 -0.16,1.24 0.45,1.77 0.12,0.11 0.79,0.4 2.02,0.87 0.79,0.31 1.32,0.81 1.59,1.5 0.28,0.68 0.43,1.53 0.43,2.55 0,0.94 -0.14,2.04 -0.4,3.3 -0.63,3 -1.82,5.66 -3.56,7.98 -1.96,2.63 -4.31,4.29 -7.04,4.95 z m 9.15,7.39 c -1.04,-0.5 -2.23,-1.34 -3.56,-2.51 0,0 -2.2,2.56 -2.2,2.56 -1.82,-0.45 -3.11,-1.4 -3.86,-2.86 1.79,-2.18 2.77,-3.35 2.93,-3.51 1.04,0.88 2.2,1.76 3.49,2.64 0,0 2.64,-2.78 2.64,-2.78 1.69,1.4 2.96,2.41 3.83,3.03 -1.5,1.56 -2.59,2.7 -3.27,3.43 z m -2.5,6.39 c -1.81,-0.44 -3.09,-1.38 -3.84,-2.81 1.79,-2.12 2.79,-3.26 3.01,-3.4 1.18,1.03 2.44,2 3.78,2.9 0,0 -2.95,3.31 -2.95,3.31 z m 32.7,-43.29 c 0,0 -0.07,0 -0.07,0 0.38,0.43 0.8,0.58 1.26,0.47 0.45,-0.12 0.88,-0.44 1.28,-0.97 0.57,-0.73 0.92,-1.15 1.07,-1.27 0.31,0.03 0.46,0.17 0.46,0.39 -0.28,1.5 -1.14,2.82 -2.57,3.94 -0.45,0.31 -0.97,0.47 -1.55,0.47 -0.39,0 -0.71,-0.09 -0.97,-0.27 -0.03,-0.02 -0.21,-0.14 -0.53,-0.36 -1.38,1.6 -2.5,2.27 -3.38,2 -0.06,0 -0.35,-0.14 -0.87,-0.45 -0.4,-0.18 -0.76,-0.18 -1.08,0 -1.19,0.47 -1.89,1.34 -2.11,2.59 -0.05,0.23 0.07,0.7 0.36,1.41 0.35,0.31 0.91,0.56 1.69,0.77 0.78,0.2 1.3,0.41 1.56,0.64 0.76,0.87 1.14,2.11 1.14,3.7 0,0.23 -0.09,1.36 -0.26,3.39 -0.62,2.9 -1.7,5.49 -3.24,7.78 -1.79,2.6 -3.93,4.38 -6.42,5.33 -0.75,0.18 -1.49,0.27 -2.22,0.27 -1.79,0 -3.18,-0.5 -4.17,-1.49 -1.89,-1.85 -2.83,-4.58 -2.83,-8.19 0,-3.23 0.93,-7.89 2.8,-13.95 0.25,-0.19 0.43,-0.23 0.54,-0.14 0.21,0.12 0.27,0.39 0.18,0.8 -1.11,4.81 -1.66,7.98 -1.66,9.51 0,2.43 0.58,4.45 1.75,6.05 0.88,1.27 2.27,1.91 4.14,1.91 2.05,0 4.02,-0.72 5.89,-2.16 1.88,-1.44 3.17,-3.14 3.89,-5.11 0.26,-1.07 0.19,-1.79 -0.2,-2.16 -0.31,-0.22 -1,-0.49 -2.06,-0.79 -0.9,-0.23 -1.51,-0.57 -1.85,-1 -0.58,-0.68 -0.87,-1.63 -0.87,-2.86 0,-0.53 0.05,-1.18 0.17,-1.94 0.27,-1.91 0.75,-3.36 1.45,-4.36 1.32,-1.84 2.59,-2.77 3.78,-2.77 0.23,0 0.48,0.05 0.75,0.13 0.04,0 0.3,0.14 0.8,0.41 0.29,0.14 0.6,0.18 0.92,0.12 0.38,-0.27 0.79,-0.71 1.24,-1.33 0.53,-0.75 0.91,-1.24 1.14,-1.43 0,0 0.08,0 0.08,0 0.18,-0.04 0.31,-0.04 0.37,0 0.23,0.11 0.27,0.36 0.13,0.75 0.03,-0.04 0.04,-0.05 0.04,-0.05 0.02,0.03 0.05,0.06 0.08,0.09 -0.05,0.06 -0.07,0.1 -0.05,0.13 z m 28.8,-5.16 c 0,0 0.17,0.36 0.17,0.36 -0.27,0.99 -0.71,2.47 -1.32,4.44 -0.12,0.21 -0.33,0.33 -0.61,0.36 -0.47,0.03 -0.74,0.06 -0.8,0.08 -2.66,1.35 -4.33,3.29 -5.02,5.81 -0.21,0.7 -0.01,1.29 0.58,1.79 0.23,0.15 0.88,0.39 1.97,0.72 0.83,0.23 1.41,0.62 1.72,1.18 0.41,0.73 0.62,1.68 0.62,2.86 0,0.38 -0.02,0.88 -0.07,1.5 -0.07,0.76 -0.1,1.24 -0.1,1.46 -0.5,2.78 -1.42,5.29 -2.76,7.52 -1.53,2.52 -3.45,4.39 -5.74,5.62 -1.02,0.54 -2.16,0.8 -3.42,0.8 -1.5,0 -2.73,-0.38 -3.69,-1.14 -2.21,-1.76 -3.33,-4.61 -3.36,-8.55 -0.03,-3.19 0.91,-7.78 2.82,-13.76 0.25,-0.1 0.39,-0.14 0.39,-0.14 0.15,0.11 0.23,0.43 0.23,0.97 -1.03,4.16 -1.55,7.16 -1.55,8.98 0,3.78 0.93,6.26 2.77,7.44 0.91,0.58 1.93,0.87 3.08,0.87 1.97,0 4.09,-0.8 6.34,-2.42 2.11,-1.94 3.29,-3.84 3.52,-5.72 0.11,-0.9 -0.11,-1.52 -0.66,-1.84 -0.76,-0.2 -1.52,-0.42 -2.28,-0.67 -0.87,-0.32 -1.43,-0.82 -1.69,-1.52 -0.25,-0.71 -0.37,-1.49 -0.37,-2.34 0,-0.82 0.15,-1.91 0.47,-3.25 1.17,-4.94 3.45,-8.6 6.82,-11 0.82,-0.39 1.29,-0.58 1.41,-0.58 0.16,0 0.34,0.06 0.53,0.17 z m 6.77,1.28 c 0,0 0.78,-1.11 0.78,-1.11 0,0 0.31,0 0.31,0 -0.03,-0.08 -0.09,0.23 -0.17,0.93 0,0.91 -0.02,1.82 -0.05,2.73 -0.03,1.12 -0.18,2 -0.45,2.64 0.27,-0.2 0.7,-0.48 1.3,-0.84 0.72,-0.38 1.39,-0.36 2.01,0.04 0.53,0.36 0.71,0.92 0.53,1.67 -0.65,1.65 -1.66,2.74 -3.04,3.27 -0.65,0.06 -2.14,0.27 -4.49,0.61 -0.18,0.05 -0.34,-0.04 -0.48,-0.27 0.06,-0.31 0.33,-0.56 0.79,-0.75 0.48,-0.19 0.78,-0.44 0.89,-0.75 0.56,-0.84 0.85,-1.29 0.88,-1.35 0.28,-0.56 0.44,-1.07 0.47,-1.55 0.08,-0.37 0.12,-0.81 0.12,-1.35 0,-0.21 0,-0.51 0,-0.89 -0.02,-0.38 -0.03,-0.66 -0.03,-0.82 0,-0.92 0.21,-1.65 0.63,-2.21 z m 2.5,6.24 c 0,0 -0.27,-0.25 -0.27,-0.25 -0.68,-0.15 -1.32,0.1 -1.94,0.75 -0.23,0.23 -0.68,0.82 -1.36,1.79 0.62,-0.13 1.25,-0.3 1.91,-0.5 0.66,-0.19 1.16,-0.5 1.48,-0.9 0.23,-0.41 0.29,-0.71 0.18,-0.89 z m -2.55,6.12 c 0,0 0,-0.12 0,-0.12 0.2,0 0.45,0.11 0.75,0.32 0.31,0.22 0.55,0.35 0.7,0.38 1.59,1.07 2.38,2.64 2.38,4.7 0,1.21 -0.37,2.56 -1.11,4.05 -0.62,1.26 -1.25,2.52 -1.89,3.78 -0.59,0.86 -1.62,1.42 -3.1,1.67 -2.33,0.39 -3.54,0.6 -3.64,0.63 -0.52,0 -0.78,0 -0.78,0 -0.05,-0.08 -0.08,-0.16 -0.08,-0.22 0,-0.07 0.03,-0.15 0.08,-0.23 1.52,-0.82 3.79,-2.04 6.82,-3.66 0.81,-0.43 1.25,-0.98 1.32,-1.66 0.1,-0.85 -0.11,-1.66 -0.62,-2.44 -0.5,-0.78 -1.16,-1.36 -1.97,-1.74 0,0 -0.63,-0.66 -0.63,-0.66 0.45,-1.55 1.04,-3.15 1.77,-4.8 z m 14.33,2.08 c 0,0 0,0.48 0,0.48 0,0 -0.74,0.36 -0.74,0.36 -0.65,0.35 -1.35,0.85 -2.07,1.5 -0.83,0.75 -1.36,1.46 -1.6,2.13 -0.15,0.41 -0.08,0.67 0.19,0.8 1.07,-0.04 1.8,0.3 2.17,1.03 0.38,0.75 0.32,1.49 -0.15,2.22 -0.56,0.85 -1.41,1.13 -2.55,0.84 -1.26,-0.33 -1.89,-1.38 -1.89,-3.14 0,-1.51 0.63,-2.95 1.9,-4.33 0.95,-0.98 2.13,-1.71 3.55,-2.19 0.22,-0.07 0.43,-0.09 0.63,-0.08 0.33,0.03 0.52,0.15 0.56,0.38 z m 67.92,3.59 c -1.06,-0.5 -2.26,-1.33 -3.58,-2.51 0,0 -2.2,2.56 -2.2,2.56 -1.83,-0.43 -3.12,-1.38 -3.88,-2.86 1.79,-2.16 2.78,-3.34 2.96,-3.53 1.03,0.9 2.18,1.78 3.47,2.66 0,0 2.65,-2.79 2.65,-2.79 1.7,1.41 2.97,2.42 3.81,3.04 -1.49,1.56 -2.57,2.71 -3.23,3.43 z m -1.69,-14.95 c -1.2,0.91 -2.84,1.98 -4.93,3.2 -3.84,2.23 -7.99,3.86 -12.44,4.89 -1.06,0.27 -2.59,0.62 -4.58,1.07 -1.06,0.16 -2.94,0.28 -5.63,0.34 -5.19,0.09 -9.85,-0.34 -13.96,-1.26 0.03,0.61 0.04,1.23 0.04,1.84 0,4.78 -1.39,9.43 -4.17,13.94 -1.26,2.02 -2.77,3.61 -4.53,4.79 -1.96,1.29 -4.02,1.88 -6.17,1.77 -1.15,-0.06 -2.22,-0.45 -3.22,-1.14 -0.99,-0.7 -1.74,-1.61 -2.24,-2.74 -0.69,-1.43 -1.04,-3.17 -1.04,-5.23 0,-1.99 0.35,-4.44 1.04,-7.36 0.25,-0.81 0.7,-2.02 1.33,-3.61 0.03,-0.16 0.21,-0.23 0.52,-0.2 0.06,0.13 0.09,0.29 0.09,0.45 0,0.09 -0.01,0.27 -0.04,0.55 -0.82,2.97 -1.22,5.29 -1.22,6.97 0,1.96 0.44,3.55 1.34,4.78 0.98,1.35 2.52,2.03 4.64,2.03 2.2,0 4.24,-0.6 6.11,-1.8 1.87,-1.21 3.37,-2.83 4.48,-4.86 1.13,-2.04 1.7,-4.29 1.72,-6.75 0.03,-1.76 -0.12,-3.45 -0.45,-5.08 0.05,-0.69 0.2,-1.73 0.45,-3.11 0.1,-0.06 0.23,-0.1 0.39,-0.12 0.36,0.17 1.36,0.39 3.02,0.66 1.66,0.26 3.14,0.44 4.47,0.54 1.32,0.1 3.29,0.23 5.9,0.41 0.9,0.02 1.74,0.03 2.52,0.03 4.83,-0.02 9.29,-0.62 13.37,-1.81 4.1,-1.2 7.63,-2.63 10.6,-4.28 0.47,-0.27 1.8,-1.11 4,-2.52 0.91,-1.06 1.34,-2.22 1.28,-3.48 0,-0.23 -0.05,-0.8 -0.14,-1.72 -0.06,-0.7 -0.08,-1.27 -0.05,-1.72 -0.03,-0.28 -0.04,-0.56 -0.04,-0.83 0,-0.84 0.19,-1.8 0.57,-2.86 0.37,-0.94 0.72,-1.86 1.07,-2.78 0.02,-0.08 0.12,-0.12 0.31,-0.12 0.17,-0.04 0.28,0.02 0.31,0.17 -0.18,2.01 -0.17,5.11 0.03,9.31 -0.38,1.81 -0.79,3.13 -1.22,3.95 -0.65,1.15 -1.83,2.38 -3.53,3.69 z m 11.25,1.36 c -0.1,0.53 -0.21,1.31 -0.33,2.34 -0.11,1.32 -0.18,3.14 -0.21,5.46 0,2.66 -0.03,4.52 -0.08,5.58 -0.12,2.27 -0.74,4.63 -1.86,7.09 -0.21,0.46 -0.4,0.69 -0.58,0.69 -0.09,0 -0.17,-0.03 -0.25,-0.08 -0.2,-0.12 -0.27,-0.38 -0.22,-0.8 0.23,-0.79 0.42,-2.77 0.56,-5.94 -0.2,-2.55 -0.27,-5.4 -0.21,-8.56 0.46,-1.59 1.28,-3.57 2.46,-5.92 0.29,-0.16 0.54,-0.12 0.72,0.14 z m 13.32,28.95 c -0.56,0.15 -1.11,0.22 -1.66,0.22 -2.31,0 -4.04,-0.95 -5.19,-2.86 -1.09,-1.81 -1.64,-4.02 -1.64,-6.64 0,-2.32 0.47,-5.08 1.42,-8.26 0.73,-2.52 1.4,-4.52 2.02,-6 0.26,-0.2 0.46,-0.21 0.61,-0.05 0.04,0.06 0.06,0.29 0.06,0.67 -1.4,4.85 -2.09,8.2 -2.09,10.08 0,2.05 0.44,3.83 1.34,5.33 1.07,1.52 2.59,2.28 4.56,2.28 1.82,0 3.61,-0.56 5.36,-1.69 1.76,-1.12 3.1,-2.52 4.02,-4.2 0.44,-0.83 0.67,-1.52 0.67,-2.06 0,-0.42 -0.11,-0.79 -0.33,-1.13 -0.29,-0.23 -1.07,-0.53 -2.33,-0.92 -0.97,-0.31 -1.6,-0.79 -1.89,-1.44 -0.29,-0.64 -0.43,-1.41 -0.43,-2.3 0,-1.08 0.21,-2.36 0.65,-3.86 0.31,-0.93 0.63,-1.87 0.97,-2.82 0.38,-1.15 0.58,-2.13 0.58,-2.94 0,-0.85 -0.18,-1.63 -0.53,-2.34 -0.3,-0.54 -0.93,-1.35 -1.89,-2.46 -0.04,-0.29 0.05,-0.67 0.25,-1.15 0.15,-0.38 0.32,-0.74 0.5,-1.1 0.22,-0.56 0.61,-1.41 1.14,-2.56 0.35,0.22 0.7,0.56 1.04,1.02 1.26,1.73 1.89,3.57 1.89,5.54 0,0.78 -0.1,1.54 -0.29,2.3 -0.15,0.93 -0.47,2.01 -0.97,3.25 -0.45,1.05 -0.89,2.11 -1.33,3.17 -0.31,0.65 -0.16,1.24 0.45,1.77 0.12,0.11 0.79,0.4 2.02,0.87 0.79,0.31 1.32,0.81 1.59,1.5 0.28,0.68 0.43,1.53 0.43,2.55 0,0.94 -0.14,2.04 -0.4,3.3 -0.63,3 -1.82,5.66 -3.56,7.98 -1.96,2.63 -4.31,4.29 -7.04,4.95 z m 6.17,7.66 c -1.83,-0.41 -3.16,-1.32 -4,-2.73 1.79,-2.08 2.78,-3.19 2.98,-3.33 1.18,1.02 2.44,1.99 3.78,2.9 0,0 -2.76,3.16 -2.76,3.16 z m 16.83,-7.66 c -0.56,0.15 -1.11,0.22 -1.66,0.22 -2.31,0 -4.04,-0.95 -5.19,-2.86 -1.09,-1.81 -1.64,-4.02 -1.64,-6.64 0,-2.32 0.47,-5.08 1.42,-8.26 0.73,-2.52 1.4,-4.52 2.02,-6 0.26,-0.2 0.46,-0.21 0.61,-0.05 0.04,0.06 0.06,0.29 0.06,0.67 -1.4,4.85 -2.09,8.2 -2.09,10.08 0,2.05 0.44,3.83 1.34,5.33 1.07,1.52 2.59,2.28 4.56,2.28 1.82,0 3.61,-0.56 5.36,-1.69 1.76,-1.12 3.1,-2.52 4.02,-4.2 0.44,-0.83 0.67,-1.52 0.67,-2.06 0,-0.42 -0.11,-0.79 -0.33,-1.13 -0.29,-0.23 -1.07,-0.53 -2.33,-0.92 -0.97,-0.31 -1.6,-0.79 -1.89,-1.44 -0.29,-0.64 -0.43,-1.41 -0.43,-2.3 0,-1.08 0.21,-2.36 0.65,-3.86 0.31,-0.93 0.63,-1.87 0.97,-2.82 0.38,-1.15 0.58,-2.13 0.58,-2.94 0,-0.85 -0.18,-1.63 -0.53,-2.34 -0.3,-0.54 -0.93,-1.35 -1.89,-2.46 -0.04,-0.29 0.05,-0.67 0.25,-1.15 0.15,-0.38 0.32,-0.74 0.5,-1.1 0.22,-0.56 0.61,-1.41 1.14,-2.56 0.35,0.22 0.7,0.56 1.04,1.02 1.26,1.73 1.89,3.57 1.89,5.54 0,0.78 -0.1,1.54 -0.29,2.3 -0.15,0.93 -0.47,2.01 -0.97,3.25 -0.45,1.05 -0.89,2.11 -1.33,3.17 -0.31,0.65 -0.16,1.24 0.45,1.77 0.12,0.11 0.79,0.4 2.02,0.87 0.79,0.31 1.32,0.81 1.59,1.5 0.28,0.68 0.43,1.53 0.43,2.55 0,0.94 -0.14,2.04 -0.4,3.3 -0.63,3 -1.82,5.66 -3.56,7.98 -1.96,2.63 -4.31,4.29 -7.04,4.95 z m 6.17,7.66 c -1.83,-0.41 -3.16,-1.32 -4,-2.73 1.79,-2.08 2.78,-3.19 2.98,-3.33 1.18,1.02 2.44,1.99 3.78,2.9 0,0 -2.76,3.16 -2.76,3.16 z m 27.73,-38.5 c -0.82,0.44 -2.03,1.15 -3.61,2.12 -1.07,0.77 -2.06,1.72 -2.95,2.86 0.27,0.17 0.68,0.42 1.23,0.75 1.45,0.82 2.16,1.7 2.13,2.66 -0.03,1.03 -1,2.29 -2.91,3.77 -0.53,0.28 -1.31,0.51 -2.34,0.68 -1.2,0.22 -1.99,0.39 -2.38,0.5 -1.4,0.35 -2.71,1.03 -3.92,2.05 -1.2,1.01 -2.03,2.19 -2.5,3.53 -0.32,1.73 -0.45,4.55 -0.39,8.45 0.05,3.52 0.07,6.47 0.05,8.85 0,1.06 -0.26,2.45 -0.77,4.17 0,0.09 -0.06,0.19 -0.17,0.28 0,0 -0.03,0.03 -0.03,0.03 -0.18,0.03 -0.36,-0.02 -0.55,-0.17 -0.02,-1.09 -0.01,-2.75 0.05,-4.98 0,0 -0.34,-8.14 -0.34,-8.14 -0.06,-1.02 -0.08,-1.92 -0.08,-2.72 0,-5.49 1.34,-9.55 4.03,-12.19 1.29,-1.29 2.95,-2.49 4.98,-3.61 0.91,-1.56 1.83,-3.11 2.77,-4.66 1.12,-1.85 2.24,-3.29 3.34,-4.32 1.32,-1.23 2.79,-2.18 4.39,-2.86 0.48,-0.2 0.91,-0.26 1.3,-0.18 0,0 0.17,0.22 0.17,0.22 -0.35,0.65 -0.85,1.62 -1.5,2.91 z m -2.81,25.17 c -1.06,-0.5 -2.26,-1.33 -3.58,-2.51 0,0 -2.19,2.56 -2.19,2.56 -1.82,-0.45 -3.11,-1.4 -3.86,-2.86 1.78,-2.18 2.76,-3.35 2.94,-3.52 1.03,0.87 2.19,1.75 3.49,2.64 0,0 2.64,-2.78 2.64,-2.78 1.68,1.41 2.96,2.42 3.82,3.03 -1.51,1.57 -2.6,2.71 -3.26,3.44 z m 11.59,-23.28 c -0.1,0.53 -0.21,1.31 -0.33,2.34 -0.11,1.32 -0.18,3.14 -0.21,5.46 0,2.66 -0.03,4.52 -0.08,5.58 -0.12,2.27 -0.74,4.63 -1.86,7.09 -0.21,0.46 -0.4,0.69 -0.58,0.69 -0.09,0 -0.17,-0.03 -0.25,-0.08 -0.2,-0.12 -0.27,-0.38 -0.22,-0.8 0.23,-0.79 0.42,-2.77 0.56,-5.94 -0.2,-2.55 -0.27,-5.4 -0.21,-8.56 0.46,-1.59 1.28,-3.57 2.46,-5.92 0.29,-0.16 0.54,-0.12 0.72,0.14 z m -388.18,73.91 c 0,0 0,-0.3 0,-0.3 1,-1.41 2.45,-3.33 4.35,-5.77 0,0 0.21,0 0.21,0 1.54,1.64 3.47,3.12 5.78,4.44 0.06,0.04 0.09,0.14 0.09,0.28 0,0 -4.23,5.67 -4.23,5.67 -0.09,0.09 -0.37,0.06 -0.85,-0.09 -1.43,-0.68 -3.21,-2.09 -5.35,-4.23 z m 18.68,-3.66 c 0,0 -0.09,0.14 -0.09,0.14 -0.09,1.53 -0.15,3.07 -0.2,4.61 -0.14,1.82 -0.35,3.32 -0.63,4.5 -0.42,0.77 -1.05,1.92 -1.89,3.44 -0.23,0.08 -0.34,0.12 -0.34,0.12 -0.08,-0.11 -0.1,-0.44 -0.07,-0.97 0.21,-3.92 0.14,-7.36 -0.22,-10.29 -0.14,-1.09 -0.35,-2.71 -0.6,-4.88 0.22,-0.77 0.97,-2.33 2.23,-4.7 0.06,-0.07 0.26,-0.11 0.59,-0.11 0.32,0.95 0.93,1.8 1.85,2.55 0.92,0.74 1.86,1.11 2.81,1.11 0.88,0 1.81,-0.51 2.81,-1.54 0.53,-0.69 0.91,-1.28 1.14,-1.75 0.34,-0.14 0.53,-0.19 0.58,-0.14 0.2,0.21 0.28,0.57 0.25,1.07 -0.02,0.5 0.16,0.89 0.55,1.17 0.51,0.42 1.31,0.56 2.4,0.42 0.92,-0.33 2.05,-1.34 3.39,-3.02 0.23,0 0.38,0.08 0.44,0.24 0,0.46 -0.15,0.95 -0.47,1.47 -0.3,0.51 -0.6,0.99 -0.89,1.43 -0.73,1.43 -1.84,2.65 -3.34,3.66 -0.48,0.2 -0.98,0.3 -1.48,0.3 -0.72,0 -1.33,-0.18 -1.82,-0.55 -0.09,-0.05 -0.34,-0.32 -0.75,-0.81 0,0 -0.12,0 -0.12,0 -1.45,1.99 -2.9,2.98 -4.36,2.98 -0.65,0 -1.24,-0.15 -1.77,-0.45 z m 19.32,3.66 c 0,0 0,-0.3 0,-0.3 1,-1.41 2.45,-3.33 4.35,-5.77 0,0 0.21,0 0.21,0 1.54,1.64 3.47,3.12 5.78,4.44 0.06,0.04 0.09,0.14 0.09,0.28 0,0 -4.23,5.67 -4.23,5.67 -0.09,0.09 -0.37,0.06 -0.85,-0.09 -1.43,-0.68 -3.21,-2.09 -5.35,-4.23 z m 18,0 c 0,0 0,-0.3 0,-0.3 1,-1.41 2.45,-3.33 4.35,-5.77 0,0 0.21,0 0.21,0 1.54,1.64 3.47,3.12 5.78,4.44 0.06,0.04 0.09,0.14 0.09,0.28 0,0 -4.23,5.67 -4.23,5.67 -0.09,0.09 -0.37,0.06 -0.85,-0.09 -1.43,-0.68 -3.21,-2.09 -5.35,-4.23 z m 16.35,-1.32 c 0,0 14.32,0 14.32,0 0,0 -1.19,2.74 -1.19,2.74 0,0 -14.44,0 -14.44,0 0,0 1.31,-2.74 1.31,-2.74 z m 21.22,2.03 c 0,0 4.58,-5.06 4.58,-5.06 1.32,-1.38 3.26,-3.52 5.8,-6.42 0.09,0 0.17,0.03 0.25,0.09 0,0 -0.72,3.11 -0.72,3.11 -0.36,0.45 -1.81,2.11 -4.36,4.97 0,0 -4.58,5.16 -4.58,5.16 -0.67,0.73 -1.17,1.34 -1.5,1.84 0,0 0.08,0.05 0.08,0.05 4.88,0 9.44,-0.21 13.69,-0.63 0,0 1.37,-0.12 1.37,-0.12 0.15,0.09 0.18,0.37 0.1,0.87 -0.48,1.35 -0.89,2.55 -1.24,3.61 -0.18,0.31 -0.37,0.43 -0.58,0.36 -4.89,0.53 -9.85,0.77 -14.86,0.74 -0.8,0 -1.57,-0.26 -2.29,-0.77 -0.03,-0.13 -0.05,-0.27 -0.05,-0.4 0,-0.79 0.48,-1.97 1.45,-3.54 0.86,-1.4 1.81,-2.69 2.86,-3.86 z m 29.49,-7.78 c 0,0 0.08,0 0.08,0 1.56,-2.59 3.35,-4.46 5.37,-5.61 0.26,0 0.45,0.06 0.58,0.16 -0.39,1.07 -0.9,2.23 -1.55,3.45 -2.99,2.12 -5.31,5.01 -6.95,8.68 -0.23,0.18 -0.43,0.21 -0.61,0.09 -0.12,-0.15 -0.16,-0.35 -0.13,-0.63 0.09,-0.39 0.13,-0.59 0.13,-0.59 0.26,-0.94 0.39,-1.72 0.39,-2.31 0,-0.96 -0.34,-1.71 -1.03,-2.25 -0.69,-0.54 -1.45,-0.81 -2.3,-0.81 -0.37,0 -0.71,0.05 -1.03,0.17 -0.91,0.28 -1.42,0.81 -1.53,1.59 -0.03,0.56 -0.02,1.37 0.05,2.44 0.08,1.29 0.12,2.17 0.12,2.64 0,0 0,5.25 0,5.25 -0.03,0.15 -0.41,1.51 -1.14,4.08 -0.05,0.03 -0.12,0.1 -0.19,0.22 -0.06,0.1 -0.13,0.12 -0.22,0.06 -0.11,-0.42 -0.24,-1.71 -0.39,-3.89 -0.02,-0.43 -0.14,-1.52 -0.36,-3.28 -0.14,-1.38 -0.21,-2.5 -0.21,-3.36 0,-1.96 0.36,-3.67 1.09,-5.13 0.91,-1.79 1.42,-2.76 1.51,-2.92 0.67,-1.05 1.49,-1.74 2.47,-2.06 0.55,-0.26 1.14,-0.39 1.77,-0.39 0.98,0 1.79,0.29 2.44,0.87 1.03,0.94 1.58,2.12 1.64,3.53 z m 15.81,1.61 c 0,0 -3.77,8.94 -3.77,8.94 -0.63,1.53 -1.49,3.47 -2.57,5.8 -0.16,0.1 -0.3,0.03 -0.41,-0.22 0,-0.13 -0.04,-0.51 -0.12,-1.13 -0.06,-0.47 -0.08,-0.87 -0.08,-1.18 0,-0.8 0.19,-1.43 0.58,-1.89 1.12,-2.26 2.35,-5.07 3.68,-8.43 1.14,-2.81 2.26,-5.64 3.38,-8.48 0.06,-0.23 0.18,-0.34 0.36,-0.34 0.34,0 0.59,0.18 0.76,0.56 1.57,3.52 4.14,8.72 7.69,15.61 -0.09,0.69 -0.64,2.39 -1.67,5.11 -0.18,0.26 -0.35,0.31 -0.52,0.14 -0.42,-0.71 -1.04,-1.71 -1.86,-2.99 0,0 -4.36,-9.15 -4.36,-9.15 -0.21,-0.53 -0.54,-1.32 -1,-2.35 0,0 -0.09,0 -0.09,0 z m 24.02,13.25 c 0,0 0.21,1.49 0.21,1.49 0,0 -0.11,0.12 -0.34,0.37 -0.3,0 -0.62,-0.29 -0.94,-0.89 -1.47,-3.49 -2.11,-7.15 -1.92,-11 -0.75,0.12 -1.34,0.12 -1.76,0 -1.77,-0.5 -3.46,-2.49 -5.08,-5.98 -0.53,-1.13 -0.74,-2.13 -0.66,-3 0.07,-0.31 0.25,-0.37 0.53,-0.17 0.33,0.62 0.91,1.52 1.72,2.68 0.71,1.15 1.9,1.72 3.56,1.72 1.36,-0.21 2.62,-1.44 3.79,-3.69 0.03,-0.25 0.17,-0.54 0.43,-0.89 0.19,0.04 0.34,0.14 0.46,0.33 0.11,0.19 0.2,0.39 0.28,0.6 0.07,0.21 0.3,0.66 0.68,1.35 0.29,0.6 0.43,1.09 0.43,1.47 0,0.29 -0.08,0.56 -0.22,0.83 -0.85,3.51 -1.27,7.33 -1.27,11.44 0,1.12 0.03,2.23 0.1,3.34 z m 9.68,-7.08 c 0,0 4.58,-5.06 4.58,-5.06 1.32,-1.38 3.26,-3.52 5.8,-6.42 0.09,0 0.17,0.03 0.25,0.09 0,0 -0.72,3.11 -0.72,3.11 -0.36,0.45 -1.81,2.11 -4.36,4.97 0,0 -4.58,5.16 -4.58,5.16 -0.67,0.73 -1.17,1.34 -1.5,1.84 0,0 0.08,0.05 0.08,0.05 4.88,0 9.44,-0.21 13.69,-0.63 0,0 1.37,-0.12 1.37,-0.12 0.15,0.09 0.18,0.37 0.1,0.87 -0.48,1.35 -0.89,2.55 -1.24,3.61 -0.18,0.31 -0.37,0.43 -0.58,0.36 -4.89,0.53 -9.85,0.77 -14.86,0.74 -0.8,0 -1.57,-0.26 -2.29,-0.77 -0.03,-0.13 -0.05,-0.27 -0.05,-0.4 0,-0.79 0.48,-1.97 1.45,-3.54 0.86,-1.4 1.81,-2.69 2.86,-3.86 z m 29.49,-7.78 c 0,0 0.08,0 0.08,0 1.56,-2.59 3.35,-4.46 5.37,-5.61 0.26,0 0.45,0.06 0.58,0.16 -0.39,1.07 -0.9,2.23 -1.55,3.45 -2.99,2.12 -5.31,5.01 -6.95,8.68 -0.23,0.18 -0.43,0.21 -0.61,0.09 -0.12,-0.15 -0.16,-0.35 -0.13,-0.63 0.09,-0.39 0.13,-0.59 0.13,-0.59 0.26,-0.94 0.39,-1.72 0.39,-2.31 0,-0.96 -0.34,-1.71 -1.03,-2.25 -0.69,-0.54 -1.45,-0.81 -2.3,-0.81 -0.37,0 -0.71,0.05 -1.03,0.17 -0.91,0.28 -1.42,0.81 -1.53,1.59 -0.03,0.56 -0.02,1.37 0.05,2.44 0.08,1.29 0.12,2.17 0.12,2.64 0,0 0,5.25 0,5.25 -0.03,0.15 -0.41,1.51 -1.14,4.08 -0.05,0.03 -0.12,0.1 -0.19,0.22 -0.06,0.1 -0.13,0.12 -0.22,0.06 -0.11,-0.42 -0.24,-1.71 -0.39,-3.89 -0.02,-0.43 -0.14,-1.52 -0.36,-3.28 -0.14,-1.38 -0.21,-2.5 -0.21,-3.36 0,-1.96 0.36,-3.67 1.09,-5.13 0.91,-1.79 1.42,-2.76 1.51,-2.92 0.67,-1.05 1.49,-1.74 2.47,-2.06 0.55,-0.26 1.14,-0.39 1.77,-0.39 0.98,0 1.79,0.29 2.44,0.87 1.03,0.94 1.58,2.12 1.64,3.53 z m 20,0 c 0,0 0.08,0 0.08,0 1.56,-2.59 3.35,-4.46 5.37,-5.61 0.26,0 0.45,0.06 0.58,0.16 -0.39,1.07 -0.9,2.23 -1.55,3.45 -2.99,2.12 -5.31,5.01 -6.95,8.68 -0.23,0.18 -0.43,0.21 -0.61,0.09 -0.12,-0.15 -0.16,-0.35 -0.13,-0.63 0.09,-0.39 0.13,-0.59 0.13,-0.59 0.26,-0.94 0.39,-1.72 0.39,-2.31 0,-0.96 -0.34,-1.71 -1.03,-2.25 -0.69,-0.54 -1.45,-0.81 -2.3,-0.81 -0.37,0 -0.71,0.05 -1.03,0.17 -0.91,0.28 -1.42,0.81 -1.53,1.59 -0.03,0.56 -0.02,1.37 0.05,2.44 0.08,1.29 0.12,2.17 0.12,2.64 0,0 0,5.25 0,5.25 -0.03,0.15 -0.41,1.51 -1.14,4.08 -0.05,0.03 -0.12,0.1 -0.19,0.22 -0.06,0.1 -0.13,0.12 -0.22,0.06 -0.11,-0.42 -0.24,-1.71 -0.39,-3.89 -0.02,-0.43 -0.14,-1.52 -0.36,-3.28 -0.14,-1.38 -0.21,-2.5 -0.21,-3.36 0,-1.96 0.36,-3.67 1.09,-5.13 0.91,-1.79 1.42,-2.76 1.51,-2.92 0.67,-1.05 1.49,-1.74 2.47,-2.06 0.55,-0.26 1.14,-0.39 1.77,-0.39 0.98,0 1.79,0.29 2.44,0.87 1.03,0.94 1.58,2.12 1.64,3.53 z m 11.94,4.25 c -0.74,0 -1.36,-0.25 -1.9,-0.76 -0.53,-0.51 -0.79,-1.13 -0.79,-1.88 0,-0.72 0.26,-1.36 0.79,-1.89 0.54,-0.53 1.16,-0.79 1.9,-0.79 0.74,0 1.37,0.26 1.87,0.79 0.51,0.53 0.77,1.17 0.77,1.89 0,0.75 -0.26,1.37 -0.77,1.88 -0.5,0.51 -1.13,0.76 -1.87,0.76 z m 0,12.5 c -0.77,0 -1.41,-0.25 -1.93,-0.76 -0.51,-0.52 -0.76,-1.16 -0.76,-1.92 0,-0.73 0.26,-1.35 0.79,-1.86 0.54,-0.52 1.16,-0.78 1.9,-0.78 0.74,0 1.37,0.26 1.87,0.78 0.51,0.51 0.77,1.13 0.77,1.86 0,0.74 -0.26,1.37 -0.77,1.9 -0.5,0.53 -1.13,0.78 -1.87,0.78 z m 79.5,-31.9 c -1.8,-0.41 -3.08,-1.35 -3.83,-2.81 1.81,-2.08 2.8,-3.19 2.98,-3.35 1.18,1.03 2.44,1.99 3.78,2.86 0,0 -2.93,3.3 -2.93,3.3 z m -38.15,35.69 c -1.82,-0.41 -3.1,-1.35 -3.84,-2.82 1.81,-2.09 2.81,-3.2 3,-3.34 1.18,1.03 2.44,1.99 3.78,2.89 0,0 -2.94,3.27 -2.94,3.27 z m 40.07,-31.32 c -0.14,0.2 -0.41,0.42 -0.8,0.67 -0.4,0.25 -0.67,0.47 -0.81,0.63 -2.03,1.82 -3.28,3.48 -3.75,4.95 0.29,0.4 0.76,0.65 1.4,0.77 0,0 0.55,0.11 0.55,0.11 0.05,0.03 0.16,0.08 0.31,0.14 0.16,0.05 0.33,0.26 0.52,0.64 0,0 0.14,0.36 0.14,0.36 -0.17,1.34 -0.68,2.65 -1.55,3.9 -0.18,0.31 -0.5,0.41 -0.97,0.3 -0.38,-0.13 -0.99,-0.33 -1.81,-0.59 -0.92,-0.27 -1.71,-0.26 -2.37,0.04 -0.35,0.37 -0.94,0.94 -1.77,1.72 -0.62,0.53 -1.57,1.23 -2.86,2.1 -0.91,0.51 -1.86,0.61 -2.86,0.31 -0.31,-0.15 -0.68,-0.49 -1.09,-1.02 -0.79,0.42 -1.98,1 -3.56,1.72 -3.35,1.62 -6.84,2.97 -10.47,4.05 -5.03,1.5 -10.38,2.28 -16.03,2.33 -5.3,0.03 -11.07,-0.95 -17.33,-2.94 -0.53,0.96 -1.24,2.53 -2.11,4.7 -0.76,1.86 -1.38,3.16 -1.85,3.91 -0.26,0.3 -1.14,0.66 -2.64,1.06 -1.12,0.16 -2.81,0.38 -5.06,0.67 -0.12,0 -0.3,-0.09 -0.53,-0.26 -0.11,-0.22 -0.04,-0.47 0.22,-0.75 1.61,-0.88 3.96,-2.27 7.05,-4.19 1.78,-1.24 3.53,-4.41 5.23,-9.5 0.14,-0.47 0.32,-0.68 0.52,-0.62 1.73,0.44 3.48,0.9 5.25,1.37 1.98,0.47 3.76,0.79 5.32,0.97 3.34,0.42 6.22,0.62 8.66,0.62 1.53,0 3.42,-0.07 5.67,-0.23 3.24,-0.21 8.01,-1.12 14.31,-2.73 1.15,-0.29 2.48,-0.72 3.99,-1.32 1.88,-0.72 3.14,-1.38 3.78,-1.97 0.33,-0.09 0.6,0.01 0.8,0.3 0.06,0.17 0.27,0.48 0.62,0.92 0.26,0.28 0.63,0.41 1.1,0.41 1.12,0 2.27,-0.69 3.43,-2.08 0.32,-0.41 0.74,-0.9 1.24,-1.48 0.24,-0.27 0.58,-0.65 1.04,-1.13 0.39,-0.36 0.85,-0.68 1.38,-0.95 0.68,-2.17 1.8,-4.4 3.36,-6.69 1.72,-2.49 3.42,-4.17 5.12,-5.05 0.07,-0.03 0.17,-0.01 0.32,0.05 0.15,0.06 0.24,0.2 0.26,0.42 -0.08,0.2 -0.54,1.32 -1.37,3.36 z m 39.28,-7.98 c -0.42,0.68 -1.03,1.66 -1.81,2.95 -0.79,-0.29 -1.58,-0.17 -2.38,0.36 -0.41,0.38 -0.86,0.9 -1.36,1.58 -0.76,1.03 -1.18,1.6 -1.26,1.72 -1.04,1.28 -2.13,1.93 -3.27,1.97 -0.39,-0.09 -0.7,-0.18 -0.92,-0.3 0,0 0.04,-0.17 0.04,-0.17 0.36,-0.65 0.94,-1.62 1.76,-2.91 0.2,0.06 0.41,0.1 0.62,0.1 1.02,0 2.02,-0.46 2.98,-1.38 0.57,-0.84 1.11,-1.7 1.64,-2.58 0.7,-1.03 1.49,-1.59 2.36,-1.69 0.73,-0.27 1.28,-0.21 1.64,0.18 0,0 -0.04,0.17 -0.04,0.17 z m -11.3,20.15 c -0.25,0 -0.52,-0.03 -0.81,-0.12 -0.29,-0.08 -0.64,-0.31 -1.05,-0.67 -0.05,0.45 -0.08,1.18 -0.08,2.22 -0.1,5.65 -1.8,11 -5.11,16.04 -2.88,4.32 -6.35,6.47 -10.42,6.47 -0.33,0 -0.68,-0.01 -1.03,-0.05 -1.1,-0.11 -2.15,-0.62 -3.14,-1.51 -0.99,-0.9 -1.67,-1.93 -2.05,-3.09 -0.43,-1.41 -0.65,-2.88 -0.65,-4.41 0,-2.81 0.94,-6.51 2.81,-11.09 0.14,-0.4 0.38,-0.51 0.7,-0.35 0.15,0.2 0.16,0.5 0.05,0.89 -1.12,3.48 -1.66,6.18 -1.62,8.1 0,1.23 0.27,2.32 0.82,3.28 0.65,1.15 1.53,1.91 2.64,2.29 0.88,0.29 1.82,0.44 2.82,0.44 2.29,0 4.43,-0.69 6.43,-2.06 3.87,-2.63 5.84,-6.79 5.91,-12.47 0.02,-2.22 -0.02,-6.02 -0.11,-11.42 0,0.05 0.05,-1.84 0.14,-5.67 0.41,-1.6 1.2,-3.29 2.38,-5.08 0.27,-0.11 0.42,-0.04 0.45,0.22 -0.51,2.97 -0.77,5.43 -0.77,7.39 0,0.75 0.03,1.47 0.1,2.17 0.11,1.32 0.86,2.29 2.23,2.91 0.65,0.25 1.2,0.2 1.67,-0.14 0.89,-0.41 1.52,-1.29 1.89,-2.64 0.19,-0.26 0.41,-0.32 0.68,-0.21 0.11,0.12 0.17,0.3 0.17,0.55 0,0.19 0,0.47 0,0.84 -0.6,2.65 -1.36,4.51 -2.28,5.58 -0.92,1.06 -1.84,1.59 -2.77,1.59 z m 14.05,27.25 c -1.76,-0.41 -3.01,-1.34 -3.75,-2.78 1.74,-2.03 2.71,-3.15 2.9,-3.34 1.18,1.03 2.43,1.98 3.74,2.86 0,0 -2.89,3.26 -2.89,3.26 z m -3.88,-22.57 c 0,0 0.22,-7.71 0.22,-7.71 0.03,-0.66 0.24,-1.49 0.63,-2.47 0.55,-1.4 0.86,-2.19 0.92,-2.37 0.05,-0.06 0.12,-0.08 0.22,-0.05 0.11,0.03 0.24,0.1 0.37,0.19 -0.58,4.49 -0.76,9.36 -0.51,14.61 0.14,3.48 1.05,5.4 2.73,5.77 0.18,0.05 0.35,0.07 0.52,0.07 0.64,0 1.33,-0.5 2.07,-1.5 0.12,-0.29 0.28,-0.74 0.49,-1.36 0,0 0.12,-0.13 0.37,-0.4 0.17,0.03 0.29,0.24 0.38,0.62 0.05,1.23 -0.39,2.95 -1.33,5.16 -0.79,1.37 -1.67,2.29 -2.62,2.73 -0.28,0.09 -0.56,0.13 -0.85,0.13 -0.67,0 -1.26,-0.19 -1.78,-0.56 -0.51,-0.39 -0.98,-1.2 -1.39,-2.43 -0.23,-0.75 -0.37,-2.83 -0.44,-6.25 -0.03,-0.72 -0.03,-2.12 0,-4.18 z m 34.97,-4.63 c -0.38,0.47 -0.76,0.95 -1.11,1.45 -0.46,0.54 -0.91,0.92 -1.36,1.15 -0.2,0 -0.81,-0.18 -1.84,-0.54 -0.84,-0.25 -1.56,-0.25 -2.14,0 -0.78,0.39 -1.56,1.1 -2.35,2.13 -1.26,1.6 -1.93,2.44 -2.03,2.5 -0.75,0.8 -1.27,1.32 -1.57,1.55 -0.65,0.52 -1.31,0.85 -1.99,1 -0.3,1.34 -0.82,2.81 -1.55,4.4 -0.55,1.26 -1.07,2.19 -1.56,2.77 -0.13,0.11 -0.68,0.32 -1.64,0.62 -0.47,0.15 -1.98,0.51 -4.53,1.1 -0.15,0.03 -0.25,0 -0.31,-0.08 -0.06,-0.06 -0.06,-0.15 0,-0.27 0.06,-0.17 0.25,-0.38 0.58,-0.61 0.43,-0.3 0.7,-0.48 0.79,-0.54 0.35,-0.29 1.42,-1.03 3.19,-2.24 1.33,-0.88 2.35,-1.69 3.06,-2.42 0.17,-0.2 0.25,-0.46 0.25,-0.8 0,-0.37 -0.11,-0.83 -0.34,-1.36 0,0 -0.28,-0.17 -0.28,-0.17 -1.31,0.21 -2.34,0.03 -3.07,-0.53 -0.59,-0.56 -0.77,-1.29 -0.54,-2.19 0.25,-0.56 0.54,-1.36 0.89,-2.39 0.27,-0.92 0.46,-1.51 0.58,-1.76 0.32,-0.67 0.75,-1.06 1.31,-1.17 0.69,-0.15 1.38,0.17 2.08,0.96 0.64,0.67 1.04,1.86 1.18,3.57 1.49,-0.34 2.86,-1.18 4.1,-2.52 0.64,-0.68 1.58,-1.94 2.81,-3.78 0.15,-0.3 0.63,-0.74 1.45,-1.33 0.64,-0.46 0.96,-0.99 0.96,-1.61 0.44,-1.12 0.92,-1.9 1.42,-2.34 0.19,0 0.39,0.15 0.59,0.47 0.2,0.3 0.37,0.59 0.5,0.86 0.82,0.96 1.74,1.88 2.74,2.76 0.03,0.53 -0.06,0.99 -0.27,1.36 z"
     style="fill:#000000" />
</svg>
