<?xml version="1.0" encoding="UTF-8"?>
<svg width="2.9058in" height="1.6297in" version="1.1" viewBox="0 0 871.75 488.9" xmlns="http://www.w3.org/2000/svg">
<path d="m436.66 29.46s0.26 0.57 0.26 0.57c-0.41 1.53-1.1 3.81-2.06 6.84-0.18 0.34-0.48 0.52-0.92 0.56-0.73 0.05-1.14 0.09-1.23 0.13-4.12 2.08-6.71 5.07-7.77 8.97-0.31 1.08-0.02 2.01 0.89 2.79 0.35 0.22 1.38 0.59 3.06 1.1 1.29 0.35 2.17 0.96 2.66 1.82 0.63 1.13 0.95 2.6 0.95 4.41 0 0.61-0.04 1.38-0.12 2.33-0.1 1.18-0.14 1.93-0.14 2.26-0.78 4.3-2.2 8.17-4.28 11.61-2.37 3.9-5.32 6.8-8.86 8.71-1.58 0.82-3.34 1.23-5.28 1.23-2.33 0-4.23-0.59-5.71-1.76-3.42-2.72-5.15-7.13-5.19-13.22-0.04-4.94 1.41-12.03 4.35-21.28 0.41-0.14 0.61-0.21 0.61-0.21 0.24 0.18 0.36 0.68 0.36 1.5-1.6 6.44-2.39 11.07-2.39 13.88 0 5.84 1.42 9.68 4.28 11.5 1.39 0.9 2.97 1.36 4.75 1.36 3.05 0 6.31-1.25 9.8-3.75 3.26-2.99 5.08-5.94 5.43-8.85 0.18-1.39-0.16-2.34-1.01-2.84-1.18-0.31-2.36-0.66-3.53-1.03-1.33-0.49-2.19-1.27-2.6-2.36-0.4-1.08-0.59-2.29-0.59-3.63 0-1.25 0.24-2.93 0.73-5.01 1.81-7.63 5.33-13.3 10.57-17 1.25-0.59 1.97-0.89 2.15-0.89 0.26 0 0.54 0.09 0.83 0.26zm24.75-0.26 1.56-2.66c0.33 0 0.5 0.13 0.5 0.39-0.13 0.83-0.2 2.42-0.2 4.78 0 2.05-0.19 3.63-0.56 4.75h0.26c1.46-1.43 2.85-2.04 4.16-1.82 0.72 0.23 1.22 0.66 1.48 1.29 0.12 0.31 0.17 0.61 0.17 0.88 0 0.85-0.39 1.78-1.17 2.78-0.68 0.82-1.36 1.64-2.04 2.45-0.83 0.56-1.96 0.92-3.39 1.1-2.13 0.23-3.34 0.38-3.63 0.46-0.91 0.22-1.54 0.29-1.89 0.21-0.04-0.22-0.04-0.42 0-0.6 0.55-0.6 1.05-0.97 1.5-1.09 1.91-2.39 2.86-4.19 2.86-5.39 0.17-0.77 0.22-2.03 0.12-3.78-0.08-1.63 0.01-2.88 0.27-3.75zm4.66 8.5-0.44-0.2c-1.09-0.18-2.08 0.25-2.99 1.29-0.18 0.18-0.85 1.13-2.03 2.86 1-0.29 2.02-0.57 3.07-0.83 1.08-0.44 1.87-1.1 2.39-1.97 0.3-0.45 0.3-0.84 0-1.15zm1.18 9.8c-0.4 3.21-1.52 5.99-3.39 8.35-0.48 0.63-1.38 1.17-2.7 1.63-1.31 0.45-2.23 0.95-2.74 1.5-1.21 1.26-2.35 3.03-3.39 5.31-0.86 1.87-1.73 3.73-2.59 5.58-0.3 0.53-0.66 1.08-1.08 1.64-0.4 0.56-0.86 0.97-1.37 1.22-3.9 0.67-7.45 1.21-10.66 1.62-0.18-0.03-0.43-0.17-0.76-0.4 0.03-0.42 0.27-0.74 0.7-0.99 0.44-0.25 0.84-0.49 1.22-0.73 2.22-1.22 4.43-2.41 6.64-3.59 2.55-1.54 4.52-3.25 5.92-5.11 0.41-0.49 1.55-2.71 3.41-6.68 1.27-2.69 2.89-4.47 4.89-5.34 2.54-0.69 3.94-2.05 4.22-4.08 0.12-0.22 0.37-0.48 0.76-0.76 0.3-0.1 0.61 0.18 0.92 0.83zm8.66 25.89c-0.81 0.18-2.15 0.43-4.02 0.76-0.39 0-0.64-0.14-0.73-0.42-0.04-0.41 0.27-0.79 0.94-1.14 1.72-1.1 3.45-2.2 5.17-3.28 2.04-1.3 3.69-2.52 4.95-3.66 1.33-1.5 2.58-3.7 3.75-6.61 0.87-2.46 1.73-4.9 2.6-7.33 0.13-0.37 0.43-0.56 0.89-0.56 0.4 0 0.61 0.19 0.61 0.56 0.08 0.87-0.29 2.84-1.11 5.91-1.39 5.36-3.06 9.68-5 12.98-0.75 1.22-1.95 1.97-3.63 2.25-1.48 0.18-2.95 0.36-4.42 0.54zm89.7 7.21c-1.63-0.78-3.47-2.07-5.51-3.89 0 0-3.42 3.96-3.42 3.96-2.81-0.67-4.8-2.14-5.97-4.43 2.77-3.34 4.28-5.15 4.54-5.43 1.6 1.36 3.39 2.72 5.38 4.08 0 0 4.09-4.29 4.09-4.29 2.63 2.17 4.6 3.73 5.91 4.69-2.31 2.41-3.98 4.18-5.02 5.31zm-40.4 8.99c-2.82-0.68-4.79-2.14-5.91-4.38 2.76-3.25 4.3-4.99 4.61-5.21 1.81 1.57 3.76 3.06 5.84 4.48l-4.54 5.11zm55.34-59.3c0 1.04 0.02 2.43 0.08 4.16v4.14c0 5.9-0.57 10.9-1.71 15.01-1.77 6.54-4.73 9.8-8.89 9.8-2.32 0-3.84-1.33-4.54-4.01-1.65 3.31-3.27 4.96-4.86 4.96-1.17 0-2.58-0.64-4.22-1.92-6.97 4.59-14.99 7.97-24.06 10.16-5.03 1.26-10.75 1.89-17.14 1.89-4.2 0-8.03-0.54-11.49-1.63-4.03-1.23-6.57-3.82-7.61-7.76-0.46-1.77-0.69-5.58-0.69-11.42v-6.44c0.04-2.85 0.07-5.02 0.07-6.49 0-0.03 0.04-0.19 0.14-0.45l0.19-0.56c0.28-1.04 0.59-2.08 0.9-3.13 0.46-1.43 0.93-2.34 1.42-2.71l0.97 0.42c-0.55 13.37-0.85 20.47-0.9 21.28 0 1.49 0.08 2.64 0.26 3.45 0.47 2.04 1.5 3.54 3.1 4.49 2.43 1.55 6.35 2.54 11.75 2.98 2.59 0.25 6.74 0.38 12.45 0.38 2.04 0 4.01-0.17 5.91-0.5 6.01-1.09 10.36-1.99 13.04-2.72 4.81-1.32 8.88-3.03 12.19-5.16 1.82 0.91 3.41 1.36 4.75 1.36 1.73 0 3-2.24 3.83-6.73 0.17-1.04 0.48-2.52 0.92-4.43 0.41-1.23 0.89-1.86 1.42-1.86 0 0 0.05 0.03 0.14 0.08h0.17c0.04 0.34 0.11 0.77 0.19 1.3-0.24 0.81-0.36 1.61-0.36 2.39 0 1.46 0.45 2.64 1.36 3.55 0.91 0.9 2.09 1.36 3.55 1.36 3.04 0 4.56-2.7 4.56-8.1 0-1.72-0.07-4.45-0.2-8.17-0.18-3.58-0.27-6.33-0.27-8.23 0.04-0.87 0.11-1.57 0.21-2.1 0.12-0.77 0.57-2.08 1.35-3.95 0.91-2.08 1.56-3.13 1.96-3.13 0.17 0 0.43 0.12 0.76 0.35-0.41 2.21-0.65 4.9-0.7 8.09zm41.5-12.25c0.13-0.41 0.46-0.58 0.97-0.5 0.06 0.58 0.02 1.31-0.11 2.19-0.59 6.69-0.81 14.16-0.66 22.42 0.02 2.46 0.09 3.82 0.21 4.08 0.33 0.89 0.91 1.56 1.75 2.03 0.19 0.09 0.68 0.5 1.47 1.25l1.12 1.14v3.55l-2.33 2.33-1.19-0.41s-0.73-0.92-0.73-0.92c-0.42-0.51-0.66-0.77-0.73-0.77s-0.12 0.21-0.16 0.63c-0.23 2.37-1.23 5.7-3 9.97-1.59 4.05-3.59 7.49-6 10.32-3.59 4.29-7.47 6.79-11.66 7.5-1.35 0.18-2.77 0.18-4.25 0-2.9-0.55-5.11-2.13-6.64-4.75-1.81-2.99-2.48-6.96-2-11.92 0.39-3.01 1.27-6.68 2.66-11.01 0.53-1.69 0.96-2.76 1.3-3.22 0.17-0.25 0.33-0.38 0.46-0.38 0.36 0 0.54 0.13 0.54 0.38 0 0.26-0.35 1.83-1.04 4.7-0.75 3.03-1.14 5.46-1.18 7.28-0.2 6.53 2.62 10.08 8.47 10.63 1.14 0.13 2.36 0.1 3.67-0.11 2.77-0.42 5.33-1.5 7.67-3.25 4.32-3.23 7.03-7.8 8.14-13.72 0.53-3.45 0.68-7.5 0.44-12.17-0.41-8.04-0.45-14.7-0.11-19.97 0.02-0.57 0.13-1.11 0.33-1.63 0.86-2.32 1.72-4.21 2.59-5.67zm22.3-7.73c0.33-0.65 0.7-0.8 1.11-0.47 0.02 0.06 0.03 0.12 0.03 0.16 0 0.66-0.5 2.01-1.5 4.03-0.75 1.48-1.39 2.51-1.92 3.11-1.52 1.66-3.39 3.46-5.61 5.39l-5.02 4.11c-4.68 3.76-7.25 5.95-7.73 6.57-0.59 0.75-0.85 1.16-0.8 1.22 1.61-0.17 3.25-0.17 4.91 0 2.25 0.41 3.83 1.36 4.71 2.86 0.47 0.69 0.73 1.67 0.77 2.95 0.08 0.18 0.1 0.3 0.06 0.35-0.08 0.04-0.12 0.2-0.12 0.48-0.16 2.66-0.89 5.54-2.17 8.64-0.73 2.03-1.1 3.09-1.1 3.16 0 0.16 0.35 0.15 1.06-0.03 2.73-0.84 5.06-1.92 6.99-3.22 0.02 0 0.21 0.22 0.56 0.66l0.5 0.62v1.38l-0.67 0.62c-2.13 1.81-5.13 2.87-9 3.16-1.95 0.18-3.42 0.34-4.41 0.5 0 0-0.73 0.09-0.73 0.09-2.88-2.12-4.52-5.69-4.89-10.72-0.16-1.35-0.19-2.42-0.1-3.22 0.05-0.44 0.22-1.73 0.5-3.86l0.66-4.54s0.41-0.74 0.41-0.74c0.75-1.24 1.76-2.56 3.04-3.98 2.73-2.81 5.88-5.77 9.44-8.86l1.69-1.44c4.01-3.13 7.12-6.13 9.33-8.98zm-17.33 31.47c-1.79-0.65-3.49-0.45-5.08 0.59-1.18 0.69-1.54 1.78-1.09 3.27 0.43 1.12 1.26 1.98 2.48 2.57l1.63-0.03c1.55 0.08 2.67-0.11 3.36-0.56 1.15-0.82 1.78-1.69 1.89-2.59 0.04-0.24-0.03-0.54-0.21-0.89-0.53-1.07-1.52-1.85-2.98-2.36zm4.61 22.48c0.46-0.55 0.75-0.83 0.89-0.83 0.13 0 0.46 0.23 0.97 0.69 1.75 1.73 3.27 2.95 4.58 3.66 0.09 0 0.36-0.27 0.82-0.8 1.79-2.06 2.82-3.14 3.07-3.22 0.08 0 0.33 0.19 0.76 0.56 1.52 1.38 2.99 2.56 4.41 3.55 0.07 0.05 0.09 0.19 0.06 0.41-0.04 0.23-0.43 0.8-1.16 1.68 0 0-0.46 0.54-0.46 0.54-1.48 1.78-2.32 2.75-2.52 2.89-0.12 0.07-0.3 0.11-0.56 0.11-0.69 0-1.72-0.61-3.1-1.83-0.97-0.89-1.6-1.56-1.89-2-0.13-0.25-0.25-0.37-0.36-0.39-0.09 0-0.68 0.63-1.76 1.89-1.09 1.24-1.69 1.89-1.8 1.95-0.4 0.09-0.9-0.03-1.53-0.36-1.03-0.57-2.04-1.37-3.02-2.39-0.77-0.82-1.15-1.34-1.15-1.53 0-0.14 1.25-1.67 3.75-4.58zm21.58-15.92v1.33l-1.19 1.15-0.67 0.18c-1.64 0.41-3.32 0.28-5.05-0.4-0.31-0.11-0.52-0.17-0.62-0.17s-0.77 0.38-2 1.13c-1.88 1.13-3.26 1.77-4.15 1.92l-1.37 0.11v-1.83l0.05-1.83c1.36-0.06 2.55-0.33 3.57-0.79 0.27-0.14 1.2-0.85 2.77-2.13 0.79-0.61 1.47-0.97 2.05-1.06 0.44-0.04 1.25 0.12 2.42 0.5 1.39 0.49 2.28 0.73 2.66 0.73 0.17 0 0.47 0.19 0.9 0.56l0.63 0.6zm5.09-31.27c0.47-0.62 1.04-0.62 1.7 0 0.95 0.79 2.03 1.64 3.25 2.55 0.47 0.35 0.71 0.6 0.71 0.73 0 0.18-0.65 0.96-1.94 2.33l-2.13 2.22c-0.75 0.04-1.35-0.09-1.81-0.39-0.53-0.35-1.34-1.09-2.44-2.2-0.63-0.64-0.95-1.01-0.95-1.13 0-0.13 0.61-0.84 1.83-2.12 1.19-1.28 1.78-1.95 1.78-1.99zm4.53 17.82c0.26-0.12 0.46-0.11 0.59 0.03 0.12 0.13 0.13 0.52 0.04 1.15-0.22 1.87 0.12 3.28 1.03 4.25 0.39 0.45 0.98 0.86 1.76 1.24 0.6 0.33 1.19 0.82 1.78 1.45l1.15 1.14v3.45s-2.36 2.4-2.36 2.4l-0.94-0.08c-1.15-0.04-2-0.21-2.55-0.5-1.22-0.75-2.24-1.79-3.06-3.11-1.42 1.63-3.29 2.93-5.61 3.87-0.89 0.32-1.65 0.46-2.3 0.44v-1.8c0-1.19 0.03-1.79 0.08-1.79 3.31-0.22 5.72-1.39 7.24-3.52 0 0 0.42-0.66 0.42-0.66l0.17-1.03c0.39-2.12 0.89-3.88 1.5-5.28 0.41-1.02 0.77-1.57 1.06-1.65zm7.8 26.37c0.46-0.55 0.75-0.83 0.89-0.83 0.13 0 0.46 0.23 0.97 0.69 1.75 1.73 3.27 2.95 4.58 3.66 0.09 0 0.36-0.27 0.82-0.8 1.79-2.06 2.82-3.14 3.07-3.22 0.08 0 0.33 0.19 0.76 0.56 1.52 1.38 2.99 2.56 4.41 3.55 0.07 0.05 0.09 0.19 0.06 0.41-0.04 0.23-0.43 0.8-1.16 1.68 0 0-0.46 0.54-0.46 0.54-1.48 1.78-2.32 2.75-2.52 2.89-0.12 0.07-0.3 0.11-0.56 0.11-0.69 0-1.72-0.61-3.1-1.83-0.97-0.89-1.6-1.56-1.89-2-0.13-0.25-0.25-0.37-0.36-0.39-0.09 0-0.68 0.63-1.76 1.89-1.09 1.24-1.69 1.89-1.8 1.95-0.4 0.09-0.9-0.03-1.53-0.36-1.03-0.57-2.04-1.37-3.02-2.39-0.77-0.82-1.15-1.34-1.15-1.53 0-0.14 1.25-1.67 3.75-4.58zm8.45-24.72c1.06-0.86 2.18-0.94 3.36-0.23 0.77 0.24 1.42 0.59 1.95 1.06 0 0 0.58 0.59 0.58 0.59v1.36l-0.58 0.57c-0.37 0.4-0.55 0.63-0.53 0.67 0.07 0.15-0.19 0.27-0.79 0.36-0.68-0.02-1.5-0.23-2.46-0.63-0.81-0.31-1.32-0.47-1.53-0.47-0.75 0.12-1.41 0.63-1.98 1.53l-0.97 1.46c-2.03 3.08-4.08 5.15-6.14 6.19-0.81 0.41-1.64 0.65-2.49 0.71v-8.15c0.38 0.08 0.92 0.15 1.63 0.18 2.91 0.24 5.26-0.57 7.03-2.42 1.51-1.59 2.48-2.52 2.92-2.78zm8.55-27.67c0.55-1.7 1.12-3.21 1.72-4.55 0.22-0.02 0.38 0.07 0.5 0.27-0.71 7.95-0.78 15.93-0.21 23.94 0.2 3.24 1.42 5.27 3.66 6.11 0.57 0.27 1.12 0.7 1.66 1.29 0 0 1.09 1.14 1.09 1.14v3.52s-2.31 2.36-2.31 2.36c-3.33-0.56-5.34-2.65-6.05-6.28l-0.3-1.03c-0.02-0.07-0.05-0.1-0.11-0.1 0 0-2.65 4.85-2.65 4.85l-0.27 0.26 0.03-1.86v-1.86s2.03-4.37 2.03-4.37l0.47-2.44 0.07-6.56c0.06-7.28 0.13-11.42 0.2-12.42l0.06-1.21 0.41-1.06zm22.47-7.66c0.31-0.72 0.71-0.9 1.2-0.53 0.1 0.14 0.12 0.37 0.06 0.71-0.35 1.68-1.17 3.38-2.45 5.11-0.69 0.9-1.8 2.05-3.33 3.45l-1.59 1.5c-2.81 2.6-5.21 4.69-7.17 6.26-3.15 2.64-4.83 4.27-5.05 4.89-0.08 0.29-0.09 0.43-0.03 0.43 0.88-0.16 1.86-0.25 2.92-0.27 3.56 0 5.66 1.52 6.28 4.55 0.22 1.73 0.05 3.54-0.5 5.45-0.51 2.21-1.23 4.37-2.16 6.47-0.8 1.73-2.21 2.8-4.25 3.22-1.13 0.25-2.11 0.16-2.92-0.27-1.19-0.53-2.07-1.22-2.62-2.09-0.31-0.55-0.71-1.98-1.17-4.28l-0.19-0.99v-7.51s0.45-0.8 0.45-0.8c0.34-0.55 0.74-1.27 1.2-2.16l1-1.79 0.77-1.16c0.59-0.94 1.36-1.98 2.28-3.09 1.93-2.15 4.41-4.6 7.44-7.36 2.79-2.26 5.44-4.75 7.97-7.47 0.97-1.06 1.6-1.82 1.86-2.27zm-12.35 29.43c-1.04-1.16-2.59-1.6-4.65-1.33-1.24 0.24-2.27 0.78-3.08 1.62-0.03 1.28 0.44 2.23 1.42 2.83 0.87 0.59 2.02 0.84 3.45 0.72 1.18-0.08 2.16-0.39 2.96-0.92 0.5-0.22 0.75-0.57 0.73-1.06 0.04-0.69-0.23-1.31-0.83-1.86zm121.72 52.28c-1.62-0.78-3.45-2.07-5.48-3.88 0 0-3.42 3.96-3.42 3.96-2.82-0.69-4.81-2.17-5.97-4.43 2.75-3.36 4.27-5.18 4.54-5.45 1.6 1.36 3.39 2.72 5.38 4.09 0 0 4.08-4.28 4.08-4.28 2.63 2.17 4.61 3.73 5.92 4.67-2.31 2.42-3.99 4.19-5.05 5.32zm-57.9 5.65c-2.82-0.68-4.8-2.14-5.96-4.36 2.77-3.27 4.32-5.02 4.66-5.25 1.81 1.6 3.76 3.09 5.84 4.49 0 0-4.54 5.12-4.54 5.12zm60.09-29.65c-1.56 1.43-2.76 2-3.63 1.68-0.08 0-0.64-0.24-1.68-0.73-0.78-0.37-1.46-0.35-2.03 0.08-0.82 1.3-2.07 3.25-3.75 5.84-1.86 2.56-4.42 4.36-7.68 5.38-7.26 2.26-17.8 3.32-31.64 3.18-5.84-0.03-11.75 0-17.73 0.13-6.71 0.14-11.08 0.2-13.11 0.2-3.15 0-6.48-0.04-10-0.12-5.36-0.23-9.87-0.46-13.55-0.71-2.68-0.39-4.28-1.7-4.81-3.92-0.24-0.99-0.36-1.89-0.36-2.72-0.04-0.64 0.04-1.2 0.23-1.68l0.07-0.18c0.08-0.17 0.26-0.28 0.53-0.32 0.55-0.14 1.68-0.09 3.39 0.15 1.72 0.23 7.43 0.65 17.12 1.27 2.82 0.22 7.74 0.37 14.79 0.44 9.34 0.04 14.12 0.08 14.34 0.12 8.69 0.18 16.69 0.06 24-0.36 2.91-0.09 5.85-0.19 8.83-0.3 2.99-0.11 5.73-0.36 8.23-0.76 4.17-0.69 7.5-3.36 10-8.03 0.73-1.32 1.6-1.92 2.6-1.83 0.48 0 1.19 0.17 2.12 0.5 0.93 0.34 1.65 0.5 2.16 0.5 0.86 0 1.53-0.41 2-1.25 0.47-0.83 0.89-1.25 1.25-1.25 0.17 0 0.34 0.09 0.5 0.27-0.16 1.04-0.89 2.51-2.19 4.42zm10.25 14.47c-0.81 0.18-2.15 0.43-4.02 0.76-0.39 0-0.64-0.14-0.73-0.42-0.04-0.41 0.27-0.79 0.94-1.14 1.72-1.1 3.45-2.2 5.17-3.28 2.04-1.3 3.69-2.52 4.95-3.66 1.33-1.5 2.58-3.7 3.75-6.61 0.87-2.46 1.73-4.9 2.6-7.33 0.13-0.37 0.43-0.56 0.89-0.56 0.4 0 0.61 0.19 0.61 0.56 0.08 0.87-0.29 2.84-1.11 5.91-1.39 5.36-3.06 9.68-5 12.98-0.75 1.22-1.95 1.97-3.63 2.25-1.48 0.18-2.95 0.36-4.42 0.54zm38.14-33.1v2.78c0.04 1.22 0.06 2.13 0.06 2.72v11.69c0 5.37-1.69 9.95-5.08 13.75-1.77 2.04-4.21 3.06-7.34 3.06-1.19 0-2.37-0.19-3.55-0.56-1.22-0.63-2.17-1.6-2.86-2.92 0.06-0.23 0.17-0.43 0.35-0.61 0.24 0 0.61 0.06 1.11 0.17 0.5 0.12 0.88 0.17 1.14 0.17 0.82-2.22 1.16-5.05 1.03-8.5l-0.56-12.03c-0.05-1.28 0.27-2.83 0.95-4.64 1.04-2.81 1.61-4.3 1.7-4.48l0.13-0.15c0.29-0.21 0.56-0.3 0.83-0.26 0.09 0.65 0.09 1.47 0 2.47-0.13 1.3-0.19 2.11-0.19 2.42v1.86l0.45 12.91c0.1 2.99-0.79 6.48-2.65 10.46 0.68 0.14 1.37 0.21 2.06 0.21 3.85-0.05 6.39-1.07 7.61-3.07 0.9-1.39 1.42-3.32 1.56-5.78 0.04-0.3 0.04-2.38 0-6.23-0.05-2.41-0.12-4.82-0.2-7.2-0.05-2.93 0.02-5.41 0.2-7.44 0.59-1.53 1.48-3.85 2.66-6.94 0.12-0.35 0.36-0.49 0.72-0.41 0.33 0.1 0.41 0.33 0.23 0.71-0.28 1.62-0.4 3.56-0.36 5.84zm-636.09 111.38c0.77 0.9 1.02 2.15 0.76 3.72 2.13-1.91 4.05-2.86 5.77-2.86 0.78 0 1.53 0.18 2.26 0.56 1.13 0.75 1.71 1.7 1.75 2.86 0.1 2.21-1.24 5.01-4.01 8.42-1.17 1.04-2.08 1.79-2.72 2.23-1.09 0.82-2.1 1.4-3.05 1.75-3.9 1.52-7.82 2.27-11.76 2.27-2.68 0-5.14-0.36-7.36-1.09-0.28-0.14-0.59-0.38-0.94-0.74 0-0.33 0.23-0.56 0.7-0.69 0.48-0.13 0.74-0.22 0.8-0.28 1.48-1.63 3.02-4.14 4.61-7.53 1.77-3.72 3.22-6.3 4.34-7.76 1.42-1.82 3.15-2.72 5.19-2.72 1.66 0 2.88 0.62 3.66 1.86zm-2.93 3.64c-0.13-0.08-0.36-0.24-0.68-0.46-0.33-0.22-0.55-0.36-0.67-0.4-1.14-0.12-2 0.11-2.6 0.67-1.4 1.21-2.73 3.13-3.98 5.77-1.56 3.08-2.72 5.12-3.49 6.11 1.72-0.4 3.13-0.9 4.22-1.49 4.07-2.26 6.68-4.86 7.83-7.81 0-1.04-0.21-1.84-0.63-2.39zm9.46 2.92c-0.18-0.53-0.59-0.94-1.22-1.22-0.36-0.09-0.72-0.14-1.09-0.14-1.22 0-2.27 0.45-3.13 1.36-0.18 0.18-1.41 1.67-3.69 4.48-1.44 1.87-2.81 3.19-4.12 3.96 4.67-0.35 7.99-1.26 9.94-2.72 2.3-1.73 3.45-3.31 3.45-4.75 0-0.31-0.05-0.63-0.14-0.97zm21.65-22.91h0.33c1.46-1.22 2.73-1.74 3.81-1.56 0.69 0.27 1.26 0.75 1.71 1.44 0.08 0.26 0.12 0.54 0.12 0.83 0 0.95-0.43 1.92-1.29 2.92-0.8 0.79-1.58 1.58-2.36 2.36-0.73 0.46-1.71 0.73-2.93 0.83-1.03 0.08-2.07 0.14-3.11 0.18-0.24 0-0.62 0.06-1.12 0.18-0.49 0.11-0.82 0.17-1 0.17-0.31 0-0.59-0.12-0.83-0.35 0.15-0.63 0.72-1.11 1.72-1.42 1.99-2.08 3.01-3.94 3.06-5.58 0.22-0.53 0.33-1.2 0.33-2.03 0-0.28-0.03-0.73-0.08-1.36-0.04-0.63-0.06-1.11-0.06-1.42 0-1.55 0.39-2.71 1.17-3.48 0.13-0.14 0.35-0.43 0.66-0.86 0.17-0.39 0.43-0.55 0.76-0.5l0.15 0.06c-0.1 0.59-0.19 2.19-0.27 4.78-0.09 1.86-0.35 3.35-0.77 4.49v0.32zm1.22 1.36c-1.17 0.65-2.29 1.92-3.37 3.83 0.99-0.29 2.01-0.59 3.08-0.91 1.06-0.31 1.81-0.89 2.26-1.75 0.2-0.31 0.16-0.62-0.12-0.95-0.28-0.32-0.89-0.39-1.85-0.22zm31.35-30.37s1.76-0.97 1.76-0.97c0.2 0 0.38 0.09 0.56 0.26-0.08 0.32-0.35 0.73-0.81 1.24s-0.75 0.87-0.87 1.09c-0.38 0.67-0.95 1.21-1.72 1.61-0.76 0.41-1.51 0.8-2.24 1.17-2.41 1.14-4.84 2.27-7.28 3.39-2.72 1.38-5.05 2.77-7 4.16 0.04-0.04-0.1-0.13-0.43-0.26 0.15-0.65 1.06-1.93 2.73-3.83 1.36-1.17 3.39-2.36 6.08-3.58l9.22-4.28zm2.39 5.34 2.09-1.12c0.2 0 0.3 0.2 0.3 0.59-1.24 1.99-2.25 3.4-3.02 4.22l-0.53 0.47c-3.46 1.54-8.6 3.94-15.44 7.2-1.18 0.59-1.97 1.45-2.39 2.58-0.27 1.82-0.45 5-0.53 9.53-0.09 4.12-0.36 7.3-0.8 9.53-0.64 3.17-1.8 5.9-3.48 8.2-0.65 0.69-1.74 1.27-3.28 1.72-1.53 0.45-2.6 1.02-3.2 1.71-1.17 1.3-2.47 3.34-3.91 6.11-1.56 2.94-2.78 5.01-3.69 6.2-0.49 0.41-1.92 0.72-4.28 0.94-1.65 0.18-4.14 0.45-7.48 0.82-0.33-0.03-0.56-0.17-0.69-0.4 0.04-0.5 0.32-0.89 0.84-1.17s1.04-0.54 1.55-0.75c2.16-1.09 4.37-2.17 6.61-3.25 2.52-1.42 4.49-2.96 5.91-4.61 0.76-0.92 1.64-2.38 2.6-4.38 0.98-2 1.82-3.42 2.54-4.26 0.55-0.95 1.48-1.73 2.79-2.33 1.15-0.51 2.26-1.01 3.35-1.49 1.17-0.68 1.85-1.82 2.03-3.42 0-1.35 0.02-2.74 0.06-4.15-0.04-2.39 0.02-6.07 0.2-11.05 0.87-2.59 1.53-4.3 2-5.13 0.91-1.85 2.1-3.28 3.58-4.28 2.19-1.39 4.5-2.66 6.94-3.81l9.33-4.22zm115.81 7.97c-2.68-0.73-4.69-2.22-6.03-4.48 2.67-3.13 4.28-4.85 4.81-5.18 1.73 1.5 3.71 3 5.94 4.47l-4.72 5.19zm-65.47 21.61c-2.22-0.81-4.28-2.37-6.17-4.67 2.67-3.08 4.28-4.79 4.81-5.13 1.73 1.51 3.7 3.02 5.91 4.52 0 0-4.55 5.28-4.55 5.28zm87.92-13.52c-0.22 0.41-0.51 1.05-0.89 1.91-0.53 0.68-1.05 1.35-1.56 2.02-0.67 0.78-1.37 1.21-2.09 1.29-0.97-0.31-2.3-0.64-4.02-1-1.31-0.08-2.74 0.81-4.28 2.66-0.87 1.26-2.34 3.04-4.42 5.34-1.56 1-3.67 1.5-6.35 1.5-1.12 0-2.57-0.08-4.34-0.26l-4.81 1.56c-3.55 1.2-7.18 1.8-10.89 1.8-1.95 0-3.9-0.17-5.85-0.5-1.04 0.68-2.54 1.7-4.48 3.04-1.65 1.12-3.06 1.96-4.22 2.53-3.41 1.6-5.92 2.72-7.55 3.35-2.54 0.96-6.37 2.15-11.48 3.59-6.58 1.81-14.29 2.65-23.14 2.52-9.53-0.18-18.48-1.6-26.86-4.28-0.83 1.49-1.91 3.91-3.25 7.28-1.18 2.85-2.13 4.86-2.86 6.03-0.4 0.47-1.76 1.01-4.08 1.64-1.73 0.24-4.34 0.59-7.81 1.03-0.2 0-0.48-0.14-0.83-0.41-0.18-0.33-0.07-0.71 0.33-1.15 2.5-1.35 6.13-3.52 10.89-6.49 2.77-1.9 5.47-6.79 8.11-14.67 0.22-0.72 0.48-1.05 0.79-0.97 1.38 0.38 3.71 1.03 7 1.94 3.54 0.86 6.65 1.42 9.33 1.69 7.89 0.82 14.68 1.1 20.39 0.83 2.72-0.2 6.44-0.65 11.16-1.36 2.46-0.38 6.16-1.22 11.09-2.53 3.39-0.86 8.26-2.78 14.61-5.77-1.35-1.55-2.03-3.44-2.03-5.66 0-1.45 0.33-2.95 0.99-4.48 0.65-1.54 1.52-2.72 2.61-3.55 0.94-1.16 2.14-1.75 3.61-1.75 0.53 0 1.07 0.09 1.62 0.27 1.27 0.59 2.13 1.57 2.59 2.92 0.1 0.5 0.14 1 0.14 1.48 0 2.22-1.23 5.23-3.68 9.04 1.85-0.09 3.25-0.22 4.22-0.4 1.77-0.35 3-0.96 3.68-1.82 0.77-1.09 1.34-2.06 1.69-2.92 0.82-2.73 1.15-6.63 0.97-11.69-0.25-7.22-0.38-10.96-0.38-11.22 0.29-1.16 0.77-2.61 1.44-4.36 0.81-1.95 1.35-3.35 1.6-4.22 0.03-0.24 0.25-0.55 0.65-0.95 0.4-0.05 0.74 0.24 1.03 0.89-0.59 5.33-0.8 11.68-0.62 19.03 0.04 1.46-0.23 3.84-0.8 7.14 3.63-2.91 6.61-4.25 8.95-4.03 1.65 0.33 2.71 1.15 3.19 2.47 0.29 0.63 0.44 1.24 0.44 1.83 0 1.28-0.8 2.93-2.39 4.96-0.36 0.5-1.4 1.95-3.13 4.36 5.29-1.08 9.06-3.21 11.3-6.4 0.53-0.82 1.37-2.07 2.52-3.72 0.95-1.38 2.08-2.54 3.39-3.5 0.53-2.43 1.32-4.22 2.39-5.38 0.35-0.17 0.69-0.05 1 0.38 0.08 0.18 0.27 0.4 0.56 0.65 0.49 0.83 2.07 2.53 4.75 5.11 0.18 0.45 0.2 0.91 0.06 1.36zm-27.12 2.6c-2.68 0.45-5.39 2.55-8.11 6.31 0 0-2.22 3.12-2.22 3.12l5.28-1.35c4.09-1.18 6.47-3.02 7.14-5.52 0.16-1.66-0.54-2.52-2.09-2.56zm-20.96 0.79c-1.43-0.21-2.71 0.52-3.81 2.19-0.13 0.45-0.2 0.93-0.2 1.44 0 1.95 0.83 3.37 2.51 4.28 1.42-1.08 2.51-2.24 3.27-3.48 0.14-0.49 0.22-0.99 0.22-1.5 0-1.77-0.67-2.75-1.99-2.93zm65.27 18.66v0.74l-1.13 0.56c-1.02 0.53-2.09 1.31-3.21 2.33-1.28 1.15-2.1 2.25-2.47 3.28-0.22 0.62-0.12 1.04 0.29 1.23 1.67-0.06 2.79 0.47 3.36 1.6 0.57 1.15 0.5 2.29-0.23 3.42-0.87 1.32-2.18 1.75-3.95 1.29-1.95-0.5-2.93-2.12-2.93-4.84 0-2.33 0.99-4.56 2.96-6.69 1.47-1.52 3.29-2.64 5.48-3.37 0.33-0.12 0.66-0.16 0.97-0.14 0.51 0.04 0.8 0.24 0.86 0.59zm38.48-33.89c-0.49 3.01-0.57 9.09-0.26 18.22 0.12 3.54 0.19 6.24 0.19 8.11 0 6.49-0.64 11.96-1.89 16.4-1.6 5.67-4.17 10.45-7.71 14.35-3.76 4.15-7.81 6.23-12.14 6.23-1.47 0-2.9-0.27-4.3-0.83-4.88-1.83-7.21-6.43-7-13.78 0.18-5.31 1.43-10.75 3.76-16.33 0.31-0.48 0.62-0.62 0.93-0.4 0.08 0.18 0.08 0.66 0 1.44-1.31 4.29-1.97 7.87-1.97 10.75 0 1.75 0.23 3.4 0.68 4.95 0.86 2.9 2.72 4.69 5.57 5.37 1.04 0.22 2.11 0.33 3.19 0.33 3.27 0 6.66-1.04 10.16-3.12 4.84-3.98 7.4-8.13 7.67-12.44 0.08-1.55 0.12-3.2 0.12-4.95 0-2.46-0.11-5.85-0.32-10.16-0.27-4.68-0.42-8.01-0.47-10-0.05-3.76-0.06-5.62-0.06-5.58 0.09-2.16 0.59-3.92 1.5-5.28 0.61-1.85 1.26-3.19 1.95-4.01 0.17 0 0.31 0.24 0.4 0.73zm111.94 33.67c-2.15 2.63-3.33 4.1-3.55 4.41-1.26 1.81-1.96 3.54-2.09 5.19 0.04 0.21 0.09 0.46 0.16 0.71s0.24 0.4 0.5 0.44c0.56 0.04 1.13-0.34 1.7-1.15 0.46-0.73 0.91-0.97 1.36-0.71 0.29 0.51 0.44 1.07 0.44 1.66 0 1.18-0.46 2.32-1.38 3.42-0.9 1.11-1.92 1.66-3.04 1.66-0.34 0-0.64-0.04-0.89-0.13-1.22-0.59-1.83-1.76-1.83-3.51 0-2.15 0.91-4.55 2.73-7.22 1.82-2.68 3.56-4.64 5.2-5.88 0.22-0.12 0.54 0.05 0.96 0.5 0 0-0.27 0.61-0.27 0.61zm5.45-6.31c-1.37 1.57-2.47 2.29-3.29 2.16-0.66 0-1.42-0.61-2.28-1.83-0.3-0.35-0.6-0.68-0.91-0.97-1.12 0.14-2.44 1.15-3.95 3.06-0.73 0.91-1.42 1.48-2.08 1.72-0.65 0.45-1.38 0.67-2.2 0.67-0.87 0-1.69-0.19-2.46-0.59-1.53 2.3-3.11 3.34-4.75 3.11-0.53-0.08-1.02-0.24-1.48-0.46-1.51 1.35-2.45 2.11-2.8 2.29-1.12 0.73-2.28 0.86-3.45 0.4-2.5 3.68-4.93 5.62-7.3 5.81-1.57 0.09-2.75-0.78-3.53-2.59-1.46 2.81-3.06 4.22-4.81 4.22-1.68 0-3.25-0.6-4.72-1.8-4.34 2.86-8.88 5.15-13.64 6.88-1.86 0.69-5.33 1.78-10.42 3.28-3.44 0.84-8.16 1.43-14.14 1.76-5.35 0.32-10.18-0.18-14.49-1.5-1.63-0.45-3.22-1.31-4.75-2.57-1.95-1.55-3.04-4.15-3.28-7.78-0.27-4.34-0.36-7.28-0.27-8.83 0.04-0.91 0.07-5.21 0.07-12.93 0.55-1.38 1.26-3.48 2.12-6.29 0.14-0.2 0.33-0.38 0.6-0.56 0.13 0 0.43 0.14 0.9 0.42-0.18 3.34-0.36 6.7-0.56 10.06-0.23 4.03-0.3 7.28-0.2 9.73-0.05 1.09 0 2.73 0.12 4.94 0.65 2.13 1.68 3.62 3.1 4.49 3.34 2.08 8.89 3.16 16.64 3.25 1.85 0.07 4.27 0.13 7.26 0.17 1.68 0.04 3.74-0.15 6.21-0.56 4.42-0.73 6.76-1.12 7.01-1.16 2.13-0.41 4.52-1.04 7.2-1.91 4.67-1.5 8.34-3.1 11.02-4.81 1.82 0.91 3.41 1.36 4.75 1.36 0.69 0 1.21-0.16 1.56-0.48 1.26-1.14 1.95-2.59 2.06-4.36 0.95-3.76 2.01-6.53 3.19-8.3l0.21-0.2c0.17-0.14 0.35-0.18 0.53-0.13l0.12 0.27c0.04 0.12 0.02 0.49-0.06 1.09-0.04 0.56 0 1.01 0.12 1.36-0.21 2.34 0.54 4.03 2.27 5.05 1.12 0.49 1.85 0.73 2.19 0.73 0.27 0 0.51-0.05 0.73-0.14 1.08-0.31 2.4-1.46 3.95-3.45 0.26-0.07 0.5 0.07 0.72 0.4 0 0.53-0.09 1.01-0.26 1.43 0.78 0.31 1.36 0.33 1.76 0.06 1.16-0.69 2.3-1.92 3.43-3.69 0.21-0.3 0.48-0.39 0.79-0.27 0.38 0.47 0.35 0.95-0.06 1.44 0.73 0.42 1.46 0.44 2.19 0.06 1.17-1 1.95-2.1 2.32-3.31 0.31-0.38 0.63-0.47 0.99-0.26l0.08 0.26c0.19 0.58 0.44 0.89 0.75 0.94s0.63 0.08 0.97 0.08c1.25 0 2.54-0.73 3.86-2.19 0.59-0.73 1.21-1.46 1.85-2.2 0.66-0.74 1.31-1.28 1.96-1.61 0.94-0.49 1.83-0.49 2.65 0 0.04 0.04 0.18 0.42 0.39 1.12 0.23 0.71 0.69 0.94 1.38 0.67 0.12-0.15 0.55-0.68 1.3-1.59 0.3-0.44 0.7-0.58 1.22-0.41 0.35 0.47 0.53 1.06 0.53 1.77 0 0.95-0.31 2.02-0.93 3.22zm-37.74 32.97c-1.65-0.78-3.49-2.07-5.52-3.89 0 0-3.39 3.95-3.39 3.95-2.81-0.69-4.82-2.16-6.02-4.41 2.77-3.36 4.3-5.18 4.6-5.45 1.57 1.36 3.35 2.72 5.34 4.08 0 0 4.08-4.28 4.08-4.28 2.63 2.18 4.6 3.74 5.91 4.69-2.31 2.41-3.97 4.18-5 5.31zm-3.9 9.86c-2.81-0.69-4.78-2.14-5.9-4.35 2.76-3.28 4.3-5.03 4.61-5.25 1.81 1.6 3.76 3.09 5.84 4.49l-4.55 5.11zm-35.62-37.75c-1.64-0.77-3.48-2.06-5.52-3.86l-3.39 3.92c-2.81-0.66-4.8-2.13-5.97-4.41 2.74-3.34 4.26-5.16 4.55-5.45 1.57 1.38 3.36 2.73 5.38 4.08 0 0 4.04-4.28 4.04-4.28 2.64 2.2 4.62 3.77 5.96 4.72-2.33 2.39-4.01 4.15-5.05 5.28zm87.75 21.08c-0.81 0.18-2.15 0.43-4.02 0.76-0.39 0-0.64-0.14-0.73-0.42-0.04-0.41 0.27-0.79 0.94-1.14 1.72-1.1 3.45-2.2 5.17-3.28 2.04-1.3 3.69-2.52 4.95-3.66 1.33-1.5 2.58-3.7 3.75-6.61 0.87-2.46 1.73-4.9 2.6-7.33 0.13-0.37 0.43-0.56 0.89-0.56 0.4 0 0.61 0.19 0.61 0.56 0.08 0.87-0.29 2.84-1.11 5.91-1.39 5.36-3.06 9.68-5 12.98-0.75 1.22-1.95 1.97-3.63 2.25-1.48 0.18-2.95 0.36-4.42 0.54zm128.78-25.43c-1.52 2.77-3.6 5.05-6.23 6.86-2.91 1.95-5.83 2.86-8.77 2.74-2.55-0.1-4.84-0.68-6.87-1.77-2.47 2.17-4.28 3.67-5.46 4.49-1.44 1.04-3.51 2.26-6.23 3.65-6.1 3.23-12.72 5.73-19.86 7.5-7.48 1.86-14.83 2.78-22.05 2.78-2.34 0-4.45-0.14-6.31-0.42-4.81-0.62-8.41-1.91-10.81-3.86-1.69-1.41-2.73-3.77-3.13-7.06-0.43 1.22-1.05 2.89-1.86 5.02-0.67 1.54-1.52 2.49-2.56 2.84-2.46 0.69-6.09 1.81-10.89 3.36-0.4 0-0.7-0.12-0.89-0.36-0.14-0.53 0.05-0.99 0.56-1.38 1.57-1.03 3.16-2.04 4.75-3.04 1.91-1.26 3.4-2.46 4.49-3.6 3.18-2.71 5.36-6.43 6.53-11.15 0.53-2.27 1.16-4.36 1.89-6.27 0.38-0.39 0.77-0.53 1.17-0.4 0.51 0.43 0.69 0.84 0.53 1.23-0.31 1.64-0.62 3.24-0.94 4.81-0.37 2.24-0.4 3.84-0.06 4.78 0.63 2.13 1.62 3.62 2.99 4.49 3.34 2.08 8.89 3.15 16.67 3.19 7.32 0.08 13.7-0.33 19.15-1.24 4.54-0.71 8.24-1.52 11.1-2.45 2.85-0.93 6.66-2.42 11.42-4.49 1.63-0.84 3.26-1.69 4.87-2.54 1.95-1.04 3.41-2.1 4.39-3.16 0.71-1 1.95-2.56 3.72-4.69 1.17 0.87 2.25 1.32 3.25 1.36 0.82-0.49 2.83-2.39 6.02-5.7 2.34-2.5 4.63-3.86 6.87-4.09 1.7 0.18 2.91 0.74 3.64 1.7 0.36 0.59 0.54 1.28 0.54 2.05 0 1.27-0.55 2.88-1.63 4.82zm-3.92-4.62c-0.91 0-1.95 0.37-3.14 1.09-0.23 0.18-1.6 1.49-4.1 3.92-0.43 0.42-1 0.89-1.68 1.43 0.68 0.07 1.34 0.11 1.98 0.11 3.35 0 6.08-0.85 8.2-2.54 0.96-0.81 1.35-1.71 1.18-2.71-0.36-0.87-1.17-1.3-2.44-1.3zm53.98 25.03c-2.8-0.68-4.77-2.13-5.9-4.34 2.77-3.27 4.31-5.02 4.62-5.25 1.81 1.57 3.77 3.07 5.88 4.48l-4.6 5.11zm-1.18-22.77c-0.78 0.72-1.89 0.95-3.36 0.72-0.27-0.04-0.53-0.11-0.79-0.22-0.24-0.11-0.68-0.33-1.31-0.67 0 1.07-0.02 2.64-0.06 4.72-0.69 9.83-3.95 18.45-9.8 25.89-3.93 4.94-8.63 7.41-14.07 7.41-0.64 0-1.28-0.04-1.93-0.13-2.03-0.22-3.83-1.21-5.4-2.98-1.56-1.65-2.57-3.53-3.03-5.66-0.36-1.63-0.54-3.33-0.54-5.11 0-4.34 1.37-10.03 4.1-17.06l0.12-0.27c0.22-0.35 0.46-0.57 0.71-0.67 0.48-0.17 0.73-0.02 0.73 0.47-0.05 0.26-0.46 1.97-1.23 5.11-0.87 3.48-1.3 6.17-1.3 8.08 0 2.8 0.75 5.09 2.27 6.86 1.63 1.91 4.07 2.86 7.32 2.86 2.26 0 4.46-0.45 6.61-1.36 3.17-1.35 5.89-3.52 8.16-6.5 2.27-2.99 3.6-6.19 4-9.61 0.33-2.5 0.47-5.46 0.42-8.89l-0.12-14.22c-0.07-3.13-0.07-4.86 0-5.17 0.03-1.99 0.25-3.65 0.65-4.99 0.6-1.43 1.65-3.47 3.13-6.11 0.47-0.08 0.72 0.06 0.76 0.41-0.82 4.76-1.23 9.52-1.23 14.27 0.13 1.24 0.65 2.36 1.56 3.36s1.95 1.6 3.13 1.82c1.41 0.22 2.68-0.62 3.81-2.53 0.22-0.47 0.46-0.97 0.69-1.5 0.22-0.52 0.56-0.85 1.01-0.98 0.31 0.49 0.44 1.08 0.39 1.76-0.08 0.58-0.17 1.16-0.26 1.75-1 2.86-1.61 4.54-1.83 5.05-0.81 1.71-1.92 3.07-3.31 4.09zm34.46 1.43c-1.64-0.77-3.48-2.07-5.51-3.89 0 0-3.39 3.95-3.39 3.95-2.81-0.69-4.81-2.17-6-4.44 2.76-3.34 4.28-5.15 4.58-5.42 1.57 1.35 3.35 2.7 5.34 4.05 0 0 4.08-4.28 4.08-4.28 2.63 2.19 4.61 3.77 5.92 4.71-2.3 2.4-3.98 4.17-5.02 5.32zm18.1-15.5c-0.04 3.6-0.09 7.24-0.14 10.92-0.16 4.27-0.75 7.83-1.78 10.69-0.79 1.04-1.92 2.62-3.39 4.75-0.1 0.33-0.1 0.65 0 0.96 0.21 0.22 1.17 1.06 2.86 2.52 0.21 0.45 0.21 0.9 0 1.36-1.18 2.4-2.46 4.18-3.83 5.34-0.44 0.25-0.96 0.19-1.57-0.18-0.9-0.63-2.33-1.44-4.28-2.44-0.35-0.1-0.66-0.05-0.92 0.15-0.25 0.22-0.48 0.43-0.7 0.64-2.6 3.05-5.41 4.57-8.44 4.57-0.87 0-1.73-0.14-2.58-0.41l-0.87-0.39c-2.96 2.63-6.09 4.23-9.39 4.81-2.33 0-3.99-1.04-4.99-3.12-1.22-2.42-1.83-6.12-1.83-11.1v-11.75c0-0.27-0.02-1.31-0.06-3.12-0.04-1.32-0.04-2.4 0-3.22 0.1-1.12 0.33-2.14 0.7-3.05 0.4-1.09 0.96-2.74 1.69-4.95 0.04-0.04 0.09-0.11 0.14-0.2l0.13-0.16c0.27 0 0.59 0.12 0.97 0.36-0.91 7.11-1.12 14.74-0.64 22.91 0.05 1.04 0.23 2.58 0.56 4.62 0.44 1.81 1.32 3.13 2.62 3.94 0.96 0.41 2.1 0.61 3.43 0.61 1.13 0 2.24-0.16 3.32-0.47l-0.34-1.23c-0.04-0.22-0.11-0.44-0.19-0.66-0.18-2.24 0.19-4.38 1.1-6.44 0.9-2.06 2.25-3.65 4.04-4.78 0.51-0.29 1.11-0.44 1.8-0.44 0.95 0 1.81 0.24 2.59 0.71 1.17 0.99 1.75 2.37 1.75 4.14 0 2.3-1.23 5.22-3.68 8.76 0.47 0.14 0.88 0.21 1.23 0.21 2.63-0.14 5.06-1.25 7.27-3.33 0.55-0.55 2.34-2.66 5.39-6.33l2.25-1.83c1.39-1.86 2.09-4.07 2.09-6.61v-11.29c0-1.4 0.36-3.02 1.09-4.88 0.69-1.55 1.34-3.11 1.96-4.69 0.05-0.28 0.22-0.42 0.5-0.42 0.31 0 0.51 0.14 0.61 0.42-0.14 0.87-0.3 2.23-0.47 4.1zm-22.78 25.56c-0.3-0.04-0.57-0.06-0.83-0.06-1.13 0-2.28 0.67-3.45 2.01-0.25 0.51-0.36 1.06-0.36 1.63 0 1.41 0.64 2.89 1.92 4.42 1.34-0.26 2.56-1.15 3.65-2.66 0.6-0.7 0.9-1.56 0.9-2.56 0-0.55-0.17-1.1-0.49-1.64s-0.77-0.92-1.34-1.14zm35.72 31.41c-2.72-0.64-4.65-2.07-5.79-4.29 2.68-3.14 4.18-4.87 4.49-5.17 1.81 1.6 3.74 3.06 5.78 4.41 0 0-4.48 5.05-4.48 5.05zm-5.99-34.9 0.34-11.89c0.04-1.04 0.36-2.31 0.96-3.81 0.86-2.17 1.34-3.4 1.44-3.69 0.08-0.09 0.19-0.11 0.32-0.06 0.18 0.04 0.38 0.14 0.6 0.3-0.91 6.93-1.17 14.45-0.8 22.58 0.22 5.37 1.63 8.34 4.22 8.89 0.27 0.09 0.53 0.14 0.8 0.14 1 0 2.07-0.78 3.22-2.33 0.17-0.45 0.42-1.15 0.73-2.09 0 0 0.19-0.21 0.59-0.63 0.25 0.04 0.44 0.36 0.57 0.95 0.09 1.91-0.59 4.57-2.05 7.97-1.22 2.13-2.58 3.53-4.06 4.22-0.42 0.14-0.86 0.2-1.3 0.2-1.03 0-1.95-0.28-2.75-0.87-0.79-0.59-1.51-1.84-2.16-3.74-0.35-1.15-0.57-4.37-0.67-9.67-0.04-1.12-0.04-3.28 0-6.47zm-365.8 97.57v-0.47c1.54-2.17 3.79-5.13 6.74-8.91h0.33c2.37 2.53 5.35 4.81 8.93 6.85 0.09 0.07 0.13 0.21 0.13 0.43 0 0-6.53 8.77-6.53 8.77-0.14 0.14-0.57 0.09-1.3-0.14-2.22-1.04-4.98-3.22-8.3-6.53zm40.74 12.04 0.34 2.3s-0.18 0.19-0.53 0.56c-0.47 0-0.95-0.45-1.44-1.36-2.28-5.4-3.27-11.07-2.98-17-1.16 0.18-2.06 0.18-2.72 0-2.73-0.78-5.34-3.86-7.84-9.26-0.82-1.73-1.16-3.27-1.03-4.63 0.11-0.47 0.39-0.56 0.82-0.26 0.51 0.96 1.4 2.34 2.66 4.15 1.09 1.78 2.93 2.66 5.52 2.66 2.08-0.33 4.03-2.23 5.84-5.7 0.04-0.39 0.26-0.85 0.67-1.38 0.28 0.06 0.51 0.23 0.69 0.52 0.17 0.28 0.32 0.58 0.44 0.9 0.11 0.33 0.46 1.03 1.06 2.11 0.44 0.91 0.66 1.66 0.66 2.25 0 0.45-0.11 0.89-0.33 1.3-1.31 5.43-1.96 11.32-1.96 17.67 0 1.72 0.04 3.45 0.13 5.17zm26 0 0.34 2.3s-0.18 0.19-0.53 0.56c-0.47 0-0.95-0.45-1.44-1.36-2.28-5.4-3.27-11.07-2.98-17-1.16 0.18-2.06 0.18-2.72 0-2.73-0.78-5.34-3.86-7.84-9.26-0.82-1.73-1.16-3.27-1.03-4.63 0.11-0.47 0.39-0.56 0.82-0.26 0.51 0.96 1.4 2.34 2.66 4.15 1.09 1.78 2.93 2.66 5.52 2.66 2.08-0.33 4.03-2.23 5.84-5.7 0.04-0.39 0.26-0.85 0.67-1.38 0.28 0.06 0.51 0.23 0.69 0.52 0.17 0.28 0.32 0.58 0.44 0.9 0.11 0.33 0.46 1.03 1.06 2.11 0.44 0.91 0.66 1.66 0.66 2.25 0 0.45-0.11 0.89-0.33 1.3-1.31 5.43-1.96 11.32-1.96 17.67 0 1.72 0.04 3.45 0.13 5.17zm9.73-14.07h22.11l-1.83 4.21h-22.31s2.03-4.21 2.03-4.21zm33.14-14.08c1.73 2.59 3.88 3.91 6.44 3.95 1.69 0 3.67-1.49 5.95-4.48 0-0.29 0.27-0.62 0.8-0.97 0.31-0.08 0.57-0.04 0.77 0.14-0.51 2.85-1.83 5.78-3.96 8.76-1.99 2.78-4.02 4.16-6.11 4.16-0.29 0-0.58-0.01-0.87-0.03-0.28-0.03-0.59-0.11-0.92-0.24-0.44-0.17-0.75-0.28-0.92-0.34-0.12 2.31-0.22 4.62-0.32 6.94-0.08 2.62-0.3 4.83-0.65 6.64-0.65 1.33-1.62 3.31-2.92 5.92-0.28 0.28-0.49 0.4-0.63 0.36-0.14-0.37-0.16-0.87-0.08-1.5 0.1-0.99 0.14-1.56 0.14-1.72 0-0.71-0.04-1.97-0.14-3.78-0.08-1.64-0.1-2.94-0.06-3.89-0.22-3.5-0.74-8.24-1.56-14.2 0.33-0.78 0.78-1.87 1.36-3.27 0.47-0.91 1.17-2.24 2.12-4.01 0.18-0.09 0.33-0.13 0.47-0.13 0.22 0 0.41 0.22 0.59 0.66 0.25 0.6 0.42 0.95 0.5 1.03zm23.39 16.11v-0.47c1.54-2.17 3.79-5.13 6.74-8.91h0.33c2.37 2.53 5.35 4.81 8.93 6.85 0.09 0.07 0.13 0.21 0.13 0.43 0 0-6.53 8.77-6.53 8.77-0.14 0.14-0.57 0.09-1.3-0.14-2.22-1.04-4.98-3.22-8.3-6.53zm27 0v-0.47c1.54-2.17 3.79-5.13 6.74-8.91h0.33c2.37 2.53 5.35 4.81 8.93 6.85 0.09 0.07 0.13 0.21 0.13 0.43 0 0-6.53 8.77-6.53 8.77-0.14 0.14-0.57 0.09-1.3-0.14-2.22-1.04-4.98-3.22-8.3-6.53zm41-10.93h0.14c2.41-4 5.18-6.89 8.3-8.67 0.4 0 0.69 0.08 0.89 0.24-0.59 1.65-1.39 3.43-2.39 5.34-4.62 3.27-8.21 7.74-10.75 13.41-0.35 0.27-0.67 0.32-0.94 0.14-0.18-0.22-0.24-0.54-0.18-0.97 0.12-0.61 0.18-0.92 0.18-0.92 0.41-1.46 0.61-2.65 0.61-3.57 0-1.47-0.53-2.63-1.59-3.46-1.06-0.85-2.25-1.27-3.56-1.27-0.56 0-1.09 0.09-1.6 0.27-1.39 0.43-2.18 1.25-2.36 2.45-0.04 0.87-0.01 2.12 0.08 3.78 0.13 1.99 0.19 3.35 0.19 4.08v8.11c-0.04 0.22-0.62 2.32-1.75 6.31-0.09 0.04-0.2 0.15-0.3 0.31-0.09 0.17-0.21 0.21-0.34 0.11-0.18-0.63-0.38-2.63-0.59-6-0.05-0.66-0.23-2.36-0.57-5.08-0.22-2.12-0.33-3.85-0.33-5.18 0-3.03 0.57-5.68 1.69-7.94 1.42-2.76 2.19-4.27 2.33-4.52 1.04-1.61 2.31-2.67 3.81-3.18 0.87-0.4 1.78-0.6 2.74-0.6 1.52 0 2.78 0.46 3.78 1.36 1.59 1.44 2.43 3.26 2.51 5.45zm17 10.93v-0.47c1.54-2.17 3.79-5.13 6.74-8.91h0.33c2.37 2.53 5.35 4.81 8.93 6.85 0.09 0.07 0.13 0.21 0.13 0.43 0 0-6.53 8.77-6.53 8.77-0.14 0.14-0.57 0.09-1.3-0.14-2.22-1.04-4.98-3.22-8.3-6.53zm29.46 1.09s7.06-7.81 7.06-7.81c2.04-2.15 5.03-5.45 8.97-9.92 0.13 0 0.26 0.04 0.37 0.14l-1.11 4.81c-0.55 0.69-2.79 3.25-6.73 7.67 0 0-7.08 7.97-7.08 7.97-1.03 1.12-1.8 2.07-2.31 2.84l0.12 0.08c7.54 0 14.59-0.32 21.16-0.97l2.13-0.2c0.21 0.14 0.25 0.59 0.12 1.36-0.73 2.09-1.36 3.94-1.89 5.58-0.28 0.47-0.58 0.65-0.89 0.56-7.57 0.8-15.24 1.18-22.98 1.14-1.25 0-2.43-0.4-3.55-1.2-0.04-0.2-0.06-0.41-0.06-0.63 0-1.22 0.75-3.03 2.25-5.45 1.31-2.16 2.78-4.16 4.42-5.97zm30.54-1.09v-0.47c1.54-2.17 3.79-5.13 6.74-8.91h0.33c2.37 2.53 5.35 4.81 8.93 6.85 0.09 0.07 0.13 0.21 0.13 0.43 0 0-6.53 8.77-6.53 8.77-0.14 0.14-0.57 0.09-1.3-0.14-2.22-1.04-4.98-3.22-8.3-6.53zm29.55-4.36c-1.12 0-2.1-0.39-2.92-1.17-0.81-0.79-1.22-1.76-1.22-2.91 0-1.13 0.41-2.1 1.22-2.92 0.82-0.82 1.8-1.24 2.92-1.24 1.16 0 2.13 0.42 2.91 1.24 0.79 0.82 1.18 1.79 1.18 2.92 0 1.15-0.39 2.12-1.18 2.91-0.78 0.78-1.75 1.17-2.91 1.17zm0 19.33c-1.17 0-2.15-0.4-2.95-1.19-0.79-0.8-1.19-1.79-1.19-2.97 0-1.13 0.41-2.08 1.22-2.88 0.82-0.8 1.8-1.2 2.92-1.2 1.16 0 2.13 0.4 2.91 1.2 0.79 0.8 1.18 1.75 1.18 2.88 0 1.14-0.39 2.12-1.18 2.94-0.78 0.81-1.75 1.22-2.91 1.22zm14.85-20.25 0.18 0.2c-0.55 2.03-1.27 5.13-2.15 9.3-0.29 1.54-0.43 2.99-0.43 4.34 0 4.67 1.54 7.84 4.61 9.53 1.93 1.04 4.04 1.56 6.35 1.56 3.54 0 6.95-1.06 10.25-3.18 3.5-2.22 5.77-4.97 6.81-8.24 0.18-1.17 0.27-2.56 0.27-4.16 0-0.53-0.07-2.45-0.21-5.78-0.08-2.34-0.06-4.24 0.08-5.7 0.63-2.46 1.49-4.94 2.58-7.47 0.31-0.33 0.61-0.36 0.9-0.08 0.09 0.83 0.03 3.02-0.17 6.58-0.04 2.68-0.08 5.36-0.12 8.03-0.14 3.17-0.49 5.73-1.06 7.68-1.65 5.23-4.13 9.77-7.44 13.62-2.73 2.58-5.72 4.44-8.97 5.58-1.87 0.63-3.77 0.95-5.72 0.95-2.17 0-4.05-0.41-5.64-1.22-3.54-2.32-5.31-6.54-5.31-12.65 0-3.46 0.56-7.29 1.69-11.49 0-0.33 0.1-0.75 0.31-1.25 0.22-0.5 0.33-0.86 0.33-1.08 0.35-1.12 1.02-2.75 2.01-4.87 0.33-0.47 0.61-0.54 0.85-0.2zm6.67 7.26s4.81-5.37 4.81-5.37l0.33 0.2c1.37 1.59 3.03 3.15 4.98 4.67-1 1.16-2.59 2.8-4.78 4.92-0.8-0.13-1.62-0.57-2.47-1.33-0.83-0.74-1.62-1.49-2.34-2.23 0 0-0.53-0.86-0.53-0.86zm44.84-29.25c-2.81-0.64-4.87-2.05-6.17-4.22 2.77-3.2 4.3-4.93 4.61-5.17 1.82 1.59 3.77 3.1 5.84 4.52l-4.28 4.87zm4.09 22.31c-2.3 4.9-4.82 8.52-7.54 10.86-0.22 0.91-0.63 2.27-1.22 4.08-0.87 2.24-1.82 4.29-2.86 6.14-0.65 0.63-1.64 1.06-2.98 1.3-1.95 0.35-3.04 0.58-3.27 0.67-0.99 0.31-2.54 0.7-4.64 1.16-0.09-0.09-0.25-0.21-0.47-0.39 0 0-0.02-0.03-0.06-0.08-0.05-0.32 0.04-0.6 0.28-0.81 0.25-0.23 0.52-0.47 0.81-0.71 2.03-1.17 5.11-3 9.24-5.48 0.5-0.47 1-0.94 1.46-1.41 0.48-0.47 0.68-1.06 0.58-1.75-0.04-0.39-0.32-0.97-0.83-1.75-2.12 0.22-3.71-0.21-4.75-1.3-0.81-0.82-1-1.92-0.56-3.32 0.38-0.87 0.88-2.1 1.5-3.69 0.47-1.48 0.74-2.29 0.83-2.42 0.35-0.87 0.94-1.46 1.77-1.8 0.55-0.22 1.19-0.24 1.92-0.06 1.9 1.08 2.97 2.92 3.19 5.51l0.26-0.26h-0.14l0.2 0.47c3.76-3.09 5.69-5.99 5.78-8.71-0.04-0.09-0.06-0.21-0.06-0.36s-0.12-0.32-0.34-0.5c-0.78 0.13-1.48 0.19-2.13 0.19-1.48 0-2.58-0.42-3.31-1.28-0.4-0.56-0.59-1.21-0.59-1.94 0-0.61 0.15-1.4 0.45-2.36 0.41-1.12 0.63-1.89 0.67-2.31 0.42-2.73 1.3-4.33 2.66-4.81 0.9-0.21 1.9 0.1 2.98 0.92 1.1 1.24 1.81 2.4 2.13 3.49 0.49 1.57 0.73 3.26 0.73 5.07 0 2.82-0.56 5.36-1.69 7.64zm-433.21 72.8h0.26c0.77-0.96 1.9-2.31 3.38-4.06h0.26c1.95 1.57 3.68 2.84 5.19 3.79 0.22 0.09 0.26 0.43 0.12 1.04 0 0-3.57 4.54-3.57 4.54-0.25 0.46-0.71 0.59-1.36 0.39-1.95-0.84-3.64-2.12-5.05-3.84-0.69 0.87-1.78 2.15-3.27 3.84-0.28 0.2-0.57 0.3-0.89 0.3-0.39 0-0.84-0.16-1.34-0.47-0.5-0.32-0.98-0.65-1.44-1-0.45-0.34-0.93-0.72-1.45-1.12-0.52-0.42-0.9-0.87-1.14-1.36l0.12-0.39s4.1-5.52 4.1-5.52 0.29 0.07 0.89 0.2c1.12 0.91 2.85 2.13 5.19 3.66zm10.04 22.88c0 4.11-0.95 8.91-2.84 14.4-1.95 5.63-4.65 9.98-8.11 13.05-4.27 3.81-8.4 5.72-12.38 5.72-1.18 0-2.35-0.16-3.53-0.47-1.99-0.56-3.69-1.78-5.11-3.69-1.3-1.77-2.14-3.7-2.51-5.78-0.28-1.46-0.41-2.99-0.41-4.61 0-3.94 0.96-9.01 2.86-15.23 0.13-0.47 0.52-1.02 1.16-1.64 0.17 0 0.35 0.13 0.53 0.4-0.4 1.99-0.81 3.98-1.22 5.97-0.49 2.34-0.73 4.39-0.73 6.16 0 4.07 1.25 7.01 3.75 8.83 1.57 1.17 3.53 1.76 5.9 1.76 2.95 0 5.83-0.8 8.64-2.41 4.8-2.69 8.29-7.08 10.46-13.17 0.77-2.12 1.15-3.98 1.15-5.58 0-0.53-0.04-1.05-0.12-1.56-0.14-0.82-0.48-1.32-1.03-1.5-0.87 0.31-1.71 0.47-2.52 0.47-0.96 0-1.75-0.22-2.36-0.66-0.82-0.73-1.23-1.62-1.23-2.65 0-0.6 0.18-1.54 0.54-2.8 0.37-1.26 0.53-2.21 0.49-2.86 0.35-2.63 1.33-3.95 2.92-3.95 0.91 0 1.86 0.57 2.86 1.7 1.89 2.19 2.84 5.56 2.84 10.1zm49.74-9.68c-2.28-0.72-4.31-2.21-6.08-4.47 2.77-3.23 4.32-4.96 4.65-5.18 1.79 1.59 3.74 3.09 5.85 4.48 0 0-4.42 5.17-4.42 5.17zm5.01 10.47c-1.63-0.78-3.47-2.08-5.51-3.89 0 0-3.39 3.95-3.39 3.95-2.81-0.68-4.8-2.16-5.97-4.42 2.77-3.36 4.28-5.17 4.54-5.43 0.82 0.77 1.69 1.54 2.6 2.32 0.9 0.78 1.83 1.36 2.78 1.75 0 0 4.06-4.22 4.06-4.22 2.63 2.13 4.6 3.67 5.94 4.63-2.32 2.46-4.01 4.23-5.05 5.31zm47.94-1.62c-0.5 0.55-0.98 1.07-1.42 1.56-0.65 0.59-1.26 0.96-1.83 1.09-0.46-0.05-1.3-0.35-2.52-0.9-1.04-0.4-1.9-0.6-2.59-0.6-0.59 0-1.14 0.11-1.62 0.33-0.91 0.65-3.29 2.38-7.14 5.19-5.81 4.34-12.29 7.75-19.46 10.25-7.53 2.64-16.51 4.04-26.94 4.22-7.56 0.13-13.66-0.72-18.29-2.58-2.35 4.71-5.01 7.06-8 7.06-0.42 0-0.85-0.04-1.3-0.12-1.95 0-3.59-0.98-4.91-2.92-0.86-1.69-1.36-3.91-1.5-6.68v-7.34c0.1-3.16 0.18-8.04 0.27-14.61 0.51-1.55 1.24-3.8 2.2-6.73 0.09-0.23 0.28-0.35 0.6-0.35 0.33 0 0.54 0.12 0.62 0.35-0.04 1.26-0.23 4.07-0.56 8.42-0.26 3.38-0.37 6.15-0.33 8.31 0.08 3.16 0.13 4.99 0.13 5.5 0.17 2.09 0.56 3.84 1.17 5.28 0.55 1.28 1.47 2.06 2.78 2.33 0.6 0.09 1.17 0.12 1.7 0.12 1.82 0 3.56-0.62 5.24-1.89 0.31-0.21 0.72-0.58 1.23-1.09 0.13-0.18 0.31-0.49 0.53-0.95 0.42-0.71 0.69-1.19 0.83-1.44 0.4-0.61 0.75-0.97 1.06-1.06 1.34 0.45 3.67 1.06 7 1.83 3.19 0.49 7.19 0.81 12 0.96 4.34 0.09 7.73-0.01 10.19-0.29 7.08-0.71 13.96-2.16 20.63-4.36 4.84-1.57 9.43-3.82 13.76-6.74 0.43-0.27 1.19-0.71 2.3-1.34 1.1-0.63 1.89-1.16 2.36-1.58 1.94-2.12 3.61-3.53 5.01-4.22 0.77-2.12 1.73-3.75 2.86-4.87h0.46c0.15 0 0.28 0.02 0.37 0.06 0.3 0.64 0.8 1.56 1.49 2.78 0.62 0.87 1.64 2.1 3.06 3.69 0.22 0.75-0.26 1.86-1.44 3.33zm-76.56-3.89c-1.64-0.77-3.48-2.07-5.52-3.89 0 0-3.37 3.95-3.37 3.95-2.82-0.66-4.82-2.13-6.02-4.41 2.77-3.34 4.3-5.16 4.58-5.45 0.8 0.78 1.66 1.56 2.56 2.33 0.91 0.77 1.83 1.36 2.78 1.76 0 0 4.1-4.29 4.1-4.29 2.63 2.18 4.6 3.74 5.9 4.68-2.3 2.42-3.97 4.19-5.01 5.32zm175.23 4.98c-2.79-0.69-4.76-2.14-5.92-4.36 2.77-3.27 4.32-5.01 4.66-5.23 1.79 1.59 3.73 3.09 5.84 4.48 0 0-4.58 5.11-4.58 5.11zm39.74 4.81c-1.2 2.55-2.78 3.97-4.72 4.28-1.31 0.1-2.39-0.1-3.25-0.59-1.95 2.52-3.67 3.7-5.17 3.52-0.36-0.04-0.89-0.21-1.6-0.49-0.71-0.29-1.26-0.44-1.67-0.44-0.26 0-0.51 0.03-0.75 0.07-4.13 4.33-7.81 6.5-11.06 6.5-1.11 0-2.25-0.22-3.42-0.66-1.36 1.09-3.26 2.13-5.71 3.13-3.17 1.34-8.36 2.4-15.58 3.18-6.11 0.64-12.1 0.94-17.95 0.89-5.85-0.03-11.76 0-17.73 0.13-6.71 0.14-11.09 0.2-13.13 0.2-3.15 0-6.47-0.04-9.98-0.12-5.37-0.23-9.89-0.46-13.55-0.71-2.69-0.39-4.3-1.7-4.83-3.92-0.24-1.04-0.36-1.97-0.36-2.78-0.04-0.64 0.04-1.19 0.24-1.62l0.06-0.18c0.09-0.17 0.27-0.28 0.53-0.32 0.55-0.14 1.69-0.09 3.41 0.15 1.72 0.23 7.43 0.65 17.15 1.27 2.74 0.22 7.65 0.33 14.74 0.33 8.79 0 13.57 0.04 14.34 0.11 12.93 0.26 24.13-0.04 33.61-0.91 3.07-0.26 5.69-0.65 7.86-1.16 1-0.22 1.95-0.54 2.86-0.97-0.27-0.98-0.41-2-0.41-3.04 0-2.99 1.02-5.64 3.07-7.94 1.45-1.32 2.88-1.98 4.28-1.98 1.86 0 3.11 0.73 3.75 2.18 0.31 0.69 0.47 1.41 0.47 2.16 0 2.24-1.36 5.17-4.08 8.8 0.55 0.09 1 0.11 1.36 0.06 3.89-0.46 7.43-2.61 10.62-6.47 0.81-0.69 1.57-0.94 2.28-0.77 0.47 0.25 1.16 0.59 2.07 1.04 1 0.41 1.79 0.26 2.39-0.47 0.75-0.73 1.92-2.18 3.51-4.35 0.23-0.29 0.53-0.31 0.91-0.06 0.17 0.18 0.24 0.42 0.19 0.72-0.05 0.25-0.11 0.66-0.19 1.23 0.86 0.47 1.75 0.36 2.65-0.32 0.66-0.51 1.27-1.25 1.83-2.21 0.44-0.81 0.89-1.61 1.36-2.42 0.08-0.24 0.26-0.36 0.53-0.36 0.34 0 0.59 0.17 0.77 0.5-0.39 1.62-0.95 3.22-1.7 4.81zm-30.22 0.27c-1.31 0.2-2.32 0.84-3.05 1.92-0.14 0.53-0.2 1.1-0.2 1.7 0 1.44 0.54 2.73 1.62 3.88 0.69-0.28 1.62-0.9 2.8-1.86 1.04-0.81 1.56-1.83 1.56-3.05 0-0.44-0.07-0.88-0.2-1.29-0.27-0.87-1.12-1.3-2.53-1.3zm59.48-8.77c-0.29 4.19-1.87 8.11-4.72 11.75-1.22 1.56-2.32 2.61-3.31 3.16-0.49 3.39-1.64 6.7-3.45 9.92-0.92 1.14-2.39 1.86-4.42 2.17-1.69 0.22-3.38 0.47-5.05 0.75-2.26 0.28-3.34 0.41-3.25 0.41-0.29-0.22-0.42-0.52-0.38-0.89 0.65-0.41 1.58-1.02 2.8-1.83 0.86-0.49 2.57-1.31 5.11-2.47 2.12-0.99 3.75-1.93 4.88-2.84 0.73-0.96 1.01-1.7 0.84-2.24-0.1-0.72-0.4-1.28-0.91-1.68-1.99 0.22-3.48-0.17-4.48-1.16-0.73-0.86-0.91-2.03-0.53-3.5 0.31-0.85 0.74-2.09 1.29-3.72 0.36-0.94 0.72-1.92 1.1-2.92 0.58-1.06 1.41-1.59 2.5-1.59 1.04 0 1.97 0.62 2.78 1.86 0.42 0.62 0.75 1.37 0.97 2.23 0.13 0.37 0.33 1.33 0.59 2.86 1.42-1 2.37-1.79 2.86-2.36 0.77-0.91 1.22-2.02 1.36-3.36v-5.14c0-2.1 0.27-3.77 0.83-4.98 0.49-1.09 1.46-2.56 2.92-4.43h0.06c0.18 0 0.35-0.04 0.53-0.12-0.35 2.72-0.66 6.09-0.92 10.12zm-3.89 40.35c-1.64-0.78-3.48-2.07-5.51-3.89l-3.38 3.95c-2.81-0.69-4.81-2.16-5.98-4.41 2.75-3.36 4.26-5.18 4.54-5.45 1.57 1.35 3.37 2.71 5.39 4.08 0 0 4.05-4.28 4.05-4.28 2.63 2.17 4.61 3.74 5.94 4.69-2.33 2.38-4.01 4.15-5.05 5.31zm145.13-84.27c-1.69 2.41-4.05 4.45-7.08 6.11-0.16 0.11-3.01 1.42-8.56 3.94-1.64 0.69-3.3 1.4-4.99 2.12-1.9 0.87-3.46 1.75-4.67 2.66-1 0.67-1.55 1.52-1.64 2.56-0.2 1.6-0.34 4.62-0.42 9.07-0.05 3.89-0.25 6.88-0.6 8.96-0.27 1.82-0.84 3.86-1.7 6.11-0.95 1.56-1.52 2.42-1.72 2.6-0.71 0.95-1.49 1.59-2.36 1.92-0.69 0.08-1.77-0.02-3.25-0.31-1.47-0.3-2.65-0.68-3.56-1.11-4.23 3.03-7.9 5.22-11.02 6.56-2.73 1.2-5.43 2.35-8.12 3.47-2.69 1.1-6.24 2.26-10.64 3.47-3.33 0.96-6.59 1.59-9.8 1.89-3.21 0.29-6.43 0.46-9.66 0.5-8.57 0.09-17.5-1.33-26.79-4.28-0.83 1.49-1.91 3.91-3.25 7.28-1.18 2.85-2.13 4.86-2.86 6.03-0.4 0.47-1.76 1.01-4.08 1.64-1.73 0.24-4.34 0.59-7.81 1.03-0.2 0-0.48-0.14-0.83-0.41-0.18-0.33-0.07-0.71 0.33-1.15 2.5-1.35 6.13-3.52 10.89-6.49 2.77-1.9 5.47-6.79 8.11-14.67 0.22-0.72 0.48-1.05 0.79-0.97 1.38 0.38 3.71 1.03 7 1.94 2.82 0.66 5.93 1.22 9.33 1.69 3.72 0.55 6.78 0.83 9.17 0.83 7.99 0.04 14.35-0.29 19.07-0.97 2.56-0.42 6.22-1.32 10.98-2.72 4.63-1.38 8.67-2.78 12.13-4.22 2.72-1.12 5.11-2.38 7.2-3.75 0.59-0.35 1.39-0.53 2.39-0.53 0.44-0.04 0.96-0.02 1.56 0.06 0.99 0.18 1.53 0.29 1.63 0.34 1.63 0.13 2.92-0.69 3.87-2.46 0.35-1.44 0.56-3.04 0.61-4.82v-4.54c0.04-6.3 0.54-10.63 1.49-12.99 1.37-3.36 4.42-6.19 9.14-8.5 3.8-1.63 9.42-4.26 16.86-7.89 0.53-0.4 1.42-0.99 2.68-1.76 0.47 0 0.73 0.15 0.77 0.46-0.09 0.42-0.28 0.86-0.59 1.3zm-74.49 42.83c-0.95 0.59-2.33 0.98-4.14 1.16-2.26 0.27-3.69 0.5-4.28 0.7-0.18 0.04-0.34 0-0.47-0.14 0.04-0.81 0.56-1.38 1.56-1.72 0.91-1.18 1.49-1.96 1.75-2.36 0.61-0.94 0.93-1.85 0.97-2.72 0.22-0.72 0.31-1.7 0.27-2.92-0.09-1.55-0.11-2.55-0.06-3 0.39-0.81 1.11-1.97 2.15-3.48 0.2 0.05 0.3 0.12 0.3 0.2-0.09 0.73-0.13 2.09-0.13 4.08-0.07 1.65-0.29 3.24-0.64 4.78 1.64-1.46 3.02-2.12 4.16-1.99 0.73 0.22 1.27 0.64 1.62 1.24 0.42 1.12 0.22 2.25-0.59 3.37-0.82 0.96-1.65 1.89-2.47 2.8zm0.35-4.28-0.15-0.2c-1.39-0.18-2.8 0.71-4.21 2.65l-0.86 1.3c2.85-0.55 4.65-1.42 5.4-2.6 0.1-0.31 0.14-0.5 0.14-0.59 0-0.17-0.11-0.36-0.32-0.56zm69.54-2.8c-0.15 0.83-0.32 2.03-0.5 3.63-0.18 2.03-0.29 4.84-0.34 8.43 0 4.12-0.04 7-0.13 8.63-0.18 3.5-1.13 7.15-2.86 10.95-0.33 0.71-0.63 1.07-0.89 1.07-0.13 0-0.27-0.04-0.4-0.13-0.31-0.18-0.42-0.59-0.33-1.23 0.35-1.22 0.64-4.27 0.86-9.16-0.31-3.95-0.42-8.36-0.33-13.25 0.73-2.46 2-5.5 3.81-9.14 0.45-0.26 0.82-0.19 1.11 0.2zm12.46-6.84 1.21-1.72h0.47c-0.04-0.13-0.13 0.34-0.26 1.42 0 1.42-0.03 2.83-0.07 4.22-0.05 1.73-0.28 3.09-0.7 4.09 0.42-0.31 1.08-0.74 2-1.29 1.13-0.59 2.16-0.57 3.11 0.06 0.82 0.55 1.1 1.42 0.83 2.59-0.99 2.55-2.56 4.23-4.7 5.05-1 0.09-3.32 0.39-6.94 0.92-0.27 0.1-0.52-0.03-0.74-0.39 0.09-0.49 0.49-0.88 1.22-1.17 0.74-0.3 1.2-0.69 1.38-1.16 0.85-1.3 1.3-2 1.36-2.09 0.44-0.86 0.67-1.66 0.72-2.39 0.13-0.57 0.2-1.27 0.2-2.09v-1.36c-0.04-0.6-0.06-1.03-0.06-1.3 0-1.42 0.32-2.55 0.97-3.39zm3.87 9.64-0.42-0.41c-1.04-0.22-2.04 0.17-3 1.17-0.36 0.36-1.06 1.29-2.1 2.79 0.96-0.22 1.95-0.48 2.96-0.79 1.02-0.3 1.78-0.77 2.3-1.4 0.35-0.63 0.44-1.08 0.26-1.36zm-3.95 9.45v-0.19c0.31 0 0.7 0.18 1.17 0.52 0.48 0.34 0.84 0.53 1.09 0.58 2.44 1.65 3.66 4.08 3.66 7.26 0 1.87-0.57 3.95-1.7 6.25-0.95 1.95-1.93 3.9-2.93 5.85-0.9 1.32-2.5 2.18-4.78 2.58-3.6 0.6-5.48 0.93-5.64 0.96h-1.2c-0.09-0.13-0.13-0.24-0.13-0.32 0-0.12 0.04-0.24 0.13-0.38 2.35-1.26 5.86-3.14 10.53-5.64 1.26-0.66 1.95-1.52 2.06-2.56 0.14-1.32-0.18-2.58-0.97-3.78-0.77-1.2-1.78-2.1-3.04-2.69l-0.97-1.03c0.69-2.38 1.59-4.85 2.72-7.41zm-845.83 72.97c-8.39 5.28-12.58 13.62-12.58 25 0 4.31 0.91 8.47 2.72 12.45 2.12 4.81 5.24 8.5 9.36 11.08 0.55 0.35 0.83 0.68 0.83 0.97 0 0.63-0.57 0.71-1.69 0.27-4.9-1.91-8.92-5.21-12.08-9.89-3.15-4.7-4.72-9.71-4.72-15.02 0-5.8 1.69-11.18 5.07-16.14 3.37-4.96 7.59-8.3 12.65-10.02 0.69-0.22 1.03-0.09 1.03 0.39 0 0.32-0.2 0.62-0.59 0.91zm42.69 43.66c-2.82-0.65-4.87-2.05-6.17-4.22 2.75-3.23 4.29-4.95 4.6-5.17 1.82 1.59 3.76 3.08 5.85 4.46 0 0-4.28 4.93-4.28 4.93zm-6.58-31.44c-1.42 1.03-2.81 2.08-4.16 3.14-1.54 1.27-2.61 2.58-3.22 3.92-0.43 1.11-0.5 2.04-0.18 2.8 0.55 0.55 1.43 1 2.64 1.34 1.22 0.35 2.06 0.7 2.53 1.05 1.12 1.3 1.69 3.16 1.69 5.58 0 0.55-0.14 2.2-0.39 4.94-0.91 4.5-2.58 8.52-4.99 12.06-2.72 4.03-6.05 6.77-9.98 8.23-1.14 0.4-2.34 0.6-3.6 0.6-2.59 0-4.66-0.75-6.2-2.22-3.09-2.97-4.63-7.24-4.63-12.8 0-2.63 0.35-5.66 1.04-9.13 0.78-3.8 1.97-7.87 3.59-12.21 0.16-0.24 0.43-0.36 0.83-0.36 0.22 0.33 0.3 0.72 0.26 1.15-1.86 7.09-2.79 12.08-2.79 14.97 0 2.78 0.47 5.29 1.43 7.55 1.22 2.08 2.67 3.42 4.35 4.01 1.04 0.36 2.16 0.54 3.36 0.54 2.69 0 5.7-1.02 9.03-3.07 2.85-2.3 4.91-5.02 6.17-8.15 0.04-0.27 0.14-0.71 0.3-1.3 0.09-0.57 0.01-1.09-0.24-1.56-0.53-0.67-1.4-1.12-2.62-1.36-1.42-0.31-2.35-0.6-2.78-0.86-1.6-1.09-2.36-3.36-2.27-6.81 0.55-4.07 1.76-7.14 3.63-9.21 1.08-1.22 2.85-2.76 5.32-4.64s4.21-3.35 5.21-4.39c0.17-0.17 0.3-0.45 0.39-0.83-1.22-0.39-2.61-0.59-4.16-0.59-1.44 0-3.17 0.2-5.2 0.59-1.87 0.16-3.39 1.35-4.58 3.57-0.05 0.22-0.3 0.26-0.73 0.12-0.28-0.35-0.3-0.85-0.07-1.5 0.18-0.35 0.42-0.94 0.72-1.75 1.04-2.19 2.81-3.69 5.31-4.48 1.56-0.47 3.91-0.75 7.08-0.83 1.64-0.04 3.02 0.07 4.16 0.33l0.39 0.33c0.19 0.24 0.22 0.73 0.06 1.43-0.04 0.24-0.06 0.43-0.06 0.57-1.4 4.29-3.61 7.37-6.64 9.23zm39.06-9.38-0.2 13.25c-0.11 7.05-2.15 12.37-6.14 15.97-1 0.91-2.07 1.51-3.19 1.8-0.95 2.99-1.49 4.68-1.62 5.08-0.74 1.95-1.58 3.56-2.54 4.84-1.08 0.71-2.62 1.23-4.61 1.56-3.07 0.45-4.71 0.7-4.9 0.74-0.36 0.09-0.92 0.21-1.71 0.36-0.53 0.05-0.93-0.09-1.21-0.42 0.04-0.36 0.29-0.72 0.75-1.1 0.4-0.22 0.79-0.47 1.17-0.73 2.03-1 5.06-2.52 9.09-4.55 0.82-0.6 1.35-0.99 1.56-1.17 0.56-0.5 0.9-1.04 1.04-1.63 0.21-1.08-0.09-1.89-0.91-2.45-2.21 0.18-3.7-0.21-4.47-1.16-0.49-0.58-0.73-1.28-0.73-2.09 0-0.51 0.3-1.83 0.92-3.95 0.42-1.08 0.87-2.23 1.34-3.44 0.48-1.21 1.26-1.97 2.35-2.28 1.31-0.13 2.46 0.62 3.45 2.23 0.55 0.95 1.03 2.59 1.44 4.91-0.06 0.18-0.08 0.59-0.08 1.23 1.51 0 2.63-0.38 3.36-1.15 1.39-1.87 2.13-4.42 2.22-7.67v-8.18c0-0.33-0.05-1.69-0.13-4.07-0.09-1.51 0.08-2.77 0.53-3.77l2.66-6.37c0.04-0.22 0.18-0.36 0.42-0.43 0.27 0 0.41 0.17 0.41 0.5 0.04 0.53 0.02 1.23-0.07 2.1-0.13 1.03-0.2 1.71-0.2 2.04zm76.58 9.74c-1.62-0.77-3.45-2.07-5.52-3.89 0 0-3.37 3.95-3.37 3.95-2.81-0.69-4.81-2.15-5.99-4.41 2.77-3.36 4.29-5.17 4.55-5.45 1.6 1.36 3.38 2.72 5.38 4.08 0 0 4.09-4.28 4.09-4.28 2.61 2.18 4.58 3.74 5.91 4.69-2.33 2.38-4.01 4.15-5.05 5.31zm16.94 30.11c-1.62-0.77-3.48-2.06-5.58-3.88 0 0-3.39 3.88-3.39 3.88-2.78-0.63-4.76-2.1-5.97-4.41 2.8-3.36 4.32-5.16 4.55-5.39 1.59 1.36 3.38 2.72 5.37 4.1l4.16-4.29c2.6 2.13 4.57 3.67 5.9 4.61-2.32 2.46-4 4.25-5.04 5.38zm-3.96 9.8c-2.75-0.64-4.71-2.09-5.9-4.35 2.81-3.23 4.36-4.96 4.64-5.19 1.86 1.6 3.83 3.07 5.9 4.43 0 0-4.64 5.11-4.64 5.11zm3.89-39.58c-0.05 0.27-0.16 0.68-0.34 1.23-0.81 1.66-1.42 2.83-1.83 3.52-0.81 1.28-1.7 2.3-2.65 3.06-0.78 0.59-1.68 0.76-2.72 0.48-0.14-0.04-0.77-0.36-1.89-0.95-0.73-0.39-1.46-0.48-2.19-0.26-2.46 0.81-4.41 1.8-5.84 2.98 0.25 0.04 0.52 0.11 0.79 0.2 1.6 0.36 2.52 0.64 2.78 0.83 0.73 0.49 1.1 1.42 1.1 2.78 0 2.22-1.17 4.54-3.52 6.95-2.23 2.22-4.52 3.54-6.87 3.99-1.17-0.05-2.94 0.09-5.32 0.42-1.21 0.58-3.07 1.38-5.57 2.42-3.39 1.34-7.13 2.46-11.22 3.36-9.25 2.09-17.03 3.13-23.31 3.13-3.9 0-7.59-0.54-11.08-1.63-4.03-1.22-6.57-3.81-7.61-7.78-0.47-1.77-0.71-5.58-0.71-11.42v-5.97c0.06-2.77 0.08-4.78 0.08-6.05 0-0.04 0.04-0.18 0.13-0.43l0.2-0.6c0.28-1.04 0.58-2.08 0.89-3.12 0.47-1.46 0.95-2.37 1.44-2.72l0.95 0.4c-0.04 0.82-0.21 3.58-0.5 8.3-0.22 3.45-0.33 6.24-0.33 8.36v1.7c-0.04 0.82-0.06 1.46-0.06 1.93 0 1.53 0.09 2.73 0.27 3.59 0.45 1.99 1.47 3.48 3.04 4.47 3.54 2.28 11.35 3.42 23.41 3.42 3.26 0 7.18-0.38 11.77-1.16 4.58-0.77 8.53-1.67 11.84-2.71 0.58-1 1.24-2.48 1.97-4.43 0.9-2.32 1.51-3.81 1.83-4.48 1.81-3.72 3.86-5.58 6.14-5.58 0.79 0 1.58 0.3 2.37 0.89 0.8 0.59 1.16 1.33 1.08 2.24 3.11-4.12 6.72-6.88 10.81-8.3 0.53-0.35 1.14-0.27 1.83 0.26l0.47 0.33c0.59 0.51 1.17 0.75 1.73 0.71 1.26-0.14 2.39-0.77 3.38-1.91 0.73-1.1 1.48-2.2 2.26-3.28 0.09-0.13 0.22-0.2 0.4-0.2 0.09 0 0.2 0.02 0.34 0.07 0 0 0.19 0.07 0.19 0.07 0.13 0.21 0.16 0.51 0.07 0.89zm-18.1 14.14c-0.84 0-1.56 0.24-2.16 0.73-0.69 0.65-1.6 1.79-2.72 3.42-0.55 0.87-1.51 2.25-2.86 4.16 5.76-0.91 9-3.11 9.74-6.61-0.18-1.13-0.85-1.7-2-1.7zm-7.74-1.75c-1.34 0-2.68 1.31-4.02 3.92-0.57 1.15-1.37 3.15-2.39 6 1.46-0.2 3.24-1.21 5.35-3.03 2.1-1.83 3.15-3.37 3.15-4.61 0-0.57-0.19-1.09-0.59-1.56-0.4-0.48-0.9-0.72-1.5-0.72zm40.63 20.92c-2.68 0.04-5.11 0.12-7.27 0.22-0.65 0.03-1-0.02-1.06-0.16-0.12-0.44 0.02-0.77 0.42-0.97 0.66-0.43 2.44-1.14 5.31-2.12 2.79-0.95 4.69-1.62 5.69-2.02 1.26-0.49 2.07-0.92 2.42-1.29 0.91-1.4 0.91-2.7 0-3.89h-0.73c-1.64 0-2.81-0.51-3.52-1.54-0.51-0.75-0.6-1.68-0.26-2.81l2.01-4.55c0.53-1.82 1.47-3 2.83-3.56 0.53-0.13 1.08-0.08 1.66 0.14 0.88 0.34 1.58 1.28 2.09 2.82 0.27 0.73 0.48 1.68 0.64 2.85 0.04 0.16 0.09 0.24 0.16 0.24 0.64-0.16 1.22-0.48 1.73-0.97l1.3 0.94v1.36l-3.07 2.95-0.62 0.56-0.23 0.86c-0.97 3.33-2.45 6.29-4.46 8.91-0.9 1.37-2.59 2.05-5.04 2.03zm10.62-49.66c-0.02 3.03-0.23 5.12-0.62 6.27 0.77-0.56 1.56-1.02 2.39-1.39 1.47-0.49 2.56-0.19 3.25 0.92 0.13 0.25 0.2 0.6 0.2 1.06v0.74l-0.47 0.9c-0.87 1.79-2.09 3.07-3.66 3.85-0.33 0.17-0.78 0.28-1.36 0.32-2.16 0.32-4.31 0.59-6.43 0.83-0.4-0.15-0.5-0.37-0.3-0.68 0.16-0.28 0.56-0.58 1.22-0.91 0.74-0.36 1.32-0.98 1.73-1.89 1.26-1.5 1.82-3.78 1.66-6.83 0-1.98 0.12-3.26 0.38-3.83 0.14-0.4 0.5-0.97 1.06-1.72 0.45-0.62 0.77-0.95 0.95-0.97 0.13 0 0.19 0.06 0.17 0.18-0.11 0.5-0.17 1.56-0.17 3.15zm2.36 9.03c0.22-0.56 0.13-1.06-0.27-1.5-1.28-0.18-2.33 0.28-3.15 1.36-0.75 0.93-1.36 1.76-1.83 2.49l2.95-0.72c1.18-0.36 1.94-0.9 2.3-1.63zm9.78 10.79c0.26-0.12 0.46-0.11 0.59 0.03 0.12 0.13 0.13 0.52 0.04 1.15-0.22 1.87 0.12 3.28 1.03 4.25 0.39 0.45 0.98 0.86 1.76 1.24 0.6 0.33 1.19 0.82 1.78 1.45l1.15 1.14v3.45s-2.36 2.4-2.36 2.4l-0.94-0.08c-1.15-0.04-2-0.21-2.55-0.5-1.22-0.75-2.24-1.79-3.06-3.11-1.42 1.63-3.29 2.93-5.61 3.87-0.89 0.32-1.65 0.46-2.3 0.44v-1.8c0-1.19 0.03-1.79 0.08-1.79 3.31-0.22 5.72-1.39 7.24-3.52 0 0 0.42-0.66 0.42-0.66l0.17-1.03c0.39-2.12 0.89-3.88 1.5-5.28 0.41-1.02 0.77-1.57 1.06-1.65zm27.19 1.81v1.26l-0.64 0.63c-1.17 1.15-2.64 1.56-4.41 1.2l-0.61 0.6c-1.34 1.46-2.99 2.02-4.94 1.7-0.78 0.83-1.73 1.43-2.85 1.78-1.05 0.16-2.07 0.17-3.07 0.03-0.2-0.12-0.35-0.08-0.45 0.11-0.05 0.06-0.13 0.2-0.23 0.42-1.11 2.75-2.86 4.56-5.25 5.42v-8.14c1.47 0.08 2.77-0.31 3.89-1.15 0.72-0.51 1.5-1.26 2.31-2.24 0.15-0.17 0.31-0.25 0.47-0.22 0.33 0.11 0.5 0.42 0.5 0.93 0 0.39 0.08 0.63 0.26 0.7 2.19 0.24 3.73-0.33 4.61-1.7 0.63-0.99 1.28-1.72 1.97-2.19 0.24 0 0.29 0.26 0.16 0.8-0.18 0.41-0.29 0.77-0.33 1.06 0.11 0.31 0.57 0.32 1.36 0.03 0.13-0.04 0.28-0.09 0.44-0.16 1.02-0.5 2-1.67 2.95-3.5 0.27-0.53 0.44-0.83 0.5-0.89 0.19-0.15 0.41-0.13 0.62 0.06-0.1 0.74-0.24 1.48-0.42 2.24 0.6 0.06 1.21 0 1.86-0.2 0.04 0 0.26 0.24 0.66 0.73l0.64 0.69zm1.55 7.04s0.76-0.84 0.76-0.84c0.32 0.03 0.6 0.08 0.83 0.14 0.12 0.08 0.18 0.35 0.16 0.8 0 0-3.16 5.22-3.16 5.22-0.66 1.38-1.01 2.9-1.06 4.54 0.25 0.4 0.5 0.62 0.76 0.66 0.29-0.22 0.57-0.53 0.83-0.92 0.49-0.67 0.89-1.01 1.2-1.03 0.51-0.03 0.89 0.15 1.13 0.53 0.37 0.77 0.37 1.77 0 3.01-0.49 1.36-1.36 2.42-2.6 3.19-2.69 0.55-4.14-0.56-4.34-3.34-0.06-1.31 0.19-2.77 0.77-4.36 1-2.74 2.57-5.27 4.72-7.6zm10.42-14.51c0.7 0.14 1.02 0.76 0.95 1.86-0.2 2.37-1 3.95-2.39 4.75-1.26 0.79-2.39 0.62-3.39-0.53 0 0-0.45-0.61-0.45-0.61-0.38-0.5-0.66-0.84-0.83-1.02-0.16-0.17-0.33-0.25-0.5-0.23-0.85 0.15-1.86 0.87-3.03 2.15 0 0-0.69 0.83-0.69 0.83-1.06 1.62-2.2 2.66-3.42 3.13-0.05 0-0.08-0.6-0.08-1.8v-1.83c0.43 0.2 1.02-0.05 1.76-0.76 0.36-0.26 0.95-0.87 1.77-1.83 1.7-1.93 3.07-3.17 4.11-3.72 1.44-0.69 2.44-0.42 3 0.8 0.55 1.11 1.16 1.15 1.81 0.11 0.43-0.76 0.76-1.18 1-1.27 0.1-0.02 0.22-0.03 0.38-0.03zm4.64-10.72c-0.43-0.25-0.64-0.55-0.64-0.91 0-0.48 0.34-0.61 1.03-0.39 5.07 1.72 9.3 5.06 12.67 10.02 3.38 4.96 5.06 10.34 5.06 16.14 0 5.31-1.56 10.32-4.68 15.02-3.12 4.68-7.15 7.98-12.08 9.89-1.16 0.44-1.74 0.36-1.74-0.27 0-0.29 0.28-0.62 0.85-0.97 4.11-2.58 7.24-6.27 9.39-11.08 1.81-4.03 2.72-8.18 2.72-12.45 0-11.47-4.2-19.8-12.58-25zm109.19-1.17c-2.79-0.69-4.75-2.13-5.91-4.34 2.77-3.29 4.32-5.04 4.66-5.26 1.81 1.6 3.75 3.09 5.84 4.49 0 0-4.59 5.11-4.59 5.11zm11.23 17.33c-8.02 4.72-16.14 7.94-24.34 9.67-4.25 0.9-7.33 1.45-9.24 1.62-0.04 0-3.01 0.16-8.92 0.47-5.34 0.34-10.17-0.16-14.48-1.5-2.22-0.61-4.05-2.08-5.52-4.42-0.26 5.41-1.41 10.75-3.45 16.02-1.86 4.88-4.35 8.96-7.47 12.21-3.88 3.94-8.07 5.91-12.58 5.91-3.59 0-6.35-1.48-8.3-4.42-1.65-2.56-2.47-5.78-2.47-9.66 0-2.89 0.46-6.09 1.36-9.61 0.92-3.5 1.85-6.08 2.8-7.72 0.22-0.35 0.52-0.42 0.89-0.2 0.23 0.14 0.32 0.44 0.27 0.89 0 0.06-0.03 0.19-0.07 0.41-1.46 4.53-2.18 8.27-2.18 11.22 0 1.55 0.16 3.02 0.5 4.42 0.7 2.94 2.42 4.77 5.14 5.5 1.33 0.31 2.67 0.47 4.01 0.47 4.54 0 8.49-1.63 11.83-4.88 4.91-4.85 7.17-11.02 6.8-18.5-0.18-4.17-0.36-9.53-0.53-16.06-0.13-6.16-0.19-9.44-0.19-9.86 0.35-1.86 1.41-4.47 3.19-7.81 0.04-0.18 0.22-0.27 0.53-0.27 0.32 0 0.53 0.09 0.62 0.27-0.77 4.8-0.98 11.74-0.62 20.83 0.5 3.76 2.51 6.23 6.05 7.4 3.53 1.17 8.15 1.78 13.87 1.82 11.97 0.09 21.47-0.97 28.52-3.19 4.25-1.37 6.91-2.22 8-2.58 2.98-1.04 5.55-2.16 7.68-3.34 2.14-1.19 3.05-2.46 2.74-3.8-0.2-0.78-0.71-1.04-1.52-0.77-0.84 0.25-1.34 0.34-1.5 0.3-1.57-0.19-2.63-0.84-3.19-1.92-0.39-1.08-0.26-2.54 0.4-4.36 0.86-2.34 1.32-3.79 1.37-4.34 0.28-0.54 0.49-0.9 0.63-1.1 0.25-0.39 0.58-0.66 0.96-0.79 0.84-0.56 1.83-0.47 2.99 0.26 1.39 1.13 2.28 2.75 2.65 4.88 0.22 1.15 0.33 3.07 0.33 5.75-0.51 4.51-3.03 8.1-7.56 10.78zm44.13-8.3c-1.27 0.69-3.13 1.79-5.58 3.3-1.66 1.16-3.18 2.63-4.55 4.4 0.41 0.28 1.05 0.67 1.89 1.17 2.24 1.27 3.33 2.64 3.28 4.11-0.04 1.6-1.54 3.54-4.48 5.82-0.82 0.43-2.02 0.79-3.61 1.06-1.87 0.34-3.1 0.59-3.69 0.77-2.17 0.53-4.18 1.58-6.05 3.15-1.85 1.58-3.14 3.4-3.87 5.47-0.49 2.68-0.7 7.03-0.61 13.06 0.09 5.44 0.12 9.99 0.08 13.67 0 1.64-0.39 3.79-1.17 6.44 0 0.16-0.09 0.3-0.27 0.44l-0.06 0.06c-0.28 0.04-0.55-0.05-0.83-0.26-0.04-1.68-0.02-4.25 0.06-7.71l-0.53-12.58c-0.09-1.57-0.12-2.98-0.12-4.21 0-8.48 2.07-14.76 6.23-18.83 1.99-1.99 4.55-3.85 7.7-5.58 1.4-2.41 2.82-4.82 4.28-7.2 1.73-2.85 3.45-5.08 5.16-6.68 2.05-1.9 4.32-3.37 6.8-4.42 0.72-0.31 1.39-0.4 2-0.26 0 0 0.26 0.33 0.26 0.33-0.55 1-1.32 2.49-2.32 4.48zm-4.35 38.92c-1.65-0.78-3.48-2.08-5.51-3.89 0 0-3.4 3.95-3.4 3.95-2.81-0.68-4.8-2.16-5.96-4.42 2.75-3.36 4.27-5.17 4.54-5.43 1.6 1.34 3.39 2.7 5.38 4.07 0 0 4.08-4.28 4.08-4.28 2.61 2.17 4.58 3.73 5.92 4.69-2.34 2.41-4.02 4.18-5.05 5.31zm17.28-36c-0.15 0.83-0.32 2.03-0.5 3.63-0.18 2.03-0.29 4.84-0.34 8.43 0 4.12-0.04 7-0.13 8.63-0.18 3.5-1.13 7.15-2.86 10.95-0.33 0.71-0.63 1.07-0.89 1.07-0.13 0-0.27-0.04-0.4-0.13-0.31-0.18-0.42-0.59-0.33-1.23 0.35-1.22 0.64-4.27 0.86-9.16-0.31-3.95-0.42-8.36-0.33-13.25 0.73-2.46 2-5.5 3.81-9.14 0.45-0.26 0.82-0.19 1.11 0.2zm19.44 15.47v0.74l-1.13 0.56c-1.02 0.53-2.09 1.31-3.21 2.33-1.28 1.15-2.1 2.25-2.47 3.28-0.22 0.62-0.12 1.04 0.29 1.23 1.67-0.06 2.79 0.47 3.36 1.6 0.57 1.15 0.5 2.29-0.23 3.42-0.87 1.32-2.18 1.75-3.95 1.29-1.95-0.5-2.93-2.12-2.93-4.84 0-2.33 0.99-4.56 2.96-6.69 1.47-1.52 3.29-2.64 5.48-3.37 0.33-0.12 0.66-0.16 0.97-0.14 0.51 0.04 0.8 0.24 0.86 0.59zm18.78 29.3c-0.85 0.22-1.7 0.33-2.55 0.33-3.58 0-6.26-1.48-8.03-4.43-1.68-2.8-2.53-6.22-2.53-10.25 0-3.59 0.73-7.85 2.19-12.78 1.13-3.89 2.18-6.98 3.12-9.26 0.4-0.32 0.71-0.34 0.94-0.08 0.06 0.09 0.1 0.44 0.1 1.03-2.15 7.49-3.22 12.68-3.22 15.58 0 3.17 0.68 5.91 2.06 8.23 1.66 2.35 4.01 3.52 7.06 3.52 2.81 0 5.57-0.87 8.28-2.6 2.72-1.73 4.79-3.9 6.21-6.5 0.68-1.28 1.03-2.34 1.03-3.18 0-0.65-0.17-1.23-0.5-1.74-0.45-0.35-1.65-0.83-3.6-1.42-1.5-0.49-2.48-1.23-2.93-2.22-0.45-1-0.68-2.19-0.68-3.56 0-1.68 0.34-3.66 1.02-5.97 0.49-1.44 0.99-2.89 1.5-4.36 0.59-1.77 0.89-3.28 0.89-4.55 0-1.32-0.28-2.52-0.83-3.61-0.44-0.82-1.41-2.08-2.92-3.79-0.04-0.46 0.09-1.05 0.41-1.78 0.24-0.59 0.49-1.15 0.76-1.71 0.35-0.86 0.94-2.18 1.75-3.95 0.55 0.34 1.1 0.86 1.63 1.56 1.94 2.68 2.92 5.54 2.92 8.58 0 1.19-0.15 2.37-0.45 3.55-0.23 1.44-0.73 3.11-1.5 5.01-0.69 1.64-1.38 3.28-2.07 4.91-0.48 1-0.24 1.91 0.71 2.73 0.17 0.18 1.22 0.64 3.12 1.36 1.22 0.48 2.04 1.25 2.47 2.3 0.43 1.06 0.64 2.37 0.64 3.94 0 1.46-0.2 3.16-0.59 5.11-0.99 4.63-2.83 8.74-5.52 12.33-3.03 4.07-6.66 6.62-10.89 7.67zm14.16 11.42c-1.62-0.78-3.46-2.08-5.52-3.89 0 0-3.39 3.95-3.39 3.95-2.81-0.69-4.8-2.16-5.97-4.42 2.76-3.37 4.28-5.18 4.55-5.44 1.59 1.38 3.38 2.74 5.37 4.08 0 0 4.08-4.28 4.08-4.28 2.62 2.16 4.59 3.73 5.92 4.69-2.32 2.4-4 4.17-5.04 5.31zm-3.86 9.86c-2.81-0.69-4.79-2.14-5.94-4.34 2.76-3.29 4.31-5.04 4.64-5.26 1.82 1.6 3.77 3.09 5.85 4.49l-4.55 5.11zm50.45-66.91h-0.14c0.6 0.67 1.26 0.92 1.97 0.74 0.69-0.18 1.35-0.68 1.98-1.5 0.87-1.13 1.41-1.78 1.63-1.96 0.49 0.05 0.73 0.25 0.73 0.6-0.43 2.32-1.76 4.35-3.98 6.08-0.69 0.49-1.49 0.73-2.39 0.73-0.6 0-1.1-0.13-1.5-0.41-0.04-0.04-0.32-0.22-0.83-0.56-2.13 2.46-3.86 3.49-5.2 3.09-0.1 0-0.55-0.23-1.36-0.7-0.61-0.27-1.17-0.27-1.67 0-1.84 0.73-2.92 2.07-3.25 4.02-0.09 0.35 0.1 1.07 0.56 2.15 0.53 0.47 1.4 0.87 2.61 1.19 1.2 0.31 2.01 0.65 2.4 1 1.18 1.36 1.77 3.26 1.77 5.72 0 0.36-0.14 2.11-0.41 5.25-0.95 4.47-2.62 8.48-5.01 12.02-2.76 4.03-6.07 6.77-9.92 8.23-1.16 0.27-2.3 0.41-3.43 0.41-2.77 0-4.91-0.77-6.43-2.3-2.93-2.86-4.39-7.07-4.39-12.66 0-5 1.44-12.18 4.32-21.54 0.4-0.29 0.68-0.37 0.86-0.24 0.32 0.2 0.4 0.61 0.27 1.24-1.71 7.43-2.56 12.34-2.56 14.7 0 3.76 0.89 6.88 2.68 9.36 1.38 1.96 3.51 2.94 6.41 2.94 3.16 0 6.2-1.11 9.09-3.33 2.91-2.22 4.91-4.85 6.02-7.91 0.41-1.65 0.3-2.76-0.3-3.31-0.49-0.35-1.55-0.77-3.19-1.24-1.39-0.35-2.35-0.87-2.85-1.56-0.91-1.04-1.36-2.51-1.36-4.4 0-0.82 0.08-1.82 0.26-3 0.43-2.94 1.18-5.18 2.27-6.74 2.03-2.85 3.97-4.28 5.84-4.28 0.35 0 0.74 0.07 1.16 0.2 0.04 0 0.45 0.21 1.23 0.63 0.44 0.22 0.91 0.29 1.42 0.2 0.57-0.42 1.21-1.11 1.89-2.06 0.82-1.18 1.41-1.91 1.77-2.22h0.13c0.28-0.05 0.48-0.05 0.57 0 0.35 0.18 0.42 0.56 0.19 1.16 0.05-0.04 0.08-0.07 0.08-0.07 0.04 0.05 0.08 0.09 0.12 0.13-0.08 0.09-0.1 0.16-0.06 0.2zm45.58-7.97s0.26 0.57 0.26 0.57c-0.41 1.53-1.1 3.81-2.06 6.84-0.18 0.34-0.48 0.52-0.92 0.56-0.73 0.05-1.14 0.09-1.23 0.13-4.12 2.08-6.71 5.07-7.77 8.97-0.31 1.08-0.02 2.01 0.89 2.79 0.35 0.22 1.38 0.59 3.06 1.1 1.29 0.35 2.17 0.96 2.66 1.82 0.63 1.13 0.95 2.6 0.95 4.41 0 0.61-0.04 1.38-0.12 2.33-0.1 1.18-0.14 1.93-0.14 2.26-0.78 4.3-2.2 8.17-4.28 11.61-2.37 3.9-5.32 6.8-8.86 8.71-1.58 0.82-3.34 1.23-5.28 1.23-2.33 0-4.23-0.59-5.71-1.76-3.42-2.72-5.15-7.13-5.19-13.22-0.04-4.94 1.41-12.03 4.35-21.28 0.41-0.14 0.61-0.21 0.61-0.21 0.24 0.18 0.36 0.68 0.36 1.5-1.6 6.44-2.39 11.07-2.39 13.88 0 5.84 1.42 9.68 4.28 11.5 1.39 0.9 2.97 1.36 4.75 1.36 3.05 0 6.31-1.25 9.8-3.75 3.26-2.99 5.08-5.94 5.43-8.85 0.18-1.39-0.16-2.34-1.01-2.84-1.18-0.31-2.36-0.66-3.53-1.03-1.33-0.49-2.19-1.27-2.6-2.36-0.4-1.08-0.59-2.29-0.59-3.63 0-1.25 0.24-2.93 0.73-5.01 1.81-7.63 5.33-13.3 10.57-17 1.25-0.59 1.97-0.89 2.15-0.89 0.26 0 0.54 0.09 0.83 0.26zm9.91 1.99 1.21-1.72h0.47c-0.04-0.13-0.13 0.34-0.26 1.42 0 1.42-0.03 2.83-0.07 4.22-0.05 1.73-0.28 3.09-0.7 4.09 0.42-0.31 1.08-0.74 2-1.29 1.13-0.59 2.16-0.57 3.11 0.06 0.82 0.55 1.1 1.42 0.83 2.59-0.99 2.55-2.56 4.23-4.7 5.05-1 0.09-3.32 0.39-6.94 0.92-0.27 0.1-0.52-0.03-0.74-0.39 0.09-0.49 0.49-0.88 1.22-1.17 0.74-0.3 1.2-0.69 1.38-1.16 0.85-1.3 1.3-2 1.36-2.09 0.44-0.86 0.67-1.66 0.72-2.39 0.13-0.57 0.2-1.27 0.2-2.09v-1.36c-0.04-0.6-0.06-1.03-0.06-1.3 0-1.42 0.32-2.55 0.97-3.39zm3.87 9.64-0.42-0.41c-1.04-0.22-2.04 0.17-3 1.17-0.36 0.36-1.06 1.29-2.1 2.79 0.96-0.22 1.95-0.48 2.96-0.79 1.02-0.3 1.78-0.77 2.3-1.4 0.35-0.63 0.44-1.08 0.26-1.36zm-3.95 9.45v-0.19c0.31 0 0.7 0.18 1.17 0.52 0.48 0.34 0.84 0.53 1.09 0.58 2.44 1.65 3.66 4.08 3.66 7.26 0 1.87-0.57 3.95-1.7 6.25-0.95 1.95-1.93 3.9-2.93 5.85-0.9 1.32-2.5 2.18-4.78 2.58-3.6 0.6-5.48 0.93-5.64 0.96h-1.2c-0.09-0.13-0.13-0.24-0.13-0.32 0-0.12 0.04-0.24 0.13-0.38 2.35-1.26 5.86-3.14 10.53-5.64 1.26-0.66 1.95-1.52 2.06-2.56 0.14-1.32-0.18-2.58-0.97-3.78-0.77-1.2-1.78-2.1-3.04-2.69l-0.97-1.03c0.69-2.38 1.59-4.85 2.72-7.41zm23.06 3.22v0.74l-1.13 0.56c-1.02 0.53-2.09 1.31-3.21 2.33-1.28 1.15-2.1 2.25-2.47 3.28-0.22 0.62-0.12 1.04 0.29 1.23 1.67-0.06 2.79 0.47 3.36 1.6 0.57 1.15 0.5 2.29-0.23 3.42-0.87 1.32-2.18 1.75-3.95 1.29-1.95-0.5-2.93-2.12-2.93-4.84 0-2.33 0.99-4.56 2.96-6.69 1.47-1.52 3.29-2.64 5.48-3.37 0.33-0.12 0.66-0.16 0.97-0.14 0.51 0.04 0.8 0.24 0.86 0.59zm105.52 5.55c-1.64-0.77-3.48-2.07-5.52-3.88 0 0-3.42 3.96-3.42 3.96-2.81-0.67-4.81-2.15-5.97-4.43 2.76-3.34 4.27-5.16 4.55-5.45 1.59 1.38 3.38 2.74 5.37 4.09 0 0 4.1-4.28 4.1-4.28 2.62 2.17 4.59 3.73 5.9 4.68-2.3 2.41-3.98 4.18-5.01 5.31zm-2.6-23.11c-1.85 1.4-4.4 3.04-7.64 4.95-5.93 3.45-12.33 5.97-19.22 7.56-1.63 0.41-3.99 0.96-7.08 1.64-1.63 0.27-4.53 0.44-8.68 0.54-8.05 0.12-15.25-0.54-21.6-1.97 0.05 0.96 0.08 1.91 0.08 2.86 0 7.39-2.15 14.57-6.45 21.54-1.95 3.13-4.28 5.6-7 7.41-3.03 1.99-6.21 2.89-9.53 2.72-1.78-0.09-3.43-0.67-4.97-1.75-1.53-1.09-2.69-2.49-3.47-4.22-1.09-2.22-1.63-4.92-1.63-8.11 0-3.07 0.54-6.86 1.63-11.36 0.38-1.26 1.07-3.12 2.06-5.58 0.04-0.26 0.31-0.36 0.8-0.33 0.09 0.22 0.14 0.46 0.14 0.71 0 0.13-0.03 0.42-0.08 0.86-1.26 4.58-1.89 8.17-1.89 10.76 0 3.03 0.7 5.5 2.09 7.39 1.51 2.09 3.9 3.13 7.18 3.13 3.38 0 6.52-0.93 9.42-2.78 2.9-1.87 5.22-4.37 6.95-7.5 1.73-3.15 2.61-6.63 2.66-10.44 0.04-2.72-0.2-5.33-0.71-7.83 0.07-1.08 0.31-2.69 0.71-4.81 0.13-0.09 0.33-0.16 0.59-0.2 0.55 0.26 2.1 0.6 4.66 1.01s4.86 0.69 6.9 0.84c2.05 0.16 5.1 0.37 9.13 0.63 1.39 0.04 2.69 0.06 3.89 0.06 7.48-0.04 14.37-0.97 20.69-2.81s11.77-4.05 16.36-6.61c0.72-0.41 2.78-1.71 6.17-3.89 1.41-1.63 2.08-3.43 2-5.38 0-0.35-0.08-1.23-0.24-2.65-0.09-1.08-0.11-1.97-0.06-2.66-0.05-0.43-0.08-0.86-0.08-1.29 0-1.31 0.3-2.77 0.91-4.41 0.55-1.45 1.09-2.88 1.62-4.3 0.04-0.12 0.21-0.19 0.5-0.19 0.26-0.05 0.42 0.04 0.47 0.27-0.27 3.09-0.25 7.89 0.07 14.38-0.61 2.81-1.24 4.85-1.9 6.11-1.02 1.77-2.83 3.67-5.45 5.7zm17.64 2.09c-0.15 0.83-0.32 2.03-0.5 3.63-0.18 2.03-0.29 4.84-0.34 8.43 0 4.12-0.04 7-0.13 8.63-0.18 3.5-1.13 7.15-2.86 10.95-0.33 0.71-0.63 1.07-0.89 1.07-0.13 0-0.27-0.04-0.4-0.13-0.31-0.18-0.42-0.59-0.33-1.23 0.35-1.22 0.64-4.27 0.86-9.16-0.31-3.95-0.42-8.36-0.33-13.25 0.73-2.46 2-5.5 3.81-9.14 0.45-0.26 0.82-0.19 1.11 0.2zm22.22 44.77c-0.85 0.22-1.7 0.33-2.55 0.33-3.58 0-6.26-1.48-8.03-4.43-1.68-2.8-2.53-6.22-2.53-10.25 0-3.59 0.73-7.85 2.19-12.78 1.13-3.89 2.18-6.98 3.12-9.26 0.4-0.32 0.71-0.34 0.94-0.08 0.06 0.09 0.1 0.44 0.1 1.03-2.15 7.49-3.22 12.68-3.22 15.58 0 3.17 0.68 5.91 2.06 8.23 1.66 2.35 4.01 3.52 7.06 3.52 2.81 0 5.57-0.87 8.28-2.6 2.72-1.73 4.79-3.9 6.21-6.5 0.68-1.28 1.03-2.34 1.03-3.18 0-0.65-0.17-1.23-0.5-1.74-0.45-0.35-1.65-0.83-3.6-1.42-1.5-0.49-2.48-1.23-2.93-2.22-0.45-1-0.68-2.19-0.68-3.56 0-1.68 0.34-3.66 1.02-5.97 0.49-1.44 0.99-2.89 1.5-4.36 0.59-1.77 0.89-3.28 0.89-4.55 0-1.32-0.28-2.52-0.83-3.61-0.44-0.82-1.41-2.08-2.92-3.79-0.04-0.46 0.09-1.05 0.41-1.78 0.24-0.59 0.49-1.15 0.76-1.71 0.35-0.86 0.94-2.18 1.75-3.95 0.55 0.34 1.1 0.86 1.63 1.56 1.94 2.68 2.92 5.54 2.92 8.58 0 1.19-0.15 2.37-0.45 3.55-0.23 1.44-0.73 3.11-1.5 5.01-0.69 1.64-1.38 3.28-2.07 4.91-0.48 1-0.24 1.91 0.71 2.73 0.17 0.18 1.22 0.64 3.12 1.36 1.22 0.48 2.04 1.25 2.47 2.3 0.43 1.06 0.64 2.37 0.64 3.94 0 1.46-0.2 3.16-0.59 5.11-0.99 4.63-2.83 8.74-5.52 12.33-3.03 4.07-6.66 6.62-10.89 7.67zm9.53 11.81c-2.81-0.62-4.87-2.02-6.17-4.22 2.77-3.21 4.31-4.92 4.61-5.14 1.82 1.57 3.77 3.07 5.84 4.49l-4.28 4.87zm26.47-11.81c-0.85 0.22-1.7 0.33-2.55 0.33-3.58 0-6.26-1.48-8.03-4.43-1.68-2.8-2.53-6.22-2.53-10.25 0-3.59 0.73-7.85 2.19-12.78 1.13-3.89 2.18-6.98 3.12-9.26 0.4-0.32 0.71-0.34 0.94-0.08 0.06 0.09 0.1 0.44 0.1 1.03-2.15 7.49-3.22 12.68-3.22 15.58 0 3.17 0.68 5.91 2.06 8.23 1.66 2.35 4.01 3.52 7.06 3.52 2.81 0 5.57-0.87 8.28-2.6 2.72-1.73 4.79-3.9 6.21-6.5 0.68-1.28 1.03-2.34 1.03-3.18 0-0.65-0.17-1.23-0.5-1.74-0.45-0.35-1.65-0.83-3.6-1.42-1.5-0.49-2.48-1.23-2.93-2.22-0.45-1-0.68-2.19-0.68-3.56 0-1.68 0.34-3.66 1.02-5.97 0.49-1.44 0.99-2.89 1.5-4.36 0.59-1.77 0.89-3.28 0.89-4.55 0-1.32-0.28-2.52-0.83-3.61-0.44-0.82-1.41-2.08-2.92-3.79-0.04-0.46 0.09-1.05 0.41-1.78 0.24-0.59 0.49-1.15 0.76-1.71 0.35-0.86 0.94-2.18 1.75-3.95 0.55 0.34 1.1 0.86 1.63 1.56 1.94 2.68 2.92 5.54 2.92 8.58 0 1.19-0.15 2.37-0.45 3.55-0.23 1.44-0.73 3.11-1.5 5.01-0.69 1.64-1.38 3.28-2.07 4.91-0.48 1-0.24 1.91 0.71 2.73 0.17 0.18 1.22 0.64 3.12 1.36 1.22 0.48 2.04 1.25 2.47 2.3 0.43 1.06 0.64 2.37 0.64 3.94 0 1.46-0.2 3.16-0.59 5.11-0.99 4.63-2.83 8.74-5.52 12.33-3.03 4.07-6.66 6.62-10.89 7.67zm9.53 11.81c-2.81-0.62-4.87-2.02-6.17-4.22 2.77-3.21 4.31-4.92 4.61-5.14 1.82 1.57 3.77 3.07 5.84 4.49l-4.28 4.87zm43.32-59.5c-1.27 0.69-3.13 1.79-5.58 3.3-1.66 1.16-3.18 2.63-4.55 4.4 0.41 0.28 1.05 0.67 1.89 1.17 2.24 1.27 3.33 2.64 3.28 4.11-0.04 1.6-1.54 3.54-4.48 5.82-0.82 0.43-2.02 0.79-3.61 1.06-1.87 0.34-3.1 0.59-3.69 0.77-2.17 0.53-4.18 1.58-6.05 3.15-1.85 1.58-3.14 3.4-3.87 5.47-0.49 2.68-0.7 7.03-0.61 13.06 0.09 5.44 0.12 9.99 0.08 13.67 0 1.64-0.39 3.79-1.17 6.44 0 0.16-0.09 0.3-0.27 0.44l-0.06 0.06c-0.28 0.04-0.55-0.05-0.83-0.26-0.04-1.68-0.02-4.25 0.06-7.71l-0.53-12.58c-0.09-1.57-0.12-2.98-0.12-4.21 0-8.48 2.07-14.76 6.23-18.83 1.99-1.99 4.55-3.85 7.7-5.58 1.4-2.41 2.82-4.82 4.28-7.2 1.73-2.85 3.45-5.08 5.16-6.68 2.05-1.9 4.32-3.37 6.8-4.42 0.72-0.31 1.39-0.4 2-0.26 0 0 0.26 0.33 0.26 0.33-0.55 1-1.32 2.49-2.32 4.48zm-4.35 38.92c-1.65-0.78-3.48-2.08-5.51-3.89 0 0-3.4 3.95-3.4 3.95-2.81-0.68-4.8-2.16-5.96-4.42 2.75-3.36 4.27-5.17 4.54-5.43 1.6 1.34 3.39 2.7 5.38 4.07 0 0 4.08-4.28 4.08-4.28 2.61 2.17 4.58 3.73 5.92 4.69-2.34 2.41-4.02 4.18-5.05 5.31zm17.28-36c-0.15 0.83-0.32 2.03-0.5 3.63-0.18 2.03-0.29 4.84-0.34 8.43 0 4.12-0.04 7-0.13 8.63-0.18 3.5-1.13 7.15-2.86 10.95-0.33 0.71-0.63 1.07-0.89 1.07-0.13 0-0.27-0.04-0.4-0.13-0.31-0.18-0.42-0.59-0.33-1.23 0.35-1.22 0.64-4.27 0.86-9.16-0.31-3.95-0.42-8.36-0.33-13.25 0.73-2.46 2-5.5 3.81-9.14 0.45-0.26 0.82-0.19 1.11 0.2z" stroke="#000"/>
</svg>
